<svg width="170" height="174" viewBox="0 0 170 174" fill="none" xmlns="http://www.w3.org/2000/svg">
<g clip-path="url(#clip0_639_7231)">
<path d="M117.801 21.5721C118.201 18.8721 120.601 16.7721 123.301 16.1721C125.901 15.5721 128.701 16.0721 131.301 16.9721C134.201 17.9721 136.901 19.4721 139.001 21.7721C141.101 23.9721 142.401 26.9721 142.301 30.0721C142.101 32.9721 140.701 35.7721 141.501 38.5721C142.101 40.6721 143.901 42.1721 145.601 43.4721C147.401 44.7721 149.301 45.8721 150.501 47.7721C151.701 49.5721 151.901 52.2721 150.301 53.7721C148.901 55.0721 146.301 55.1721 145.701 57.0721C145.301 58.1721 146.001 59.3721 146.301 60.5721C147.001 62.9721 146.501 65.6721 145.101 67.8721C143.801 70.0721 141.701 71.6721 139.501 72.8721C135.601 75.0721 130.801 76.0721 126.701 74.3721C124.701 73.4721 123.001 71.9721 121.701 70.2721C119.501 67.2721 118.601 63.5721 118.401 59.9721C118.201 56.2721 118.601 52.6721 119.101 49.0721" fill="#263238"/>
<path d="M116.398 64.9709C119.798 65.8709 123.598 65.1709 126.298 62.9709C129.098 60.8709 130.698 57.3709 130.598 53.8709C130.498 50.5709 129.098 47.2709 130.098 44.1709C130.798 42.0709 132.598 40.3709 133.198 38.2709C134.098 35.0709 132.098 31.7709 130.298 28.9709C129.098 27.1709 127.898 25.3709 126.198 24.0709C124.498 22.6709 122.298 21.8709 120.198 22.2709" fill="#263238"/>
<path d="M86.2988 22.5703C86.4988 25.0703 84.8988 27.2703 83.1988 29.0703C81.5988 30.8703 79.6988 32.8703 79.3988 35.2703C78.7988 39.5703 82.9988 43.6703 82.0988 47.8703C81.5988 50.1703 79.6988 51.9703 79.3988 54.3703C79.0988 56.5703 80.2988 58.7703 81.7988 60.5703C83.2988 62.2703 85.0988 63.6703 86.3988 65.5703C86.3988 65.5703 89.0988 70.0703 97.5988 67.1703" fill="#263238"/>
<path d="M124.2 26.3727C124.3 24.1727 122.2 22.3727 120.1 21.5727C118 20.7727 115.7 20.4727 113.9 19.1727C112.3 18.0727 111.2 16.3727 109.8 14.9727C106.4 11.4727 101.1 10.0727 96.4003 11.3727C91.7003 12.6727 87.9003 16.5727 86.7003 21.2727C85.9003 24.4727 86.4003 28.1727 89.0003 30.3727C91.9003 32.8727 96.2003 32.2727 100 31.4727C103.7 30.6727 107.9 29.9727 111.1 32.1727C113 33.4727 114.1 35.6727 115.2 37.6727C116.3 39.6727 117.8 41.6727 120 42.4727C122.2 43.1727 125.1 41.9727 125.2 39.6727" fill="#263238"/>
<path d="M115.398 26.7705C117.298 26.9705 118.798 28.6705 118.698 30.5705L116.498 81.0705C116.398 87.0705 107.698 90.3705 101.298 90.2705C94.8984 90.0705 94.5984 86.9705 94.5984 81.2705C94.4984 71.7705 94.4984 68.2705 94.4984 68.2705C94.4984 68.2705 86.3984 66.8705 84.6984 56.2705C83.8984 50.9705 84.1984 42.3705 84.5984 35.2705C84.9984 28.8705 89.2984 21.0705 95.5984 21.7705L115.398 26.7705Z" fill="#F2B79C"/>
<path d="M86.3984 42.2695C86.3984 42.9695 86.9984 43.5695 87.6984 43.6695C88.3984 43.6695 89.0984 43.1695 89.0984 42.4695C89.0984 41.7695 88.4984 41.1695 87.7984 41.0695C87.0984 40.9695 86.4984 41.5695 86.3984 42.2695Z" fill="#263238"/>
<path d="M86.0997 38.5719C86.2997 38.7719 87.2997 37.9719 88.7997 37.9719C90.2997 37.9719 91.2997 38.6719 91.4997 38.5719C91.5997 38.4719 91.3997 38.1719 90.8997 37.8719C90.3997 37.5719 89.6997 37.1719 88.6997 37.1719C87.7997 37.1719 86.9997 37.4719 86.5997 37.8719C86.1997 38.1719 85.9997 38.5719 86.0997 38.5719Z" fill="#263238"/>
<path d="M100.102 42.4695C100.102 43.1695 100.702 43.7695 101.402 43.8695C102.102 43.8695 102.802 43.3695 102.802 42.6695C102.802 41.9695 102.202 41.3695 101.502 41.2695C100.702 41.2695 100.102 41.7695 100.102 42.4695Z" fill="#263238"/>
<path d="M100.801 39.3727C101.001 39.5727 102.001 38.7727 103.501 38.7727C105.001 38.7727 106.001 39.4727 106.201 39.3727C106.301 39.2727 106.101 38.9727 105.601 38.6727C105.101 38.3727 104.401 37.9727 103.401 37.9727C102.501 37.9727 101.701 38.2727 101.301 38.6727C100.901 38.9727 100.801 39.2727 100.801 39.3727Z" fill="#263238"/>
<path d="M95.5016 50.9717C95.5016 50.8717 94.6016 50.7717 93.1016 50.5717C92.7016 50.5717 92.4017 50.4717 92.3017 50.1717C92.2017 49.8717 92.4016 49.4717 92.6016 49.0717C93.0016 48.1717 93.3016 47.1717 93.7016 46.2717C95.2016 42.1717 96.4016 38.8717 96.2016 38.7717C96.0016 38.6717 94.6016 41.9717 93.1016 45.9717C92.7016 46.9717 92.4016 47.9717 92.0016 48.8717C91.9016 49.2717 91.6017 49.7717 91.8017 50.3717C91.9017 50.6717 92.2017 50.8717 92.4017 50.8717C92.6017 50.9717 92.9016 50.9717 93.0016 50.9717C94.6016 50.9717 95.5016 50.9717 95.5016 50.9717Z" fill="#263238"/>
<path d="M94.3984 68.2727C94.3984 68.2727 101.498 68.7727 108.598 64.4727C108.598 64.4727 104.998 71.7727 94.3984 70.7727V68.2727Z" fill="#EB996E"/>
<path d="M100.199 35.7703C100.299 36.1703 101.799 35.9703 103.499 36.1703C105.199 36.3703 106.599 36.8703 106.799 36.4703C106.899 36.2703 106.699 35.9703 106.099 35.5703C105.499 35.1703 104.699 34.7703 103.599 34.6703C102.599 34.5703 101.599 34.6703 100.999 34.9703C100.499 35.2703 100.099 35.5703 100.199 35.7703Z" fill="#263238"/>
<path d="M86.3005 35.3711C86.6005 35.6711 87.7005 35.3711 89.1005 35.3711C90.5005 35.2711 91.6005 35.5711 91.9005 35.2711C92.0005 35.0711 91.8005 34.7711 91.3005 34.4711C90.8005 34.1711 90.0005 33.8711 89.0005 33.8711C88.1005 33.8711 87.2005 34.1711 86.8005 34.5711C86.3005 34.8711 86.2005 35.1711 86.3005 35.3711Z" fill="#263238"/>
<path d="M122.798 61.7727C119.898 62.3727 116.698 61.4727 114.498 59.4727C112.298 57.4727 111.198 54.3727 111.598 51.3727C111.898 48.7727 113.298 46.0727 112.398 43.6727C111.198 40.3727 106.598 39.3727 105.398 36.1727C104.698 34.2727 105.298 32.0727 104.498 30.1727C103.698 28.4727 101.898 27.3727 100.098 26.7727C98.2981 26.1727 96.3981 25.6727 94.8981 24.4727C93.3981 23.2727 92.4981 21.0727 93.3981 19.4727C101.298 20.3727 109.098 22.2727 116.598 25.0727C118.298 25.6727 120.198 26.4727 121.198 28.0727C122.298 29.6727 122.198 31.7727 122.098 33.7727C121.698 43.2727 121.198 52.8727 120.798 62.3727" fill="#263238"/>
<path d="M128.4 27.2701C128.4 27.2701 128.5 27.3701 128.6 27.6701C128.7 27.9701 128.6 28.4701 128.2 28.9701C127.8 29.4701 127.2 29.8701 126.3 29.9701C125.4 29.9701 124.5 29.5701 123.6 29.1701C122.7 28.6701 121.7 28.2701 120.5 28.2701C119.3 28.1701 118.1 28.3701 116.7 28.5701C115.4 28.7701 114 29.0701 112.5 29.0701C111 29.0701 109.3 28.6701 108.1 27.4701C106.9 26.3701 106.2 24.8701 105.6 23.5701C105 22.2701 104.4 20.9701 103.6 19.9701C102 17.8701 99.4 17.2701 97.5 17.7701C95.6 18.2701 94.4 19.5701 93.8 20.4701C93.2 21.4701 93.1 22.0701 93 22.0701C93 22.0701 93 21.8701 93.1 21.5701C93.2 21.2701 93.3 20.8701 93.6 20.3701C94.2 19.3701 95.3 17.9701 97.4 17.3701C98.4 17.0701 99.6 17.0701 100.8 17.4701C102 17.7701 103.2 18.5701 104 19.6701C104.9 20.7701 105.5 22.0701 106.1 23.3701C106.7 24.6701 107.4 26.0701 108.5 27.0701C109.6 28.1701 111.1 28.5701 112.5 28.5701C113.9 28.5701 115.3 28.2701 116.7 28.0701C118 27.8701 119.3 27.6701 120.6 27.7701C121.8 27.8701 122.9 28.2701 123.8 28.7701C124.7 29.2701 125.5 29.5701 126.3 29.5701C127.1 29.5701 127.7 29.1701 128 28.7701C128.4 28.3701 128.5 27.9701 128.5 27.6701C128.5 27.3701 128.4 27.2701 128.4 27.2701Z" fill="#455A64"/>
<path d="M129.599 28.2703C129.499 28.3703 127.799 25.6703 124.599 23.8703C121.399 21.9703 118.199 21.9703 118.199 21.7703C118.199 21.6703 118.999 21.6703 120.199 21.7703C121.399 21.9703 123.099 22.3703 124.799 23.3703C126.499 24.3703 127.699 25.5703 128.499 26.5703C129.299 27.4703 129.699 28.2703 129.599 28.2703Z" fill="#455A64"/>
<path d="M117.701 21.1718C117.701 21.1718 117.701 21.2717 117.601 21.4717C117.501 21.6717 117.301 21.9718 116.901 22.1718C116.201 22.6718 114.901 23.1717 113.401 22.9717C111.801 22.7717 110.201 21.6718 108.801 20.2718C107.401 18.8718 106.001 17.0717 104.101 15.9717C102.101 14.8717 99.9008 14.6718 98.0008 15.1718C96.1008 15.6718 94.7008 16.7717 93.7008 17.9717C92.8008 19.1717 92.3008 20.2718 92.1008 21.0718C91.9008 21.8718 91.8008 22.3717 91.8008 22.3717C91.8008 22.3717 91.8008 22.2718 91.8008 22.0718C91.8008 21.8718 91.8008 21.4718 91.9008 21.0718C92.1008 20.2718 92.5008 19.0718 93.4008 17.7718C94.3008 16.5718 95.8008 15.2717 97.8008 14.7717C99.8008 14.2717 102.201 14.3718 104.301 15.5718C106.401 16.7718 107.701 18.6717 109.101 19.9717C110.501 21.3717 112.001 22.4718 113.401 22.6718C114.801 22.9718 116.101 22.5718 116.701 22.0718C117.401 21.5718 117.601 21.1718 117.701 21.1718Z" fill="#455A64"/>
<path d="M117.199 66.3703C117.199 66.3703 117.399 66.4703 117.699 66.4703C117.999 66.5703 118.499 66.5703 119.099 66.5703C120.299 66.5703 122.099 66.3703 124.099 65.4703C126.099 64.5703 128.199 62.6703 129.499 60.0703C130.799 57.4703 131.299 54.0703 130.399 50.7703C129.999 49.1703 129.499 47.5703 129.499 46.0703C129.399 44.5703 129.899 43.1703 130.599 41.9703C131.299 40.7703 131.999 39.4703 132.199 38.1703C132.499 36.8703 132.499 35.6703 132.299 34.5703C131.899 32.3703 130.899 30.7703 130.099 29.8703C129.699 29.3703 129.299 29.0703 129.099 28.8703C128.799 28.6703 128.699 28.5703 128.699 28.5703C128.699 28.5703 129.199 29.0703 129.899 29.9703C130.599 30.8703 131.499 32.4703 131.799 34.5703C131.999 35.5703 131.899 36.7703 131.599 37.9703C131.299 39.1703 130.599 40.3703 129.899 41.5703C129.599 42.1703 129.199 42.8703 128.999 43.6703C128.799 44.4703 128.699 45.2703 128.699 46.0703C128.799 47.6703 129.299 49.2703 129.599 50.8703C130.399 53.9703 129.999 57.1703 128.799 59.7703C127.599 62.2703 125.599 64.0703 123.799 65.0703C121.899 66.0703 120.199 66.2703 118.999 66.3703C117.899 66.3703 117.199 66.2703 117.199 66.3703Z" fill="#455A64"/>
<path d="M136.001 19.2723C136.001 19.1723 135.401 18.6723 134.201 18.3723C133.001 17.9723 131.101 17.8723 129.301 18.7723C127.501 19.5723 126.301 21.0723 125.801 22.2723C125.301 23.4723 125.301 24.2723 125.301 24.2723C125.401 24.2723 125.601 23.5723 126.201 22.4723C126.801 21.4723 127.901 20.0723 129.601 19.3723C131.301 18.5723 133.001 18.6723 134.201 18.8723C135.301 18.9723 136.001 19.3723 136.001 19.2723Z" fill="#455A64"/>
<path d="M128.201 25.9724C128.201 25.9724 128.201 25.7724 128.201 25.2724C128.201 24.8724 128.301 24.1724 128.701 23.3724C129.101 22.6724 129.801 21.8724 130.901 21.2724C132.001 20.7724 133.401 20.5724 134.801 21.1724C136.201 21.7724 137.401 22.9724 138.301 24.4724C139.101 26.0724 139.501 27.9724 139.401 29.9724C139.301 31.9724 138.901 34.0724 138.401 36.2724C137.901 38.4724 137.501 40.7724 137.601 43.1724C137.701 45.5724 138.601 47.8724 139.401 49.8724C140.301 51.9724 141.201 53.8724 141.701 55.8724C142.301 57.7724 142.501 59.7724 142.201 61.4724C141.901 63.2724 141.401 64.8724 140.701 66.2724C139.401 69.0724 137.801 71.0724 136.801 72.4724C136.301 73.0724 135.901 73.6724 135.601 74.0724C135.301 74.4724 135.201 74.6724 135.201 74.6724C135.201 74.6724 135.401 74.4724 135.701 74.1724C136.001 73.8724 136.401 73.2724 137.001 72.6724C138.101 71.2724 139.701 69.3724 141.101 66.5724C141.801 65.1724 142.401 63.5724 142.701 61.6724C143.001 59.8724 142.801 57.7724 142.301 55.7724C141.701 53.7724 140.801 51.7724 140.001 49.7724C139.201 47.6724 138.401 45.5724 138.301 43.2724C138.101 38.5724 140.001 34.2724 140.101 30.0724C140.201 27.9724 139.801 25.9724 138.901 24.2724C138.001 22.6724 136.601 21.3724 135.101 20.7724C133.601 20.1724 132.001 20.3724 130.901 20.9724C129.801 21.5724 129.001 22.4724 128.601 23.2724C128.201 24.0724 128.201 24.7724 128.201 25.2724C128.101 25.7724 128.201 25.9724 128.201 25.9724Z" fill="#455A64"/>
<path d="M96.1008 54.4719C96.3008 55.0719 96.6008 55.7719 97.0008 56.2719C97.4008 56.7719 98.0008 57.1719 98.7008 57.2719C99.4008 57.2719 100.101 56.8719 100.501 56.2719C100.901 55.6719 101.001 54.9719 101.001 54.1719C101.001 53.5719 100.701 52.7719 100.001 52.6719C99.7008 52.6719 99.5008 52.7719 99.2008 52.8719C98.1008 53.3719 96.9008 53.7719 95.8008 54.2719" fill="#EB996E"/>
<path d="M97.3992 57.2718C97.3992 57.1718 98.1992 57.4718 99.1992 57.0718C99.6992 56.8718 100.299 56.4718 100.599 55.8718C100.899 55.2718 100.999 54.3718 100.599 53.6718C100.499 53.4718 100.399 53.2718 100.299 53.1718C100.199 53.0718 100.199 53.0718 99.9992 53.0718C99.8992 53.0718 99.5992 53.1718 99.4992 53.2718C99.2992 53.3718 99.0992 53.4718 98.8992 53.4718C98.1992 53.7718 97.4992 53.9718 96.9992 54.2718C95.8992 54.6718 95.1992 54.8718 95.1992 54.8718C95.1992 54.7718 95.7992 54.4718 96.8992 53.9718C97.3992 53.6718 98.0992 53.3718 98.7992 53.0718C98.9992 52.9718 99.1992 52.8718 99.2992 52.8718C99.4992 52.7718 99.5992 52.6718 99.8992 52.5718C99.9992 52.5718 100.199 52.4718 100.399 52.5718C100.599 52.6718 100.699 52.7718 100.799 52.8718C100.999 53.0718 101.099 53.2718 101.199 53.4718C101.599 54.3718 101.499 55.3718 101.099 56.1718C100.699 56.9718 99.9992 57.3718 99.3992 57.5718C98.7992 57.7718 98.2992 57.6718 97.8992 57.6718C97.4992 57.4718 97.3992 57.2718 97.3992 57.2718Z" fill="#263238"/>
<path d="M73.4006 46.2728C73.3006 46.3728 71.4006 45.6728 69.0006 44.5728C66.6006 43.4728 64.7006 42.4728 64.8006 42.3728C64.9006 42.2728 66.8006 42.9728 69.2006 44.0728C71.5006 45.1728 73.4006 46.1728 73.4006 46.2728Z" fill="#455A64"/>
<path d="M59.2991 66.6712C58.2991 66.6712 55.8991 68.0712 53.8991 70.7712L53.7991 70.8712C52.3991 72.6712 51.0991 67.5712 50.8991 65.5712C50.6991 64.3712 49.3991 63.5712 48.1991 63.9712L41.7991 66.9712L39.8991 67.0712C38.9991 67.4712 38.3991 68.3712 38.6991 69.3712L41.7991 79.5712L41.8991 82.3712L54.6991 84.0712L54.8991 77.1712C55.0991 76.3712 55.2991 75.3712 55.6991 74.3712C55.9991 73.3712 56.4991 72.4712 57.0991 71.6712C57.7991 70.7712 58.6991 69.7712 59.3991 69.1712C59.4991 69.1712 59.4991 69.0712 59.5991 69.0712C59.7991 68.9712 59.8991 68.8712 59.9991 68.7712C60.6991 67.8712 60.2991 66.6712 59.2991 66.6712Z" fill="#F2B79C"/>
<path d="M59.1015 35.3709C59.1015 35.3709 51.6015 33.9709 40.8015 24.0709C30.0015 14.2709 24.6015 0.970919 23.3015 1.07092C22.0015 1.17092 16.3015 -1.22908 6.30149 22.2709C-3.69851 45.8709 0.701485 51.1709 2.80148 51.0709C4.90148 50.9709 19.3015 46.5709 28.3015 47.2709C37.4015 48.0709 49.1015 52.3709 49.1015 52.3709L59.1015 35.3709Z" fill="#FE7209"/>
<path d="M75.2984 47.5703L72.8984 52.4703L71.7984 54.6703C70.2984 57.6703 66.6984 59.0703 63.5984 57.6703L47.3984 52.5703L56.1984 31.0703L72.3984 39.1703C75.5984 40.6703 76.8984 44.4703 75.2984 47.5703Z" fill="#263238"/>
<path d="M66.2992 55.5711L61.4992 65.7711L58.8992 65.1711L42.5992 79.1711L37.6992 70.1711C37.6992 70.1711 47.3992 65.6711 49.1992 62.0711C50.8992 58.4711 48.7992 57.7712 48.7992 57.7712L53.2992 52.3711L66.2992 55.5711Z" fill="#263238"/>
<path d="M7.1984 22.6712C1.8984 35.4712 -0.201605 46.7712 2.5984 47.9712C5.3984 49.1712 11.9983 39.7712 17.2983 26.9712C22.5983 14.1712 24.6983 2.87122 21.8983 1.77122C19.0984 0.571224 12.4984 9.97123 7.1984 22.6712Z" fill="#263238"/>
<path d="M76.9 54.5719L72.5 53.2719L75.1 48.1719L78.4 50.0719L76.9 54.5719Z" fill="#455A64"/>
<g opacity="0.3">
<path d="M51.6992 54.2695L63.5992 61.3695L64.9992 58.4695L51.6992 54.2695Z" fill="black"/>
</g>
<path d="M72.1 49.3728C72 49.4728 69.8 48.7728 67.2 47.6728C64.6 46.5728 62.5 45.5728 62.5 45.3728C62.6 45.2728 64.7 45.9728 67.4 47.0728C70.1 48.2728 72.2 49.2728 72.1 49.3728Z" fill="#455A64"/>
<path d="M70.4991 52.671C70.4991 52.771 69.9991 52.671 69.0991 52.371C68.6991 52.271 68.1991 52.071 67.5991 51.971C67.0991 51.771 66.4991 51.571 65.8991 51.271C63.4991 50.271 61.5991 49.171 61.6991 49.071C61.7991 48.871 63.6991 49.771 66.0991 50.771C66.6991 51.071 67.2991 51.271 67.7991 51.471C68.2991 51.671 68.7991 51.871 69.1991 51.971C69.9991 52.371 70.4991 52.571 70.4991 52.671Z" fill="#455A64"/>
<path d="M18.7001 19.57C18.7001 19.57 12.1001 15.77 8.80006 24.57C5.50006 33.47 12.4001 34.67 12.4001 34.67C15.1001 30.37 17.2001 25.27 18.7001 19.57Z" fill="#FAFAFA"/>
<path d="M25.2992 8.97173C25.2992 8.97173 25.2992 9.57173 25.0992 10.6717C24.8992 11.7717 24.6992 13.2717 24.2992 15.2717C24.0992 16.1717 23.7992 17.2717 23.4992 18.3717C23.3992 18.9717 23.1992 19.4717 22.9992 20.0717C22.8992 20.3717 22.7992 20.6717 22.7992 20.9717C22.6992 21.2717 22.5992 21.5717 22.4992 21.8717C22.0992 23.0717 21.5992 24.3717 21.0992 25.6717C20.9992 25.9717 20.8992 26.3717 20.6992 26.6717C20.5992 26.9717 20.3992 27.3717 20.2992 27.6717C19.9992 28.3717 19.6992 28.9717 19.3992 29.6717C19.0992 30.3717 18.7992 31.0717 18.4992 31.6717C18.2992 31.9717 18.1992 32.3717 17.9992 32.6717C17.7992 32.9717 17.6992 33.2717 17.4992 33.5717C16.7992 34.7717 16.1992 35.9717 15.4992 37.1717C15.2992 37.4717 15.1992 37.7717 14.9992 37.9717C14.7992 38.2717 14.6992 38.4717 14.4992 38.7717C14.1992 39.2717 13.7992 39.7717 13.4992 40.2717C12.8992 41.2717 12.2992 42.0717 11.6992 42.9717C10.4992 44.4717 9.49922 45.7717 8.79922 46.5717C8.09922 47.3717 7.69922 47.8717 7.69922 47.8717C7.69922 47.8717 7.99922 47.3717 8.69922 46.4717C9.39922 45.5717 10.2992 44.2717 11.4992 42.7717C11.9992 41.9717 12.5992 41.0717 13.1992 40.0717C13.4992 39.5717 13.7992 39.0717 14.1992 38.5717C14.3992 38.2717 14.4992 38.0717 14.6992 37.7717C14.8992 37.4717 14.9992 37.1717 15.1992 36.9717C15.7992 35.8717 16.4992 34.6717 17.0992 33.4717C17.2992 33.1717 17.3992 32.8717 17.5992 32.5717C17.7992 32.2717 17.8992 31.9717 18.0992 31.5717C18.3992 30.8717 18.6992 30.2717 18.9992 29.5717C19.2992 28.8717 19.5992 28.2717 19.8992 27.5717C19.9992 27.2717 20.1992 26.9717 20.2992 26.5717C20.3992 26.2717 20.4992 25.8717 20.6992 25.5717C21.1992 24.2717 21.5992 22.9717 22.0992 21.7717C22.1992 21.4717 22.2992 21.1717 22.3992 20.8717C22.4992 20.5717 22.5992 20.2717 22.5992 19.9717C22.7992 19.3717 22.8992 18.7717 23.0992 18.2717C23.3992 17.0717 23.6992 16.0717 23.9992 15.0717C24.3992 13.1717 24.6992 11.6717 24.9992 10.5717C25.1992 9.47173 25.2992 8.87173 25.2992 8.97173Z" fill="#263238"/>
<path d="M46.0014 62.1727C45.3014 62.4727 45.0015 63.2727 45.2015 63.9727C45.7015 65.3727 46.5014 67.5727 47.1014 68.8727C47.3014 69.2727 47.5014 69.7727 47.8014 70.0727C48.1014 70.3727 48.6014 70.5727 49.1014 70.3727C49.6014 70.1727 49.8014 69.6727 49.8014 69.1727C49.8014 68.6727 49.7014 68.1727 49.5014 67.6727C49.1014 66.3727 48.3015 64.3727 47.7015 62.7727C47.5015 62.1727 46.7014 61.7727 46.0014 62.1727Z" fill="#F2B79C"/>
<path d="M44.0014 64.6697C43.3014 64.9697 43.0015 65.7697 43.2015 66.4697C43.7015 67.8697 44.5014 70.0697 45.1014 71.3697C45.3014 71.7697 45.5014 72.2697 45.8014 72.5697C46.1014 72.8697 46.6014 73.0697 47.1014 72.8697C47.6014 72.6697 47.8014 72.1697 47.8014 71.6697C47.8014 71.1697 47.7014 70.6697 47.5014 70.1697C47.1014 68.8697 46.3015 66.8697 45.7015 65.2697C45.6015 64.7697 44.7014 64.3697 44.0014 64.6697Z" fill="#F2B79C"/>
<path d="M42.1015 66.3697C41.5015 66.6697 41.2015 67.3697 41.4015 67.9697C41.8015 69.1697 42.6015 71.0697 43.1015 72.2697C43.3015 72.6697 43.5015 72.9697 43.8015 73.2697C44.1015 73.5697 44.5015 73.6697 44.9015 73.5697C45.3015 73.4697 45.5015 72.9697 45.6015 72.5697C45.6015 72.1697 45.5015 71.6697 45.4015 71.2697C45.0015 70.1697 44.4015 68.4697 43.8015 67.0697C43.5015 66.3697 42.8015 66.0697 42.1015 66.3697Z" fill="#F2B79C"/>
<path d="M39.6992 66.8703C39.0992 67.1703 38.7992 67.8703 38.9992 68.4703C39.4992 69.6703 40.1992 71.5703 40.6992 72.7703C40.8992 73.1703 41.0992 73.5703 41.3992 73.7703C41.6992 74.0703 42.1992 74.1703 42.4992 74.0703C42.8992 73.9703 43.0992 73.4703 43.1992 73.0703C43.1992 72.6703 43.0992 72.1703 42.9992 71.7703C42.5992 70.6703 41.9992 68.9703 41.3992 67.5703C40.9992 66.9703 40.2992 66.6703 39.6992 66.8703Z" fill="#F2B79C"/>
<path d="M47.6989 70.1711C47.5989 70.2711 46.9989 69.1711 46.3989 67.6711C45.7989 66.2711 45.3989 65.0712 45.5989 64.9712C45.6989 64.8712 46.2989 65.9712 46.8989 67.4712C47.4989 68.8712 47.7989 70.0711 47.6989 70.1711Z" fill="#EB996E"/>
<path d="M45.5987 72.2727C45.4987 72.3727 44.7987 71.0727 44.1987 69.4727C43.5987 67.8727 43.0987 66.4727 43.2987 66.4727C43.4987 66.4727 44.0987 67.6727 44.6987 69.2727C45.2987 70.8727 45.6987 72.2727 45.5987 72.2727Z" fill="#EB996E"/>
<path d="M43.2984 72.5727C43.1984 72.6727 42.4984 71.5727 41.8984 70.1727C41.2984 68.7727 40.9984 67.4727 41.1984 67.4727C41.2984 67.4727 41.7984 68.5727 42.3984 69.9727C42.9984 71.3727 43.4984 72.4727 43.2984 72.5727Z" fill="#EB996E"/>
<path d="M137.098 268.871L130.298 214.371C134.698 204.071 136.298 193.771 134.998 187.271C135.098 187.971 135.098 188.771 134.898 186.871C133.798 175.571 123.998 167.171 123.998 167.171L120.698 153.371L78.6984 159.271L80.2984 182.271L53.2984 278.071L48.3984 358.871L70.2984 361.471C70.2984 361.471 78.8984 321.071 81.1984 304.171C83.2984 288.671 83.3984 276.571 83.3984 276.571L103.998 245.771C106.398 258.471 109.198 274.171 110.598 282.371C111.198 286.071 112.798 289.471 115.198 292.371L169.098 334.771V309.171C163.998 296.971 137.098 268.871 137.098 268.871Z" fill="#263238"/>
<path d="M84.3016 176.47C84.2016 176.47 83.9016 175.67 83.4016 174.17C83.0016 172.77 82.4016 170.67 82.1016 168.37C81.8016 166.07 81.6016 163.97 81.6016 162.47C81.6016 160.97 81.7016 160.07 81.8016 160.07C81.9016 160.07 81.9016 160.97 82.0016 162.47C82.1016 163.97 82.3016 166.07 82.6016 168.27C82.9016 170.57 83.4016 172.57 83.7016 173.97C84.1016 175.57 84.3016 176.47 84.3016 176.47Z" fill="#455A64"/>
<path d="M86.199 160.869C86.199 160.869 86.399 160.669 86.699 160.669C87.099 160.569 87.699 160.569 88.299 160.869C88.899 161.169 89.599 161.869 89.699 162.869C89.799 163.869 89.299 164.969 88.399 165.469C87.399 166.069 86.199 165.769 85.499 165.169C84.699 164.569 84.399 163.669 84.499 162.969C84.599 162.269 84.799 161.769 84.999 161.469C85.199 161.169 85.299 160.969 85.299 160.969C85.299 160.969 85.299 161.169 85.099 161.569C84.999 161.869 84.799 162.469 84.799 163.069C84.799 163.669 85.099 164.369 85.699 164.869C86.299 165.369 87.299 165.569 88.099 165.069C88.899 164.569 89.299 163.669 89.199 162.869C89.099 162.069 88.599 161.469 88.099 161.169C87.099 160.469 86.199 160.969 86.199 160.869Z" fill="#455A64"/>
<path d="M113.799 171.969C113.799 171.969 113.499 172.069 113.099 172.269C112.599 172.469 111.899 172.569 110.999 172.769C110.099 172.869 108.999 172.969 107.799 172.869C106.599 172.769 105.299 172.569 103.899 172.169C102.599 171.769 101.299 171.169 100.299 170.569C99.2995 169.969 98.3994 169.269 97.6994 168.569C96.9994 167.969 96.4994 167.369 96.1994 166.969C95.8994 166.569 95.6995 166.269 95.7995 166.269C95.8995 166.169 96.5994 167.069 97.8994 168.269C98.5994 168.869 99.4994 169.469 100.499 170.069C101.499 170.669 102.699 171.169 103.999 171.669C105.299 172.069 106.599 172.269 107.799 172.469C108.999 172.569 110.099 172.569 110.999 172.469C112.699 172.169 113.799 171.869 113.799 171.969Z" fill="#455A64"/>
<path d="M119.901 90.9727C120.001 90.9727 120.001 89.8727 120.301 88.2727C120.601 86.6727 121.201 84.3727 122.501 82.1727C123.701 79.9727 125.401 78.2727 127.001 77.6727C128.501 76.9727 129.601 77.3727 129.601 77.2727C129.601 77.2727 129.401 77.1727 128.901 77.0727C128.401 76.9727 127.701 77.0727 126.901 77.3727C125.201 77.9727 123.401 79.6727 122.101 81.9727C120.801 84.2727 120.201 86.5727 120.001 88.2727C119.701 89.8727 119.801 90.9727 119.901 90.9727Z" fill="#263238"/>
<path d="M116.399 74.7705L94.399 78.1705L90.499 81.5705C90.499 81.5705 76.699 108.47 76.399 113.97C76.099 119.97 79.299 130.27 79.299 130.27L76.199 154.07C75.699 156.77 77.499 159.47 78.699 159.47L116.699 154.37C121.699 153.37 123.699 150.77 123.399 147.97L122.799 142.67L138.999 88.2705C139.999 91.4705 138.499 79.5705 131.199 76.9705C128.199 75.8705 121.099 73.7705 116.399 74.7705Z" fill="#FE7209"/>
<path d="M92.6015 79.9727C92.6015 79.9727 85.8015 85.1727 79.4015 91.0727C73.0015 97.0727 55.9015 108.873 55.9015 108.873L54.7015 84.0727L41.8015 82.3727C41.8015 82.3727 35.5015 113.273 39.5015 121.873C43.5015 130.373 48.3015 130.773 61.6015 126.473C74.9015 122.173 78.7015 120.273 78.7015 120.273L92.6015 79.9727Z" fill="#FE7209"/>
<path d="M89.2005 83.6719C89.2005 83.6719 89.1005 83.7719 88.9005 84.0719C88.7005 84.3719 88.4005 84.7719 88.1005 85.2719C87.4005 86.2719 86.5005 87.7719 85.3005 89.5719C83.0005 93.2719 79.9005 98.4719 77.9005 104.872C75.9005 111.272 75.8005 117.472 76.8005 121.772C77.3005 123.872 77.9005 125.572 78.4005 126.672C78.6005 127.272 78.9005 127.672 79.0005 127.972C79.2005 128.272 79.2005 128.372 79.3005 128.372C79.3005 128.372 79.0005 127.772 78.6005 126.672C78.1005 125.572 77.6005 123.872 77.2005 121.772C76.3005 117.572 76.5005 111.472 78.5005 105.172C80.5005 98.8719 83.5005 93.6719 85.7005 89.8719C86.8005 88.0719 87.7005 86.5719 88.3005 85.4719C88.6005 84.9719 88.8005 84.5719 89.0005 84.2719C89.1005 83.7719 89.2005 83.6719 89.2005 83.6719Z" fill="#263238"/>
<path d="M127.1 76.9719C127.1 76.9719 120.3 85.9719 119.9 94.1719C119.5 102.372 132.2 151.672 132.2 151.672L143.3 196.672L157.1 191.572C157.1 191.572 153.9 159.572 153.3 155.572C152 147.272 146.6 131.172 145.8 121.772C145.1 112.472 141.6 94.4719 139.9 90.2719C138.1 86.0719 138.1 76.7719 127.1 76.9719Z" fill="#FE7209"/>
<path d="M120.5 99.1719C120.5 99.5719 120.6 99.9719 120.7 100.572C120.9 101.772 121.1 103.472 121.5 105.572C122.3 109.772 123.5 115.572 124.9 121.972C126.3 128.372 127.8 134.072 128.8 138.272C129.3 140.372 129.8 142.072 130.1 143.172C130.3 143.672 130.4 144.172 130.5 144.472C130.6 144.772 130.7 144.972 130.7 144.972C130.7 144.972 130.7 144.772 130.6 144.472C130.5 144.072 130.4 143.672 130.3 143.172C130 141.972 129.6 140.272 129.1 138.272C128.1 134.072 126.8 128.272 125.3 121.972C123.9 115.572 122.6 109.772 121.8 105.572C121.4 103.572 121.1 101.872 120.8 100.572C120.7 100.072 120.6 99.5719 120.5 99.1719Z" fill="#263238"/>
<g opacity="0.3">
<path d="M119.5 153.571C117.3 151.371 116.9 148.071 116.5 144.971C115.4 135.171 114.3 125.471 113.2 115.671C112.5 109.571 111.9 103.171 114.2 97.571C114.5 96.671 115.1 95.771 115.9 95.571C116.7 95.371 117.7 95.771 118.2 96.471C118.7 97.171 120.2 98.171 120.4 99.071C122.6 107.771 123.6 116.371 125.8 125.071C126.4 127.371 127.1 127.271 126.6 129.571C125.9 132.971 122.7 142.571 122.7 142.571C122.7 142.571 123.1 146.071 123.3 148.171C123.5 150.171 122.3 152.771 119.5 153.571Z" fill="black"/>
</g>
<path d="M121.5 103.571C121.5 103.571 121.7 103.771 122.3 104.071C122.8 104.371 123.5 104.871 124.5 105.271C125.5 105.671 126.7 106.071 128.2 106.071C129.7 105.971 131.2 105.271 132.5 104.371C133.9 103.471 135.1 102.571 136.3 101.971C137.5 101.371 138.8 101.171 139.8 101.371C140.8 101.571 141.5 102.071 141.9 102.471C142.3 102.871 142.4 103.171 142.5 103.171C142.5 103.171 142.5 102.871 142.1 102.371C141.7 101.871 141 101.271 139.9 101.071C138.8 100.771 137.4 100.971 136.1 101.571C134.8 102.171 133.5 103.071 132.2 103.971C130.9 104.871 129.5 105.571 128.1 105.671C126.7 105.771 125.5 105.471 124.6 105.071C122.7 104.171 121.6 103.471 121.5 103.571Z" fill="#FAFAFA"/>
<path d="M78.6992 102.469C78.6992 102.469 78.7992 102.569 78.8992 102.869C78.9992 103.069 79.2992 103.469 79.5992 103.769C80.2992 104.569 81.5992 105.469 83.3992 105.969C85.1992 106.469 87.4992 106.569 89.8992 106.069C92.2992 105.569 94.7992 104.569 97.4992 103.669C102.799 101.669 107.999 101.869 111.599 102.769C115.199 103.569 117.199 104.769 117.199 104.669C117.199 104.669 117.099 104.569 116.899 104.469C116.699 104.369 116.299 104.169 115.799 103.969C114.899 103.569 113.499 102.969 111.699 102.469C109.899 101.969 107.699 101.669 105.199 101.769C102.699 101.769 99.9992 102.369 97.3992 103.269C94.6992 104.169 92.1992 105.269 89.8992 105.769C87.4992 106.269 85.2992 106.269 83.5992 105.769C81.7992 105.369 80.5992 104.469 79.7992 103.769C78.9992 102.969 78.6992 102.469 78.6992 102.469Z" fill="#FAFAFA"/>
<path d="M70.5985 98.1719C70.4985 98.1719 70.3985 98.9719 70.4985 100.272C70.5985 101.572 70.9985 103.272 71.8985 105.072C72.7985 106.772 73.9985 108.172 74.9985 108.972C75.9985 109.772 76.6985 110.072 76.7985 110.072C76.7985 109.972 76.1985 109.572 75.2985 108.772C74.3985 107.972 73.2985 106.572 72.3985 104.972C71.4985 103.272 71.0985 101.572 70.8985 100.372C70.6985 98.9719 70.6985 98.1719 70.5985 98.1719Z" fill="#FAFAFA"/>
<g opacity="0.3">
<path d="M84.7016 90.2695C74.3016 100.669 65.4016 112.269 61.6016 126.469C67.5016 124.569 73.1016 122.669 76.8016 121.069C76.8016 121.069 75.7016 115.169 76.4016 111.769C77.2016 107.569 77.2016 104.069 84.7016 90.2695Z" fill="black"/>
</g>
<path d="M56.1015 108.971C56.2015 109.071 54.9015 110.271 54.0015 112.171C53.1015 114.071 52.9015 115.771 52.8015 115.771C52.7015 115.771 52.6015 113.971 53.5015 111.871C54.5015 109.971 56.0015 108.871 56.1015 108.971Z" fill="#263238"/>
</g>
<defs>
<clipPath id="clip0_639_7231">
<rect width="170" height="174" fill="white"/>
</clipPath>
</defs>
</svg>
