<svg width="178" height="174" viewBox="0 0 178 174" fill="none" xmlns="http://www.w3.org/2000/svg">
<g clip-path="url(#clip0_313_3532)">
<path d="M6.46484 158.402L9.53381 173.996H25.5651L28.9571 158.645L6.46484 158.402Z" fill="#FE7209"/>
<path d="M4.60547 156.021V158.202C4.60547 158.929 5.21119 159.535 5.93805 159.535H29.1572C29.8841 159.535 30.4898 158.929 30.4898 158.202V156.021C30.4898 155.374 29.9648 154.809 29.2783 154.809H5.8169C5.13042 154.809 4.60547 155.374 4.60547 156.021Z" fill="#FE7209"/>
<g opacity="0.4">
<path d="M6.625 159.535L6.82691 160.626L28.2289 162.121L28.7942 159.535H6.625Z" fill="black"/>
</g>
<path d="M26.8149 166.969C26.8149 167.009 22.6556 167.09 17.5676 167.09C12.4392 167.09 8.32031 167.05 8.32031 166.969C8.32031 166.928 12.4796 166.848 17.5676 166.848C22.6556 166.848 26.8149 166.928 26.8149 166.969Z" fill="white"/>
<path d="M26.936 168.262C26.936 168.302 22.7767 168.383 17.6887 168.383C12.5603 168.383 8.44141 168.343 8.44141 168.262C8.44141 168.181 12.6007 168.141 17.6887 168.141C22.7767 168.141 26.936 168.221 26.936 168.262Z" fill="white"/>
<path d="M8.11838 154.849C8.11838 154.849 -0.926995 144.467 0.0825328 144.103C1.09206 143.74 9.12791 149.476 9.12791 149.476C9.12791 149.476 2.22273 134.125 3.59569 132.993C4.96865 131.862 12.2373 146.608 12.2373 146.608C12.2373 146.608 11.1066 125.116 12.2373 124.873C13.3679 124.631 17.4868 146.366 17.4868 146.366C17.4868 146.366 23.6247 126.489 25.4015 126.489C27.1379 126.489 23.5036 145.598 23.5036 145.598C23.5036 145.598 30.7722 133.357 31.9029 134.973C33.0335 136.589 26.7745 149.84 26.7745 149.84C26.7745 149.84 35.941 142.204 36.3044 143.214C36.6678 144.224 26.411 154.849 26.411 154.849H8.11838Z" fill="#455A64"/>
<path d="M6.82502 139.215C6.90578 139.175 8.48064 142.609 10.4189 146.851C12.3169 151.093 13.8513 154.567 13.7706 154.607C13.6898 154.648 12.1149 151.214 10.1767 146.972C8.27874 142.73 6.78464 139.256 6.82502 139.215Z" fill="#263238"/>
<path d="M14.1341 141.113C14.2148 141.113 14.4571 144.103 14.7398 147.86C14.9821 151.577 15.1436 154.607 15.1032 154.607C15.0225 154.607 14.7802 151.617 14.4975 147.86C14.2148 144.143 14.0533 141.154 14.1341 141.113Z" fill="#263238"/>
<path d="M24.1914 131.5C24.1914 131.5 24.1914 131.581 24.151 131.742C24.1106 131.944 24.0299 132.146 23.9491 132.429C23.7472 133.035 23.5049 133.884 23.1819 134.934C22.5358 137.035 21.6878 139.984 20.7994 143.216C19.911 146.488 19.2245 149.437 18.6996 151.578C18.4573 152.629 18.2554 153.477 18.0938 154.124C18.0131 154.406 17.9727 154.649 17.9323 154.81C17.8919 154.972 17.8516 155.053 17.8516 155.053C17.8516 155.053 17.8516 154.972 17.8919 154.81C17.9323 154.608 17.9727 154.406 18.0131 154.124C18.1342 153.518 18.2958 152.629 18.538 151.578C18.9822 149.437 19.7091 146.448 20.5571 143.175C21.4455 139.903 22.2935 136.994 22.98 134.894C23.303 133.843 23.5857 132.995 23.828 132.429C23.9087 132.146 23.9895 131.944 24.0703 131.742C24.151 131.581 24.1914 131.5 24.1914 131.5Z" fill="#263238"/>
<path d="M28.5522 142.567C28.5925 142.607 26.8562 145.233 24.6352 148.425C22.4142 151.616 20.5567 154.161 20.5163 154.121C20.4759 154.081 22.2123 151.455 24.4333 148.263C26.6542 145.112 28.4714 142.526 28.5522 142.567Z" fill="#263238"/>
<path d="M11.1476 154.605C11.1072 154.646 10.8246 154.403 10.34 154.04C9.89579 153.676 9.24969 153.111 8.60359 152.464C7.9575 151.818 7.43254 151.171 7.06911 150.727C6.70568 150.242 6.50378 149.959 6.54416 149.919C6.58454 149.879 7.55369 151.01 8.8055 152.303C10.0977 153.595 11.188 154.565 11.1476 154.605Z" fill="#263238"/>
<path d="M16.6397 150.484C16.7204 150.484 16.8416 151.454 16.9627 152.626C17.0839 153.797 17.1242 154.767 17.0435 154.767C16.9627 154.767 16.8416 153.797 16.7204 152.626C16.5993 151.454 16.5589 150.484 16.6397 150.484Z" fill="#263238"/>
<path d="M6.29743 13.5732C8.2761 3.75619 18.0887 -1.94011 27.2956 0.726242C36.341 3.3118 41.5098 13.2096 38.5216 22.1379C37.512 25.1274 35.7353 27.6322 33.5143 29.531C33.4335 29.6118 33.3528 29.6522 33.272 29.733C33.272 29.733 33.272 29.733 33.2316 29.733C29.3147 32.3993 24.5497 33.6921 19.8655 33.0861C18.2906 32.8841 16.7965 32.4801 15.4639 31.8337C8.63953 28.6018 4.80333 20.9663 6.29743 13.5732Z" fill="white"/>
<path d="M6.2984 13.5745C6.2984 13.5745 6.2984 13.6553 6.25802 13.8573C6.21763 14.0593 6.17725 14.3017 6.13687 14.6249C6.05611 15.3117 5.97535 16.3621 6.01573 17.6548C6.09649 18.988 6.33878 20.5636 6.98488 22.3412C7.63097 24.0783 8.6405 26.0175 10.2154 27.7951C10.6192 28.2395 11.023 28.6839 11.5076 29.0878C11.9518 29.5322 12.4767 29.8958 12.9613 30.2998C13.2036 30.5018 13.4862 30.6634 13.7689 30.825L14.1727 31.1078C14.3342 31.1886 14.4554 31.2694 14.6169 31.3502C14.8996 31.5118 15.2226 31.6734 15.5053 31.835C15.8283 31.9966 16.111 32.1178 16.4341 32.239C19.0185 33.1682 22.0874 33.451 25.1564 32.9258C26.6909 32.643 28.2253 32.1986 29.7194 31.5522C30.4867 31.229 31.2136 30.8654 31.9 30.421C32.2635 30.219 32.6269 29.9766 32.9499 29.7746C33.3134 29.5322 33.596 29.2494 33.9191 28.9667C36.3823 26.6639 38.2399 23.4723 38.886 19.9576C39.2494 18.18 39.2494 16.4025 39.0071 14.6653C38.9263 13.7765 38.6841 12.9685 38.4822 12.1201C38.3206 11.7161 38.1995 11.3121 38.038 10.9081C37.9572 10.7061 37.8764 10.5041 37.7957 10.3022L37.5938 9.69616C36.8669 8.16099 35.9381 6.74701 34.8075 5.57543L34.4037 5.13104L33.9595 4.72704C33.6768 4.44425 33.3941 4.16145 33.0711 3.91906C32.425 3.43426 31.8193 2.94947 31.1328 2.58588C28.4676 0.929504 25.4794 0.242715 22.7335 0.242715C22.047 0.202315 21.3606 0.323513 20.7145 0.363913C20.3914 0.363913 20.0684 0.444711 19.7453 0.52551C19.4223 0.606309 19.0992 0.646708 18.7762 0.687107C18.1704 0.808306 17.5647 0.969903 16.959 1.1719C16.6763 1.2931 16.3937 1.4143 16.111 1.53549C15.8283 1.65669 15.5457 1.73749 15.3034 1.89909C13.2036 2.94947 11.5076 4.32305 10.2557 5.69663C9.65003 6.42381 9.08469 7.0702 8.68088 7.79739C8.55974 7.95899 8.47898 8.12059 8.35783 8.28218C8.23669 8.44378 8.15593 8.60538 8.07517 8.76698C7.91364 9.09017 7.75212 9.41337 7.59059 9.69616C7.50983 9.85776 7.42907 9.97896 7.38869 10.1406C7.34831 10.3022 7.26754 10.4234 7.22716 10.5445C7.10602 10.8273 7.02526 11.0697 6.9445 11.3121C6.74259 11.7969 6.66183 12.2009 6.58106 12.5241C6.5003 12.8473 6.41954 13.1301 6.37916 13.2917C6.2984 13.4937 6.2984 13.5745 6.2984 13.5745C6.2984 13.5745 6.2984 13.4937 6.33878 13.2917C6.37916 13.1301 6.45992 12.8473 6.54068 12.5241C6.62145 12.2009 6.70221 11.7565 6.90411 11.2717C6.98488 11.0293 7.10602 10.7869 7.18678 10.5041C7.22716 10.383 7.30793 10.2214 7.34831 10.0598C7.42907 9.89816 7.46945 9.77696 7.55021 9.61536C7.71174 9.33257 7.83288 9.00937 8.03479 8.68618C8.11555 8.52458 8.19631 8.36298 8.31745 8.20139C8.4386 8.03979 8.51936 7.87819 8.6405 7.71659C9.04431 7.02981 9.60965 6.34302 10.2154 5.61583C11.4672 4.20185 13.1632 2.82827 15.3034 1.73749C15.5457 1.57589 15.8283 1.49509 16.111 1.3739C16.3937 1.2527 16.6763 1.1315 16.959 1.0103C17.5244 0.808306 18.1704 0.646708 18.7762 0.444711C19.0588 0.404312 19.3819 0.363913 19.7049 0.283114C20.028 0.242715 20.351 0.121517 20.6741 0.121517C21.3606 0.0811172 22.047 -0.0400809 22.7335 0.00031849C25.5198 0.00031849 28.5484 0.687107 31.2539 2.38388C31.9404 2.74747 32.5865 3.27267 33.2326 3.75746C33.5557 3.99985 33.8383 4.28265 34.121 4.56544L34.5652 4.96944L34.969 5.41383C36.0997 6.62581 37.0284 8.03979 37.7553 9.57496L38.038 10.1406C38.1187 10.3426 38.2399 10.5445 38.2803 10.7465C38.4418 11.1505 38.5629 11.5545 38.7244 11.9585C38.9263 12.8069 39.1686 13.6553 39.2898 14.5441C39.5321 16.2813 39.5321 18.0992 39.1686 19.9172C38.5225 23.5127 36.665 26.7447 34.1614 29.0475C33.8383 29.3302 33.5153 29.613 33.1518 29.8554C32.7884 30.0978 32.425 30.2998 32.0616 30.5422C31.3347 30.9866 30.6078 31.3502 29.8406 31.6734C28.3465 32.3198 26.7716 32.7642 25.2371 33.047C22.1278 33.5318 19.0588 33.2894 16.4341 32.3198C16.111 32.1986 15.788 32.0774 15.4649 31.9158C15.1419 31.7542 14.8592 31.5926 14.5765 31.431C14.415 31.3502 14.2939 31.2694 14.1323 31.1886L13.7285 30.9058C13.4459 30.7038 13.1632 30.5422 12.9209 30.3806C12.3959 29.9766 11.9114 29.613 11.4672 29.1686C10.9826 28.7647 10.5788 28.3203 10.175 27.8759C8.60012 26.0983 7.59059 24.1591 6.9445 22.3816C6.2984 20.604 6.09649 18.988 5.97535 17.6548C5.93497 16.3217 6.01573 15.3117 6.13687 14.6249C6.17725 14.3017 6.25802 14.0189 6.25802 13.8573C6.25802 13.6553 6.2984 13.5745 6.2984 13.5745Z" fill="#263238"/>
<path d="M35.3722 33.0893C35.4126 33.0893 35.3722 32.8469 35.4933 32.4025C35.6145 31.9582 35.8972 31.3522 36.5432 30.8674C37.149 30.3826 38.1585 30.1402 39.168 30.5038C39.6526 30.6654 40.0968 31.029 40.4602 31.4734C40.7833 31.9178 40.9852 32.4833 40.9852 33.0893C40.9852 33.6953 40.7833 34.2609 40.4602 34.7053C40.1372 35.1497 39.6526 35.4729 39.168 35.6749C38.1989 36.0385 37.149 35.7557 36.5432 35.3113C35.8972 34.8265 35.6145 34.2205 35.4933 33.7761C35.4126 33.3317 35.4126 33.0893 35.3722 33.0893C35.3722 33.0893 35.3722 33.1701 35.3722 33.2913C35.3722 33.4125 35.3722 33.5741 35.4126 33.8165C35.4933 34.2609 35.776 34.9073 36.4625 35.4325C37.1086 35.9577 38.1989 36.2809 39.2488 35.8769C39.7737 35.6749 40.2583 35.3517 40.6217 34.8669C40.9852 34.3821 41.1871 33.7357 41.1871 33.1297C41.1871 32.4833 40.9852 31.8774 40.6217 31.3926C40.2583 30.9078 39.7737 30.5442 39.2488 30.3826C38.1989 30.019 37.1086 30.3018 36.4625 30.827C35.8164 31.3522 35.5337 31.9986 35.4126 32.4429C35.3722 32.6853 35.3318 32.8469 35.3722 32.9681C35.3722 33.0085 35.3722 33.0893 35.3722 33.0893Z" fill="#263238"/>
<path d="M19.1783 16.6836C19.1783 17.532 18.4919 18.2188 17.6439 18.2188C16.7959 18.2188 16.1094 17.532 16.1094 16.6836C16.1094 15.8352 16.7959 15.1484 17.6439 15.1484C18.4919 15.1484 19.1783 15.8352 19.1783 16.6836Z" fill="#263238"/>
<path d="M24.1862 16.6836C24.1862 17.532 23.4997 18.2188 22.6517 18.2188C21.8037 18.2188 21.1172 17.532 21.1172 16.6836C21.1172 15.8352 21.8037 15.1484 22.6517 15.1484C23.4997 15.1484 24.1862 15.8352 24.1862 16.6836Z" fill="#263238"/>
<path d="M29.194 16.6836C29.194 17.532 28.5075 18.2188 27.6595 18.2188C26.8115 18.2188 26.125 17.532 26.125 16.6836C26.125 15.8352 26.8115 15.1484 27.6595 15.1484C28.5075 15.1484 29.194 15.8352 29.194 16.6836Z" fill="#263238"/>
<path d="M173.921 126.693H135.841C133.621 126.693 131.844 124.916 131.844 122.694V111.746C131.844 109.524 133.621 107.746 135.841 107.746H173.921C176.142 107.746 177.919 109.524 177.919 111.746V122.694C177.919 124.916 176.142 126.693 173.921 126.693Z" fill="white"/>
<path d="M173.922 126.693C173.922 126.653 174.366 126.734 175.134 126.492C175.537 126.37 175.982 126.128 176.426 125.764C176.87 125.36 177.314 124.835 177.597 124.108C177.718 123.744 177.839 123.34 177.839 122.936C177.839 122.492 177.839 122.048 177.839 121.563C177.839 120.634 177.839 119.583 177.839 118.492C177.839 117.402 177.839 116.19 177.839 114.937C177.839 114.291 177.839 113.645 177.839 112.998C177.839 112.352 177.88 111.665 177.758 110.978C177.476 109.645 176.426 108.393 174.972 107.989C174.245 107.787 173.478 107.867 172.67 107.827C171.863 107.827 171.055 107.827 170.248 107.827C166.977 107.827 163.464 107.827 159.789 107.827C152.439 107.827 144.323 107.827 135.802 107.827C134.753 107.827 133.743 108.271 133.016 108.999C132.289 109.726 131.885 110.736 131.885 111.746C131.885 113.806 131.885 115.866 131.885 117.846C131.885 118.856 131.885 119.826 131.885 120.836C131.885 121.32 131.885 121.805 131.885 122.29C131.885 122.775 131.885 123.26 132.047 123.704C132.289 124.593 132.895 125.401 133.662 125.926C134.026 126.168 134.47 126.37 134.914 126.451C135.358 126.572 135.802 126.572 136.287 126.572C143.636 126.572 150.299 126.572 155.872 126.613C161.444 126.613 165.967 126.653 169.077 126.653C170.611 126.653 171.822 126.653 172.67 126.653C173.074 126.653 173.397 126.653 173.599 126.653C173.841 126.693 173.922 126.693 173.922 126.693C173.922 126.693 173.801 126.693 173.599 126.693C173.397 126.693 173.074 126.693 172.67 126.693C171.863 126.693 170.651 126.693 169.077 126.693C165.967 126.693 161.444 126.694 155.872 126.734C150.299 126.734 143.677 126.734 136.287 126.774C135.843 126.774 135.358 126.774 134.874 126.653C134.43 126.532 133.945 126.37 133.541 126.088C132.734 125.562 132.128 124.714 131.845 123.744C131.724 123.26 131.684 122.775 131.684 122.29C131.684 121.805 131.684 121.32 131.684 120.836C131.684 119.866 131.684 118.856 131.684 117.846C131.684 115.826 131.684 113.806 131.684 111.746C131.684 110.695 132.087 109.605 132.855 108.837C133.622 108.069 134.672 107.625 135.762 107.625C144.283 107.625 152.359 107.625 159.748 107.625C163.423 107.625 166.936 107.625 170.207 107.625C171.015 107.625 171.822 107.625 172.63 107.625C173.034 107.625 173.397 107.625 173.801 107.625C174.205 107.625 174.609 107.665 174.972 107.787C176.466 108.191 177.597 109.524 177.839 110.897C177.92 111.261 177.92 111.584 177.92 111.948C177.92 112.271 177.92 112.635 177.92 112.958C177.92 113.604 177.92 114.25 177.92 114.897C177.92 116.149 177.92 117.321 177.92 118.452C177.92 119.543 177.92 120.593 177.92 121.522C177.92 122.007 177.92 122.452 177.92 122.896C177.88 123.34 177.799 123.744 177.678 124.108C177.395 124.835 176.951 125.401 176.466 125.805C175.982 126.168 175.537 126.411 175.134 126.532C174.73 126.653 174.407 126.693 174.205 126.693C174.043 126.693 173.922 126.693 173.922 126.693Z" fill="#263238"/>
<path d="M169.962 118.453H148.843C148.076 118.453 147.43 117.807 147.43 117.039C147.43 116.271 148.076 115.625 148.843 115.625H169.962C170.73 115.625 171.376 116.271 171.376 117.039C171.376 117.807 170.73 118.453 169.962 118.453Z" fill="#E0E0E0"/>
<path d="M142.787 120.513H140.364C139.233 120.513 138.305 119.584 138.305 118.453V116.029C138.305 114.898 139.233 113.969 140.364 113.969H142.787C143.918 113.969 144.846 114.898 144.846 116.029V118.453C144.887 119.584 143.958 120.513 142.787 120.513Z" fill="#FE7209"/>
<path d="M139.312 117.32L139.999 116.634L141.251 117.765L143.391 115.664L143.997 116.31L141.17 119.058L139.312 117.32Z" fill="white"/>
<path d="M168.794 94.251H122.921C121.184 94.251 119.73 92.8371 119.73 91.0595V62.9416C119.73 61.2044 121.144 59.75 122.921 59.75H168.794C170.53 59.75 171.984 61.164 171.984 62.9416V91.0595C171.984 92.8371 170.57 94.251 168.794 94.251Z" fill="white"/>
<path d="M168.792 94.2523C168.792 94.2523 168.833 94.2523 168.913 94.2523C168.994 94.2523 169.075 94.2523 169.236 94.2119C169.519 94.1715 169.923 94.0907 170.408 93.7675C170.892 93.4848 171.417 93 171.7 92.2324C172.023 91.4648 171.902 90.4952 171.902 89.4448C171.902 85.2029 171.902 79.0622 171.861 71.4671C171.861 69.5683 171.861 67.5888 171.861 65.488C171.861 64.9628 171.861 64.4376 171.861 63.9124C171.861 63.3872 171.902 62.862 171.78 62.3369C171.579 61.3269 170.811 60.3977 169.761 60.0341C169.236 59.8321 168.712 59.8725 168.106 59.8725C167.54 59.8725 166.975 59.8725 166.369 59.8725C165.198 59.8725 164.027 59.8725 162.856 59.8725C160.474 59.8725 158.011 59.8725 155.507 59.8725C145.452 59.8725 134.428 59.8725 122.839 59.8725C122.152 59.8725 121.425 60.1149 120.9 60.5593C120.375 61.0037 119.971 61.6097 119.85 62.2965C119.77 62.6196 119.77 62.9832 119.77 63.3468V64.3972C119.77 65.1244 119.77 65.8112 119.77 66.5384C119.77 69.3663 119.77 72.1539 119.77 74.8607C119.77 80.3146 119.77 85.6069 119.77 90.6164C119.729 91.2628 119.81 91.8688 120.093 92.394C120.375 92.9192 120.779 93.4039 121.304 93.6867C121.829 93.9695 122.394 94.1311 123 94.0907C123.606 94.0907 124.212 94.0907 124.817 94.0907C127.2 94.0907 129.501 94.0907 131.722 94.0907C136.205 94.0907 140.364 94.0907 144.16 94.0907C151.751 94.0907 157.889 94.1311 162.129 94.1311C164.27 94.1311 165.885 94.1311 167.016 94.1311C167.581 94.1311 167.985 94.1311 168.267 94.1311C168.671 94.2523 168.792 94.2523 168.792 94.2523C168.792 94.2523 168.631 94.2523 168.348 94.2523C168.065 94.2523 167.621 94.2523 167.096 94.2523C165.966 94.2523 164.31 94.2523 162.21 94.2523C157.97 94.2523 151.832 94.2523 144.241 94.2927C140.445 94.2927 136.285 94.2927 131.803 94.2927C129.582 94.2927 127.28 94.2927 124.898 94.2927C124.292 94.2927 123.687 94.2927 123.081 94.2927C122.475 94.3331 121.829 94.1715 121.304 93.8483C120.779 93.5252 120.295 93.0404 120.012 92.4748C119.729 91.9092 119.648 91.2224 119.648 90.6164C119.648 85.6069 119.648 80.3146 119.648 74.8607C119.648 72.1135 119.648 69.3259 119.648 66.5384C119.648 65.8516 119.648 65.1244 119.648 64.3972V63.3468C119.648 62.9832 119.648 62.6196 119.729 62.2561C119.891 61.5289 120.295 60.8825 120.86 60.3977C121.425 59.9129 122.192 59.6705 122.919 59.6705C134.509 59.6705 145.533 59.6705 155.588 59.6705C158.091 59.6705 160.555 59.6705 162.937 59.6705C164.108 59.6705 165.279 59.6705 166.45 59.6705C167.016 59.6705 167.581 59.6705 168.187 59.6705C168.752 59.6705 169.358 59.6301 169.883 59.8725C170.973 60.2361 171.78 61.2057 172.023 62.2965C172.144 62.862 172.063 63.3872 172.104 63.9124C172.104 64.4376 172.104 64.9628 172.104 65.488C172.104 67.5484 172.104 69.5683 172.104 71.4671C172.104 79.0622 172.063 85.2029 172.063 89.4448C172.063 89.97 172.063 90.4952 172.063 90.9396C172.063 91.4244 171.982 91.8688 171.821 92.2324C171.498 93 170.973 93.4848 170.488 93.7675C170.004 94.0503 169.56 94.1311 169.277 94.1715C168.954 94.2523 168.792 94.2523 168.792 94.2523Z" fill="#263238"/>
<path d="M151.671 79.8281C150.864 79.8281 150.258 80.4745 150.258 81.2421V86.3728C150.258 87.1808 150.904 87.7868 151.671 87.7868C152.479 87.7868 153.084 87.1404 153.084 86.3728V81.2421C153.125 80.4341 152.479 79.8281 151.671 79.8281Z" fill="#FE7209"/>
<path d="M127.847 78.6562C127.039 78.6562 126.434 79.3026 126.434 80.0702V86.3321C126.434 87.1401 127.08 87.7461 127.847 87.7461C128.655 87.7461 129.26 87.0997 129.26 86.3321V80.0702C129.301 79.3026 128.655 78.6562 127.847 78.6562Z" fill="#FE7209"/>
<path d="M133.823 76.7578C133.016 76.7578 132.41 77.4042 132.41 78.1718V86.3729C132.41 87.1808 133.056 87.7868 133.823 87.7868C134.631 87.7868 135.237 87.1404 135.237 86.3729V78.1718C135.237 77.4042 134.591 76.7578 133.823 76.7578Z" fill="#FE7209"/>
<path d="M139.761 77.3633C138.953 77.3633 138.348 78.0097 138.348 78.7773V86.3723C138.348 87.1803 138.994 87.7863 139.761 87.7863C140.569 87.7863 141.174 87.1399 141.174 86.3723V78.7773C141.215 78.0097 140.569 77.3633 139.761 77.3633Z" fill="#FE7209"/>
<path d="M145.738 73.8086C144.93 73.8086 144.324 74.455 144.324 75.2226V86.3324C144.324 87.1404 144.97 87.7464 145.738 87.7464C146.545 87.7464 147.151 87.1 147.151 86.3324V75.2226C147.151 74.455 146.505 73.8086 145.738 73.8086Z" fill="#FE7209"/>
<path d="M157.648 73.8906C156.84 73.8906 156.234 74.537 156.234 75.3046V86.3336C156.234 87.1416 156.88 87.7476 157.648 87.7476C158.455 87.7476 159.061 87.1012 159.061 86.3336V75.3046C159.061 74.537 158.455 73.8906 157.648 73.8906Z" fill="#FE7209"/>
<path d="M163.624 78.4531C162.817 78.4531 162.211 79.0995 162.211 79.8671V86.331C162.211 87.139 162.857 87.745 163.624 87.745C164.432 87.745 165.038 87.0986 165.038 86.331V79.8671C165.038 79.0995 164.392 78.4531 163.624 78.4531Z" fill="#FE7209"/>
<path d="M137.902 67.9918H126.878C126.232 67.9918 125.707 67.4666 125.707 66.8202V66.5778C125.707 65.9314 126.232 65.4062 126.878 65.4062H137.902C138.548 65.4062 139.073 65.9314 139.073 66.5778V66.8202C139.073 67.4666 138.548 67.9918 137.902 67.9918Z" fill="#E0E0E0"/>
<path d="M55.6036 67.3459C56.6939 66.4167 58.2283 66.1744 59.3186 65.2452C60.4089 64.3564 60.9339 62.902 61.0146 61.4476C61.0954 59.9933 60.7724 58.6197 60.4089 57.2461L72.1598 71.9919C71.2311 73.6078 70.2215 75.2642 68.7678 76.4358C67.3141 77.6074 65.295 78.2538 63.5183 77.6074C61.7415 76.961 60.5704 74.7794 61.3781 73.0826C59.8032 74.537 57.0573 74.5774 55.5228 73.0826C53.9479 71.5879 53.9479 68.7195 55.6036 67.3459Z" fill="#263238"/>
<path d="M89.5653 24.2383C92.4324 26.339 92.8766 28.3994 92.9977 29.4902C93.0381 29.8134 92.9573 30.2174 92.6747 30.3386C92.5132 30.379 92.3516 30.3386 92.1901 30.2982C89 29.3286 85.8503 28.359 82.6602 27.3894" fill="#263238"/>
<path d="M63.1961 61.4494C61.0559 57.6114 58.9157 53.7331 57.462 49.572C56.0083 45.4108 55.2814 40.9265 55.9679 36.5634C56.0891 35.917 57.2197 31.3923 57.8658 31.3519C58.3504 31.3115 57.9062 35.3918 58.2293 35.7554C61.2175 39.1893 62.752 43.7141 63.2769 48.2388C63.8019 52.7231 63.6807 56.8843 63.1961 61.4494Z" fill="#263238"/>
<path d="M67.7586 84.7986L59.5612 45.0053C57.0576 34.259 61.2572 23.836 72.0794 21.6544L73.0889 21.4928C83.2649 20.0385 92.8757 26.664 95.137 36.7234C97.2368 46.0556 99.4578 56.3979 100.104 61.4882C101.477 71.992 91.22 75.1028 91.22 75.1028C91.1796 75.1028 93.1583 85.7278 93.7237 88.7577L77.8539 90.7777L74.058 91.1009L67.7586 84.7986Z" fill="#FFC09C"/>
<path d="M91.1829 75.1437C91.1829 75.1437 84.6412 76.4769 76.9688 73.043C76.9688 73.043 81.3703 80.4764 91.7079 78.0525L91.1829 75.1437Z" fill="#F2B79C"/>
<path d="M93.1995 46.9859C93.3207 47.7535 92.7957 48.5211 91.9881 48.6827C91.1805 48.8443 90.3729 48.3191 90.2517 47.5515C90.1306 46.784 90.6555 45.976 91.4632 45.8144C92.2708 45.6528 93.038 46.178 93.1995 46.9859Z" fill="#263238"/>
<path d="M93.5245 41.6944C93.3629 41.8964 92.1111 41.25 90.4959 41.452C88.8806 41.654 87.8307 42.664 87.6288 42.5024C87.548 42.4216 87.6692 42.058 88.1134 41.6136C88.5576 41.1692 89.3652 40.6844 90.3747 40.5632C91.3843 40.442 92.2726 40.6844 92.7976 40.9672C93.4033 41.25 93.6052 41.5732 93.5245 41.6944Z" fill="#263238"/>
<path d="M79.3089 48.9244C79.4301 49.692 78.9051 50.4596 78.0975 50.6212C77.2899 50.7828 76.4822 50.2576 76.3611 49.49C76.24 48.7224 76.7649 47.9144 77.5725 47.7528C78.3802 47.6316 79.1474 48.1164 79.3089 48.9244Z" fill="#263238"/>
<path d="M77.8135 44.2804C77.652 44.4824 76.4002 43.836 74.7849 44.038C73.1697 44.24 72.1198 45.2499 71.9179 45.0883C71.8371 45.0075 71.9582 44.644 72.4024 44.1996C72.8466 43.7552 73.6543 43.2704 74.6638 43.1492C75.6733 43.028 76.5617 43.2704 77.0866 43.5532C77.652 43.8764 77.8539 44.1996 77.8135 44.2804Z" fill="#263238"/>
<path d="M85.3243 55.8748C85.284 55.794 86.2935 55.4709 87.8683 55.0265C88.2722 54.9457 88.6356 54.7841 88.676 54.5013C88.7164 54.1781 88.5144 53.7741 88.2318 53.3297C87.7068 52.4005 87.1415 51.3905 86.5761 50.3805C84.234 46.1386 82.4977 42.6643 82.6996 42.5835C82.8611 42.5027 84.8801 45.8558 87.2222 50.0573C87.7876 51.1077 88.3125 52.0773 88.8375 53.0469C89.0394 53.4913 89.4028 53.9761 89.2817 54.6225C89.2009 54.9457 88.9586 55.2285 88.676 55.3093C88.4337 55.4305 88.1914 55.4708 87.9895 55.5112C86.3742 55.794 85.3647 55.9556 85.3243 55.8748Z" fill="#263238"/>
<path d="M77.6139 39.1902C77.4524 39.6346 75.8371 39.4326 73.8988 39.6346C72.0009 39.8366 70.4261 40.4022 70.1838 39.9982C70.0626 39.7962 70.3453 39.3922 70.951 38.9478C71.5567 38.5034 72.5663 38.0994 73.6969 37.9782C74.8276 37.857 75.8775 38.0186 76.6044 38.3014C77.3312 38.6246 77.6543 38.9882 77.6139 39.1902Z" fill="#263238"/>
<path d="M93.3608 39.0287C93.0781 39.4327 91.7052 39.2711 90.1303 39.5135C88.5554 39.7155 87.2632 40.2003 86.8998 39.8771C86.7383 39.7155 86.8998 39.3115 87.4248 38.8671C87.9497 38.4227 88.8785 38.0187 89.9284 37.8571C91.0187 37.7359 91.9878 37.8975 92.5935 38.1803C93.2396 38.5035 93.4819 38.8267 93.3608 39.0287Z" fill="#263238"/>
<path d="M61.5009 52.6823C61.2989 52.6419 53.99 51.5915 55.2418 58.7018C56.4936 65.8525 63.3988 63.1053 63.3584 62.9033C63.3584 62.7014 61.5009 52.6823 61.5009 52.6823Z" fill="#FFC09C"/>
<path d="M60.7352 60.6005C60.6949 60.6005 60.6141 60.7217 60.4526 60.8429C60.2507 60.9641 59.9276 61.0853 59.5238 61.0045C58.7162 60.8429 57.8682 59.7925 57.6259 58.4997C57.5047 57.8534 57.5047 57.207 57.6663 56.6414C57.7874 56.0758 58.0701 55.6718 58.4335 55.5102C58.7969 55.3486 59.12 55.5506 59.2411 55.7122C59.3623 55.9142 59.3623 56.0354 59.4027 56.0354C59.443 56.0354 59.5238 55.8738 59.443 55.591C59.4027 55.4698 59.2815 55.3082 59.0796 55.187C58.8777 55.0658 58.6354 55.0658 58.3527 55.1062C57.8278 55.2274 57.3836 55.8334 57.2625 56.4394C57.0606 57.0454 57.0202 57.7726 57.1817 58.4997C57.4644 59.9137 58.4335 61.1661 59.5238 61.2469C60.0488 61.2873 60.4526 61.0853 60.6141 60.8429C60.7352 60.7621 60.7352 60.6005 60.7352 60.6005Z" fill="#FF9A6C"/>
<path d="M88.3527 25.7765C89.4026 24.9281 85.2433 21.8173 82.1744 21.0497C77.5305 19.8782 70.7869 19.8782 67.0314 21.7365C62.5088 23.9585 58.9956 27.0693 57.4207 31.8364C55.8459 36.6035 55.8459 41.815 56.8958 46.7437C57.2188 48.2385 57.663 49.7737 58.7129 50.9049C60.0051 52.2784 61.58 52.8036 62.3876 55.1468C62.6703 55.9144 62.8722 56.7224 63.5183 57.2072C65.0932 58.3383 66.4257 56.7628 66.9103 55.3084C67.9602 52.238 67.516 48.8445 67.0718 45.6529C66.7488 43.3502 66.4257 41.007 65.3758 38.9467C64.8105 37.8155 64.0432 36.8055 63.5587 35.6339C63.0741 34.4623 62.8318 33.0888 63.3971 31.998C63.4779 31.796 63.6394 31.594 63.8817 31.3112C65.5777 29.17 68.2833 28.1196 70.9888 28.564C75.2692 29.2508 82.4974 30.0992 84.0319 28.4024C86.2529 25.9785 86.6163 24.5645 86.6163 24.5645L88.3527 25.7765Z" fill="#263238"/>
<path d="M80.4784 57.7724C80.7207 57.6916 81.0438 59.348 82.659 60.2367C84.2743 61.1255 85.9703 60.6407 86.051 60.8427C86.0914 60.9235 85.728 61.2467 85.0011 61.4083C84.2743 61.5699 83.184 61.5295 82.2148 61.0043C81.2457 60.4387 80.6804 59.5904 80.4784 58.9036C80.2765 58.2168 80.3573 57.8128 80.4784 57.7724Z" fill="#263238"/>
<path d="M56.4935 53.287C56.332 53.2062 56.1301 53.2062 55.9685 53.085C46.0752 46.6211 51.3651 37.6929 51.042 35.2689C50.5979 31.9562 47.4077 36.8445 46.1155 32.6026C44.3792 26.9871 50.0729 23.3915 57.1396 19.5536C60.0874 17.9376 67.8002 16.2004 74.8669 16.362C81.1664 16.5236 86.0121 20.0788 88.8792 22.9875C88.8792 22.9875 90.4136 23.4319 90.8578 23.9975C92.2712 25.7751 91.9481 26.6639 91.9481 26.6639C91.9481 26.6639 77.2898 22.1795 67.7195 33.3702C58.1895 44.5608 61.6623 52.0751 58.7145 52.7215L56.4935 53.287Z" fill="#455A64"/>
<path d="M60.5326 23.9959C60.5326 23.9959 60.3307 24.1171 60.0077 24.3595C59.8462 24.4807 59.6039 24.6019 59.3616 24.7635C59.1193 24.9251 58.8366 25.1271 58.554 25.3291C57.9482 25.7735 57.2618 26.3391 56.5349 27.0259C55.808 27.7127 55.0812 28.5207 54.3947 29.4095C53.7082 30.3386 53.1429 31.2274 52.6583 32.1162C52.2141 33.005 51.8507 33.813 51.568 34.4998C51.4065 34.8634 51.3257 35.1866 51.245 35.4694C51.1642 35.7521 51.0834 35.9945 51.0027 36.1965C50.8815 36.6005 50.8008 36.8025 50.8008 36.8025C50.8008 36.8025 50.8412 36.5601 50.9219 36.1561C50.9623 35.9541 51.0431 35.7117 51.1238 35.429C51.2046 35.1462 51.2854 34.823 51.4469 34.4594C51.6892 33.7322 52.0526 32.9242 52.4968 32.0354C52.9814 31.1466 53.5467 30.2174 54.2332 29.2883C54.9197 28.3591 55.6869 27.5915 56.4138 26.9047C57.1406 26.2179 57.8271 25.6523 58.4732 25.2483C58.7559 25.0059 59.0789 24.8443 59.3212 24.6827C59.5635 24.5211 59.8058 24.3999 59.9673 24.3191C60.3307 24.0767 60.5326 23.9555 60.5326 23.9959Z" fill="#263238"/>
<path d="M89.2844 23.1078C89.2844 23.1078 89.244 23.1078 89.1632 23.0674C89.0824 23.027 88.9209 23.027 88.7594 22.9866C88.4363 22.9058 87.9114 22.825 87.2653 22.7038C86.6192 22.5826 85.8116 22.4614 84.8828 22.3806C83.954 22.2998 82.9041 22.219 81.7331 22.2594C79.391 22.2998 76.6047 22.7442 73.6972 23.835C72.2435 24.3601 70.7494 25.0873 69.3361 25.9357C67.8824 26.8245 66.5094 27.8749 65.1768 29.0869C63.8846 30.2989 62.7136 31.632 61.7848 33.046C60.856 34.46 60.0484 35.874 59.4427 37.3283C58.1909 40.1967 57.5852 42.9438 57.141 45.2466C56.7372 47.5494 56.5756 49.4481 56.4545 50.7813C56.4141 51.4277 56.3737 51.9529 56.3334 52.2761C56.3334 52.4377 56.293 52.5589 56.293 52.6801C56.293 52.5993 56.293 52.4377 56.293 52.2761C56.293 51.9125 56.3334 51.4277 56.3737 50.7409C56.4545 49.4077 56.616 47.509 57.0198 45.2062C57.4236 42.9035 58.0294 40.1159 59.2812 37.2475C59.8869 35.7932 60.6541 34.3388 61.6233 32.9248C62.5924 31.5108 63.7231 30.1777 65.0557 28.9253C66.3883 27.7133 67.8016 26.6225 69.2553 25.7337C70.709 24.8449 72.2031 24.1582 73.6569 23.5926C76.6047 22.5018 79.4314 22.0978 81.7735 22.0574C82.9445 22.017 84.0348 22.0978 84.9636 22.219C85.8923 22.2998 86.7 22.4614 87.3461 22.5826C87.9922 22.7038 88.4767 22.825 88.8402 22.9058C89.0017 22.9462 89.1228 22.9866 89.2036 23.027C89.244 23.1078 89.2844 23.1078 89.2844 23.1078Z" fill="#263238"/>
<path d="M60.4524 48.9249C60.4927 48.9653 59.6044 49.2481 58.4737 49.0461C57.3834 48.8441 56.6565 48.2381 56.6969 48.1977C56.7373 48.1573 57.4642 48.6421 58.5141 48.8441C59.564 49.0461 60.412 48.8441 60.4524 48.9249Z" fill="#263238"/>
<path d="M63.0366 41.8926C63.0366 41.933 62.7539 41.933 62.2693 41.8522C61.7847 41.7714 61.179 41.6099 60.5329 41.2463C59.8868 40.8827 59.4022 40.4787 59.0792 40.1151C58.7562 39.7515 58.5946 39.5091 58.635 39.5091C58.6754 39.4687 59.4022 40.3979 60.6541 41.0847C61.8655 41.7714 63.0366 41.8522 63.0366 41.8926Z" fill="#263238"/>
<path d="M68.0443 32.9239C68.0039 32.9643 67.3982 32.0351 66.3483 31.1867C65.3388 30.3384 64.2889 29.9344 64.3293 29.894C64.3293 29.8536 65.4195 30.1768 66.4695 31.0251C67.5597 31.9139 68.1251 32.9239 68.0443 32.9239Z" fill="#263238"/>
<path d="M73.9374 28.5208C73.8567 28.5612 73.574 27.5916 72.8875 26.5816C72.201 25.5716 71.4338 24.9252 71.4742 24.8848C71.5146 24.8444 72.3626 25.41 73.049 26.4604C73.7759 27.4704 73.9778 28.5208 73.9374 28.5208Z" fill="#263238"/>
<path d="M83.5073 26.0995C83.4265 26.0995 83.5881 25.0491 83.0227 23.9583C82.4978 22.8272 81.6094 22.302 81.6498 22.2616C81.6498 22.2212 81.8921 22.3424 82.2151 22.5848C82.5382 22.8272 82.942 23.2715 83.1843 23.8371C83.4669 24.4027 83.5477 24.9683 83.5477 25.4127C83.6284 25.8571 83.5477 26.0995 83.5073 26.0995Z" fill="#263238"/>
<path d="M89.648 26.42C89.5672 26.42 89.7288 25.6524 89.5269 24.7232C89.3653 23.794 88.9211 23.1477 89.0019 23.1073C89.0423 23.0669 89.5673 23.7132 89.7692 24.6828C89.9307 25.6524 89.7288 26.4604 89.648 26.42Z" fill="#263238"/>
<path d="M80.4811 90.858C80.4408 90.858 80.4811 90.5348 80.4408 89.9692C80.4004 89.4037 80.36 88.5553 80.1177 87.5857C79.8754 86.5757 79.512 85.4445 79.0274 84.1921C78.5025 82.9398 77.8564 81.6066 77.2103 80.1926C76.6045 78.819 76.0796 77.4859 75.7162 76.2335L75.6758 76.1527L75.7565 76.1123C76.6853 75.6275 77.4526 74.9811 77.9775 74.2943L78.0179 74.2539L78.0583 74.2943C78.7851 74.6983 79.512 74.8195 80.1177 74.8195H80.1581V74.8599C80.4811 75.3851 80.7638 75.7891 81.0061 76.0315C81.2484 76.2739 81.3695 76.4355 81.3695 76.4355C81.3695 76.4355 81.3291 76.3951 81.2484 76.3547C81.1676 76.3143 81.0869 76.1931 80.9657 76.0719C80.7234 75.8295 80.4004 75.4255 80.0773 74.9003L80.1177 74.9407C79.512 74.9407 78.7448 74.8599 77.9775 74.4559L78.0986 74.4155C77.5737 75.1023 76.8065 75.7891 75.8373 76.3143L75.8777 76.1931C76.2411 77.4455 76.7661 78.7382 77.3718 80.1118C78.0179 81.5258 78.664 82.8994 79.1486 84.1517C79.6735 85.4041 79.9966 86.5757 80.2389 87.5857C80.4408 88.5957 80.5215 89.4441 80.4811 90.0097C80.4811 90.2924 80.4811 90.5348 80.4408 90.656C80.5215 90.7772 80.4811 90.858 80.4811 90.858Z" fill="#FF9A6C"/>
<path d="M48.3359 91.8664L64.8114 81.9686C64.8114 81.9686 77.5719 90.3717 85.8904 87.3013C91.5034 85.2005 91.5034 77.6055 91.5034 77.6055L107.656 77.6459L121.991 121.479L125.666 173.958H54.0297L51.1222 112.389L48.3359 91.8664Z" fill="#FE7209"/>
<g opacity="0.3">
<path d="M53.3867 161.111C58.394 165.353 64.9357 167.454 71.4371 168.1C77.9384 168.787 84.5206 168.141 91.0623 167.494C102.329 166.404 113.837 166.686 125.104 165.596C124.781 162.768 124.498 155.738 124.175 152.91L53.3867 157.96V161.111Z" fill="black"/>
</g>
<path d="M47.4897 139.901C47.4897 139.901 45.9552 139.174 45.188 139.942C44.4207 140.709 43.8554 141.841 43.8554 141.841C43.8554 141.841 41.3517 141.113 40.3422 143.174C40.3422 143.174 38.4847 144.345 39.575 146.648C39.575 146.648 37.5963 149.436 39.1712 151.819C39.5346 152.385 39.8173 152.587 39.8173 152.587C39.8173 152.587 40.5845 155.496 41.5537 155.98C42.5632 156.465 46.1167 157.556 46.2379 155.9C46.359 154.284 45.7129 154.405 45.7129 154.405C45.7129 154.405 49.9125 156.708 51.8105 158.364C53.668 160.061 58.5945 162.525 61.5827 162.525C64.6113 162.525 63.3191 156.021 63.3191 156.021L47.4897 139.901Z" fill="#FFC09C"/>
<path d="M115.005 109.078C114.803 110.048 114.642 115.421 114.642 115.421L118.114 137.519C111.209 138.933 77.3294 145.842 77.3294 145.842L74.1797 162.526C74.1797 162.526 127.483 161.557 133.419 155.982C139.355 150.447 136.367 128.025 136.367 125.844C136.367 123.662 134.913 109.24 134.913 109.24L115.005 109.078Z" fill="#FFC09C"/>
<path d="M40.9088 147.051C40.9088 147.051 41.1108 147.132 41.4338 147.253C41.7972 147.414 42.2818 147.657 42.8875 147.899C43.4932 148.182 44.2201 148.546 45.0277 148.909C45.2296 148.99 45.4315 149.111 45.6334 149.192C45.7546 149.232 45.8353 149.273 45.9565 149.354C46.0776 149.394 46.1988 149.475 46.2795 149.636C46.3199 149.717 46.3199 149.798 46.2795 149.879C46.2392 149.96 46.1988 150 46.118 150.04C45.9969 150.121 45.8353 150.162 45.7142 150.162C45.4719 150.202 45.1892 150.202 44.947 150.202C43.8971 150.121 42.9683 149.798 42.1203 149.677C41.6761 149.596 41.2723 149.556 40.9088 149.677C40.5454 149.758 40.2628 150.04 40.1012 150.283C39.7782 150.848 39.7782 151.414 39.7782 151.778C39.7782 152.141 39.8186 152.343 39.7782 152.343C39.7782 152.343 39.7378 152.141 39.6974 151.778C39.657 151.414 39.6167 150.808 39.9801 150.202C40.1416 149.919 40.4647 149.596 40.8685 149.475C41.2723 149.354 41.7165 149.394 42.1607 149.475C43.049 149.596 43.9778 149.919 44.9873 150C45.2296 150 45.4719 150 45.7142 149.96C45.9565 149.96 46.1584 149.798 46.118 149.677C46.0372 149.556 45.795 149.434 45.5931 149.354C45.3912 149.232 45.1892 149.152 44.9873 149.071C44.2201 148.667 43.4932 148.344 42.8875 148.02C42.3222 147.738 41.8376 147.495 41.4742 147.293C41.0704 147.132 40.9088 147.051 40.9088 147.051Z" fill="#FF9A6C"/>
<path d="M47.5707 145.8C47.5707 145.84 47.1669 145.598 46.5612 145.234C45.9555 144.87 45.0671 144.466 44.0575 144.103C43.048 143.739 42.0789 143.537 41.3924 143.416C40.7059 143.295 40.2617 143.254 40.2617 143.214C40.2617 143.174 40.7059 143.174 41.4328 143.254C42.1596 143.335 43.1288 143.537 44.1383 143.901C45.1882 144.264 46.0362 144.709 46.6419 145.113C47.2477 145.517 47.6111 145.8 47.5707 145.8Z" fill="#FF9A6C"/>
<path d="M47.1667 142.933C47.1263 143.014 46.4399 142.65 45.5111 142.327C45.0669 142.165 44.6631 142.044 44.34 141.963C44.017 141.883 43.8555 141.883 43.8555 141.842C43.8555 141.802 44.0574 141.761 44.3804 141.802C44.7035 141.842 45.1477 141.923 45.5919 142.125C46.5206 142.489 47.2071 142.893 47.1667 142.933Z" fill="#FF9A6C"/>
<path d="M46.0766 154.646C46.0766 154.687 45.7939 154.687 45.3497 154.606C44.9055 154.525 44.2998 154.364 43.6537 154.121C43.0076 153.879 42.4423 153.596 42.0788 153.354C41.675 153.152 41.4327 152.99 41.4731 152.95C41.5135 152.869 42.4827 153.394 43.7345 153.879C44.3806 154.121 44.9459 154.323 45.3901 154.404C45.7939 154.606 46.0766 154.606 46.0766 154.646Z" fill="#FF9A6C"/>
<path d="M43.2882 153.8C43.3286 153.8 43.2479 154.204 42.8844 154.568C42.521 154.891 42.1172 154.972 42.1172 154.931C42.1172 154.891 42.4402 154.729 42.7633 154.406C43.0863 154.083 43.2479 153.76 43.2882 153.8Z" fill="#FF9A6C"/>
<path d="M107.254 77.6465C107.254 77.6465 119.853 77.1214 126.273 85.9688C132.492 94.5335 137.378 112.35 137.378 112.35L113.351 115.541L109.798 92.3519L107.254 77.6465Z" fill="#FE7209"/>
<path d="M127.483 147.618C127.443 147.618 127.281 146.85 126.797 145.638C126.675 145.356 126.514 145.032 126.352 144.669C126.191 144.305 125.989 143.982 125.747 143.618C125.302 142.891 124.737 142.124 124.051 141.397C123.364 140.669 122.637 140.063 121.951 139.579C121.587 139.336 121.264 139.094 120.941 138.932C120.618 138.73 120.295 138.569 120.013 138.407C118.841 137.841 118.074 137.599 118.074 137.559C118.074 137.559 118.276 137.599 118.64 137.68C118.801 137.72 119.043 137.801 119.286 137.882C119.528 137.963 119.811 138.084 120.093 138.205C120.376 138.326 120.699 138.488 121.062 138.69C121.385 138.851 121.749 139.094 122.112 139.336C122.799 139.861 123.566 140.467 124.253 141.195C124.939 141.922 125.504 142.689 125.949 143.457C126.15 143.82 126.393 144.184 126.554 144.548C126.716 144.911 126.877 145.234 126.998 145.517C127.12 145.8 127.2 146.123 127.281 146.366C127.362 146.608 127.402 146.85 127.443 147.012C127.483 147.416 127.523 147.618 127.483 147.618Z" fill="#FF9A6C"/>
<path d="M109.758 92.3906C109.758 92.3906 109.798 92.5118 109.879 92.6734C109.96 92.8754 110.081 93.1986 110.242 93.5622C110.525 94.3298 110.929 95.461 111.333 96.9154C112.14 99.7837 112.988 103.783 113.715 108.268C114.442 112.752 114.967 116.792 115.33 119.741C115.492 121.195 115.653 122.367 115.734 123.215C115.775 123.619 115.815 123.943 115.855 124.185C115.896 124.387 115.896 124.508 115.896 124.508C115.896 124.508 115.855 124.387 115.815 124.185C115.775 123.943 115.734 123.619 115.653 123.256C115.532 122.407 115.371 121.236 115.169 119.781C114.765 116.832 114.24 112.792 113.513 108.308C112.786 103.824 111.979 99.8241 111.212 96.9558C110.848 95.5418 110.444 94.3702 110.202 93.6026C110.081 93.239 109.96 92.9158 109.879 92.7138C109.798 92.5118 109.758 92.3906 109.758 92.3906Z" fill="#263238"/>
<path d="M66.9948 96.1492L64.5316 122.166L60.7762 115.541L41.4336 117.844C41.6355 118.813 48.5407 143.053 51.4885 149.759C54.4363 156.465 62.7548 168.424 72.0425 164.141C81.3301 159.859 80.7244 126.004 80.7244 122.166C80.7244 118.328 78.8669 95.3008 78.8669 95.3008" fill="#FFC09C"/>
<path d="M78.9073 95.3008C78.9073 95.3008 78.9477 95.4624 78.9477 95.7856C78.9881 96.1088 79.0285 96.5936 79.0689 97.1996C79.19 98.4519 79.3111 100.27 79.513 102.573C79.6746 104.916 79.9169 107.784 80.1591 111.097C80.2803 112.753 80.4014 114.531 80.5226 116.43C80.6437 118.328 80.8052 120.308 80.8052 122.409C80.8456 126.61 80.8052 131.216 80.5226 136.145C80.2399 141.073 79.7553 146.366 78.6247 151.779C78.0189 154.486 77.2921 157.273 75.9999 159.899C75.3538 161.192 74.5058 162.485 73.3751 163.454C73.0924 163.697 72.7694 163.899 72.4463 164.101C72.1233 164.303 71.7599 164.424 71.3964 164.545C71.033 164.666 70.6696 164.788 70.3061 164.909C69.9427 164.99 69.5793 165.07 69.1755 165.111C68.4082 165.232 67.641 165.192 66.8738 165.111C66.1065 164.99 65.3393 164.828 64.6124 164.545C63.1587 164.02 61.7857 163.212 60.5743 162.243C58.111 160.303 56.0516 157.839 54.2748 155.132C53.3057 153.637 52.4173 152.102 51.6904 150.527C50.9636 148.951 50.3579 147.295 49.7925 145.679C48.6619 142.447 47.612 139.215 46.6428 136.064C45.6737 132.913 44.7449 129.802 43.8565 126.772C42.9681 123.742 42.1201 120.793 41.3529 117.884L41.3125 117.803H41.4336C48.4196 116.995 54.9209 116.228 60.7762 115.5H60.8166L60.857 115.541C62.1895 117.884 63.4414 120.106 64.6124 122.166L64.4913 122.207C65.2585 114.127 65.9046 107.623 66.3084 103.138C66.5103 100.916 66.7122 99.1791 66.8334 97.9671C66.8738 97.4016 66.9545 96.9168 66.9545 96.634C66.9141 96.9572 66.8738 97.4016 66.8334 97.9671C66.7122 99.1387 66.5507 100.876 66.3488 103.138C65.945 107.623 65.3393 114.127 64.572 122.207L64.6124 122.409L64.4913 122.207C63.3202 120.146 62.0684 117.924 60.7358 115.581L60.8166 115.622C54.9613 116.308 48.46 117.116 41.474 117.924L41.5548 117.803C42.322 120.672 43.2104 123.661 44.0988 126.691C44.9872 129.721 45.9159 132.832 46.9255 135.983C47.8946 139.134 48.9445 142.366 50.0752 145.598C50.6405 147.214 51.2463 148.83 51.9731 150.405C52.7404 151.981 53.5884 153.516 54.5575 154.971C56.2939 157.637 58.3533 160.101 60.7762 162C61.9876 162.97 63.3202 163.737 64.7739 164.262C65.5008 164.505 66.2277 164.707 66.9545 164.788C67.7218 164.868 68.4486 164.909 69.2159 164.788C69.5793 164.747 69.9427 164.666 70.3061 164.586C70.6696 164.464 71.033 164.384 71.3561 164.262C71.6791 164.101 72.0425 163.98 72.3656 163.818C72.6886 163.656 72.9713 163.414 73.254 163.212C74.3846 162.283 75.1923 161.031 75.8384 159.738C77.1306 157.152 77.8574 154.365 78.4631 151.698C79.5938 146.285 80.0784 140.992 80.361 136.064C80.6437 131.135 80.7245 126.529 80.6841 122.328C80.6437 120.227 80.5226 118.248 80.4014 116.349C80.2803 114.45 80.1591 112.673 80.038 111.016C79.7957 107.703 79.5938 104.835 79.4323 102.492C79.2708 100.149 79.1092 98.3307 79.0285 97.1188C78.9881 96.5128 78.9477 96.028 78.9073 95.7048C78.9073 95.4624 78.9073 95.3008 78.9073 95.3008Z" fill="#FF9A6C"/>
<path d="M64.4922 121.52C64.4922 121.52 64.4922 121.641 64.4922 121.843C64.4518 122.045 64.4518 122.328 64.371 122.732C64.2499 123.499 64.0076 124.59 63.5634 125.883C63.1192 127.175 62.4327 128.711 61.5847 130.286C60.7367 131.902 59.7272 133.599 58.6369 135.417C57.587 137.235 56.6179 138.972 55.891 140.628C55.1641 142.285 54.6796 143.86 54.3969 145.194C54.1142 146.527 54.0335 147.658 54.0335 148.426C54.0335 148.789 54.0739 149.112 54.0335 149.314C54.0335 149.516 54.0335 149.637 54.0335 149.637C54.0335 149.637 53.9931 149.516 53.9931 149.314C53.9931 149.112 53.9123 148.829 53.9527 148.426C53.9123 147.658 53.9931 146.527 54.2354 145.194C54.4777 143.82 55.0026 142.244 55.6891 140.588C56.416 138.932 57.3447 137.154 58.435 135.336C59.4849 133.518 60.5348 131.821 61.3828 130.205C62.2308 128.589 62.9173 127.135 63.3615 125.842C63.8057 124.549 64.0884 123.459 64.2499 122.732C64.3307 122.368 64.371 122.045 64.4114 121.843C64.4922 121.6 64.4922 121.52 64.4922 121.52Z" fill="#FF9A6C"/>
<path d="M48.3391 91.8672C47.8141 91.9884 38.7284 96.1495 38.8091 110.168C38.8495 120.591 41.6358 130.651 41.6358 130.651L63.5224 120.349L48.3391 91.8672Z" fill="#FE7209"/>
<path d="M78.9069 95.3011C78.9069 95.3011 81.4913 92.6348 81.4913 89.1604C81.4913 85.6861 80.1587 82.2117 80.1587 82.2117C80.1587 82.2117 79.7145 78.5758 79.4722 77.1214L80.6433 74.8995C80.6433 74.8995 83.8334 76.3134 84.3987 74.2127L82.5008 71.6271C82.097 71.0615 81.4913 70.6171 80.8048 70.4555L77.9781 69.6475C76.9686 69.3647 75.9187 69.5263 75.0303 70.1323L71.7191 72.3543L73.7785 68.072L77.2513 67.3448C77.2513 67.3448 82.1778 69.4859 83.1469 66.658L78.9877 64.234L71.1133 64.3552C71.1133 64.3552 69.2962 66.5772 68.8924 67.2236C68.4886 67.9104 67.1964 70.1727 67.1964 70.1727L65.2177 65.0824C65.2177 65.0824 65.2985 61.8101 65.2177 59.1033C65.1369 56.1138 63.3602 55.1038 61.5834 56.1138C61.4219 56.1946 60.6143 64.234 61.0181 66.0924C61.4219 67.9508 64.8543 81.8885 64.8543 81.8885C64.8543 81.8885 66.0657 85.0397 66.5099 85.9689C67.5194 87.9888 67.4387 89.6856 67.479 90.4532C67.5598 91.948 66.9945 96.5131 66.9945 96.5131" fill="#FFC09C"/>
<path d="M66.9545 96.5943C66.9545 96.5943 66.9545 96.5135 66.9948 96.3519C66.9948 96.1903 67.0352 95.9075 67.0756 95.5843C67.1564 94.8975 67.2371 93.928 67.3583 92.6352C67.3987 91.9888 67.439 91.2616 67.439 90.494C67.3987 89.686 67.3583 88.8376 67.116 87.9489C66.9948 87.5045 66.8333 87.0601 66.6314 86.5753C66.4295 86.1309 66.1872 85.6461 65.9853 85.1613C65.5815 84.1917 65.1777 83.1413 64.7335 82.0102C64.1682 79.7074 63.5221 77.1622 62.876 74.4151C62.5529 73.0415 62.1895 71.6275 61.8261 70.1327C61.6645 69.4056 61.4626 68.638 61.2607 67.8704C61.18 67.5068 61.0588 67.1028 60.9781 66.7392C60.9377 66.5372 60.8973 66.3756 60.8569 66.1736C60.8165 65.9716 60.8165 65.7696 60.7762 65.5676C60.6954 63.9516 60.8165 62.2953 60.9377 60.5985C61.0184 59.7501 61.0588 58.9017 61.18 58.0129C61.2203 57.5685 61.2607 57.1646 61.3415 56.7202C61.3415 56.599 61.3819 56.5182 61.3819 56.397C61.3819 56.3566 61.3819 56.3566 61.3819 56.3162V56.2758V56.2354C61.3819 56.2354 61.3819 56.195 61.4223 56.195C61.4626 56.1546 61.4626 56.1546 61.4626 56.1546H61.503L61.5838 56.1142C61.7857 55.993 61.9876 55.9122 62.2299 55.8718C62.6741 55.7506 63.1586 55.7506 63.6028 55.9526C64.047 56.1142 64.4105 56.4778 64.6527 56.8818C65.1373 57.6897 65.2585 58.6593 65.2585 59.5885C65.2585 61.4469 65.2585 63.3457 65.2585 65.2444V65.204C65.8642 66.82 66.5507 68.5572 67.2371 70.2943H67.0352C67.6006 69.3248 68.1659 68.3148 68.7716 67.3048C69.4581 66.2948 70.2253 65.406 70.9522 64.4364L70.9926 64.396H71.033C71.5175 64.396 72.0021 64.396 72.5271 64.3556C74.7076 64.3152 76.8478 64.2748 78.9477 64.2344H78.988H79.0284C80.4418 65.0424 81.8147 65.8504 83.1877 66.6584L83.2684 66.6988L83.2281 66.7796C83.0665 67.3452 82.6223 67.83 82.0974 68.032C81.5724 68.2744 80.9667 68.3148 80.4418 68.2744C79.3111 68.1936 78.2612 67.9108 77.2516 67.5068H77.3324C76.1614 67.7492 74.9903 67.9916 73.8596 68.234L73.9404 68.1936C73.2135 69.648 72.5271 71.0619 71.881 72.4759L71.7598 72.3547C72.9309 71.5871 74.0615 70.8195 75.1518 70.0923C75.7172 69.7288 76.4036 69.5268 77.0901 69.5268C77.4132 69.5268 77.7766 69.5672 78.0996 69.648C78.4227 69.7287 78.7054 69.8095 79.0284 69.8903C79.6341 70.0519 80.2399 70.2539 80.8456 70.4155C81.4513 70.5771 82.0166 70.9003 82.4608 71.3851C83.2281 72.3547 83.8742 73.3243 84.601 74.2535L84.6414 74.2939V74.3343C84.5203 74.6979 84.3183 75.0615 83.9549 75.2635C83.6319 75.4655 83.2281 75.5463 82.8646 75.5059C82.1378 75.5059 81.4109 75.3039 80.7648 75.0211L80.8456 74.9807C80.4418 75.7887 80.0379 76.4754 79.6745 77.2026V77.1622C79.9976 78.9802 80.1591 80.677 80.361 82.2526C81.0879 84.3533 81.4917 86.2925 81.6532 87.9893C81.734 88.8376 81.734 89.6456 81.6128 90.3728C81.4917 91.1 81.2898 91.7464 81.0475 92.2716C80.6033 93.3624 80.0379 94.13 79.6745 94.6147C79.4726 94.8571 79.3515 95.0591 79.2303 95.1399C79.1092 95.2611 79.0688 95.3015 79.0688 95.3015C79.0688 95.3015 79.1092 95.2207 79.2303 95.0995C79.3515 94.9783 79.4726 94.7763 79.6745 94.534C80.0379 94.0492 80.5629 93.2816 81.0071 92.1908C81.209 91.6252 81.4109 91.0192 81.532 90.292C81.6532 89.5648 81.6532 88.7972 81.5724 87.9085C81.4109 86.2117 81.0071 84.2725 80.2802 82.2122C80.0783 80.6366 79.8764 78.9398 79.5534 77.1622V77.1218V77.0814C79.9168 76.3946 80.3206 75.6675 80.7244 74.8595L80.7648 74.7787L80.8456 74.8191C81.4917 75.0615 82.1781 75.2635 82.8646 75.2635C83.2281 75.2635 83.5915 75.2231 83.8742 75.0211C84.1568 74.8595 84.3587 74.5363 84.4799 74.1727V74.2535C83.7934 73.3243 83.1069 72.3547 82.3801 71.3851C81.9762 70.9407 81.4513 70.6175 80.8456 70.4963C80.2399 70.3347 79.6341 70.1731 79.0284 69.9711C78.4227 69.8095 77.817 69.5672 77.1709 69.5672C76.5248 69.5672 75.8787 69.7692 75.3537 70.0923C74.2634 70.8195 73.0924 71.5871 71.9617 72.3547L71.6791 72.5567L71.8406 72.2335C72.5271 70.8195 73.2135 69.4056 73.9 67.9512L73.9404 67.9108H73.9808C75.1114 67.6684 76.2825 67.426 77.4536 67.1836H77.4939H77.5343C78.5035 67.5876 79.5938 67.8704 80.6437 67.9512C81.1686 67.9916 81.734 67.9512 82.2185 67.7088C82.7031 67.5068 83.0665 67.0624 83.2684 66.5776L83.3088 66.6988C81.9359 65.8908 80.5629 65.1232 79.1496 64.2748H79.1899C77.0901 64.3152 74.9499 64.3556 72.7693 64.396C72.2444 64.396 71.7598 64.396 71.2752 64.4364L71.356 64.396C70.5888 65.3252 69.8215 66.2544 69.1754 67.224C68.5697 68.234 68.0044 69.244 67.439 70.2135L67.3179 70.4155L67.2371 70.2135C66.5507 68.436 65.9046 66.7392 65.2585 65.1232V65.0828C65.2585 63.1841 65.2585 61.2853 65.2585 59.4269C65.2585 58.4977 65.1373 57.5685 64.6931 56.8414C64.4508 56.4778 64.1278 56.1546 63.7644 55.993C63.3605 55.8314 62.9164 55.8314 62.5125 55.9122C62.3106 55.9526 62.1087 56.0334 61.9068 56.1546L61.8261 56.195H61.7857C61.8261 56.2758 61.7049 56.1142 61.7453 56.1546L61.7857 56.195V56.2354C61.7857 56.2758 61.7857 56.2758 61.7857 56.3162C61.7453 56.4374 61.7453 56.5182 61.7453 56.6394C61.6645 57.0838 61.6242 57.4877 61.5838 57.9321C61.503 58.7805 61.4222 59.6693 61.3415 60.5177C61.2203 62.2145 61.0992 63.8708 61.18 65.4868C61.18 65.6888 61.2203 65.8908 61.2607 66.0928C61.3011 66.2948 61.3415 66.4968 61.3819 66.6584C61.4626 67.0624 61.5838 67.426 61.6645 67.7896C61.8664 68.5572 62.028 69.2844 62.2299 70.0519C62.5933 71.5063 62.9163 72.9607 63.2798 74.3343C63.9663 77.0814 64.572 79.6266 65.1373 81.9294C65.5411 83.0201 65.9449 84.0705 66.3891 85.0805C66.591 85.5653 66.7929 86.0097 67.0352 86.4945C67.2371 86.9389 67.3987 87.4237 67.5198 87.8681C67.7621 88.7972 67.8025 89.6456 67.8025 90.4536C67.8428 91.2616 67.7621 91.9888 67.7217 92.6352C67.6006 93.928 67.4794 94.938 67.3987 95.5843C67.3583 95.9075 67.3179 96.1903 67.3179 96.3519C66.9948 96.5135 66.9545 96.5943 66.9545 96.5943Z" fill="#FF9A6C"/>
<path d="M79.8745 70.5754C79.8745 70.6158 79.5111 70.6158 78.9862 70.8986C78.4612 71.1814 77.8959 71.747 77.169 72.3126C76.4825 72.8781 75.8364 73.4033 75.3922 73.7669C74.9077 74.1305 74.625 74.3325 74.625 74.3325C74.625 74.2921 74.8673 74.0497 75.3115 73.6861C75.7557 73.2821 76.3614 72.7569 77.0882 72.1914C77.7747 71.6258 78.3804 71.0602 78.9458 70.8178C79.4707 70.4946 79.8745 70.5754 79.8745 70.5754Z" fill="#FF9A6C"/>
<path d="M57.3056 102.289C57.3459 102.289 58.84 106.289 60.5764 111.298C62.3128 116.308 63.6858 120.348 63.6454 120.388C63.605 120.388 62.1109 116.388 60.3745 111.379C58.6381 106.369 57.2652 102.289 57.3056 102.289Z" fill="#263238"/>
</g>
<defs>
<clipPath id="clip0_313_3532">
<rect width="178" height="174" fill="white"/>
</clipPath>
</defs>
</svg>
