<svg width="122" height="168" viewBox="0 0 122 168" fill="none" xmlns="http://www.w3.org/2000/svg">
<g clip-path="url(#clip0_313_4079)">
<path d="M87.6788 94.418C87.6788 94.6859 89.2171 96.5615 88.5806 98.6515C88.4214 99.2409 86.8832 100.42 86.8832 100.42L88.4745 103.26L79.1388 107.333L74.418 98.062L83.8067 95.3826L87.6788 94.418Z" fill="#FFBE9D"/>
<path d="M82.1642 83.5955C84.0737 82.363 84.5511 79.362 83.0659 77.6472C82.0581 76.4147 80.3607 75.8788 79.565 74.4855C78.9816 73.4673 79.0876 72.1812 79.2998 71.0558C79.512 69.8769 79.8833 68.7515 79.8303 67.5726C79.7772 66.3936 79.1937 65.1611 78.1329 64.7324C76.5946 64.1429 75.0033 65.429 74.1546 66.8759C72.4042 69.8233 72.192 73.6281 73.6242 76.7362C74.2607 78.0759 75.1624 79.2549 75.852 80.5946C76.5416 81.9343 77.019 83.4348 76.6476 84.8817" fill="#F5F5F5"/>
<path d="M77.8137 68.9648C77.8667 69.0184 77.3363 69.6615 77.1772 70.894C77.0711 71.5371 77.0711 72.2873 77.2833 73.0912C77.3893 73.5199 77.5485 73.895 77.7606 74.3237C77.9728 74.6988 78.238 75.0739 78.6093 75.4491C79.2989 76.0921 80.0946 76.628 80.625 77.3247C81.1554 78.0213 81.3676 78.8251 81.4206 79.4682C81.4737 80.1113 81.3676 80.6471 81.2615 81.0223C81.1554 81.3438 81.0493 81.5581 80.9963 81.5581C80.9433 81.5581 81.3676 80.8079 81.2085 79.5218C81.1554 78.8787 80.8902 78.1285 80.4128 77.4854C79.9354 76.8424 79.1398 76.3065 78.3972 75.6098C78.0259 75.2347 77.7606 74.8596 77.4954 74.4309C77.2833 74.0022 77.1241 73.5735 77.018 73.1447C76.8059 72.2873 76.8059 71.4835 76.965 70.8404C77.0711 70.1974 77.2833 69.7151 77.4954 69.3936C77.6546 69.1256 77.8137 68.9648 77.8137 68.9648Z" fill="#4D4D4D"/>
<path d="M75.3215 69.1797C75.3745 69.2333 74.8441 69.8763 74.685 71.1089C74.5789 71.7519 74.5789 72.5022 74.7911 73.306C74.8972 73.7347 75.0563 74.1098 75.2685 74.5385C75.4806 74.9137 75.7459 75.2888 76.1172 75.6639C76.8067 76.307 77.6024 76.8428 78.1328 77.5395C78.6632 78.2361 78.8754 79.04 78.9285 79.683C78.9815 80.3261 78.8754 80.862 78.7693 81.2371C78.6632 81.5586 78.5572 81.773 78.5041 81.773C78.4511 81.773 78.8754 81.0227 78.7163 79.7366C78.6632 79.0936 78.398 78.3433 77.9206 77.7003C77.4432 77.0572 76.6476 76.5213 75.905 75.8247C75.5337 75.4495 75.2685 75.0744 75.0032 74.6457C74.7911 74.217 74.6319 73.7883 74.5259 73.3596C74.3137 72.5022 74.3137 71.6983 74.4728 71.0553C74.5789 70.4122 74.7911 69.9299 75.0032 69.6084C75.1624 69.2869 75.3215 69.1797 75.3215 69.1797Z" fill="#4D4D4D"/>
<path d="M79.2467 52.6743C79.9363 52.8886 80.4137 53.4781 80.6258 54.1748C80.838 54.8714 80.785 55.6217 80.5728 56.2647C80.3606 56.8006 80.0954 57.3365 79.618 57.7116C79.1406 58.0867 78.6102 58.3011 78.0267 58.2475C77.2841 58.1403 76.6476 57.6044 76.2232 56.9614C75.5867 55.8896 75.4276 54.4963 76.1171 53.4245C76.7537 52.4063 78.2919 51.9241 79.2997 52.6207" fill="#F5F5F5"/>
<path d="M87.5206 81.8281L89.2179 96.9937C89.324 98.1726 88.5284 99.2444 87.3614 99.4588L78.1849 101.013C77.0179 101.227 75.851 100.423 75.6388 99.2444L72.9336 84.6147L87.5206 81.8281Z" fill="#455A64"/>
<path d="M80.3594 85.7372L80.8898 85.6836L81.3672 89.1668L80.8368 89.2204L80.3594 85.7372Z" fill="#4D4D4D"/>
<path d="M81.741 97.1004L81.2105 97.154L81.0514 96.511L80.4149 96.5646V97.2076L79.9375 97.2612L80.0966 93.7244L80.8923 93.6172L81.741 97.1004ZM80.4149 96.1894L80.9453 96.1358L80.4679 94.421L80.4149 96.1894Z" fill="#4D4D4D"/>
<path d="M83.1186 96.9405C83.0656 96.8333 83.0656 96.7797 83.0126 96.5118L82.9595 95.9759C82.9065 95.6543 82.8004 95.5472 82.5352 95.6007H82.323L82.4821 96.994L81.9517 97.0476L81.5273 93.5644L82.323 93.4572C82.9065 93.4036 83.1717 93.618 83.2247 94.1539L83.2778 94.4218C83.3308 94.7969 83.2247 95.0113 83.0126 95.172C83.2778 95.2792 83.4369 95.4936 83.4369 95.8687L83.49 96.4046C83.49 96.5653 83.543 96.6725 83.596 96.8333L83.1186 96.9405ZM82.2169 94.0467L82.323 95.1185H82.5352C82.7473 95.1185 82.8534 95.0113 82.8004 94.6897L82.7473 94.3682C82.6943 94.1003 82.6413 94.0467 82.4291 94.0467H82.2169Z" fill="#4D4D4D"/>
<path d="M83.3867 93.4019L85.0311 93.1875L85.0841 93.6698L84.5006 93.7234L84.8719 96.6708L84.3415 96.7243L83.9702 93.777L83.3867 93.8306V93.4019Z" fill="#4D4D4D"/>
<path d="M81.5812 90.723C81.3691 90.4015 80.9978 90.0264 80.6265 89.8656C80.3082 89.7048 79.8308 89.7584 79.6186 90.08C79.5125 90.2943 79.5125 90.5623 79.6186 90.8302C79.7247 91.0445 79.8838 91.2589 80.096 91.4197C80.6795 91.902 81.263 92.2771 81.9525 92.6522C82.483 92.1163 82.8543 91.4197 83.0665 90.723C83.1195 90.5087 83.1725 90.2943 83.1195 90.0264C83.0664 89.812 82.9073 89.5977 82.6421 89.5977C82.4299 89.5977 82.1647 89.7048 82.0586 89.8656C81.7934 90.08 81.6873 90.3479 81.5812 90.723Z" fill="#FE7209"/>
<path d="M87.681 83.2722C87.681 83.2722 82.9071 88.4703 83.7027 90.1852C84.1801 91.1498 85.4532 91.0426 86.1958 90.1316C86.9384 89.2206 87.8932 88.0952 88.5297 87.2914C89.3784 86.2732 89.2193 83.1651 87.681 83.2722Z" fill="#FFBE9D"/>
<path d="M88.6337 86.9709C88.6337 86.9709 84.2841 91.2579 85.0267 92.6512C85.7163 94.0981 87.0424 93.2407 87.6258 92.4369C88.2624 91.6331 88.6867 90.9364 89.2172 90.2933C89.9598 89.3823 90.1189 86.435 88.6337 86.9709Z" fill="#FFBE9D"/>
<path d="M88.9513 90.3992C88.9513 90.3992 85.8748 93.7753 86.4052 94.9006C86.9357 95.9724 87.6252 95.758 88.1026 95.1686C88.58 94.5791 89.2165 93.8288 89.6409 93.293C90.1713 92.5963 89.9591 90.1312 88.9513 90.3992Z" fill="#FFBE9D"/>
<path d="M74.4188 97.8494L71.9258 92.0083L77.7075 85.3633C77.7075 85.3633 79.1397 86.2743 78.291 88.2571C77.4423 90.1862 75.2675 92.0083 75.2675 92.0083L75.4266 97.8494H74.4188Z" fill="#FFBE9D"/>
<path d="M76.4345 86.5941C76.4345 86.7549 75.2676 86.4869 73.6763 87.1836C72.8806 87.5051 72.0319 88.0946 71.3954 89.0056C70.7589 89.863 70.3876 91.0955 70.4937 92.3817C70.5998 93.6678 71.1302 94.8467 71.8728 95.597C72.6154 96.4008 73.5702 96.8295 74.3658 97.0439C76.0102 97.4726 77.1241 97.0439 77.1772 97.2046C77.1772 97.2582 76.965 97.419 76.4345 97.5262C75.9572 97.6869 75.1615 97.7405 74.2598 97.5798C73.358 97.419 72.2441 96.9903 71.3424 96.0793C70.3876 95.2219 69.7511 93.8286 69.645 92.3817C69.5389 90.9348 69.9632 89.4879 70.7589 88.4697C71.5545 87.4515 72.5624 86.8621 73.4641 86.5405C74.3659 86.2726 75.1085 86.219 75.6389 86.2726C76.1693 86.4333 76.4345 86.5405 76.4345 86.5941Z" fill="#455A64"/>
<path d="M88.7932 86.7013C88.8463 86.7549 88.1037 87.7731 87.0958 88.9521C86.088 90.131 85.2393 91.0956 85.1863 91.042C85.1332 90.9884 85.8758 89.9702 86.8837 88.7913C87.8915 87.6124 88.7402 86.6478 88.7932 86.7013Z" fill="#EB996E"/>
<path d="M89.2694 90.1875C89.3225 90.2411 88.792 91.0985 88.0494 92.0095C87.3068 92.9741 86.5642 93.6708 86.5112 93.6172C86.4581 93.5636 87.0416 92.8133 87.8372 91.8487C88.6329 90.9377 89.2164 90.1875 89.2694 90.1875Z" fill="#EB996E"/>
<path d="M86.3025 100.905C86.3556 100.959 85.2947 101.441 84.0217 101.923C82.7486 102.406 81.6878 102.727 81.6347 102.674C81.5817 102.62 82.6425 102.138 83.9156 101.655C85.1886 101.173 86.2495 100.798 86.3025 100.905Z" fill="#EB996E"/>
<path d="M78.8224 138.527C78.8224 138.527 80.4137 119.504 79.565 117.092C78.6633 114.681 76.1172 105.571 76.1172 105.571L89.9615 101.391C89.9615 101.391 97.0163 120.2 99.4563 136.705L78.8224 138.527Z" fill="#4D4D4D"/>
<path d="M74.7384 151.173L57.7115 131.881L57.5523 155.352L62.3263 167.839H11.0332L9.49496 138.686L5.83496 107.391C5.41061 103.586 7.53235 99.8884 11.0863 98.4951L25.1428 92.9219L44.928 96.5659L52.8845 99.6204C56.2263 100.907 59.1967 102.997 61.5306 105.73L85.4532 133.381" fill="#4D4D4D"/>
<path d="M56.4922 127.218C56.4922 127.11 57.6061 127.325 59.3565 127.003C61.107 126.735 63.4939 125.878 65.5096 124.002C67.5252 122.127 68.5331 119.769 68.9574 118.054C69.3818 116.286 69.3287 115.16 69.3818 115.16C69.3818 115.16 69.4348 115.428 69.4348 115.964C69.4348 116.5 69.3818 117.197 69.2226 118.108C68.8513 119.876 67.8435 122.341 65.7748 124.27C63.7061 126.199 61.2131 127.057 59.4096 127.271C58.5078 127.378 57.7652 127.378 57.2878 127.325C56.7574 127.325 56.4922 127.271 56.4922 127.218Z" fill="white"/>
<path d="M57.6582 154.279C57.7643 154.279 57.9765 146.134 58.0825 136.167C58.1886 126.145 58.1886 118 58.0295 118C57.9234 118 57.7112 126.092 57.6052 136.113C57.5521 146.188 57.5521 154.279 57.6582 154.279Z" fill="#455A64"/>
<path d="M56.1182 160.281L25.3 147.741C22.8069 146.723 21.1095 144.365 20.8974 141.686L18.6165 111.837C18.6165 111.837 18.8817 99.1363 11.0313 98.5469L6.57563 100.315C0.846936 103.37 -0.585237 111.89 0.210415 118.428C1.32433 127.753 1.80172 140.935 3.02172 149.027C4.02954 155.619 7.79563 161.46 14.2139 163.175L51.7156 167.998L56.1182 160.281Z" fill="#4D4D4D"/>
<path d="M19.0938 116.395C19.0938 116.395 19.1468 116.609 19.1998 117.091C19.2529 117.573 19.3059 118.217 19.412 119.074C19.5711 120.842 19.7833 123.307 20.0485 126.308C20.3137 129.363 20.632 133.007 20.9503 137.026C21.0564 138.044 21.1094 139.062 21.2155 140.134C21.3216 141.206 21.3746 142.278 21.5868 143.35C21.799 144.421 22.3294 145.386 23.1251 146.136C23.9207 146.886 24.9285 147.422 25.9894 147.905C34.4764 151.602 42.3268 154.71 48.0024 156.854C50.8138 157.926 53.1477 158.783 54.739 159.373C55.5346 159.64 56.1181 159.908 56.5955 160.069C57.0198 160.23 57.232 160.337 57.232 160.337C57.232 160.337 57.0198 160.284 56.5955 160.176C56.1181 160.016 55.5346 159.801 54.739 159.587C53.1477 159.051 50.8138 158.247 47.9494 157.175C42.2207 155.085 34.3703 152.084 25.8833 148.333C24.8224 147.851 23.7616 147.262 22.9129 146.458C22.0642 145.654 21.4807 144.529 21.2685 143.457C21.0033 142.331 20.9503 141.26 20.8972 140.188C20.7911 139.116 20.7381 138.098 20.632 137.08C20.3138 133.061 20.0485 129.417 19.7833 126.308C19.5711 123.254 19.412 120.789 19.2529 119.074C19.1998 118.27 19.1468 117.573 19.1468 117.091C19.0937 116.609 19.0938 116.395 19.0938 116.395Z" fill="#455A64"/>
<path d="M14.6387 153.478C14.5856 153.478 14.7447 152.782 15.2221 151.817C15.6995 150.852 16.5482 149.566 17.8213 148.495C19.0943 147.423 20.4734 146.726 21.4813 146.458C22.4891 146.137 23.1787 146.137 23.1787 146.137C23.1787 146.19 22.5421 146.351 21.5873 146.726C20.6326 147.101 19.3065 147.798 18.0865 148.816C16.8665 149.888 16.0178 151.067 15.4873 151.978C14.9039 152.889 14.6917 153.532 14.6387 153.478Z" fill="#4D4D4D"/>
<path d="M20.6836 130.809C20.6836 130.809 20.7366 130.809 20.8958 130.917C21.0549 130.97 21.214 131.077 21.4262 131.185C21.9036 131.399 22.6462 131.774 23.601 132.149C25.5636 132.846 28.5871 133.542 32.2471 132.899C35.854 132.31 40.0975 130.166 42.9619 126.147C44.394 124.165 45.5079 121.753 45.7732 119.074C45.8792 117.734 45.7732 116.394 45.3488 115.108C44.9245 113.822 44.1288 112.643 43.121 111.678C42.1132 110.714 40.8401 110.071 39.514 109.91C38.1879 109.696 36.8088 110.071 35.9071 110.928C35.4827 111.357 35.2175 111.946 35.2175 112.589C35.2175 113.179 35.4297 113.822 35.801 114.304C36.5436 115.322 37.7636 115.805 38.9306 115.965C41.3175 116.287 43.7045 115.858 45.6671 115.001C47.6297 114.143 49.274 112.804 50.441 111.41C51.6079 109.964 52.3505 108.409 52.7749 107.016C53.1992 105.623 53.3584 104.337 53.3584 103.265C53.3584 102.193 53.2523 101.389 53.1992 100.854C53.1462 100.586 53.0932 100.425 53.0932 100.21C53.0932 100.05 53.0401 99.9961 53.0932 99.9961C53.0932 99.9961 53.5175 101.121 53.5705 103.211C53.5705 104.283 53.4645 105.569 53.0401 107.016C52.6158 108.463 51.9262 110.071 50.7062 111.518C49.5392 113.018 47.8949 114.358 45.8262 115.269C43.8106 116.18 41.3706 116.662 38.8775 116.287C37.6575 116.126 36.3314 115.644 35.4827 114.519C35.0584 113.983 34.7932 113.286 34.7932 112.589C34.7932 111.893 35.1114 111.143 35.5888 110.66C36.5966 109.642 38.1349 109.267 39.5671 109.535C40.9992 109.696 42.3253 110.446 43.3862 111.41C44.4471 112.375 45.2958 113.661 45.7201 115.001C46.1975 116.341 46.3036 117.787 46.1445 119.181C45.8792 121.914 44.7123 124.432 43.2271 126.415C40.2566 130.488 35.9071 132.632 32.2471 133.221C28.534 133.81 25.4575 133.06 23.4949 132.364C21.6384 131.506 20.6836 130.809 20.6836 130.809Z" fill="white"/>
<path d="M0.476562 122.825C0.476562 122.825 0.635693 122.557 1.007 122.182C1.3783 121.807 1.90874 121.271 2.65135 120.735C4.13656 119.61 6.62961 118.538 9.49395 118.27C10.9261 118.109 12.3053 118.163 13.5253 118.431C14.7453 118.699 15.8061 119.074 16.6018 119.556C17.4505 119.985 18.087 120.414 18.4583 120.735C18.8826 121.057 19.0948 121.217 19.0948 121.271C19.0418 121.325 18.14 120.628 16.4426 119.878C14.7983 119.074 12.3053 118.431 9.49395 118.752C6.68265 119.02 4.29569 119.985 2.81048 121.003C1.32526 122.021 0.529606 122.879 0.476562 122.825Z" fill="white"/>
<path d="M5.41016 101.495C5.4632 101.442 6.20581 102.46 7.9032 103.317C8.75189 103.746 9.81276 104.121 11.0858 104.282C12.3058 104.389 13.738 104.282 15.0641 103.746C16.3902 103.156 17.5041 102.299 18.2467 101.281C19.0423 100.316 19.5728 99.2445 19.838 98.3335C20.4215 96.5115 20.2093 95.2254 20.3154 95.279C20.3154 95.279 20.4215 95.6005 20.4215 96.1364C20.4215 96.6723 20.3684 97.4761 20.1032 98.4407C19.838 99.4053 19.3606 100.477 18.5119 101.549C17.7162 102.567 16.5493 103.532 15.1702 104.121C13.738 104.711 12.3058 104.818 10.9797 104.657C9.70668 104.496 8.53972 104.067 7.69103 103.585C6.84233 103.103 6.20581 102.567 5.8345 102.192C5.56929 101.763 5.41016 101.495 5.41016 101.495Z" fill="white"/>
<path d="M32.3008 150.584C32.3008 150.584 32.3008 150.37 32.3538 149.994C32.4599 149.619 32.566 149.03 32.8843 148.387C33.5208 147.047 35.059 145.386 37.499 144.314C39.886 143.242 43.2277 143.028 46.5695 143.993C48.2138 144.475 50.0703 145.064 51.2903 146.672C51.8738 147.476 52.086 148.655 51.6617 149.619C51.2373 150.584 50.3886 151.227 49.4869 151.709C48.5851 152.138 47.5773 152.406 46.5695 152.46C45.5617 152.46 44.5538 152.245 43.7582 151.602C42.9625 150.959 42.5912 149.994 42.4851 149.03C42.4321 148.065 42.5912 147.154 42.9095 146.35C44.2356 143.028 46.8877 140.884 49.2747 139.866C51.7147 138.794 53.8895 138.687 55.3217 138.794C56.8069 138.955 57.5495 139.277 57.5495 139.277C57.5495 139.33 56.7538 139.062 55.3217 138.955C53.8895 138.902 51.7677 139.009 49.3808 140.134C48.2138 140.67 46.9938 141.474 45.933 142.492C44.8721 143.564 43.8643 144.904 43.2808 146.458C43.0156 147.261 42.8034 148.119 42.9095 148.976C42.9625 149.834 43.3338 150.691 44.0234 151.281C44.713 151.87 45.6147 152.084 46.5695 152.084C47.5243 152.084 48.426 151.816 49.3277 151.388C50.1764 150.959 50.9721 150.316 51.3434 149.512C51.7147 148.708 51.5556 147.69 51.0251 146.993C50.4947 146.243 49.7521 145.761 48.9564 145.332C48.1608 144.957 47.3121 144.636 46.5164 144.421C43.2277 143.457 40.0451 143.617 37.6582 144.636C35.2712 145.6 33.733 147.208 33.0964 148.494C32.3538 149.727 32.3538 150.584 32.3008 150.584Z" fill="white"/>
<path d="M11.7734 161.837C11.7734 161.784 12.9404 161.676 14.7439 161.033C16.4943 160.39 18.8813 159.104 20.7908 156.961C22.7004 154.817 23.7613 152.298 24.1856 150.476C24.663 148.601 24.61 147.422 24.716 147.422C24.716 147.422 24.7691 147.743 24.7691 148.279C24.7691 148.815 24.716 149.619 24.5039 150.584C24.1326 152.459 23.1247 155.085 21.1091 157.282C19.0934 159.479 16.6534 160.765 14.85 161.355C13.9482 161.623 13.1526 161.784 12.6221 161.837C12.0387 161.837 11.7734 161.837 11.7734 161.837Z" fill="white"/>
<path d="M1.80078 138.58C1.80078 138.58 1.90687 138.526 2.17209 138.419C2.4373 138.312 2.80861 138.204 3.286 138.097C4.24078 137.883 5.67296 137.561 7.47643 137.669C8.37817 137.722 9.33296 137.936 10.3408 138.365C11.2956 138.794 12.3034 139.491 12.993 140.455C13.6825 141.473 14.1069 142.759 14.0538 144.099C14.0008 144.796 13.7886 145.439 13.4173 146.028C13.046 146.618 12.5156 147.154 11.826 147.368C11.1364 147.582 10.2877 147.475 9.7573 146.939C9.22687 146.403 9.06774 145.653 9.01469 145.01C8.96165 143.67 9.22687 142.384 9.7573 141.313C10.7121 139.062 12.5686 137.615 14.266 137.025C15.9634 136.382 17.5017 136.436 18.4564 136.597C18.9338 136.704 19.3051 136.811 19.5703 136.865C19.8356 136.972 19.9416 137.025 19.9416 137.025C19.9416 137.079 19.4112 136.865 18.4564 136.758C17.5017 136.65 16.0164 136.65 14.3721 137.293C12.7277 137.936 11.0303 139.33 10.1286 141.473C9.65122 142.545 9.386 143.724 9.43904 145.01C9.49209 145.6 9.59817 146.243 10.0225 146.671C10.4469 147.047 11.1364 147.154 11.7199 146.993C12.3034 146.779 12.7808 146.35 13.099 145.814C13.4173 145.278 13.6295 144.689 13.6825 144.046C13.7886 142.813 13.4173 141.58 12.7277 140.669C12.0912 139.758 11.1364 139.062 10.2347 138.633C9.33295 138.204 8.37817 137.99 7.47643 137.883C5.726 137.722 4.29382 137.99 3.33904 138.204C2.33122 138.472 1.80078 138.633 1.80078 138.58Z" fill="white"/>
<g opacity="0.3">
<path d="M47.2598 156.694C43.9711 154.818 40.7355 153.371 37.2877 151.764C33.8398 150.156 30.445 148.173 28.2172 145.065C23.9737 139.277 24.4511 130.918 20.1016 125.184C20.3668 129.042 20.685 132.847 20.9503 136.705C21.2155 140.242 20.685 143.725 22.9129 146.083C24.8224 148.119 28.4824 149.62 31.0816 150.531C36.3859 152.353 42.0085 154.979 47.2598 156.694Z" fill="black"/>
</g>
<path d="M93.3018 110.285C93.3018 110.285 93.1957 110.392 92.9305 110.5C92.6653 110.66 92.294 110.875 91.8166 111.196C90.9148 111.839 89.5887 112.857 88.3157 114.411C87.0427 115.966 85.8227 118.109 85.1861 120.681C84.8679 121.967 84.7618 123.414 85.1331 124.754C85.3453 125.451 85.7166 126.094 86.194 126.576C86.6714 127.112 87.3609 127.487 88.0505 127.648C88.7931 127.809 89.5357 127.701 90.1192 127.326C90.7557 126.951 91.18 126.362 91.4983 125.719C91.7635 125.076 91.8696 124.379 91.7635 123.682C91.6574 122.986 91.3392 122.396 90.9679 121.86C90.1722 120.842 89.0053 120.199 87.8383 120.038C86.6714 119.877 85.6105 120.038 84.6557 120.413C83.7009 120.735 82.9583 121.271 82.3218 121.753C81.6853 122.235 81.2079 122.718 80.8366 123.146C80.4653 123.575 80.2 123.897 79.9879 124.165C79.8287 124.379 79.7227 124.54 79.7227 124.54C79.7227 124.54 79.7227 124.486 79.7757 124.433C79.8287 124.379 79.8818 124.272 79.9879 124.165C80.147 123.897 80.4122 123.575 80.7835 123.146C81.1548 122.718 81.6322 122.182 82.2687 121.7C82.9053 121.164 83.6479 120.681 84.6027 120.306C85.5574 119.931 86.6713 119.717 87.8913 119.877C89.0583 120.038 90.3313 120.681 91.18 121.753C91.6044 122.289 91.9227 122.932 92.0287 123.682C92.1348 124.379 92.0818 125.183 91.7635 125.879C91.4453 126.576 90.9679 127.219 90.2783 127.594C89.6418 128.023 88.7931 128.13 87.9974 127.969C87.2018 127.809 86.5122 127.38 85.9818 126.79C85.4514 126.255 85.027 125.558 84.8679 124.808C84.4435 123.361 84.6027 121.86 84.9209 120.574C85.5574 117.948 86.8305 115.805 88.1566 114.251C89.4827 112.697 90.8087 111.678 91.7105 111.089C92.1879 110.767 92.5592 110.553 92.8244 110.446C93.1957 110.339 93.3018 110.285 93.3018 110.285Z" fill="white"/>
<path d="M34.8493 167.785C34.8493 167.785 34.6902 167.785 34.3719 167.677C34.0537 167.624 33.6293 167.517 33.0989 167.409C31.9319 167.195 30.2876 166.874 28.325 166.445C26.3093 166.07 23.8693 165.587 21.2172 164.998C19.8911 164.73 18.4589 164.408 17.0267 164.087C15.5945 163.712 14.0563 163.39 12.6241 162.747C9.70672 161.461 7.26672 159.425 5.83454 157.067C4.40237 154.709 3.65976 152.297 3.18237 150.261C2.70498 148.225 2.54585 146.563 2.43976 145.385C2.38672 144.795 2.38672 144.366 2.38672 144.045C2.38672 143.723 2.38672 143.562 2.38672 143.562C2.38672 143.562 2.43976 143.723 2.43976 144.045C2.43976 144.366 2.49281 144.795 2.54585 145.385C2.65194 146.563 2.86411 148.225 3.39454 150.207C3.87194 152.19 4.61454 154.602 6.09976 156.906C7.53194 159.264 9.91889 161.247 12.7832 162.479C14.2154 163.122 15.7006 163.444 17.1328 163.819C18.565 164.194 19.9441 164.462 21.3232 164.784C23.9754 165.319 26.3624 165.855 28.4311 166.284C30.4467 166.713 32.0911 167.034 33.205 167.302C33.7885 167.463 34.2128 167.57 34.478 167.624C34.6902 167.731 34.8493 167.785 34.8493 167.785Z" fill="#455A64"/>
<path d="M57.074 161.512L58.9305 160.655L61.7949 157.279C62.8027 156.046 64.394 155.51 65.9323 155.778L72.5097 157.065L70.7062 165.853H56.4375L57.074 161.512Z" fill="#FFBE9D"/>
<path d="M64.1298 51.0144C61.3185 49.3531 57.5525 51.3359 54.582 49.9962C52.7785 49.1924 51.7177 47.3168 50.2855 45.977C48.1107 43.9943 44.6098 42.9225 41.7985 43.6192C38.9342 44.3158 36.9716 45.334 35.9638 48.1206C33.9481 46.245 29.3864 48.2278 27.4238 50.8C25.4611 53.3187 25.0898 56.3732 25.0898 59.5885C25.1429 65.1617 26.3098 70.7349 28.4846 75.8258C28.6968 76.2546 29.0151 76.7904 29.4925 76.7369C29.8107 76.6833 30.0229 76.3081 30.129 75.9866C31.2429 73.3072 31.5611 70.3598 31.9855 67.466C32.4098 64.5723 32.9933 61.6785 34.4785 59.1598C35.9638 56.6947 38.6159 54.712 41.5333 54.8192C43.6551 54.8727 45.6177 56.0517 47.1559 57.4986C48.6942 58.9455 49.9672 60.7139 51.4525 62.268C52.8846 63.822 54.582 65.2689 56.6507 65.8584C58.7194 66.4479 61.1594 65.9656 62.4855 64.3043C63.8116 62.6431 63.4403 59.6957 61.5307 58.7847C63.4403 59.0526 65.4559 57.8201 66.0394 55.9981C66.6229 54.1761 65.7742 51.979 64.1298 51.0144Z" fill="#4D4D4D"/>
<path d="M29.1725 61.4653L24.7699 93.7792C24.0273 99.2452 27.9525 104.283 33.469 104.765C38.5612 105.194 43.1229 101.549 43.8125 96.405C44.1308 93.9935 44.396 91.9572 44.449 91.6892C44.449 91.6892 52.6708 92.0643 54.3682 83.9725C55.1638 80.0605 56.2247 71.915 57.0734 64.5198C57.9751 56.5887 52.7238 49.2471 44.9795 47.693L44.1838 47.5323C35.803 46.3533 30.1273 52.8911 29.1725 61.4653Z" fill="#FFC09C"/>
<path d="M44.5005 91.5284C44.5005 91.5284 39.3553 90.9389 34.6875 86.4375C34.6875 86.4375 36.0136 92.7609 44.1292 93.6184L44.5005 91.5284Z" fill="#FFC09C"/>
<path d="M53.7346 69.4508C53.6285 70.0403 53.0451 70.469 52.4085 70.4154C51.772 70.3082 51.3477 69.7723 51.4537 69.1293C51.5598 68.5398 52.1433 68.1111 52.7798 68.1647C53.4164 68.2719 53.8407 68.8613 53.7346 69.4508Z" fill="#4D4D4D"/>
<path d="M54.6355 68.163C54.4764 68.2701 53.7338 67.4663 52.5138 67.1984C51.2938 66.9304 50.286 67.4127 50.1799 67.1984C50.1268 67.0912 50.339 66.8768 50.7634 66.6625C51.1877 66.4481 51.9303 66.2874 52.6729 66.4481C53.4155 66.6089 53.999 67.0376 54.3173 67.4127C54.6355 67.7878 54.6886 68.1094 54.6355 68.163Z" fill="#4D4D4D"/>
<path d="M41.5862 67.4664C41.4801 68.0559 40.8966 68.4846 40.2601 68.431C39.6236 68.3238 39.1992 67.788 39.3053 67.1449C39.4114 66.5554 39.9949 66.1267 40.6314 66.1803C41.2679 66.2875 41.6923 66.8234 41.5862 67.4664Z" fill="#4D4D4D"/>
<path d="M42.4871 65.913C42.328 66.0201 41.5854 65.2163 40.3654 64.9484C39.1454 64.6804 38.1375 65.1627 38.0314 64.9484C37.9784 64.8412 38.1906 64.6268 38.6149 64.4125C39.0393 64.1981 39.7819 64.0374 40.5245 64.1981C41.2671 64.3589 41.8506 64.7876 42.1688 65.1627C42.4871 65.5914 42.5932 65.8594 42.4871 65.913Z" fill="#4D4D4D"/>
<path d="M45.1406 76.0396C45.1406 75.986 45.9363 75.986 47.2093 76.0932C47.5276 76.1468 47.8458 76.1468 47.9519 75.9324C48.058 75.7181 48.005 75.3429 47.9519 74.9678C47.7928 74.164 47.6337 73.253 47.5276 72.342C46.9441 68.6444 46.5198 65.6434 46.6789 65.5898C46.838 65.5898 47.4215 68.5372 48.058 72.2348C48.2171 73.1458 48.3232 74.0032 48.4824 74.8607C48.5354 75.2358 48.6415 75.7181 48.3763 76.1468C48.2702 76.3611 48.005 76.4683 47.7928 76.5219C47.5806 76.5219 47.4215 76.5219 47.2624 76.4683C45.8832 76.254 45.1406 76.0932 45.1406 76.0396Z" fill="#4D4D4D"/>
<path d="M41.3724 76.1484C41.5845 76.202 41.3193 77.5417 42.2741 78.7207C43.2289 79.8996 44.661 80.0604 44.661 80.2212C44.661 80.3283 44.2897 80.4355 43.7063 80.3283C43.1228 80.2212 42.2741 79.846 41.6906 79.1494C41.1071 78.3992 40.948 77.5953 41.0541 77.0058C41.0541 76.4164 41.2663 76.1484 41.3724 76.1484Z" fill="#4D4D4D"/>
<path d="M43.7588 61.1426C43.5466 61.4641 42.3797 61.0354 40.8944 60.9282C39.4092 60.7675 38.1892 60.9818 38.0301 60.6067C37.9771 60.4459 38.2423 60.178 38.7727 59.91C39.3031 59.6957 40.0988 59.5349 41.0005 59.5885C41.9023 59.6421 42.6449 59.9636 43.1223 60.2852C43.6527 60.6603 43.8649 60.9818 43.7588 61.1426Z" fill="#4D4D4D"/>
<path d="M54.8993 64.4657C54.6341 64.68 53.8384 64.2513 52.8306 64.037C51.8228 63.769 50.921 63.8226 50.7619 63.5011C50.7089 63.3403 50.9211 63.0724 51.3454 62.9116C51.7697 62.6972 52.4063 62.6436 53.1489 62.8044C53.8384 62.9652 54.4219 63.3403 54.6871 63.7154C54.9524 64.037 55.0054 64.3585 54.8993 64.4657Z" fill="#4D4D4D"/>
<path d="M28.6424 67.5726C28.5363 67.4655 23.4972 64.8396 22.5424 70.3593C21.6407 75.9325 27.3163 75.7181 27.3693 75.5573C27.4224 75.3966 28.6424 67.5726 28.6424 67.5726Z" fill="#FFC09C"/>
<path d="M26.0423 73.1457C26.0423 73.1457 25.9362 73.1993 25.7771 73.2529C25.618 73.3065 25.3528 73.3065 25.0345 73.1457C24.5041 72.8242 24.1328 71.806 24.2919 70.7878C24.3449 70.3055 24.5571 69.8232 24.7693 69.4481C24.9815 69.073 25.2997 68.805 25.618 68.805C25.9362 68.805 26.0954 69.0194 26.1484 69.1802C26.2015 69.3409 26.1484 69.4481 26.1484 69.4481C26.1484 69.4481 26.3075 69.3945 26.2545 69.1266C26.2545 69.0194 26.2015 68.8586 26.0954 68.7514C25.9893 68.6443 25.7771 68.5371 25.5649 68.5371C25.1406 68.4835 24.6632 68.805 24.398 69.2337C24.1328 69.6624 23.8675 70.1447 23.8145 70.7342C23.6554 71.8596 24.0797 72.9849 24.8223 73.3601C25.1936 73.5208 25.5119 73.4672 25.7241 73.3601C26.0423 73.3065 26.0954 73.1457 26.0423 73.1457Z" fill="#FFC09C"/>
<path d="M59.1427 63.1788C55.4296 63.3932 51.6636 61.7319 49.3296 58.7846C47.7383 56.7482 46.6775 54.0152 44.3966 52.7827C42.8583 51.9252 40.9488 51.9252 39.3044 52.4611C37.6601 52.997 36.1749 54.0152 34.8488 55.1941C35.5914 59.5884 33.6288 63.9827 31.7192 68.0554C31.507 68.4841 31.2949 68.9664 30.8175 69.1807C30.0749 69.5559 29.1731 68.9664 28.7488 68.2697C28.0592 67.1444 27.9531 65.6975 27.9531 64.3578C28.0062 61.3032 28.5366 58.1951 29.7566 55.4085C30.9766 52.6219 32.9392 50.1032 35.4853 48.442C38.6679 46.4056 42.6992 45.8161 46.4123 46.62C50.1253 47.4238 53.467 49.5673 56.0131 52.4611C57.1801 53.8008 58.1879 55.3013 58.6123 57.0697" fill="#4D4D4D"/>
<path d="M66.0376 53.424C66.0376 53.424 66.0376 53.5847 65.8785 53.9063C65.7194 54.1742 65.4541 54.6029 64.8707 54.8709C64.3402 55.1924 63.5446 55.2996 62.6959 55.1388C62.2715 55.0852 61.7941 54.978 61.3698 54.7637C60.8924 54.5493 60.4681 54.2814 60.0968 53.8527C59.7785 53.424 59.5663 52.7809 59.7254 52.1379C59.8846 51.4948 60.5211 51.0661 61.1576 50.9589C61.4759 50.9053 61.8472 50.9053 62.1654 51.0125C62.4837 51.1197 62.802 51.334 63.0141 51.602C63.4915 52.1914 63.5976 52.9417 63.4385 53.6919C63.2794 54.4422 62.802 55.0852 62.1654 55.5675C61.5289 55.9962 60.7333 56.2642 59.9376 56.3178C58.3463 56.4249 56.755 55.7819 55.3759 54.8709C53.9967 53.9063 52.8828 52.7273 51.822 51.602C50.7611 50.4766 49.7533 49.3512 48.6394 48.4938C47.5254 47.6364 46.3054 47.0469 45.0854 46.8326C43.8654 46.6182 42.6454 46.7254 41.6376 47.0469C39.5689 47.6364 38.1898 48.8154 37.3411 49.6192C36.9167 50.0479 36.5985 50.423 36.4394 50.6374C36.2272 50.9053 36.1211 51.0125 36.1211 51.0125C36.1211 51.0125 36.1211 50.9589 36.1741 50.9053C36.2272 50.8517 36.2802 50.7445 36.3863 50.5838C36.5985 50.3158 36.8637 49.9407 37.2881 49.512C38.1367 48.6546 39.5159 47.4221 41.5846 46.779C42.6454 46.4575 43.8654 46.3503 45.1385 46.5646C46.4115 46.779 47.6846 47.3685 48.8515 48.2795C50.0185 49.1369 51.0263 50.2623 52.0872 51.3876C53.1481 52.513 54.262 53.6919 55.5881 54.6029C56.9141 55.5139 58.4524 56.1034 59.9907 55.9962C60.7333 55.9426 61.4759 55.7283 62.0594 55.2996C62.6428 54.8709 63.0672 54.2814 63.2263 53.6383C63.3854 52.9953 63.2263 52.245 62.855 51.7627C62.4837 51.2268 61.7941 51.0661 61.2107 51.1733C60.6272 51.2804 60.0968 51.6556 59.9376 52.1914C59.7785 52.7273 59.9376 53.3168 60.2559 53.6919C60.5741 54.1206 60.9985 54.3886 61.4228 54.6029C61.8472 54.7637 62.3246 54.9245 62.6959 54.978C63.5446 55.1388 64.2872 55.0316 64.8176 54.7637C65.3481 54.4957 65.6663 54.1206 65.8254 53.8527C65.9846 53.5847 65.9846 53.424 66.0376 53.424Z" fill="#455A64"/>
<path d="M25.4595 55.3021C25.5125 55.2485 25.9899 55.7308 27.0508 56.0523C27.5812 56.2131 28.2178 56.3203 28.9073 56.2131C29.5969 56.1595 30.3925 55.9452 31.1352 55.6236C32.6734 54.9806 33.6812 53.748 34.2117 52.837C34.7421 51.8724 34.8482 51.1758 34.9012 51.1758C34.9012 51.1758 34.9012 51.3365 34.8482 51.6581C34.7952 51.9796 34.636 52.4083 34.3708 52.8906C33.8934 53.9088 32.8325 55.1949 31.2412 55.838C30.4456 56.1595 29.6499 56.3739 28.9073 56.4275C28.1647 56.481 27.4752 56.3739 26.9447 56.1595C26.4143 55.9452 26.043 55.7308 25.7778 55.5165C25.5656 55.4629 25.4065 55.3021 25.4595 55.3021Z" fill="#455A64"/>
<path d="M24.875 59.3746C24.875 59.321 25.5115 59.589 26.5193 59.7497C27.5272 59.9105 29.0654 59.8569 30.5507 59.2674C32.0359 58.678 33.1498 57.6062 33.7333 56.8024C34.3698 55.9449 34.635 55.3555 34.688 55.3555C34.688 55.3555 34.635 55.5162 34.5289 55.7842C34.4228 56.0521 34.2107 56.4272 33.8924 56.9095C33.3089 57.8205 32.195 58.8923 30.6567 59.5354C29.1185 60.1784 27.5802 60.1784 26.5193 59.9641C25.9889 59.8569 25.5646 59.7497 25.2993 59.589C25.0341 59.4282 24.875 59.3746 24.875 59.3746Z" fill="#455A64"/>
<path d="M37.3935 70.3606C37.3405 70.3606 37.2344 70.307 37.2344 70.1998C37.2344 70.0927 37.2874 70.0391 37.3935 70.0391C37.4996 70.0391 37.5526 70.0927 37.5526 70.1998C37.4996 70.307 37.4466 70.3606 37.3935 70.3606Z" fill="#FFC09C"/>
<path d="M39.8349 70.3059C39.7819 70.3059 39.6758 70.2523 39.6758 70.1451C39.6758 70.038 39.7288 69.9844 39.8349 69.9844C39.888 69.9844 39.994 70.038 39.994 70.1451C39.994 70.2523 39.888 70.3059 39.8349 70.3059Z" fill="#FFC09C"/>
<path d="M41.4264 70.5732C41.3734 70.5732 41.3203 70.4661 41.3203 70.3589C41.3203 70.2517 41.3734 70.1445 41.4794 70.1445C41.5325 70.1445 41.5855 70.2517 41.5855 70.3589C41.5855 70.5197 41.4794 70.6268 41.4264 70.5732Z" fill="#FFC09C"/>
<path d="M38.2428 72.1295C38.1898 72.1295 38.1367 72.0759 38.1367 72.0223C38.1367 71.9687 38.1898 71.9688 38.2958 71.9688C38.3489 71.9688 38.4019 72.0223 38.4019 72.0759C38.4019 72.0759 38.2958 72.1295 38.2428 72.1295Z" fill="#FFC09C"/>
<path d="M40.4694 72.0207C40.4163 72.0207 40.3633 71.9136 40.3633 71.86C40.3633 71.7528 40.4163 71.6992 40.5224 71.6992C40.5755 71.6992 40.6285 71.8064 40.6285 71.86C40.6285 71.9672 40.5755 72.0207 40.4694 72.0207Z" fill="#FFC09C"/>
<path d="M51.9834 72.9309C52.0712 72.9309 52.1425 72.8589 52.1425 72.7701C52.1425 72.6814 52.0712 72.6094 51.9834 72.6094C51.8955 72.6094 51.8242 72.6814 51.8242 72.7701C51.8242 72.8589 51.8955 72.9309 51.9834 72.9309Z" fill="#FFC09C"/>
<path d="M53.5709 73.1446C53.5179 73.1446 53.4648 73.0375 53.4648 72.9303C53.4648 72.8231 53.5179 72.7695 53.624 72.7695C53.677 72.7695 53.7301 72.8767 53.7301 72.9839C53.7301 73.0375 53.677 73.1446 53.5709 73.1446Z" fill="#FFC09C"/>
<path d="M50.5498 72.7183C50.4967 72.7183 50.3906 72.6647 50.3906 72.6111C50.3906 72.5575 50.4437 72.5039 50.5498 72.5039C50.6028 72.5039 50.7089 72.5575 50.7089 72.6111C50.7089 72.6647 50.6028 72.7183 50.5498 72.7183Z" fill="#FFC09C"/>
<path d="M51.3974 74.5403C51.3444 74.5403 51.2383 74.4867 51.2383 74.4331C51.2383 74.3259 51.2383 74.2723 51.3444 74.2188C51.3974 74.2188 51.5035 74.2723 51.5035 74.3259C51.5035 74.4331 51.5035 74.5403 51.3974 74.5403Z" fill="#FFC09C"/>
<path d="M52.8289 74.5386C52.7759 74.485 52.7228 74.4314 52.7759 74.3778C52.8289 74.3242 52.882 74.3242 52.935 74.3242C52.9881 74.3778 53.0411 74.4314 52.9881 74.485C52.9881 74.5922 52.882 74.5922 52.8289 74.5386Z" fill="#FFC09C"/>
<path d="M23.6025 74.2183C23.6556 74.2183 23.2843 74.6471 23.2312 75.4509C23.1782 75.826 23.2843 76.3083 23.6025 76.737C23.9208 77.1121 24.4512 77.4872 24.9817 77.4337C25.5652 77.3801 26.0425 77.0049 26.2547 76.5762C26.4669 76.0939 26.3608 75.6116 26.3078 75.2365C26.0956 74.4327 25.6712 74.1112 25.7243 74.1112C25.7243 74.0576 26.2547 74.3791 26.5199 75.1829C26.626 75.5581 26.7852 76.0939 26.5199 76.6834C26.3078 77.2193 25.7243 77.648 25.0347 77.7016C24.3452 77.7552 23.7617 77.3265 23.4434 76.8978C23.0721 76.4155 23.0191 75.8796 23.0721 75.4509C23.1252 75.0222 23.2843 74.7006 23.4434 74.5399C23.4434 74.2719 23.5495 74.2183 23.6025 74.2183Z" fill="#4D4D4D"/>
<path d="M23.7618 73.2539C23.7618 73.2539 23.974 73.3611 23.974 73.6826C23.974 73.8434 23.974 74.0577 23.8148 74.2185C23.7088 74.3793 23.4966 74.54 23.2314 74.5936C22.9661 74.5936 22.7009 74.4864 22.5948 74.2721C22.4357 74.1113 22.4357 73.8434 22.4888 73.6826C22.5948 73.3611 22.8601 73.3075 22.8601 73.3611C22.8601 73.4147 22.7009 73.5219 22.7009 73.7362C22.7009 73.8434 22.7009 74.0041 22.807 74.1113C22.9131 74.2185 23.0722 74.3257 23.2314 74.2721C23.3905 74.2721 23.5496 74.1649 23.6557 74.0577C23.7618 73.9506 23.8148 73.7898 23.8148 73.6826C23.8148 73.4683 23.7618 73.3075 23.7618 73.2539Z" fill="#4D4D4D"/>
<path d="M121.362 132.953L105.82 167.786H38.1367L38.455 166.017L61.9002 165.589L73.7289 133.114L121.362 132.953Z" fill="#4D4D4D"/>
<path d="M90.4389 148.762C90.9694 148.387 91.8711 148.333 92.6137 148.601C93.4094 148.815 94.0989 149.673 94.2581 150.477C94.6824 152.138 93.3033 153.531 91.8181 153.585C90.7572 153.638 89.6433 152.942 89.325 151.924C89.0067 150.852 89.3781 149.298 90.4389 148.762Z" fill="#EBEBEB"/>
<path d="M87.5 9.69312L85.7305 11.2305L88.0822 13.9934L89.8518 12.456L87.5 9.69312Z" fill="#4D4D4D"/>
<path d="M89.114 9.70018L85.507 12.8619L82.9609 9.86094C83.9688 8.46764 85.1357 7.39587 86.5679 6.69922L89.114 9.70018Z" fill="#455A64"/>
<path d="M86.1441 12.3261C86.0911 12.3797 85.4545 11.7366 84.7119 10.8792C83.9693 10.0218 83.4389 9.27155 83.4919 9.21796C83.545 9.16437 84.1815 9.80744 84.9241 10.6649C85.6137 11.5223 86.1972 12.2725 86.1441 12.3261Z" fill="#4D4D4D"/>
<path d="M86.8316 11.738C86.7786 11.7915 86.142 11.0949 85.3994 10.1839C84.6568 9.27289 84.1264 8.52265 84.1794 8.52265C84.2325 8.46906 84.922 9.11212 85.6116 10.0231C86.3542 10.8805 86.8847 11.6844 86.8316 11.738Z" fill="#4D4D4D"/>
<path d="M87.734 10.932C87.6809 10.9855 87.0444 10.2889 86.3018 9.37788C85.5592 8.46688 85.0287 7.71664 85.0818 7.66305C85.1348 7.60946 85.7713 8.30611 86.514 9.21712C87.2566 10.0745 87.787 10.8784 87.734 10.932Z" fill="#4D4D4D"/>
<path d="M88.5816 10.1816C88.5286 10.2352 87.892 9.59209 87.1494 8.73468C86.4068 7.87726 85.8764 7.12702 85.9294 7.07343C85.9825 7.01984 86.619 7.66291 87.3616 8.52032C88.0512 9.37774 88.6347 10.128 88.5816 10.1816Z" fill="#4D4D4D"/>
<path d="M118.593 11.8376L116.98 10.1328L114.373 12.6505L115.985 14.3552L118.593 11.8376Z" fill="#4D4D4D"/>
<path d="M118.605 13.4506L115.316 9.96739L118.128 7.23438C119.56 8.14538 120.674 9.32433 121.416 10.7176L118.605 13.4506Z" fill="#455A64"/>
<path d="M115.902 10.5584C115.849 10.5048 116.432 9.80818 117.281 9.05794C118.077 8.25411 118.766 7.66464 118.819 7.71822C118.872 7.77181 118.289 8.46846 117.44 9.2187C116.644 10.0225 115.955 10.612 115.902 10.5584Z" fill="#4D4D4D"/>
<path d="M116.538 11.2537C116.485 11.2001 117.122 10.5035 117.97 9.75325C118.819 8.94942 119.509 8.35995 119.562 8.41354C119.615 8.46713 118.978 9.16378 118.13 9.9676C117.281 10.7178 116.591 11.3073 116.538 11.2537Z" fill="#4D4D4D"/>
<path d="M117.335 12.1092C117.282 12.0556 117.919 11.359 118.82 10.6087C119.669 9.80489 120.412 9.21542 120.465 9.26901C120.518 9.32259 119.881 10.0192 119.033 10.8231C118.131 11.5733 117.388 12.1628 117.335 12.1092Z" fill="#4D4D4D"/>
<path d="M118.128 12.9164C118.075 12.8628 118.712 12.1661 119.507 11.4159C120.303 10.6121 121.045 10.0226 121.099 10.1298C121.152 10.1834 120.515 10.88 119.719 11.6303C118.871 12.3805 118.181 12.97 118.128 12.9164Z" fill="#4D4D4D"/>
<path d="M103.805 3.75H101.047V8.09067H103.805V3.75Z" fill="#4D4D4D"/>
<path d="M105.291 5.03647H99.668V0.37427C101.631 -0.108027 103.54 -0.161615 105.291 0.37427V5.03647Z" fill="#E0E0E0"/>
<path d="M105.344 0.374861C105.397 0.428449 104.177 1.1251 102.479 1.1251C100.782 1.1251 99.5619 0.482038 99.6149 0.428449C99.668 0.321272 100.888 0.857157 102.479 0.857157C104.071 0.857157 105.291 0.321272 105.344 0.374861Z" fill="#4D4D4D"/>
<path d="M101.526 5.03586C101.473 5.03586 101.367 4.12486 101.367 3.05309C101.367 1.92773 101.42 1.07031 101.526 1.07031C101.579 1.07031 101.685 1.98132 101.685 3.05309C101.632 4.12486 101.579 5.03586 101.526 5.03586Z" fill="#4D4D4D"/>
<path d="M102.585 5.03586C102.532 5.03586 102.426 4.12486 102.426 3.05309C102.426 1.92773 102.479 1.07031 102.585 1.07031C102.691 1.07031 102.744 1.98132 102.744 3.05309C102.691 4.12486 102.638 5.03586 102.585 5.03586Z" fill="#4D4D4D"/>
<path d="M103.647 5.03586C103.594 5.03586 103.488 4.12486 103.488 3.05309C103.488 1.92773 103.541 1.07031 103.647 1.07031C103.7 1.07031 103.807 1.98132 103.807 3.05309C103.807 4.12486 103.7 5.03586 103.647 5.03586Z" fill="#4D4D4D"/>
<path d="M104.55 5.03708C104.497 5.03708 104.391 4.07249 104.391 2.89354C104.391 1.71459 104.444 0.75 104.55 0.75C104.603 0.75 104.709 1.71459 104.709 2.89354C104.656 4.07249 104.603 5.03708 104.55 5.03708Z" fill="#4D4D4D"/>
<path d="M100.464 4.98239C100.411 4.98239 100.305 4.0178 100.305 2.83885C100.305 1.65991 100.358 0.695312 100.464 0.695312C100.517 0.695312 100.623 1.65991 100.623 2.83885C100.623 4.0178 100.57 4.98239 100.464 4.98239Z" fill="#4D4D4D"/>
<path d="M102.11 46.9414C113.096 46.9414 122.001 37.9442 122.001 26.8457C122.001 15.7471 113.096 6.75 102.11 6.75C91.1244 6.75 82.2188 15.7471 82.2188 26.8457C82.2188 37.9442 91.1244 46.9414 102.11 46.9414Z" fill="#E0E0E0"/>
<path d="M113.925 38.6197C120.45 32.0276 120.45 21.3396 113.925 14.7475C107.4 8.15534 96.8203 8.15534 90.2952 14.7475C83.7701 21.3396 83.7701 32.0276 90.2952 38.6197C96.8203 45.2118 107.4 45.2118 113.925 38.6197Z" fill="#FAFAFA"/>
<path d="M118.818 26.6857C118.818 26.6857 118.818 26.5785 118.765 26.4177C118.765 26.2034 118.712 25.9354 118.712 25.6139C118.712 25.4531 118.712 25.2388 118.659 25.0244C118.659 24.8101 118.606 24.5957 118.553 24.3278C118.447 23.7919 118.394 23.2024 118.182 22.5594C117.863 21.2732 117.28 19.7192 116.325 18.0579C115.37 16.4503 113.991 14.7354 112.082 13.2885C110.225 11.8417 107.838 10.6627 105.08 10.1804C104.39 10.0732 103.701 9.96606 102.958 9.91247C102.587 9.91247 102.215 9.85889 101.897 9.85889C101.526 9.85889 101.155 9.91247 100.783 9.91247C100.624 9.91247 100.412 9.91247 100.253 9.96606L99.7224 10.0732C99.3511 10.1268 98.9798 10.1804 98.6085 10.234C97.8659 10.4484 97.1233 10.6091 96.3807 10.8771C95.6381 11.0914 94.9485 11.4665 94.2059 11.8417C93.8346 12.056 93.5164 12.2704 93.1981 12.4847C92.8268 12.6991 92.5085 12.9134 92.1903 13.1814C91.5007 13.6637 90.9172 14.2531 90.3337 14.789C89.7503 15.4321 89.1668 16.0216 88.6894 16.7182C87.6816 18.1115 86.8329 19.6656 86.3024 21.3268C85.772 22.9881 85.4537 24.8101 85.4537 26.6321C85.4537 28.4541 85.772 30.2225 86.3024 31.9374C86.8329 33.6522 87.6816 35.1527 88.6894 36.546C89.1668 37.2426 89.7503 37.8857 90.3337 38.4752C90.9703 39.0646 91.5537 39.6005 92.1903 40.0828C92.5085 40.3508 92.8268 40.5651 93.1981 40.7795C93.5694 40.9938 93.8877 41.2082 94.2059 41.4225C94.9485 41.7976 95.6381 42.1192 96.3807 42.3871C97.1233 42.7086 97.8659 42.8158 98.6085 43.0302C98.9798 43.0838 99.3511 43.1374 99.7224 43.1909L100.253 43.2981C100.412 43.2981 100.624 43.2981 100.783 43.3517C101.155 43.3517 101.526 43.4053 101.897 43.4053C102.269 43.4053 102.64 43.3517 102.958 43.3517C103.701 43.3517 104.39 43.1909 105.08 43.0838C107.838 42.6015 110.172 41.3689 112.082 39.9756C113.991 38.5287 115.37 36.8139 116.325 35.2063C117.28 33.5986 117.863 32.0445 118.182 30.7048C118.394 30.0618 118.447 29.4723 118.553 28.9364C118.606 28.6685 118.659 28.4541 118.659 28.2397C118.659 28.0254 118.659 27.811 118.712 27.6503C118.712 27.3287 118.765 27.0608 118.765 26.8464C118.818 26.7929 118.818 26.6857 118.818 26.6857C118.818 26.6857 118.818 26.7929 118.818 26.9536C118.818 27.168 118.818 27.4359 118.818 27.7574C118.818 27.9182 118.818 28.1326 118.818 28.3469C118.818 28.5613 118.765 28.7756 118.712 29.0436C118.659 29.5795 118.553 30.1689 118.394 30.812C118.129 32.1517 117.492 33.7058 116.59 35.367C115.635 37.0283 114.256 38.7431 112.347 40.19C110.437 41.6369 108.05 42.8694 105.292 43.4053C104.602 43.5125 103.913 43.6732 103.17 43.6732C102.799 43.6732 102.428 43.7268 102.056 43.7268C101.685 43.7268 101.314 43.6732 100.942 43.6732C100.73 43.6732 100.571 43.6732 100.359 43.6197L99.7755 43.5125C99.4042 43.4589 99.0329 43.4053 98.6616 43.3517C97.919 43.1374 97.1233 42.9766 96.4337 42.7086C95.6911 42.4407 94.9485 42.0656 94.259 41.7441C93.8877 41.5297 93.5694 41.3153 93.1981 41.101C92.8268 40.8866 92.5085 40.6723 92.1903 40.4043C91.5007 39.922 90.9172 39.3326 90.2807 38.7431C89.6972 38.1 89.1137 37.5106 88.6364 36.7603C87.6285 35.367 86.7798 33.813 86.1964 32.0445C85.6659 30.3297 85.3477 28.5077 85.3477 26.6857C85.3477 24.8637 85.6659 23.0417 86.1964 21.3268C86.7268 19.612 87.6285 18.0579 88.6364 16.611C89.1137 15.9144 89.6972 15.2713 90.2807 14.6283C90.9172 14.0388 91.5007 13.4493 92.1903 12.967C92.5085 12.6991 92.8268 12.4847 93.1981 12.2704C93.5694 12.056 93.8877 11.8417 94.259 11.6273C95.0016 11.2522 95.6911 10.8771 96.4337 10.6627C97.1764 10.3412 97.919 10.1804 98.6616 10.0197C99.0329 9.96606 99.4042 9.91247 99.7755 9.85889L100.359 9.75171C100.571 9.75171 100.73 9.75171 100.942 9.69812C101.314 9.69812 101.685 9.64453 102.056 9.64453C102.428 9.64453 102.799 9.69812 103.17 9.69812C103.913 9.69812 104.602 9.85889 105.292 9.96606C108.05 10.4484 110.49 11.7345 112.347 13.1814C114.256 14.6283 115.635 16.3967 116.59 18.0043C117.545 19.6656 118.129 21.2196 118.394 22.5594C118.606 23.2024 118.659 23.7919 118.712 24.3278C118.765 24.5957 118.765 24.8101 118.818 25.0244C118.818 25.2388 118.818 25.4531 118.818 25.6139C118.818 25.9354 118.818 26.2034 118.871 26.4177C118.818 26.5785 118.818 26.6857 118.818 26.6857Z" fill="#4D4D4D"/>
<path d="M116.379 26.4189C114.841 26.4189 113.621 26.3653 113.621 26.2581C113.621 26.1509 114.841 25.9902 116.379 25.883C117.918 25.7758 119.138 25.883 119.138 26.0438C119.138 26.2045 117.918 26.4189 116.379 26.4189Z" fill="#4D4D4D"/>
<path d="M112.453 36.6542C111.339 35.5825 110.543 34.6715 110.596 34.5643C110.649 34.4571 111.657 35.2609 112.824 36.2791C113.991 37.2973 114.787 38.2083 114.681 38.3691C114.521 38.4763 113.567 37.726 112.453 36.6542Z" fill="#4D4D4D"/>
<path d="M102.533 41.103C102.479 39.5489 102.533 38.3164 102.639 38.3164C102.745 38.3164 102.904 39.5489 103.01 41.103C103.116 42.6571 103.063 43.8896 102.904 43.8896C102.745 43.8896 102.586 42.6571 102.533 41.103Z" fill="#4D4D4D"/>
<path d="M92.3498 37.244C93.4106 36.1187 94.3124 35.2613 94.4184 35.3684C94.5245 35.422 93.7819 36.4402 92.7741 37.6191C91.7663 38.7981 90.8645 39.6555 90.7054 39.4947C90.5993 39.3876 91.3419 38.3694 92.3498 37.244Z" fill="#4D4D4D"/>
<path d="M87.8403 27.2749C89.3786 27.2213 90.5986 27.2749 90.5986 27.3821C90.5986 27.4893 89.3786 27.7036 87.8403 27.8108C86.302 27.918 85.082 27.8644 85.082 27.7036C85.082 27.4893 86.302 27.3285 87.8403 27.2749Z" fill="#4D4D4D"/>
<path d="M91.5532 16.9332C92.6671 17.9513 93.5158 18.9159 93.4628 18.9695C93.4097 19.0767 92.4019 18.3265 91.2349 17.3083C90.068 16.2901 89.2193 15.3791 89.3254 15.2719C89.4314 15.1647 90.4393 15.915 91.5532 16.9332Z" fill="#4D4D4D"/>
<path d="M101.365 12.271C101.418 13.825 101.418 15.0576 101.312 15.0576C101.206 15.0576 100.993 13.825 100.834 12.271C100.675 10.7169 100.728 9.48438 100.887 9.48438C101.1 9.48438 101.312 10.7169 101.365 12.271Z" fill="#4D4D4D"/>
<path d="M111.604 15.9149C110.596 17.0403 109.694 17.9513 109.588 17.8441C109.482 17.7905 110.225 16.7187 111.18 15.5398C112.134 14.3608 113.036 13.5034 113.195 13.6106C113.354 13.7178 112.665 14.7896 111.604 15.9149Z" fill="#4D4D4D"/>
<path d="M116.379 25.7755C114.841 25.8827 113.621 25.8291 113.621 25.7219C113.621 25.6147 114.841 25.4004 116.379 25.2396C117.918 25.0788 119.138 25.0788 119.138 25.2932C119.138 25.454 117.918 25.6683 116.379 25.7755Z" fill="#4D4D4D"/>
<path d="M95.6373 8.41406C95.6373 8.41406 95.319 8.57483 94.7886 8.78918C94.2051 9.05712 93.4095 9.43224 92.5077 9.96813C90.6512 11.0935 88.2112 13.0227 86.3547 15.7557C84.4982 18.5423 83.5964 21.4897 83.2251 23.6868C83.066 24.7586 82.9599 25.6696 82.9599 26.259C82.9599 26.8485 82.9599 27.2236 82.9069 27.2236C82.9069 27.2236 82.9069 27.1165 82.8538 26.9557C82.8538 26.7949 82.8008 26.527 82.8008 26.259C82.8008 25.616 82.8008 24.7586 82.9599 23.6332C83.2251 21.4361 84.1269 18.4351 86.0364 15.5949C87.946 12.7547 90.386 10.8255 92.3486 9.75378C93.3034 9.21789 94.099 8.84277 94.6825 8.62842C94.9477 8.52124 95.213 8.46765 95.3721 8.41406C95.5312 8.41406 95.6373 8.41406 95.6373 8.41406Z" fill="white"/>
<path d="M101.156 7.28629C101.156 7.33987 100.254 7.44705 99.1931 7.60782C98.1322 7.76858 97.2305 7.87576 97.2305 7.76858C97.2305 7.71499 98.0792 7.44705 99.1931 7.28629C100.254 7.2327 101.156 7.2327 101.156 7.28629Z" fill="white"/>
<g opacity="0.4">
<path d="M88.7422 36.8153C88.7422 36.8153 97.3883 50.6412 110.861 43.5675C124.918 36.1723 117.12 19.2383 117.12 19.2383C117.12 19.2383 123.751 32.7426 110.066 41.5311C106.671 43.7282 102.958 43.7282 100.093 43.4603C92.8796 42.71 88.7422 36.8153 88.7422 36.8153Z" fill="black"/>
</g>
<path d="M106.777 17.6836C106.883 20.1487 106.777 22.6673 106.565 25.1324C106.459 26.0434 106.352 26.9544 106.034 27.7582C105.716 28.5621 105.132 29.3659 104.284 29.6874C103.488 30.0625 102.427 29.9018 101.844 29.2051L106.777 17.6836Z" fill="#E0E0E0"/>
<path d="M101.738 25.3465L107.838 15.0039L104.178 26.6862L102.269 27.2757L101.738 25.3465Z" fill="#E0E0E0"/>
<g opacity="0.4">
<path d="M107.837 15.0039L103.328 25.5608L104.177 26.6862L107.837 15.0039Z" fill="black"/>
</g>
<path d="M104.23 27.2757C104.23 28.3475 103.328 29.2585 102.267 29.2585C101.206 29.2585 100.305 28.3475 100.305 27.2757C100.305 26.204 101.206 25.293 102.267 25.293C103.381 25.293 104.23 26.1504 104.23 27.2757Z" fill="#FAFAFA"/>
<path d="M104.231 27.2744C104.231 27.2744 104.177 27.1136 104.124 26.7921C104.018 26.5241 103.859 26.0954 103.382 25.7739C102.957 25.4524 102.268 25.2916 101.631 25.5059C100.995 25.7203 100.411 26.417 100.411 27.2208C100.411 28.0246 100.942 28.7213 101.631 28.9356C102.268 29.2036 102.957 28.9892 103.382 28.6677C103.806 28.3461 104.018 27.9174 104.124 27.6495C104.231 27.4351 104.231 27.2744 104.231 27.2744C104.231 27.2744 104.284 27.4351 104.231 27.7567C104.177 28.0782 103.965 28.5605 103.541 28.9356C103.117 29.3107 102.321 29.5251 101.578 29.2571C100.836 28.9892 100.199 28.239 100.199 27.2744C100.199 26.3634 100.836 25.5595 101.578 25.2916C102.321 25.0237 103.064 25.238 103.541 25.6131C104.018 25.9882 104.177 26.4705 104.231 26.7921C104.284 27.06 104.231 27.2744 104.231 27.2744Z" fill="#4D4D4D"/>
<path d="M102.268 28.7219C103.059 28.7219 103.7 28.0741 103.7 27.275C103.7 26.4759 103.059 25.8281 102.268 25.8281C101.477 25.8281 100.836 26.4759 100.836 27.275C100.836 28.0741 101.477 28.7219 102.268 28.7219Z" fill="#455A64"/>
</g>
<defs>
<clipPath id="clip0_313_4079">
<rect width="122" height="168" fill="white"/>
</clipPath>
</defs>
</svg>
