<svg width="51" height="53" viewBox="0 0 51 53" fill="none" xmlns="http://www.w3.org/2000/svg">
<g clip-path="url(#clip0_425_341)">
<path d="M24.4427 9.70312H10.7383L24.4427 23.4614V9.70312Z" fill="#273A68"/>
<path d="M34.5968 23.2444H41.7046V11.2174L26.9739 25.9863L45.2314 44.2909H5.7678L24.0394 25.9863L9.28461 11.1914V23.2444H16.3613V28.7H0V51.4748H50.934V28.7H34.5928L34.5968 23.2444Z" fill="#273A68"/>
<path d="M24.4396 42.2139V28.5117L10.7773 42.2149L24.4396 42.2139Z" fill="#273A68"/>
<path d="M0 0.527344V23.245H7.17893V7.60399H43.8042V23.245H50.934V0.527344H0Z" fill="#273A68"/>
<path d="M26.543 42.2167H40.2214L26.543 28.4844V42.2167Z" fill="#273A68"/>
<path d="M26.543 9.70312V23.4855L40.2865 9.70312H26.543Z" fill="#273A68"/>
</g>
<defs>
<clipPath id="clip0_425_341">
<rect width="51" height="52" fill="white" transform="translate(0 0.5)"/>
</clipPath>
</defs>
</svg>
