<svg width="332" height="44" viewBox="0 0 332 44" fill="none" xmlns="http://www.w3.org/2000/svg">
<g clip-path="url(#clip0_313_12199)">
<path d="M21.6694 43.9991C21.0803 43.9991 20.4912 43.9991 19.9165 43.9991C19.6578 43.9704 19.3992 43.9416 19.1549 43.9272C18.1778 43.8553 17.2151 43.7115 16.2668 43.4958C12.2291 42.5612 8.76626 40.62 5.87813 37.6436C4.31194 36.0331 3.04748 34.2213 2.0704 32.2083C0.89216 29.7638 0.231196 27.1756 0.0444012 24.4723C-0.013074 23.552 0.00129478 22.6318 0.05877 21.6971C0.130614 20.6475 0.288671 19.6122 0.518572 18.5913C1.42381 14.6802 3.30612 11.3154 6.1224 8.48277C7.86103 6.7429 9.85829 5.34813 12.0998 4.31283C14.5138 3.19126 17.0427 2.57296 19.6866 2.42917C20.6062 2.37166 21.5258 2.44355 22.431 2.65924C23.6667 2.94682 24.7875 3.47885 25.664 4.41349C27.4888 6.32591 29.2993 8.2527 31.1241 10.1795C33.0208 12.1926 34.9175 14.1913 36.8142 16.2043C37.1015 16.5063 37.3889 16.8226 37.6907 17.139C35.8946 19.0083 34.0985 20.8488 32.288 22.7324C28.4372 18.8788 24.6007 15.0396 20.7929 11.2292C16.7984 15.2266 12.8039 19.2239 8.83811 23.1926C12.8183 27.1756 16.8128 31.173 20.8361 35.1991C20.8648 35.156 20.9079 35.0841 20.9654 35.0266C24.8593 31.1298 28.7533 27.2331 32.6328 23.3507C32.7334 23.2501 32.8196 23.207 32.9633 23.207C35.7509 23.207 38.5384 23.207 41.326 23.207C41.3547 23.207 41.3978 23.207 41.4265 23.207C41.5415 23.1926 41.5702 23.2501 41.5559 23.3507C41.5415 23.5664 41.5415 23.7821 41.5271 23.9978C41.4984 24.9468 41.3978 25.8815 41.2254 26.8161C40.8518 28.9154 40.1621 30.9141 39.1706 32.8122C37.8631 35.2998 36.1245 37.4422 33.9548 39.2253C31.4833 41.2527 28.7102 42.6619 25.5921 43.4096C24.5432 43.6684 23.4799 43.8409 22.4023 43.9128C22.1867 43.9416 21.9281 43.9704 21.6694 43.9991Z" fill="white"/>
<path d="M19.6719 1.43639C19.9593 1.14881 20.261 0.961881 20.5771 0.803711C21.2524 0.487371 21.9709 0.300443 22.7181 0.171031C23.5371 0.0416191 24.3561 -0.0302763 25.1895 -0.00151812C27.1868 0.0703773 29.0978 0.458613 30.8364 1.50829C31.5692 1.93966 32.1584 2.54358 32.7331 3.1475C33.8395 4.29783 34.9459 5.44815 36.0523 6.59848C37.4748 8.06515 38.883 9.54619 40.3055 11.0129C40.8084 11.5449 41.3113 12.0625 41.8286 12.5946C41.886 12.6521 41.9435 12.7096 42.001 12.7815C40.8802 13.9174 39.7595 15.0534 38.6243 16.2181C38.3944 15.988 38.1933 15.758 37.9921 15.5423C35.3339 12.724 32.69 9.89129 30.0318 7.07299C28.9685 5.93704 27.9052 4.78672 26.8132 3.66515C26.0373 2.85992 25.0602 2.31351 24.0113 1.92528C22.8186 1.47953 21.5829 1.30698 20.3185 1.37887C20.1173 1.37887 19.9161 1.40763 19.6719 1.43639Z" fill="#FE7209"/>
</g>
<path d="M68.437 17.466V15.516H71.687C72.0683 15.516 72.3977 15.451 72.675 15.321C72.9523 15.191 73.1647 15.0047 73.312 14.762C73.468 14.5107 73.546 14.216 73.546 13.878C73.546 13.54 73.468 13.2497 73.312 13.007C73.1647 12.7643 72.9523 12.578 72.675 12.448C72.3977 12.318 72.0683 12.253 71.687 12.253H68.45V10.316H71.817C72.6923 10.316 73.442 10.4633 74.066 10.758C74.69 11.0527 75.171 11.4687 75.509 12.006C75.8557 12.5347 76.029 13.1587 76.029 13.878C76.029 14.5973 75.8557 15.2257 75.509 15.763C75.171 16.3003 74.69 16.7207 74.066 17.024C73.442 17.3187 72.6923 17.466 71.817 17.466H68.437ZM64.55 17.466C63.692 17.466 62.9467 17.3187 62.314 17.024C61.69 16.7207 61.2047 16.3003 60.858 15.763C60.52 15.2257 60.351 14.5973 60.351 13.878C60.351 13.1587 60.52 12.5347 60.858 12.006C61.2047 11.4687 61.69 11.0527 62.314 10.758C62.9467 10.4633 63.692 10.316 64.55 10.316H67.917V12.253H64.68C64.2987 12.253 63.9693 12.318 63.692 12.448C63.4147 12.578 63.2023 12.7643 63.055 13.007C62.9077 13.2497 62.834 13.54 62.834 13.878C62.834 14.216 62.9077 14.5107 63.055 14.762C63.2023 15.0047 63.4147 15.191 63.692 15.321C63.9693 15.451 64.2987 15.516 64.68 15.516H67.93V17.466H64.55ZM66.955 19.299V8.951H69.412V19.299H66.955ZM85.4528 13.215V15.035H78.3938V13.215H85.4528ZM80.0578 14.125L79.4078 18.155L78.3808 16.985H85.8688V19H76.9508L77.7048 14.125L76.9508 9.25H85.8038V11.265H78.3808L79.4078 10.095L80.0578 14.125ZM86.7164 20.976V16.842H88.6664L89.5634 16.868H96.4664L97.0644 16.842H99.7944V20.976H97.5064V19H89.0044V20.976H86.7164ZM88.7704 9.25H98.1044V18.272H95.6474V10.277L96.7524 11.395H90.0834L91.0974 10.576C91.1581 11.0007 91.1971 11.4123 91.2144 11.811C91.2318 12.201 91.2404 12.5737 91.2404 12.929C91.2404 13.969 91.1538 14.8443 90.9804 15.555C90.8071 16.2657 90.5471 16.8073 90.2004 17.18C89.8624 17.544 89.4421 17.726 88.9394 17.726L87.9124 16.868C88.2678 16.4607 88.5321 15.893 88.7054 15.165C88.8788 14.4283 88.9654 13.5183 88.9654 12.435C88.9654 11.941 88.9481 11.4297 88.9134 10.901C88.8788 10.3637 88.8311 9.81333 88.7704 9.25ZM109.307 13.215V15.035H102.248V13.215H109.307ZM103.912 14.125L103.262 18.155L102.235 16.985H109.723V19H100.805L101.559 14.125L100.805 9.25H109.658V11.265H102.235L103.262 10.095L103.912 14.125ZM116.732 9.25C117.529 9.25 118.214 9.38867 118.786 9.666C119.366 9.93467 119.808 10.316 120.112 10.81C120.424 11.304 120.58 11.8803 120.58 12.539C120.58 13.1977 120.424 13.774 120.112 14.268C119.808 14.762 119.366 15.1477 118.786 15.425C118.214 15.6937 117.529 15.828 116.732 15.828H112.468V13.839H116.602C117.07 13.839 117.438 13.7263 117.707 13.501C117.975 13.267 118.11 12.9463 118.11 12.539C118.11 12.1317 117.975 11.8153 117.707 11.59C117.438 11.356 117.07 11.239 116.602 11.239H112.689L113.794 10.095V19H111.337V9.25H116.732ZM122.41 17.037V15.048H129.144V17.037H122.41ZM127.428 9.25L131.926 19H129.313L125.452 10.277H126.206L122.358 19H119.732L124.243 9.25H127.428ZM134.557 9.25H143.93V19H141.473V10.316L142.578 11.421H135.922L136.962 10.602C137.022 11.2087 137.066 11.7893 137.092 12.344C137.126 12.89 137.144 13.41 137.144 13.904C137.144 15.1433 137.031 16.153 136.806 16.933C136.589 17.7043 136.242 18.2763 135.766 18.649C135.298 19.013 134.687 19.195 133.933 19.195C133.612 19.195 133.296 19.1603 132.984 19.091C132.672 19.0217 132.39 18.922 132.139 18.792V16.751C132.52 16.8983 132.871 16.972 133.192 16.972C133.772 16.972 134.188 16.7033 134.44 16.166C134.7 15.6287 134.83 14.7577 134.83 13.553C134.83 12.981 134.808 12.3397 134.765 11.629C134.721 10.9097 134.652 10.1167 134.557 9.25ZM145.83 19V9.25H148.287V18.155L147.182 17.063H151.056C151.533 17.063 151.905 16.9417 152.174 16.699C152.451 16.4563 152.59 16.127 152.59 15.711C152.59 15.2863 152.451 14.9527 152.174 14.71C151.905 14.4673 151.533 14.346 151.056 14.346H146.961V12.409H151.199C152.005 12.409 152.694 12.5477 153.266 12.825C153.847 13.0937 154.293 13.475 154.605 13.969C154.917 14.463 155.073 15.0437 155.073 15.711C155.073 16.3697 154.917 16.946 154.605 17.44C154.293 17.934 153.847 18.3197 153.266 18.597C152.694 18.8657 152.005 19 151.199 19H145.83ZM156.291 9.25H158.748V19H156.291V9.25ZM164.039 9.25H166.496V19H164.039V9.25ZM157.656 12.981H165.079V15.139H157.656V12.981ZM170.144 17.037V15.048H176.878V17.037H170.144ZM175.162 9.25L179.66 19H177.047L173.186 10.277H173.94L170.092 19H167.466L171.977 9.25H175.162ZM188.115 13.644V15.399H183.981L183.968 15.347C183.24 15.347 182.603 15.2213 182.057 14.97C181.511 14.7187 181.082 14.3677 180.77 13.917C180.467 13.4663 180.315 12.9377 180.315 12.331C180.315 11.7157 180.467 11.1783 180.77 10.719C181.082 10.2597 181.511 9.9 182.057 9.64C182.603 9.38 183.24 9.25 183.968 9.25H189.805V19H187.348V9.913L188.453 11.018H184.306C183.829 11.018 183.457 11.135 183.188 11.369C182.919 11.603 182.785 11.9237 182.785 12.331C182.785 12.7383 182.919 13.059 183.188 13.293C183.457 13.527 183.829 13.644 184.306 13.644H188.115ZM186.36 14.437L182.915 19H180.068L183.604 14.437H186.36ZM205.672 14.97C205.577 15.8107 205.287 16.5517 204.801 17.193C204.316 17.8257 203.675 18.3197 202.877 18.675C202.08 19.0303 201.174 19.208 200.16 19.208C199.034 19.208 198.046 18.9957 197.196 18.571C196.356 18.1463 195.701 17.5527 195.233 16.79C194.765 16.0273 194.531 15.139 194.531 14.125C194.531 13.111 194.765 12.2227 195.233 11.46C195.701 10.6973 196.356 10.1037 197.196 9.679C198.046 9.25433 199.034 9.042 200.16 9.042C201.174 9.042 202.08 9.21967 202.877 9.575C203.675 9.93033 204.316 10.4243 204.801 11.057C205.287 11.6897 205.577 12.4307 205.672 13.28H203.202C203.116 12.838 202.938 12.461 202.669 12.149C202.409 11.837 202.063 11.5987 201.629 11.434C201.205 11.2607 200.711 11.174 200.147 11.174C199.497 11.174 198.938 11.2953 198.47 11.538C198.002 11.772 197.643 12.11 197.391 12.552C197.14 12.994 197.014 13.5183 197.014 14.125C197.014 14.7317 197.14 15.256 197.391 15.698C197.643 16.14 198.002 16.4823 198.47 16.725C198.938 16.959 199.497 17.076 200.147 17.076C200.711 17.076 201.205 16.9937 201.629 16.829C202.063 16.6643 202.409 16.426 202.669 16.114C202.938 15.802 203.116 15.4207 203.202 14.97H205.672ZM208.367 9.25H217.74V19H215.283V10.316L216.388 11.421H209.732L210.772 10.602C210.833 11.2087 210.876 11.7893 210.902 12.344C210.937 12.89 210.954 13.41 210.954 13.904C210.954 15.1433 210.842 16.153 210.616 16.933C210.4 17.7043 210.053 18.2763 209.576 18.649C209.108 19.013 208.497 19.195 207.743 19.195C207.423 19.195 207.106 19.1603 206.794 19.091C206.482 19.0217 206.201 18.922 205.949 18.792V16.751C206.331 16.8983 206.682 16.972 207.002 16.972C207.583 16.972 207.999 16.7033 208.25 16.166C208.51 15.6287 208.64 14.7577 208.64 13.553C208.64 12.981 208.619 12.3397 208.575 11.629C208.532 10.9097 208.463 10.1167 208.367 9.25ZM221.941 19L223.657 16.023H223.696L227.57 9.25H230.222L224.593 19H221.941ZM223.631 17.635L218.769 9.25H221.473L225.36 15.971L223.631 17.635ZM230.206 19L234.067 12.76L235.835 14.281L232.988 19H230.206ZM245.481 19L242.647 14.281L244.415 12.76L248.276 19H245.481ZM240.45 16.751L239.761 16.504L245.533 9.25H248.133L240.138 19H238.344L230.349 9.25H232.949L238.708 16.504L238.032 16.751V9.25H240.45V16.751ZM250.793 13.007H255.161C255.959 13.007 256.617 13.1327 257.137 13.384C257.666 13.6353 258.06 13.9863 258.32 14.437C258.58 14.879 258.71 15.4033 258.71 16.01C258.71 16.608 258.567 17.1323 258.281 17.583C258.004 18.0337 257.597 18.3847 257.059 18.636C256.531 18.8787 255.898 19 255.161 19H248.921L249.675 13.917L248.921 9.25H257.943V11.148H250.442L251.378 9.991L252.015 13.878L251.326 18.324L250.39 17.18H254.862C255.296 17.18 255.638 17.0717 255.889 16.855C256.141 16.6383 256.266 16.335 256.266 15.945C256.266 15.5637 256.136 15.2647 255.876 15.048C255.625 14.8227 255.283 14.71 254.849 14.71H250.793V13.007ZM261.335 17.037V15.048H268.069V17.037H261.335ZM266.353 9.25L270.851 19H268.238L264.377 10.277H265.131L261.283 19H258.657L263.168 9.25H266.353Z" fill="white"/>
<path d="M71.102 25.25V35H68.645V26.316L69.763 27.421H62.301L63.406 26.316V35H60.949V25.25H71.102ZM78.2879 35.208C77.1439 35.208 76.1385 34.9957 75.2719 34.571C74.4139 34.1463 73.7465 33.5527 73.2699 32.79C72.7932 32.0273 72.5549 31.139 72.5549 30.125C72.5549 29.111 72.7932 28.2227 73.2699 27.46C73.7465 26.6973 74.4139 26.1037 75.2719 25.679C76.1385 25.2543 77.1439 25.042 78.2879 25.042C79.4319 25.042 80.4329 25.2543 81.2909 25.679C82.1575 26.1037 82.8292 26.6973 83.3059 27.46C83.7912 28.2227 84.0339 29.111 84.0339 30.125C84.0339 31.139 83.7912 32.0273 83.3059 32.79C82.8292 33.5527 82.1575 34.1463 81.2909 34.571C80.4329 34.9957 79.4319 35.208 78.2879 35.208ZM78.2879 33.011C78.9639 33.011 79.5445 32.8983 80.0299 32.673C80.5152 32.439 80.8879 32.1053 81.1479 31.672C81.4165 31.2387 81.5509 30.723 81.5509 30.125C81.5509 29.527 81.4165 29.0113 81.1479 28.578C80.8879 28.1447 80.5152 27.8153 80.0299 27.59C79.5445 27.356 78.9639 27.239 78.2879 27.239C77.6205 27.239 77.0442 27.356 76.5589 27.59C76.0735 27.8153 75.6965 28.1447 75.4279 28.578C75.1592 29.0113 75.0249 29.527 75.0249 30.125C75.0249 30.723 75.1592 31.2387 75.4279 31.672C75.6965 32.1053 76.0735 32.439 76.5589 32.673C77.0442 32.8983 77.6205 33.011 78.2879 33.011ZM99.464 25.25V35H97.124V26.108L97.696 26.147L93.731 35H91.222L87.257 26.173L87.829 26.121V35H85.489V25.25H89.272L92.977 33.778H91.989L95.681 25.25H99.464ZM106.649 35.208C105.505 35.208 104.5 34.9957 103.633 34.571C102.775 34.1463 102.108 33.5527 101.631 32.79C101.155 32.0273 100.916 31.139 100.916 30.125C100.916 29.111 101.155 28.2227 101.631 27.46C102.108 26.6973 102.775 26.1037 103.633 25.679C104.5 25.2543 105.505 25.042 106.649 25.042C107.793 25.042 108.794 25.2543 109.652 25.679C110.519 26.1037 111.191 26.6973 111.667 27.46C112.153 28.2227 112.395 29.111 112.395 30.125C112.395 31.139 112.153 32.0273 111.667 32.79C111.191 33.5527 110.519 34.1463 109.652 34.571C108.794 34.9957 107.793 35.208 106.649 35.208ZM106.649 33.011C107.325 33.011 107.906 32.8983 108.391 32.673C108.877 32.439 109.249 32.1053 109.509 31.672C109.778 31.2387 109.912 30.723 109.912 30.125C109.912 29.527 109.778 29.0113 109.509 28.578C109.249 28.1447 108.877 27.8153 108.391 27.59C107.906 27.356 107.325 27.239 106.649 27.239C105.982 27.239 105.406 27.356 104.92 27.59C104.435 27.8153 104.058 28.1447 103.789 28.578C103.521 29.0113 103.386 29.527 103.386 30.125C103.386 30.723 103.521 31.2387 103.789 31.672C104.058 32.1053 104.435 32.439 104.92 32.673C105.406 32.8983 105.982 33.011 106.649 33.011ZM129.541 25.25V33.791L128.501 32.829H131.231V36.976H128.93V34.233L130.035 35H113.85V25.25H116.307V33.791L115.267 32.829H121.507L120.467 33.791V25.25H122.924V33.791L121.884 32.829H128.124L127.084 33.791V25.25H129.541ZM132.551 35V25.25H134.969V33.726L134.254 33.583L140.104 25.25H143.302V35H140.897V26.381L141.599 26.524L135.671 35H132.551Z" fill="#FE7209"/>
<defs>
<clipPath id="clip0_313_12199">
<rect width="42" height="44" fill="white"/>
</clipPath>
</defs>
</svg>
