<svg width="185" height="34" viewBox="0 0 185 34" fill="none" xmlns="http://www.w3.org/2000/svg">
<g clip-path="url(#clip0_414_7191)">
<path d="M92.7875 19.9978C92.535 19.9978 92.2825 19.9978 92.0362 19.9978C91.9253 19.9847 91.8145 19.9717 91.7098 19.9651C91.2911 19.9325 90.8785 19.8671 90.472 19.7691C88.7416 19.3442 87.2575 18.4619 86.0198 17.1089C85.3485 16.3769 84.8066 15.5534 84.3879 14.6383C83.8829 13.5272 83.5996 12.3508 83.5196 11.122C83.495 10.7037 83.5011 10.2854 83.5257 9.86056C83.5565 9.38344 83.6243 8.91285 83.7228 8.4488C84.1108 6.67102 84.9175 5.14161 86.1244 3.85403C86.8696 3.06318 87.7255 2.42919 88.6862 1.9586C89.7208 1.4488 90.8046 1.16775 91.9377 1.10239C92.3318 1.07625 92.7259 1.10893 93.1138 1.20697C93.6434 1.33769 94.1238 1.57952 94.4994 2.00436C95.2815 2.87364 96.0574 3.74945 96.8395 4.62527C97.6523 5.5403 98.4652 6.4488 99.2781 7.36383C99.4012 7.50109 99.5244 7.64488 99.6537 7.78867C98.8839 8.63834 98.1142 9.47494 97.3383 10.3312C95.6879 8.57952 94.0437 6.83442 92.4118 5.10239C90.6999 6.91939 88.9879 8.73638 87.2883 10.5403C88.9941 12.3508 90.706 14.1678 92.4303 15.9978C92.4426 15.9782 92.4611 15.9455 92.4857 15.9194C94.1546 14.1481 95.8234 12.3769 97.4861 10.6122C97.5292 10.5664 97.5661 10.5468 97.6277 10.5468C98.8224 10.5468 100.017 10.5468 101.212 10.5468C101.224 10.5468 101.242 10.5468 101.255 10.5468C101.304 10.5403 101.316 10.5664 101.31 10.6122C101.304 10.7102 101.304 10.8083 101.298 10.9063C101.286 11.3377 101.242 11.7625 101.169 12.1874C101.008 13.1416 100.713 14.0501 100.288 14.9129C99.7276 16.0436 98.9825 17.0174 98.0526 17.8279C96.9934 18.7495 95.8049 19.39 94.4686 19.7298C94.0191 19.8475 93.5634 19.9259 93.1015 19.9586C93.0092 19.9717 92.8983 19.9847 92.7875 19.9978Z" fill="#455A64"/>
<path d="M91.9297 0.65255C92.0528 0.521831 92.1822 0.436863 92.3176 0.364968C92.6071 0.221177 92.915 0.13621 93.2352 0.0773862C93.5862 0.0185627 93.9372 -0.0141171 94.2944 -0.00104517C95.1504 0.0316346 95.9694 0.208105 96.7145 0.685229C97.0286 0.881308 97.281 1.15582 97.5274 1.43033C98.0015 1.9532 98.4757 2.47608 98.9499 2.99895C99.5595 3.66562 100.163 4.33882 100.773 5.00549C100.988 5.24732 101.204 5.48261 101.425 5.72444C101.45 5.75059 101.475 5.77673 101.499 5.80941C101.019 6.32575 100.539 6.84209 100.052 7.3715C99.9536 7.26693 99.8674 7.16235 99.7812 7.06431C98.642 5.78327 97.5089 4.49569 96.3696 3.21464C95.914 2.6983 95.4583 2.17543 94.9902 1.66562C94.6577 1.29961 94.239 1.05124 93.7894 0.874772C93.2783 0.672157 92.7487 0.593726 92.2068 0.626406C92.1206 0.626406 92.0344 0.639478 91.9297 0.65255Z" fill="#FE7209"/>
</g>
<path d="M5.692 31.056V29.856H7.692C7.92667 29.856 8.12933 29.816 8.3 29.736C8.47067 29.656 8.60133 29.5413 8.692 29.392C8.788 29.2373 8.836 29.056 8.836 28.848C8.836 28.64 8.788 28.4613 8.692 28.312C8.60133 28.1627 8.47067 28.048 8.3 27.968C8.12933 27.888 7.92667 27.848 7.692 27.848H5.7V26.656H7.772C8.31067 26.656 8.772 26.7467 9.156 26.928C9.54 27.1093 9.836 27.3653 10.044 27.696C10.2573 28.0213 10.364 28.4053 10.364 28.848C10.364 29.2907 10.2573 29.6773 10.044 30.008C9.836 30.3387 9.54 30.5973 9.156 30.784C8.772 30.9653 8.31067 31.056 7.772 31.056H5.692ZM3.3 31.056C2.772 31.056 2.31333 30.9653 1.924 30.784C1.54 30.5973 1.24133 30.3387 1.028 30.008C0.82 29.6773 0.716 29.2907 0.716 28.848C0.716 28.4053 0.82 28.0213 1.028 27.696C1.24133 27.3653 1.54 27.1093 1.924 26.928C2.31333 26.7467 2.772 26.656 3.3 26.656H5.372V27.848H3.38C3.14533 27.848 2.94267 27.888 2.772 27.968C2.60133 28.048 2.47067 28.1627 2.38 28.312C2.28933 28.4613 2.244 28.64 2.244 28.848C2.244 29.056 2.28933 29.2373 2.38 29.392C2.47067 29.5413 2.60133 29.656 2.772 29.736C2.94267 29.816 3.14533 29.856 3.38 29.856H5.38V31.056H3.3ZM4.78 32.184V25.816H6.292V32.184H4.78ZM16.1633 28.44V29.56H11.8193V28.44H16.1633ZM12.8433 29L12.4433 31.48L11.8113 30.76H16.4193V32H10.9313L11.3953 29L10.9313 26H16.3793V27.24H11.8113L12.4433 26.52L12.8433 29ZM16.9409 33.216V30.672H18.1409L18.6929 30.688H22.9409L23.3089 30.672H24.9889V33.216H23.5809V32H18.3489V33.216H16.9409ZM18.2049 26H23.9489V31.552H22.4369V26.632L23.1169 27.32H19.0129L19.6369 26.816C19.6742 27.0773 19.6982 27.3307 19.7089 27.576C19.7195 27.816 19.7249 28.0453 19.7249 28.264C19.7249 28.904 19.6715 29.4427 19.5649 29.88C19.4582 30.3173 19.2982 30.6507 19.0849 30.88C18.8769 31.104 18.6182 31.216 18.3089 31.216L17.6769 30.688C17.8955 30.4373 18.0582 30.088 18.1649 29.64C18.2715 29.1867 18.3249 28.6267 18.3249 27.96C18.3249 27.656 18.3142 27.3413 18.2929 27.016C18.2715 26.6853 18.2422 26.3467 18.2049 26ZM30.8429 28.44V29.56H26.4989V28.44H30.8429ZM27.5229 29L27.1229 31.48L26.4909 30.76H31.0989V32H25.6109L26.0749 29L25.6109 26H31.0589V27.24H26.4909L27.1229 26.52L27.5229 29ZM35.4118 26C35.9025 26 36.3238 26.0853 36.6758 26.256C37.0331 26.4213 37.3051 26.656 37.4918 26.96C37.6838 27.264 37.7798 27.6187 37.7798 28.024C37.7798 28.4293 37.6838 28.784 37.4918 29.088C37.3051 29.392 37.0331 29.6293 36.6758 29.8C36.3238 29.9653 35.9025 30.048 35.4118 30.048H32.7878V28.824H35.3318C35.6198 28.824 35.8465 28.7547 36.0118 28.616C36.1771 28.472 36.2598 28.2747 36.2598 28.024C36.2598 27.7733 36.1771 27.5787 36.0118 27.44C35.8465 27.296 35.6198 27.224 35.3318 27.224H32.9238L33.6038 26.52V32H32.0918V26H35.4118ZM38.9062 30.792V29.568H43.0502V30.792H38.9062ZM41.9942 26L44.7622 32H43.1542L40.7782 26.632H41.2422L38.8742 32H37.2582L40.0342 26H41.9942ZM46.3811 26H52.1491V32H50.6371V26.656L51.3171 27.336H47.2211L47.8611 26.832C47.8984 27.2053 47.9251 27.5627 47.9411 27.904C47.9624 28.24 47.9731 28.56 47.9731 28.864C47.9731 29.6267 47.9037 30.248 47.7651 30.728C47.6317 31.2027 47.4184 31.5547 47.1251 31.784C46.8371 32.008 46.4611 32.12 45.9971 32.12C45.7997 32.12 45.6051 32.0987 45.4131 32.056C45.2211 32.0133 45.0477 31.952 44.8931 31.872V30.616C45.1277 30.7067 45.3437 30.752 45.5411 30.752C45.8984 30.752 46.1544 30.5867 46.3091 30.256C46.4691 29.9253 46.5491 29.3893 46.5491 28.648C46.5491 28.296 46.5357 27.9013 46.5091 27.464C46.4824 27.0213 46.4397 26.5333 46.3811 26ZM53.3184 32V26H54.8304V31.48L54.1504 30.808H56.5344C56.8277 30.808 57.057 30.7333 57.2224 30.584C57.393 30.4347 57.4784 30.232 57.4784 29.976C57.4784 29.7147 57.393 29.5093 57.2224 29.36C57.057 29.2107 56.8277 29.136 56.5344 29.136H54.0144V27.944H56.6224C57.1184 27.944 57.5424 28.0293 57.8944 28.2C58.2517 28.3653 58.5264 28.6 58.7184 28.904C58.9104 29.208 59.0064 29.5653 59.0064 29.976C59.0064 30.3813 58.9104 30.736 58.7184 31.04C58.5264 31.344 58.2517 31.5813 57.8944 31.752C57.5424 31.9173 57.1184 32 56.6224 32H53.3184ZM59.7559 26H61.2679V32H59.7559V26ZM64.5239 26H66.0359V32H64.5239V26ZM60.5959 28.296H65.1639V29.624H60.5959V28.296ZM68.2812 30.792V29.568H72.4252V30.792H68.2812ZM71.3692 26L74.1372 32H72.5292L70.1532 26.632H70.6172L68.2492 32H66.6332L69.4092 26H71.3692ZM79.3401 28.704V29.784H76.7961L76.7881 29.752C76.3401 29.752 75.9481 29.6747 75.6121 29.52C75.2761 29.3653 75.0121 29.1493 74.8201 28.872C74.6334 28.5947 74.5401 28.2693 74.5401 27.896C74.5401 27.5173 74.6334 27.1867 74.8201 26.904C75.0121 26.6213 75.2761 26.4 75.6121 26.24C75.9481 26.08 76.3401 26 76.7881 26H80.3801V32H78.8681V26.408L79.5481 27.088H76.9961C76.7027 27.088 76.4734 27.16 76.3081 27.304C76.1427 27.448 76.0601 27.6453 76.0601 27.896C76.0601 28.1467 76.1427 28.344 76.3081 28.488C76.4734 28.632 76.7027 28.704 76.9961 28.704H79.3401ZM78.2601 29.192L76.1401 32H74.3881L76.5641 29.192H78.2601ZM90.1446 29.52C90.0859 30.0373 89.9072 30.4933 89.6086 30.888C89.3099 31.2773 88.9152 31.5813 88.4246 31.8C87.9339 32.0187 87.3766 32.128 86.7526 32.128C86.0592 32.128 85.4512 31.9973 84.9286 31.736C84.4112 31.4747 84.0086 31.1093 83.7206 30.64C83.4326 30.1707 83.2886 29.624 83.2886 29C83.2886 28.376 83.4326 27.8293 83.7206 27.36C84.0086 26.8907 84.4112 26.5253 84.9286 26.264C85.4512 26.0027 86.0592 25.872 86.7526 25.872C87.3766 25.872 87.9339 25.9813 88.4246 26.2C88.9152 26.4187 89.3099 26.7227 89.6086 27.112C89.9072 27.5013 90.0859 27.9573 90.1446 28.48H88.6246C88.5712 28.208 88.4619 27.976 88.2966 27.784C88.1366 27.592 87.9232 27.4453 87.6566 27.344C87.3952 27.2373 87.0912 27.184 86.7446 27.184C86.3446 27.184 86.0006 27.2587 85.7126 27.408C85.4246 27.552 85.2032 27.76 85.0486 28.032C84.8939 28.304 84.8166 28.6267 84.8166 29C84.8166 29.3733 84.8939 29.696 85.0486 29.968C85.2032 30.24 85.4246 30.4507 85.7126 30.6C86.0006 30.744 86.3446 30.816 86.7446 30.816C87.0912 30.816 87.3952 30.7653 87.6566 30.664C87.9232 30.5627 88.1366 30.416 88.2966 30.224C88.4619 30.032 88.5712 29.7973 88.6246 29.52H90.1446ZM91.8029 26H97.5709V32H96.0589V26.656L96.7389 27.336H92.6429L93.2829 26.832C93.3203 27.2053 93.3469 27.5627 93.3629 27.904C93.3843 28.24 93.3949 28.56 93.3949 28.864C93.3949 29.6267 93.3256 30.248 93.1869 30.728C93.0536 31.2027 92.8403 31.5547 92.5469 31.784C92.2589 32.008 91.8829 32.12 91.4189 32.12C91.2216 32.12 91.0269 32.0987 90.8349 32.056C90.6429 32.0133 90.4696 31.952 90.3149 31.872V30.616C90.5496 30.7067 90.7656 30.752 90.9629 30.752C91.3203 30.752 91.5763 30.5867 91.7309 30.256C91.8909 29.9253 91.9709 29.3893 91.9709 28.648C91.9709 28.296 91.9576 27.9013 91.9309 27.464C91.9043 27.0213 91.8616 26.5333 91.8029 26ZM100.156 32L101.212 30.168H101.236L103.62 26H105.252L101.788 32H100.156ZM101.196 31.16L98.2043 26H99.8683L102.26 30.136L101.196 31.16ZM105.242 32L107.618 28.16L108.706 29.096L106.954 32H105.242ZM114.642 32L112.898 29.096L113.986 28.16L116.362 32H114.642ZM111.546 30.616L111.122 30.464L114.674 26H116.274L111.354 32H110.25L105.33 26H106.93L110.474 30.464L110.058 30.616V26H111.546V30.616ZM117.911 28.312H120.599C121.09 28.312 121.495 28.3893 121.815 28.544C122.141 28.6987 122.383 28.9147 122.543 29.192C122.703 29.464 122.783 29.7867 122.783 30.16C122.783 30.528 122.695 30.8507 122.519 31.128C122.349 31.4053 122.098 31.6213 121.767 31.776C121.442 31.9253 121.053 32 120.599 32H116.759L117.223 28.872L116.759 26H122.311V27.168H117.695L118.271 26.456L118.663 28.848L118.239 31.584L117.663 30.88H120.415C120.682 30.88 120.893 30.8133 121.047 30.68C121.202 30.5467 121.279 30.36 121.279 30.12C121.279 29.8853 121.199 29.7013 121.039 29.568C120.885 29.4293 120.674 29.36 120.407 29.36H117.911V28.312ZM124.398 30.792V29.568H128.542V30.792H124.398ZM127.486 26L130.254 32H128.646L126.27 26.632H126.734L124.366 32H122.75L125.526 26H127.486Z" fill="#1D1D1D"/>
<path d="M138.84 26V32H137.328V26.656L138.016 27.336H133.424L134.104 26.656V32H132.592V26H138.84ZM143.262 32.128C142.558 32.128 141.939 31.9973 141.406 31.736C140.878 31.4747 140.467 31.1093 140.174 30.64C139.881 30.1707 139.734 29.624 139.734 29C139.734 28.376 139.881 27.8293 140.174 27.36C140.467 26.8907 140.878 26.5253 141.406 26.264C141.939 26.0027 142.558 25.872 143.262 25.872C143.966 25.872 144.582 26.0027 145.11 26.264C145.643 26.5253 146.057 26.8907 146.35 27.36C146.649 27.8293 146.798 28.376 146.798 29C146.798 29.624 146.649 30.1707 146.35 30.64C146.057 31.1093 145.643 31.4747 145.11 31.736C144.582 31.9973 143.966 32.128 143.262 32.128ZM143.262 30.776C143.678 30.776 144.035 30.7067 144.334 30.568C144.633 30.424 144.862 30.2187 145.022 29.952C145.187 29.6853 145.27 29.368 145.27 29C145.27 28.632 145.187 28.3147 145.022 28.048C144.862 27.7813 144.633 27.5787 144.334 27.44C144.035 27.296 143.678 27.224 143.262 27.224C142.851 27.224 142.497 27.296 142.198 27.44C141.899 27.5787 141.667 27.7813 141.502 28.048C141.337 28.3147 141.254 28.632 141.254 29C141.254 29.368 141.337 29.6853 141.502 29.952C141.667 30.2187 141.899 30.424 142.198 30.568C142.497 30.7067 142.851 30.776 143.262 30.776ZM156.293 26V32H154.853V26.528L155.205 26.552L152.765 32H151.221L148.781 26.568L149.133 26.536V32H147.693V26H150.021L152.301 31.248H151.693L153.965 26H156.293ZM160.715 32.128C160.011 32.128 159.392 31.9973 158.859 31.736C158.331 31.4747 157.92 31.1093 157.627 30.64C157.334 30.1707 157.187 29.624 157.187 29C157.187 28.376 157.334 27.8293 157.627 27.36C157.92 26.8907 158.331 26.5253 158.859 26.264C159.392 26.0027 160.011 25.872 160.715 25.872C161.419 25.872 162.035 26.0027 162.563 26.264C163.096 26.5253 163.51 26.8907 163.803 27.36C164.102 27.8293 164.251 28.376 164.251 29C164.251 29.624 164.102 30.1707 163.803 30.64C163.51 31.1093 163.096 31.4747 162.563 31.736C162.035 31.9973 161.419 32.128 160.715 32.128ZM160.715 30.776C161.131 30.776 161.488 30.7067 161.787 30.568C162.086 30.424 162.315 30.2187 162.475 29.952C162.64 29.6853 162.723 29.368 162.723 29C162.723 28.632 162.64 28.3147 162.475 28.048C162.315 27.7813 162.086 27.5787 161.787 27.44C161.488 27.296 161.131 27.224 160.715 27.224C160.304 27.224 159.95 27.296 159.651 27.44C159.352 27.5787 159.12 27.7813 158.955 28.048C158.79 28.3147 158.707 28.632 158.707 29C158.707 29.368 158.79 29.6853 158.955 29.952C159.12 30.2187 159.352 30.424 159.651 30.568C159.95 30.7067 160.304 30.776 160.715 30.776ZM174.803 26V31.256L174.163 30.664H175.843V33.216H174.427V31.528L175.107 32H165.147V26H166.659V31.256L166.019 30.664H169.859L169.219 31.256V26H170.731V31.256L170.091 30.664H173.931L173.291 31.256V26H174.803ZM176.654 32V26H178.142V31.216L177.702 31.128L181.302 26H183.27V32H181.79V26.696L182.222 26.784L178.574 32H176.654Z" fill="#FE7209"/>
<defs>
<clipPath id="clip0_414_7191">
<rect width="18" height="20" fill="white" transform="translate(83.5)"/>
</clipPath>
</defs>
</svg>
