<svg width="24" height="24" viewBox="0 0 24 24" fill="none" xmlns="http://www.w3.org/2000/svg">
<path d="M18.0009 4.48138C16.4096 2.89008 14.2513 1.99609 12.0009 1.99609C9.75047 1.99609 7.59221 2.89008 6.00091 4.48138C4.40961 6.07267 3.51563 8.23094 3.51563 10.4814C3.51562 12.7318 4.40961 14.8901 6.00091 16.4814L11.2709 21.7614C11.3639 21.8551 11.4745 21.9295 11.5963 21.9803C11.7182 22.031 11.8489 22.0572 11.9809 22.0572C12.1129 22.0572 12.2436 22.031 12.3655 21.9803C12.4873 21.9295 12.5979 21.8551 12.6909 21.7614L18.0009 16.4314C19.5856 14.8467 20.4758 12.6974 20.4758 10.4564C20.4758 8.21532 19.5856 6.06605 18.0009 4.48138ZM16.5709 15.0014L12.0009 19.5914L7.43091 15.0014C6.52805 14.0977 5.91338 12.9466 5.6646 11.6937C5.41582 10.4407 5.54409 9.14212 6.03321 7.96206C6.52233 6.78199 7.35032 5.77342 8.41254 5.06385C9.47475 4.35428 10.7235 3.97556 12.0009 3.97556C13.2783 3.97556 14.5271 4.35428 15.5893 5.06385C16.6515 5.77342 17.4795 6.78199 17.9686 7.96206C18.4577 9.14212 18.586 10.4407 18.3372 11.6937C18.0884 12.9466 17.4738 14.0977 16.5709 15.0014ZM9.00091 7.41138C8.19362 8.22115 7.7403 9.31794 7.7403 10.4614C7.7403 11.6048 8.19362 12.7016 9.00091 13.5114C9.60067 14.1122 10.3645 14.5225 11.1966 14.6908C12.0286 14.8591 12.8919 14.778 13.678 14.4575C14.4641 14.1371 15.1381 13.5917 15.6154 12.8896C16.0927 12.1876 16.352 11.3602 16.3609 10.5114C16.3654 9.94458 16.2562 9.38263 16.0398 8.85876C15.8234 8.33489 15.5041 7.85973 15.1009 7.46138C14.7046 7.05595 14.232 6.73291 13.7103 6.51084C13.1887 6.28877 12.6282 6.17205 12.0613 6.1674C11.4944 6.16276 10.9321 6.27027 10.4069 6.48376C9.88165 6.69725 9.40383 7.01251 9.00091 7.41138ZM13.6909 12.0914C13.3119 12.4761 12.8111 12.7173 12.274 12.7736C11.7369 12.83 11.197 12.698 10.7464 12.4003C10.2959 12.1026 9.9627 11.6576 9.80391 11.1415C9.64512 10.6253 9.67056 10.07 9.87586 9.57053C10.0812 9.07105 10.4536 8.65839 10.9295 8.40311C11.4054 8.14783 11.9552 8.06578 12.4848 8.17099C13.0145 8.2762 13.4912 8.56213 13.8334 8.97991C14.1756 9.39768 14.3621 9.92135 14.3609 10.4614C14.3464 11.0786 14.0874 11.6649 13.6409 12.0914H13.6909Z" fill="#C7C7C7"/>
</svg>
