<svg width="298" height="78" viewBox="0 0 298 78" fill="none" xmlns="http://www.w3.org/2000/svg">
<g clip-path="url(#clip0_413_5483)">
<path d="M149.669 43.9991C149.08 43.9991 148.491 43.9991 147.916 43.9991C147.658 43.9704 147.399 43.9416 147.155 43.9272C146.178 43.8553 145.215 43.7115 144.267 43.4958C140.229 42.5612 136.766 40.62 133.878 37.6436C132.312 36.0331 131.047 34.2213 130.07 32.2083C128.892 29.7638 128.231 27.1756 128.044 24.4723C127.987 23.552 128.001 22.6318 128.059 21.6971C128.131 20.6475 128.289 19.6122 128.519 18.5913C129.424 14.6802 131.306 11.3154 134.122 8.48277C135.861 6.7429 137.858 5.34813 140.1 4.31283C142.514 3.19126 145.043 2.57296 147.687 2.42917C148.606 2.37166 149.526 2.44355 150.431 2.65924C151.667 2.94682 152.787 3.47885 153.664 4.41349C155.489 6.32591 157.299 8.2527 159.124 10.1795C161.021 12.1926 162.917 14.1913 164.814 16.2043C165.102 16.5063 165.389 16.8226 165.691 17.139C163.895 19.0083 162.098 20.8488 160.288 22.7324C156.437 18.8788 152.601 15.0396 148.793 11.2292C144.798 15.2266 140.804 19.2239 136.838 23.1926C140.818 27.1756 144.813 31.173 148.836 35.1991C148.865 35.156 148.908 35.0841 148.965 35.0266C152.859 31.1298 156.753 27.2331 160.633 23.3507C160.733 23.2501 160.82 23.207 160.963 23.207C163.751 23.207 166.538 23.207 169.326 23.207C169.355 23.207 169.398 23.207 169.427 23.207C169.541 23.1926 169.57 23.2501 169.556 23.3507C169.542 23.5664 169.542 23.7821 169.527 23.9978C169.498 24.9468 169.398 25.8815 169.225 26.8161C168.852 28.9154 168.162 30.9141 167.171 32.8122C165.863 35.2998 164.124 37.4422 161.955 39.2253C159.483 41.2527 156.71 42.6619 153.592 43.4096C152.543 43.6684 151.48 43.8409 150.402 43.9128C150.187 43.9416 149.928 43.9704 149.669 43.9991Z" fill="#455A64"/>
<path d="M147.672 1.43639C147.959 1.14881 148.261 0.961881 148.577 0.803711C149.252 0.487371 149.971 0.300443 150.718 0.171031C151.537 0.0416191 152.356 -0.0302763 153.189 -0.00151812C155.187 0.0703773 157.098 0.458613 158.836 1.50829C159.569 1.93966 160.158 2.54358 160.733 3.1475C161.84 4.29783 162.946 5.44815 164.052 6.59848C165.475 8.06515 166.883 9.54619 168.305 11.0129C168.808 11.5449 169.311 12.0625 169.829 12.5946C169.886 12.6521 169.944 12.7096 170.001 12.7815C168.88 13.9174 167.759 15.0534 166.624 16.2181C166.394 15.988 166.193 15.758 165.992 15.5423C163.334 12.724 160.69 9.89129 158.032 7.07299C156.968 5.93704 155.905 4.78672 154.813 3.66515C154.037 2.85992 153.06 2.31351 152.011 1.92528C150.819 1.47953 149.583 1.30698 148.318 1.37887C148.117 1.37887 147.916 1.40763 147.672 1.43639Z" fill="#FE7209"/>
</g>
<path d="M8.437 73.466V71.516H11.687C12.0683 71.516 12.3977 71.451 12.675 71.321C12.9523 71.191 13.1647 71.0047 13.312 70.762C13.468 70.5107 13.546 70.216 13.546 69.878C13.546 69.54 13.468 69.2497 13.312 69.007C13.1647 68.7643 12.9523 68.578 12.675 68.448C12.3977 68.318 12.0683 68.253 11.687 68.253H8.45V66.316H11.817C12.6923 66.316 13.442 66.4633 14.066 66.758C14.69 67.0527 15.171 67.4687 15.509 68.006C15.8557 68.5347 16.029 69.1587 16.029 69.878C16.029 70.5973 15.8557 71.2257 15.509 71.763C15.171 72.3003 14.69 72.7207 14.066 73.024C13.442 73.3187 12.6923 73.466 11.817 73.466H8.437ZM4.55 73.466C3.692 73.466 2.94667 73.3187 2.314 73.024C1.69 72.7207 1.20467 72.3003 0.858 71.763C0.52 71.2257 0.351 70.5973 0.351 69.878C0.351 69.1587 0.52 68.5347 0.858 68.006C1.20467 67.4687 1.69 67.0527 2.314 66.758C2.94667 66.4633 3.692 66.316 4.55 66.316H7.917V68.253H4.68C4.29867 68.253 3.96933 68.318 3.692 68.448C3.41467 68.578 3.20233 68.7643 3.055 69.007C2.90767 69.2497 2.834 69.54 2.834 69.878C2.834 70.216 2.90767 70.5107 3.055 70.762C3.20233 71.0047 3.41467 71.191 3.692 71.321C3.96933 71.451 4.29867 71.516 4.68 71.516H7.93V73.466H4.55ZM6.955 75.299V64.951H9.412V75.299H6.955ZM25.4528 69.215V71.035H18.3938V69.215H25.4528ZM20.0578 70.125L19.4078 74.155L18.3808 72.985H25.8688V75H16.9508L17.7048 70.125L16.9508 65.25H25.8038V67.265H18.3808L19.4078 66.095L20.0578 70.125ZM26.7164 76.976V72.842H28.6664L29.5634 72.868H36.4664L37.0644 72.842H39.7944V76.976H37.5064V75H29.0044V76.976H26.7164ZM28.7704 65.25H38.1044V74.272H35.6474V66.277L36.7524 67.395H30.0834L31.0974 66.576C31.1581 67.0007 31.1971 67.4123 31.2144 67.811C31.2318 68.201 31.2404 68.5737 31.2404 68.929C31.2404 69.969 31.1538 70.8443 30.9804 71.555C30.8071 72.2657 30.5471 72.8073 30.2004 73.18C29.8624 73.544 29.4421 73.726 28.9394 73.726L27.9124 72.868C28.2678 72.4607 28.5321 71.893 28.7054 71.165C28.8788 70.4283 28.9654 69.5183 28.9654 68.435C28.9654 67.941 28.9481 67.4297 28.9134 66.901C28.8788 66.3637 28.8311 65.8133 28.7704 65.25ZM49.3073 69.215V71.035H42.2483V69.215H49.3073ZM43.9123 70.125L43.2623 74.155L42.2353 72.985H49.7233V75H40.8053L41.5593 70.125L40.8053 65.25H49.6583V67.265H42.2353L43.2623 66.095L43.9123 70.125ZM56.7317 65.25C57.529 65.25 58.2137 65.3887 58.7857 65.666C59.3664 65.9347 59.8084 66.316 60.1117 66.81C60.4237 67.304 60.5797 67.8803 60.5797 68.539C60.5797 69.1977 60.4237 69.774 60.1117 70.268C59.8084 70.762 59.3664 71.1477 58.7857 71.425C58.2137 71.6937 57.529 71.828 56.7317 71.828H52.4677V69.839H56.6017C57.0697 69.839 57.438 69.7263 57.7067 69.501C57.9754 69.267 58.1097 68.9463 58.1097 68.539C58.1097 68.1317 57.9754 67.8153 57.7067 67.59C57.438 67.356 57.0697 67.239 56.6017 67.239H52.6887L53.7937 66.095V75H51.3367V65.25H56.7317ZM62.4101 73.037V71.048H69.1441V73.037H62.4101ZM67.4281 65.25L71.9261 75H69.3131L65.4521 66.277H66.2061L62.3581 75H59.7321L64.2431 65.25H67.4281ZM74.5567 65.25H83.9297V75H81.4727V66.316L82.5777 67.421H75.9217L76.9617 66.602C77.0224 67.2087 77.0657 67.7893 77.0917 68.344C77.1264 68.89 77.1437 69.41 77.1437 69.904C77.1437 71.1433 77.0311 72.153 76.8057 72.933C76.5891 73.7043 76.2424 74.2763 75.7657 74.649C75.2977 75.013 74.6867 75.195 73.9327 75.195C73.6121 75.195 73.2957 75.1603 72.9837 75.091C72.6717 75.0217 72.3901 74.922 72.1387 74.792V72.751C72.5201 72.8983 72.8711 72.972 73.1917 72.972C73.7724 72.972 74.1884 72.7033 74.4397 72.166C74.6997 71.6287 74.8297 70.7577 74.8297 69.553C74.8297 68.981 74.8081 68.3397 74.7647 67.629C74.7214 66.9097 74.6521 66.1167 74.5567 65.25ZM85.8299 75V65.25H88.2869V74.155L87.1819 73.063H91.0559C91.5325 73.063 91.9052 72.9417 92.1739 72.699C92.4512 72.4563 92.5899 72.127 92.5899 71.711C92.5899 71.2863 92.4512 70.9527 92.1739 70.71C91.9052 70.4673 91.5325 70.346 91.0559 70.346H86.9609V68.409H91.1989C92.0049 68.409 92.6939 68.5477 93.2659 68.825C93.8465 69.0937 94.2929 69.475 94.6049 69.969C94.9169 70.463 95.0729 71.0437 95.0729 71.711C95.0729 72.3697 94.9169 72.946 94.6049 73.44C94.2929 73.934 93.8465 74.3197 93.2659 74.597C92.6939 74.8657 92.0049 75 91.1989 75H85.8299ZM96.2908 65.25H98.7478V75H96.2908V65.25ZM104.039 65.25H106.496V75H104.039V65.25ZM97.6558 68.981H105.079V71.139H97.6558V68.981ZM110.144 73.037V71.048H116.878V73.037H110.144ZM115.162 65.25L119.66 75H117.047L113.186 66.277H113.94L110.092 75H107.466L111.977 65.25H115.162ZM128.115 69.644V71.399H123.981L123.968 71.347C123.24 71.347 122.603 71.2213 122.057 70.97C121.511 70.7187 121.082 70.3677 120.77 69.917C120.467 69.4663 120.315 68.9377 120.315 68.331C120.315 67.7157 120.467 67.1783 120.77 66.719C121.082 66.2597 121.511 65.9 122.057 65.64C122.603 65.38 123.24 65.25 123.968 65.25H129.805V75H127.348V65.913L128.453 67.018H124.306C123.829 67.018 123.457 67.135 123.188 67.369C122.919 67.603 122.785 67.9237 122.785 68.331C122.785 68.7383 122.919 69.059 123.188 69.293C123.457 69.527 123.829 69.644 124.306 69.644H128.115ZM126.36 70.437L122.915 75H120.068L123.604 70.437H126.36ZM145.672 70.97C145.577 71.8107 145.287 72.5517 144.801 73.193C144.316 73.8257 143.675 74.3197 142.877 74.675C142.08 75.0303 141.174 75.208 140.16 75.208C139.034 75.208 138.046 74.9957 137.196 74.571C136.356 74.1463 135.701 73.5527 135.233 72.79C134.765 72.0273 134.531 71.139 134.531 70.125C134.531 69.111 134.765 68.2227 135.233 67.46C135.701 66.6973 136.356 66.1037 137.196 65.679C138.046 65.2543 139.034 65.042 140.16 65.042C141.174 65.042 142.08 65.2197 142.877 65.575C143.675 65.9303 144.316 66.4243 144.801 67.057C145.287 67.6897 145.577 68.4307 145.672 69.28H143.202C143.116 68.838 142.938 68.461 142.669 68.149C142.409 67.837 142.063 67.5987 141.629 67.434C141.205 67.2607 140.711 67.174 140.147 67.174C139.497 67.174 138.938 67.2953 138.47 67.538C138.002 67.772 137.643 68.11 137.391 68.552C137.14 68.994 137.014 69.5183 137.014 70.125C137.014 70.7317 137.14 71.256 137.391 71.698C137.643 72.14 138.002 72.4823 138.47 72.725C138.938 72.959 139.497 73.076 140.147 73.076C140.711 73.076 141.205 72.9937 141.629 72.829C142.063 72.6643 142.409 72.426 142.669 72.114C142.938 71.802 143.116 71.4207 143.202 70.97H145.672ZM148.367 65.25H157.74V75H155.283V66.316L156.388 67.421H149.732L150.772 66.602C150.833 67.2087 150.876 67.7893 150.902 68.344C150.937 68.89 150.954 69.41 150.954 69.904C150.954 71.1433 150.842 72.153 150.616 72.933C150.4 73.7043 150.053 74.2763 149.576 74.649C149.108 75.013 148.497 75.195 147.743 75.195C147.423 75.195 147.106 75.1603 146.794 75.091C146.482 75.0217 146.201 74.922 145.949 74.792V72.751C146.331 72.8983 146.682 72.972 147.002 72.972C147.583 72.972 147.999 72.7033 148.25 72.166C148.51 71.6287 148.64 70.7577 148.64 69.553C148.64 68.981 148.619 68.3397 148.575 67.629C148.532 66.9097 148.463 66.1167 148.367 65.25ZM161.941 75L163.657 72.023H163.696L167.57 65.25H170.222L164.593 75H161.941ZM163.631 73.635L158.769 65.25H161.473L165.36 71.971L163.631 73.635ZM170.206 75L174.067 68.76L175.835 70.281L172.988 75H170.206ZM185.481 75L182.647 70.281L184.415 68.76L188.276 75H185.481ZM180.45 72.751L179.761 72.504L185.533 65.25H188.133L180.138 75H178.344L170.349 65.25H172.949L178.708 72.504L178.032 72.751V65.25H180.45V72.751ZM190.793 69.007H195.161C195.959 69.007 196.617 69.1327 197.137 69.384C197.666 69.6353 198.06 69.9863 198.32 70.437C198.58 70.879 198.71 71.4033 198.71 72.01C198.71 72.608 198.567 73.1323 198.281 73.583C198.004 74.0337 197.597 74.3847 197.059 74.636C196.531 74.8787 195.898 75 195.161 75H188.921L189.675 69.917L188.921 65.25H197.943V67.148H190.442L191.378 65.991L192.015 69.878L191.326 74.324L190.39 73.18H194.862C195.296 73.18 195.638 73.0717 195.889 72.855C196.141 72.6383 196.266 72.335 196.266 71.945C196.266 71.5637 196.136 71.2647 195.876 71.048C195.625 70.8227 195.283 70.71 194.849 70.71H190.793V69.007ZM201.335 73.037V71.048H208.069V73.037H201.335ZM206.353 65.25L210.851 75H208.238L204.377 66.277H205.131L201.283 75H198.657L203.168 65.25H206.353Z" fill="#1D1D1D"/>
<path d="M224.802 65.25V75H222.345V66.316L223.463 67.421H216.001L217.106 66.316V75H214.649V65.25H224.802ZM231.988 75.208C230.844 75.208 229.839 74.9957 228.972 74.571C228.114 74.1463 227.447 73.5527 226.97 72.79C226.493 72.0273 226.255 71.139 226.255 70.125C226.255 69.111 226.493 68.2227 226.97 67.46C227.447 66.6973 228.114 66.1037 228.972 65.679C229.839 65.2543 230.844 65.042 231.988 65.042C233.132 65.042 234.133 65.2543 234.991 65.679C235.858 66.1037 236.529 66.6973 237.006 67.46C237.491 68.2227 237.734 69.111 237.734 70.125C237.734 71.139 237.491 72.0273 237.006 72.79C236.529 73.5527 235.858 74.1463 234.991 74.571C234.133 74.9957 233.132 75.208 231.988 75.208ZM231.988 73.011C232.664 73.011 233.245 72.8983 233.73 72.673C234.215 72.439 234.588 72.1053 234.848 71.672C235.117 71.2387 235.251 70.723 235.251 70.125C235.251 69.527 235.117 69.0113 234.848 68.578C234.588 68.1447 234.215 67.8153 233.73 67.59C233.245 67.356 232.664 67.239 231.988 67.239C231.321 67.239 230.744 67.356 230.259 67.59C229.774 67.8153 229.397 68.1447 229.128 68.578C228.859 69.0113 228.725 69.527 228.725 70.125C228.725 70.723 228.859 71.2387 229.128 71.672C229.397 72.1053 229.774 72.439 230.259 72.673C230.744 72.8983 231.321 73.011 231.988 73.011ZM253.164 65.25V75H250.824V66.108L251.396 66.147L247.431 75H244.922L240.957 66.173L241.529 66.121V75H239.189V65.25H242.972L246.677 73.778H245.689L249.381 65.25H253.164ZM260.349 75.208C259.205 75.208 258.2 74.9957 257.333 74.571C256.475 74.1463 255.808 73.5527 255.331 72.79C254.855 72.0273 254.616 71.139 254.616 70.125C254.616 69.111 254.855 68.2227 255.331 67.46C255.808 66.6973 256.475 66.1037 257.333 65.679C258.2 65.2543 259.205 65.042 260.349 65.042C261.493 65.042 262.494 65.2543 263.352 65.679C264.219 66.1037 264.891 66.6973 265.367 67.46C265.853 68.2227 266.095 69.111 266.095 70.125C266.095 71.139 265.853 72.0273 265.367 72.79C264.891 73.5527 264.219 74.1463 263.352 74.571C262.494 74.9957 261.493 75.208 260.349 75.208ZM260.349 73.011C261.025 73.011 261.606 72.8983 262.091 72.673C262.577 72.439 262.949 72.1053 263.209 71.672C263.478 71.2387 263.612 70.723 263.612 70.125C263.612 69.527 263.478 69.0113 263.209 68.578C262.949 68.1447 262.577 67.8153 262.091 67.59C261.606 67.356 261.025 67.239 260.349 67.239C259.682 67.239 259.106 67.356 258.62 67.59C258.135 67.8153 257.758 68.1447 257.489 68.578C257.221 69.0113 257.086 69.527 257.086 70.125C257.086 70.723 257.221 71.2387 257.489 71.672C257.758 72.1053 258.135 72.439 258.62 72.673C259.106 72.8983 259.682 73.011 260.349 73.011ZM283.242 65.25V73.791L282.202 72.829H284.932V76.976H282.631V74.233L283.736 75H267.551V65.25H270.008V73.791L268.968 72.829H275.208L274.168 73.791V65.25H276.625V73.791L275.585 72.829H281.825L280.785 73.791V65.25H283.242ZM286.251 75V65.25H288.669V73.726L287.954 73.583L293.804 65.25H297.002V75H294.597V66.381L295.299 66.524L289.371 75H286.251Z" fill="#FE7209"/>
<defs>
<clipPath id="clip0_413_5483">
<rect width="42" height="44" fill="white" transform="translate(128)"/>
</clipPath>
</defs>
</svg>
