<svg width="42" height="44" viewBox="0 0 42 44" fill="none" xmlns="http://www.w3.org/2000/svg">
<g clip-path="url(#clip0_313_7452)">
<path d="M21.6694 43.9991C21.0803 43.9991 20.4912 43.9991 19.9165 43.9991C19.6578 43.9704 19.3992 43.9416 19.1549 43.9272C18.1778 43.8553 17.2151 43.7115 16.2668 43.4958C12.2291 42.5612 8.76626 40.62 5.87813 37.6436C4.31194 36.0331 3.04748 34.2213 2.0704 32.2083C0.89216 29.7638 0.231196 27.1756 0.0444012 24.4723C-0.013074 23.552 0.00129478 22.6318 0.05877 21.6971C0.130614 20.6475 0.288671 19.6122 0.518572 18.5913C1.42381 14.6802 3.30612 11.3154 6.1224 8.48277C7.86103 6.7429 9.85829 5.34813 12.0998 4.31283C14.5138 3.19126 17.0427 2.57296 19.6866 2.42917C20.6062 2.37166 21.5258 2.44355 22.431 2.65924C23.6667 2.94682 24.7875 3.47885 25.664 4.41349C27.4888 6.32591 29.2993 8.2527 31.1241 10.1795C33.0208 12.1926 34.9175 14.1913 36.8142 16.2043C37.1015 16.5063 37.3889 16.8226 37.6907 17.139C35.8946 19.0083 34.0985 20.8488 32.288 22.7324C28.4372 18.8788 24.6007 15.0396 20.7929 11.2292C16.7984 15.2266 12.8039 19.2239 8.83811 23.1926C12.8183 27.1756 16.8128 31.173 20.8361 35.1991C20.8648 35.156 20.9079 35.0841 20.9654 35.0266C24.8593 31.1298 28.7533 27.2331 32.6328 23.3507C32.7334 23.2501 32.8196 23.207 32.9633 23.207C35.7509 23.207 38.5384 23.207 41.326 23.207C41.3547 23.207 41.3978 23.207 41.4265 23.207C41.5415 23.1926 41.5702 23.2501 41.5559 23.3507C41.5415 23.5664 41.5415 23.7821 41.5271 23.9978C41.4984 24.9468 41.3978 25.8815 41.2254 26.8161C40.8518 28.9154 40.1621 30.9141 39.1706 32.8122C37.8631 35.2998 36.1245 37.4422 33.9548 39.2253C31.4833 41.2527 28.7102 42.6619 25.5921 43.4096C24.5432 43.6684 23.4799 43.8409 22.4023 43.9128C22.1867 43.9416 21.9281 43.9704 21.6694 43.9991Z" fill="#455A64"/>
<path d="M19.6719 1.43639C19.9593 1.14881 20.261 0.961881 20.5771 0.803711C21.2524 0.487371 21.9709 0.300443 22.7181 0.171031C23.5371 0.0416191 24.3561 -0.0302763 25.1895 -0.00151812C27.1868 0.0703773 29.0978 0.458613 30.8364 1.50829C31.5692 1.93966 32.1584 2.54358 32.7331 3.1475C33.8395 4.29783 34.9459 5.44815 36.0523 6.59848C37.4748 8.06515 38.883 9.54619 40.3055 11.0129C40.8084 11.5449 41.3113 12.0625 41.8286 12.5946C41.886 12.6521 41.9435 12.7096 42.001 12.7815C40.8802 13.9174 39.7595 15.0534 38.6243 16.2181C38.3944 15.988 38.1933 15.758 37.9921 15.5423C35.3339 12.724 32.69 9.89129 30.0318 7.07299C28.9685 5.93704 27.9052 4.78672 26.8132 3.66515C26.0373 2.85992 25.0602 2.31351 24.0113 1.92528C22.8186 1.47953 21.5829 1.30698 20.3185 1.37887C20.1173 1.37887 19.9161 1.40763 19.6719 1.43639Z" fill="#FE7209"/>
</g>
<defs>
<clipPath id="clip0_313_7452">
<rect width="42" height="44" fill="white"/>
</clipPath>
</defs>
</svg>
