<svg width="24" height="18" viewBox="0 0 24 18" fill="none" xmlns="http://www.w3.org/2000/svg">
<g clip-path="url(#clip0_391_2347)">
<path d="M6 1.71429C6 1.04368 6.53728 0.5 7.2 0.5H22.8C23.4627 0.5 24 1.04368 24 1.71429C24 2.38489 23.4627 2.92857 22.8 2.92857H7.2C6.53728 2.92857 6 2.38485 6 1.71429ZM22.8 7.78571H1.2C0.537281 7.78571 0 8.32944 0 9C0 9.67061 0.537281 10.2143 1.2 10.2143H22.8C23.4627 10.2143 24 9.67061 24 9C24 8.32944 23.4627 7.78571 22.8 7.78571ZM22.8 15.0714H12C11.3373 15.0714 10.8 15.6151 10.8 16.2857C10.8 16.9563 11.3373 17.5 12 17.5H22.8C23.4627 17.5 24 16.9563 24 16.2857C24 15.6151 23.4627 15.0714 22.8 15.0714Z" fill="black"/>
</g>
<defs>
<clipPath id="clip0_391_2347">
<rect width="24" height="17" fill="white" transform="translate(0 0.5)"/>
</clipPath>
</defs>
</svg>
