<svg width="24" height="24" viewBox="0 0 24 24" fill="none" xmlns="http://www.w3.org/2000/svg">
<path d="M12 1L20.217 2.826C20.4391 2.87536 20.6377 2.99897 20.78 3.1764C20.9224 3.35384 21 3.57452 21 3.802V13.789C20.9999 14.7767 20.756 15.7492 20.2899 16.62C19.8238 17.4908 19.1499 18.2331 18.328 18.781L12 23L5.672 18.781C4.85015 18.2334 4.17624 17.4913 3.71011 16.6206C3.24398 15.7499 3.00006 14.7776 3 13.79V3.802C3.00004 3.57452 3.07764 3.35384 3.21999 3.1764C3.36234 2.99897 3.56094 2.87536 3.783 2.826L12 1ZM16.452 8.222L11.502 13.171L8.674 10.343L7.26 11.757L11.503 16L17.867 9.636L16.452 8.222Z" fill="url(#paint0_radial_413_5729)"/>
<defs>
<radialGradient id="paint0_radial_413_5729" cx="0" cy="0" r="1" gradientUnits="userSpaceOnUse" gradientTransform="translate(12 12) rotate(90) scale(11 9)">
<stop stop-color="#48ACE8"/>
<stop offset="1" stop-color="#028CD6"/>
</radialGradient>
</defs>
</svg>
