<svg width="34" height="34" viewBox="0 0 34 34" fill="none" xmlns="http://www.w3.org/2000/svg">
<path d="M12.7513 21.2487C12.4711 21.2487 12.1972 21.3318 11.9642 21.4874C11.7313 21.6431 11.5497 21.8644 11.4425 22.1232C11.3352 22.3821 11.3072 22.6669 11.3619 22.9417C11.4165 23.2165 11.5514 23.469 11.7496 23.6671C11.9477 23.8652 12.2001 24.0001 12.4749 24.0548C12.7497 24.1095 13.0346 24.0814 13.2934 23.9742C13.5523 23.867 13.7736 23.6854 13.9292 23.4524C14.0849 23.2195 14.168 22.9456 14.168 22.6654C14.168 22.2896 14.0187 21.9293 13.753 21.6636C13.4874 21.398 13.127 21.2487 12.7513 21.2487ZM2.83464 19.832C2.45891 19.832 2.09858 19.9813 1.8329 20.247C1.56722 20.5126 1.41797 20.873 1.41797 21.2487V24.082C1.41797 24.4578 1.56722 24.8181 1.8329 25.0838C2.09858 25.3494 2.45891 25.4987 2.83464 25.4987C3.21036 25.4987 3.57069 25.3494 3.83637 25.0838C4.10205 24.8181 4.2513 24.4578 4.2513 24.082V21.2487C4.2513 20.873 4.10205 20.5126 3.83637 20.247C3.57069 19.9813 3.21036 19.832 2.83464 19.832ZM31.168 19.832C30.7922 19.832 30.4319 19.9813 30.1662 20.247C29.9006 20.5126 29.7513 20.873 29.7513 21.2487V24.082C29.7513 24.4578 29.9006 24.8181 30.1662 25.0838C30.4319 25.3494 30.7922 25.4987 31.168 25.4987C31.5437 25.4987 31.904 25.3494 32.1697 25.0838C32.4354 24.8181 32.5846 24.4578 32.5846 24.082V21.2487C32.5846 20.873 32.4354 20.5126 32.1697 20.247C31.904 19.9813 31.5437 19.832 31.168 19.832ZM24.0846 9.91536H18.418V8.10203C18.8462 7.85481 19.2023 7.49982 19.4508 7.07235C19.6993 6.64489 19.8317 6.15982 19.8346 5.66536C19.8346 4.91392 19.5361 4.19325 19.0048 3.6619C18.4734 3.13054 17.7528 2.83203 17.0013 2.83203C16.2499 2.83203 15.5292 3.13054 14.9978 3.6619C14.4665 4.19325 14.168 4.91392 14.168 5.66536C14.171 6.15982 14.3033 6.64489 14.5518 7.07235C14.8003 7.49982 15.1564 7.85481 15.5846 8.10203V9.91536H9.91797C8.7908 9.91536 7.70979 10.3631 6.91277 11.1602C6.11574 11.9572 5.66797 13.0382 5.66797 14.1654V26.9154C5.66797 28.0425 6.11574 29.1235 6.91277 29.9206C7.70979 30.7176 8.7908 31.1654 9.91797 31.1654H24.0846C25.2118 31.1654 26.2928 30.7176 27.0898 29.9206C27.8869 29.1235 28.3346 28.0425 28.3346 26.9154V14.1654C28.3346 13.0382 27.8869 11.9572 27.0898 11.1602C26.2928 10.3631 25.2118 9.91536 24.0846 9.91536ZM19.438 12.7487L18.7296 15.582H15.273L14.5646 12.7487H19.438ZM25.5013 26.9154C25.5013 27.2911 25.352 27.6514 25.0864 27.9171C24.8207 28.1828 24.4604 28.332 24.0846 28.332H9.91797C9.54225 28.332 9.18191 28.1828 8.91623 27.9171C8.65056 27.6514 8.5013 27.2911 8.5013 26.9154V14.1654C8.5013 13.7896 8.65056 13.4293 8.91623 13.1636C9.18191 12.898 9.54225 12.7487 9.91797 12.7487H11.6463L12.7513 17.3387C12.8289 17.653 13.0118 17.9313 13.2695 18.1272C13.5273 18.3231 13.8444 18.4248 14.168 18.4154H19.8346C20.1583 18.4248 20.4753 18.3231 20.7331 18.1272C20.9909 17.9313 21.1737 17.653 21.2513 17.3387L22.3563 12.7487H24.0846C24.4604 12.7487 24.8207 12.898 25.0864 13.1636C25.352 13.4293 25.5013 13.7896 25.5013 14.1654V26.9154ZM21.2513 21.2487C20.9711 21.2487 20.6972 21.3318 20.4642 21.4874C20.2313 21.6431 20.0497 21.8644 19.9425 22.1232C19.8352 22.3821 19.8072 22.6669 19.8619 22.9417C19.9165 23.2165 20.0514 23.469 20.2496 23.6671C20.4477 23.8652 20.7001 24.0001 20.9749 24.0548C21.2497 24.1095 21.5346 24.0814 21.7934 23.9742C22.0523 23.867 22.2736 23.6854 22.4292 23.4524C22.5849 23.2195 22.668 22.9456 22.668 22.6654C22.668 22.2896 22.5187 21.9293 22.253 21.6636C21.9874 21.398 21.627 21.2487 21.2513 21.2487Z" fill="#4D4D4D"/>
</svg>
