<svg width="439" height="424" viewBox="0 0 439 424" fill="none" xmlns="http://www.w3.org/2000/svg">
<g clip-path="url(#clip0_313_7474)">
<path d="M438.6 402.101C438.6 402.201 340.4 402.401 219.3 402.401C98.2 402.401 0 402.301 0 402.101C0 402.001 98.2 401.801 219.3 401.801C340.4 401.901 438.6 402.001 438.6 402.101Z" fill="#263238"/>
<path d="M354.301 325.699C353.101 325.099 352.301 323.599 352.401 322.199C352.501 321.399 352.801 320.599 352.701 319.799C352.601 319.099 352.101 318.599 351.701 318.099C350.301 316.199 350.301 313.299 351.701 311.399C350.501 310.799 349.501 309.399 349.201 307.599C348.901 306.199 350.001 303.599 350.001 303.599C350.001 303.599 348.801 302.799 348.301 300.599C348.001 299.299 348.601 296.899 349.601 295.899C347.101 294.299 346.501 290.399 348.401 288.099C346.601 285.999 346.201 282.799 347.401 280.399C345.301 278.699 344.701 275.399 346.201 273.099C344.301 270.999 343.401 267.999 344.001 265.199C344.001 265.199 342.201 257.799 342.601 256.299C342.801 255.599 340.101 261.899 339.301 272.799C338.501 283.599 343.001 315.999 345.601 329.099C348.201 342.299 356.701 356.999 356.701 356.999L367.501 355.599C367.501 355.599 356.301 336.199 354.901 328.499V326.199" fill="#455A64"/>
<g opacity="0.3">
<path d="M356.799 329.198C356.199 327.398 354.599 326.598 353.499 325.098C351.299 328.798 350.099 333.098 350.299 337.398C350.499 341.698 351.499 345.898 352.499 350.098L355.599 349.098C356.099 343.398 356.599 337.698 356.999 331.998C357.099 330.998 357.099 329.998 356.799 329.198Z" fill="black"/>
</g>
<path d="M410.599 289.4C411.499 289.2 402.499 313.7 400.699 327.5C398.899 341.3 392.499 358.5 389.999 362.8C387.399 367.1 380.199 363.2 380.199 363.2L391.399 335.3L392.299 326.7C392.299 326.7 394.899 322.3 394.799 318C394.799 318 397.099 316.8 397.599 312.2C397.599 312.2 399.999 311.6 400.599 306.6C400.599 306.6 402.399 302.4 402.299 299.8C402.299 300 407.199 290.1 410.599 289.4Z" fill="#455A64"/>
<g opacity="0.3">
<path d="M390.799 337.298C391.099 340.398 390.999 343.598 390.499 346.698C391.899 345.898 393.399 345.098 394.799 344.298C394.699 346.698 393.499 348.898 391.799 350.698C390.199 352.498 388.199 353.798 386.199 355.198C387.099 348.798 388.499 342.498 390.399 336.398" fill="black"/>
</g>
<path d="M412.398 306.898C412.198 307.298 410.598 317.298 409.598 323.398C408.798 328.698 407.498 340.598 402.898 348.398C398.298 356.198 391.698 362.598 387.498 365.298C380.898 369.398 375.398 369.398 375.398 369.398L389.298 349.898C389.298 349.898 394.798 346.998 394.098 344.598L394.698 341.298C394.698 341.298 398.698 340.398 399.098 336.398C399.098 336.398 402.998 332.898 402.798 327.598C402.798 327.598 406.098 325.198 405.598 321.798C405.598 321.798 408.298 319.298 407.698 317.298C407.698 317.298 410.098 315.398 409.298 312.898L412.398 306.898Z" fill="#455A64"/>
<path d="M412.398 306.898C412.198 307.398 411.198 309.198 409.298 312.898V312.798C409.498 313.498 409.598 314.298 409.298 315.098C408.998 315.898 408.498 316.598 407.698 317.298V317.198C407.798 317.598 407.798 317.998 407.698 318.398C407.598 318.798 407.398 319.198 407.198 319.598C406.798 320.398 406.198 321.098 405.498 321.798V321.698C405.598 322.698 405.498 323.898 404.898 324.898C404.398 325.898 403.598 326.798 402.598 327.598L402.698 327.498C402.798 330.498 401.598 333.898 398.998 336.398L399.098 336.298C398.998 337.398 398.498 338.598 397.698 339.498C396.898 340.398 395.798 341.098 394.598 341.398L394.698 341.298C394.498 342.298 394.298 343.398 394.098 344.598V344.498C394.298 345.198 393.998 345.798 393.698 346.398C393.398 346.898 392.898 347.398 392.398 347.798C391.398 348.698 390.298 349.398 389.198 349.998L389.298 349.898C384.998 355.898 380.298 362.498 375.498 369.398L375.398 369.098C375.898 369.098 376.498 368.998 377.098 368.998C379.698 368.598 382.198 367.798 384.498 366.698C386.798 365.598 388.898 364.198 390.798 362.498C394.598 359.198 397.798 355.598 400.398 351.798C401.698 349.898 402.898 347.998 403.898 346.098C404.798 344.098 405.598 342.198 406.198 340.198C407.398 336.298 408.098 332.498 408.698 329.098C409.698 322.198 410.698 316.598 411.298 312.798C411.598 310.898 411.898 309.398 412.098 308.398C412.198 307.898 412.298 307.498 412.298 307.298C412.298 307.098 412.398 306.898 412.398 306.898C412.398 306.898 411.998 308.998 411.398 312.898C410.798 316.798 409.898 322.298 408.898 329.198C408.398 332.598 407.598 336.398 406.498 340.398C405.898 342.398 405.198 344.398 404.198 346.398C403.298 348.398 401.998 350.298 400.698 352.198C397.998 355.998 394.898 359.698 390.998 362.998C389.098 364.598 386.998 366.098 384.598 367.198C382.298 368.298 379.698 369.198 376.998 369.498C376.398 369.598 375.798 369.598 375.298 369.598H374.898L375.098 369.298C379.998 362.398 384.698 355.798 388.998 349.798C390.098 349.198 391.198 348.498 392.198 347.598C392.698 347.198 393.098 346.698 393.398 346.198C393.698 345.698 393.898 345.098 393.798 344.598C393.998 343.498 394.198 342.298 394.398 341.298V341.198H394.498C395.598 340.898 396.698 340.198 397.498 339.398C398.298 338.598 398.698 337.498 398.798 336.398V336.298C401.298 333.898 402.598 330.598 402.398 327.698V327.598H402.498C403.398 326.898 404.198 325.998 404.698 324.998C405.198 323.998 405.398 322.998 405.298 321.998V321.898C405.998 321.298 406.498 320.498 406.998 319.798C407.198 319.398 407.398 318.998 407.498 318.698C407.598 318.298 407.598 317.898 407.498 317.598V317.498C408.198 316.898 408.698 316.198 408.998 315.398C409.298 314.598 409.298 313.798 409.098 313.198C411.198 309.198 412.098 307.398 412.398 306.898Z" fill="#263238"/>
<path d="M361.398 232.199C361.398 232.199 355.498 241.599 355.098 257.299C354.698 272.999 358.198 338.099 358.198 338.099L362.698 351.499L370.598 349.099C370.598 349.099 366.098 306.499 365.698 299.999C365.298 293.499 363.698 268.399 362.798 259.199C361.998 250.099 360.198 233.599 361.398 232.199Z" fill="#455A64"/>
<g opacity="0.2">
<path d="M361.398 232.199C361.398 232.199 355.498 241.599 355.098 257.299C354.698 272.999 358.198 338.099 358.198 338.099L362.698 351.499L370.598 349.099C370.598 349.099 366.098 306.499 365.698 299.999C365.298 293.499 363.698 268.399 362.798 259.199C361.998 250.099 360.198 233.599 361.398 232.199Z" fill="black"/>
</g>
<path d="M325.102 305.297C325.102 305.297 328.002 330.397 333.102 341.997C341.602 361.597 368.502 367.997 368.502 367.997L354.302 349.397C354.302 349.397 350.402 350.997 349.402 346.297C349.402 346.297 344.202 344.397 344.502 341.397C344.502 341.397 340.802 340.397 340.002 336.297C340.002 336.297 335.502 334.797 336.102 329.797C336.102 329.797 333.102 328.997 333.702 325.297C333.702 325.297 330.402 323.097 330.902 318.997C330.902 318.997 328.702 317.497 328.902 313.697L325.102 305.297Z" fill="#455A64"/>
<path d="M325.1 305.297C325.4 305.797 326.6 308.397 329.1 313.697C329.1 314.497 329.1 315.497 329.4 316.397C329.7 317.297 330.2 318.197 331 318.897H331.1V318.997C331 319.997 331.1 321.197 331.5 322.297C332 323.397 332.8 324.397 333.8 325.097H333.9V325.197C333.8 326.097 333.8 326.997 334.2 327.797C334.6 328.597 335.4 329.297 336.3 329.597H336.4V329.697C336.3 330.997 336.4 332.297 337.1 333.497C337.8 334.697 338.9 335.597 340.2 336.097H340.3V336.197C340.5 337.297 341 338.397 341.7 339.297C342.5 340.197 343.5 340.897 344.6 341.297H344.7V341.397C344.6 342.497 345.3 343.497 346.3 344.297C347.2 345.097 348.3 345.597 349.5 346.097H349.6V346.197C349.8 347.197 350.2 348.197 351.1 348.897C352 349.497 353.2 349.597 354.2 349.197H354.3L354.4 349.297C358.8 355.097 363.7 361.397 368.6 367.897L368.9 368.297L368.4 368.197C368.1 368.097 367.7 367.997 367.3 367.897C361.8 366.297 356.7 364.197 352 361.597C347.3 358.997 343.1 355.897 339.7 352.297C336.3 348.697 333.7 344.697 332.2 340.597C330.6 336.497 329.7 332.597 328.8 328.897C327.2 321.697 326.3 315.697 325.7 311.597C325.4 309.497 325.2 307.997 325.1 306.897C325 306.397 325 305.997 325 305.697C325.1 305.497 325.1 305.297 325.1 305.297C325.1 305.297 325.1 305.397 325.2 305.697C325.2 305.997 325.3 306.397 325.4 306.897C325.6 307.997 325.8 309.597 326.1 311.597C326.7 315.697 327.7 321.597 329.3 328.797C330.1 332.397 331.1 336.397 332.7 340.397C334.2 344.497 336.8 348.397 340.2 351.997C343.6 355.497 347.8 358.597 352.4 361.197C357 363.797 362.2 365.897 367.6 367.497C368 367.597 368.3 367.697 368.7 367.797L368.5 368.097C363.5 361.597 358.7 355.297 354.3 349.497L354.5 349.597C353.4 349.997 352 349.997 351 349.297C350 348.597 349.6 347.397 349.4 346.397L349.5 346.497C348.3 345.997 347.2 345.397 346.2 344.597C345.7 344.197 345.3 343.797 345 343.197C344.7 342.697 344.5 341.997 344.6 341.397L344.7 341.597C343.5 341.197 342.4 340.497 341.6 339.497C340.8 338.597 340.3 337.397 340.1 336.297L340.2 336.397C338.8 335.897 337.6 334.897 336.9 333.697C336.2 332.497 336 330.997 336.2 329.797L336.3 329.997C335.3 329.697 334.5 328.997 334.1 328.097C333.7 327.197 333.7 326.197 333.8 325.297L333.9 325.397C332.8 324.597 332 323.597 331.5 322.397C331 321.297 330.9 320.097 331.1 318.997V319.097C330.2 318.397 329.7 317.397 329.4 316.497C329.1 315.597 329 314.597 329.1 313.797C326.5 308.497 325.3 305.897 325.1 305.297Z" fill="#263238"/>
<path d="M405.499 261.699C405.499 261.699 393.399 267.199 386.099 296.999C383.099 309.299 390.199 334.199 390.199 334.199L394.799 313.499C394.799 313.499 390.999 311.799 393.599 307.899C393.599 307.899 391.299 302.799 393.599 300.999C393.599 300.999 391.699 297.699 394.099 294.199C394.099 294.199 391.999 289.999 395.999 286.899C395.999 286.899 394.399 284.199 397.499 281.999C397.499 281.999 396.699 278.099 399.999 275.599C399.999 275.599 399.599 272.999 402.299 270.499L405.499 261.699Z" fill="#263238"/>
<path d="M378.698 217.398C379.198 216.498 372.998 225.498 371.998 233.198C370.998 240.898 370.598 246.498 370.598 246.498C370.598 246.498 371.798 251.798 369.898 254.198C369.898 254.198 372.398 261.098 369.898 264.898C369.898 264.898 371.898 271.398 369.898 273.898C369.898 273.898 371.998 280.398 369.898 282.598C369.898 282.598 372.698 288.198 369.898 290.798C369.898 290.798 371.898 296.398 369.498 298.398C369.498 298.398 371.998 303.098 369.498 305.198C369.498 305.198 371.698 314.098 368.298 315.098C368.298 315.098 369.598 322.898 367.398 323.898C367.398 323.898 368.798 331.298 366.198 332.898C366.198 332.898 366.898 339.998 365.098 341.698C365.098 341.698 366.498 346.998 364.698 349.398C362.898 351.798 365.798 365.498 365.798 365.498H377.298L379.298 355.198C379.298 355.198 378.498 305.598 378.298 297.498C378.098 289.398 376.498 263.498 376.498 263.498C376.498 263.498 375.998 239.598 375.898 236.798C375.598 233.998 377.098 220.498 378.698 217.398Z" fill="#455A64"/>
<path d="M388.701 244.297C388.701 244.297 383.701 262.197 386.201 281.397C388.701 300.597 392.501 324.797 390.301 338.897C389.201 345.997 387.101 352.897 385.401 357.997C383.701 363.097 380.001 367.197 375.101 369.597C375.101 369.597 369.901 361.997 370.901 358.297C371.801 354.597 375.601 348.697 375.601 348.697C375.601 348.697 379.801 342.097 378.901 338.297C378.901 338.297 381.401 335.097 380.901 331.497C380.901 331.497 383.201 326.097 382.001 322.897C382.001 322.897 385.201 319.097 383.601 314.497C383.601 314.497 384.501 312.497 383.101 307.897C383.101 307.897 382.401 300.897 380.801 298.797C380.801 298.797 382.601 294.897 380.801 291.597C380.801 291.597 382.201 287.797 380.301 284.897C380.301 284.897 381.701 282.197 380.301 279.197C380.301 279.197 381.701 276.397 379.901 274.097C379.901 274.097 380.801 270.297 380.301 268.197C380.301 268.197 381.401 264.497 380.801 262.397C380.801 262.397 382.001 259.697 382.201 257.197C382.201 257.197 384.601 255.297 383.901 252.397C383.901 252.397 385.601 252.597 385.901 248.897L388.701 244.297Z" fill="#455A64"/>
<path d="M388.701 244.297C388.501 244.597 387.701 245.997 385.901 248.997C385.801 249.597 385.701 250.297 385.501 250.997C385.401 251.297 385.201 251.697 384.901 251.997C384.601 252.297 384.301 252.597 383.801 252.597L383.901 252.497C384.101 253.297 384.101 254.197 383.801 254.997C383.501 255.897 383.001 256.697 382.201 257.397V257.297C382.001 258.897 381.501 260.697 380.801 262.497V262.397C381.001 263.297 381.001 264.297 380.901 265.297C380.801 266.297 380.601 267.297 380.301 268.297V268.197C380.501 269.097 380.501 270.097 380.401 271.097C380.301 272.097 380.101 273.097 379.901 274.097V273.997C380.401 274.697 380.801 275.497 380.801 276.497C380.901 277.397 380.701 278.397 380.301 279.197V279.097C381.101 280.797 381.201 282.997 380.301 284.897V284.797C381.501 286.697 381.601 289.297 380.801 291.597V291.497C381.901 293.597 381.801 296.397 380.801 298.797V298.597C381.301 299.197 381.501 299.897 381.801 300.697C382.001 301.397 382.201 302.197 382.401 302.997C382.701 304.497 383.001 306.197 383.101 307.797C383.401 308.797 383.701 309.897 383.801 310.997C383.901 312.097 384.001 313.297 383.601 314.497V314.397C384.101 315.697 384.201 317.297 383.901 318.697C383.601 320.197 383.001 321.597 382.001 322.897V322.697C382.501 324.097 382.401 325.597 382.101 326.997C381.801 328.497 381.401 329.897 380.801 331.397V331.297C381.101 333.597 380.201 336.197 378.701 338.197V337.997C379.001 339.297 378.801 340.697 378.401 341.997C378.001 343.297 377.501 344.497 377.001 345.697C376.401 346.897 375.701 348.097 375.001 349.197C374.301 350.397 373.601 351.497 373.001 352.797C372.401 353.997 371.801 355.297 371.301 356.597C371.201 356.897 371.101 357.197 371.001 357.597L370.901 358.097L370.801 358.597C370.701 358.897 370.801 359.297 370.801 359.597C370.901 359.897 370.901 360.297 371.001 360.597C371.301 361.897 371.801 363.297 372.401 364.497C373.001 365.797 373.701 366.997 374.401 368.197L374.901 368.897L375.001 369.097L375.101 369.197C375.301 369.297 374.801 369.197 374.901 369.197L375.301 368.997C375.801 368.797 376.301 368.497 376.801 368.197C377.801 367.597 378.601 366.897 379.501 366.197C381.201 364.697 382.601 362.997 383.601 360.997C384.701 359.097 385.301 356.997 386.001 354.897C386.701 352.797 387.301 350.697 387.801 348.697C388.901 344.597 389.801 340.397 390.301 336.297C390.701 332.197 390.701 328.097 390.601 324.197C390.301 316.297 389.501 308.897 388.601 301.897C387.801 294.897 386.901 288.497 386.101 282.497C385.901 280.997 385.801 279.597 385.601 278.197C385.501 276.797 385.401 275.397 385.301 274.097C385.201 271.397 385.201 268.897 385.301 266.497C385.501 261.797 385.901 257.697 386.401 254.397C386.901 251.097 387.401 248.597 387.801 246.797C388.001 245.897 388.201 245.297 388.301 244.897C388.401 244.697 388.401 244.497 388.401 244.397C388.701 244.397 388.701 244.397 388.701 244.297C388.601 244.497 388.501 245.297 388.101 246.897C387.701 248.597 387.201 251.197 386.801 254.497C386.301 257.797 385.901 261.897 385.701 266.597C385.601 268.997 385.601 271.497 385.701 274.197C385.801 275.497 385.901 276.897 386.001 278.297C386.201 279.697 386.301 281.197 386.501 282.597C387.301 288.497 388.201 294.997 389.101 301.997C389.901 308.997 390.801 316.397 391.101 324.297C391.201 328.197 391.301 332.297 390.801 336.397C390.301 340.497 389.401 344.697 388.301 348.797C387.801 350.897 387.101 352.997 386.501 354.997C385.801 357.097 385.201 359.197 384.101 361.197C383.001 363.197 381.601 364.897 379.901 366.397C379.101 367.197 378.101 367.797 377.201 368.397C376.701 368.697 376.201 368.997 375.701 369.197L375.301 369.397C375.301 369.397 374.801 369.297 375.001 369.297L374.901 369.197L374.801 368.997L374.301 368.297C373.501 367.097 372.901 365.797 372.201 364.497C371.601 363.197 371.101 361.897 370.701 360.497C370.601 360.197 370.601 359.797 370.501 359.397C370.501 358.997 370.401 358.697 370.501 358.297L370.601 357.797L370.701 357.297C370.801 356.997 370.901 356.597 371.001 356.297C371.501 354.997 372.101 353.697 372.701 352.497C373.301 351.297 374.001 350.097 374.701 348.897C375.401 347.697 376.101 346.597 376.701 345.397C377.301 344.197 377.801 342.997 378.101 341.697C378.401 340.397 378.601 339.097 378.401 337.897V337.797L378.501 337.697C379.901 335.697 380.801 333.297 380.501 330.997C381.101 329.597 381.501 328.097 381.701 326.697C381.901 325.297 382.001 323.797 381.601 322.497V322.397L381.701 322.297C382.601 321.097 383.201 319.697 383.501 318.297C383.801 316.897 383.701 315.397 383.201 314.097V313.997V313.897C383.501 312.897 383.501 311.697 383.401 310.597C383.301 309.497 383.001 308.397 382.701 307.497C382.501 305.897 382.301 304.297 382.001 302.697C381.801 301.897 381.701 301.197 381.401 300.497C381.201 299.797 380.901 299.097 380.501 298.497L380.401 298.397V298.297C381.401 295.997 381.501 293.197 380.401 291.197V291.097V290.997C381.101 288.697 381.101 286.197 379.901 284.397V284.297V284.197C380.701 282.397 380.701 280.197 379.901 278.697V278.597V278.497C380.301 277.697 380.501 276.797 380.401 275.897C380.401 274.997 380.001 274.197 379.601 273.597V273.497C379.801 272.497 380.001 271.497 380.101 270.497C380.201 269.497 380.201 268.497 380.001 267.697C380.301 266.697 380.501 265.697 380.601 264.797C380.701 263.797 380.701 262.897 380.501 261.997C381.201 260.197 381.701 258.497 381.901 256.797C382.601 256.197 383.201 255.297 383.401 254.497C383.701 253.697 383.701 252.797 383.501 251.997V251.897H383.601C384.001 251.897 384.301 251.697 384.601 251.397C384.901 251.097 385.001 250.797 385.101 250.397C385.301 249.697 385.401 248.997 385.501 248.397C387.701 245.997 388.501 244.597 388.701 244.297Z" fill="#263238"/>
<g opacity="0.3">
<path d="M375.598 368.898C374.698 363.498 372.698 358.398 369.798 353.798C368.398 351.598 366.698 349.398 365.598 346.998C364.498 344.598 364.198 341.598 365.398 339.298C363.698 337.898 362.898 335.598 363.398 333.498C360.798 331.598 359.498 327.998 360.498 324.898L357.198 322.898L356.898 332.898L358.098 348.798L364.898 359.698L375.598 368.898Z" fill="black"/>
</g>
<path d="M359.1 301C359.1 301.5 356.9 311.3 355.5 317.4C354.3 322.6 351.1 334.2 352.5 343.1C353.9 352 358.2 360.7 363.3 364.9C369.8 370.1 375.8 369.5 375.8 369.5L364.6 349.5C364.6 349.5 360.6 344.8 362.1 342.8L362.8 339.5C362.8 339.5 359.5 337.2 360.6 333.3C360.6 333.3 358.3 328.6 360.4 323.8C360.4 323.8 358.2 320.4 359.9 317.4C359.9 317.4 358.3 314.1 359.6 312.4C359.6 312.4 358 309.8 359.8 307.7L359.1 301Z" fill="#455A64"/>
<path d="M359.101 301C359.201 301.5 359.401 303.5 359.901 307.8C359.501 308.3 359.101 309.1 359.101 309.9C359.101 310.7 359.301 311.6 359.701 312.4V312.5V312.6C359.501 312.9 359.401 313.3 359.301 313.7C359.201 314.1 359.201 314.5 359.301 314.9C359.401 315.7 359.701 316.6 360.101 317.5V317.6V317.7C359.601 318.6 359.401 319.6 359.501 320.7C359.601 321.8 360.001 322.9 360.601 323.9V324V324.1C359.401 326.8 359.401 330.3 360.801 333.5V333.6V333.7C360.501 334.7 360.501 335.9 360.901 337C361.301 338.1 362.001 339.1 363.001 339.8L363.101 339.9V340C362.901 341 362.701 342.1 362.401 343.3C362.101 343.7 362.001 344.3 362.101 344.9C362.201 345.5 362.401 346.1 362.701 346.6C363.301 347.7 364.001 348.8 364.801 349.8C368.301 356 372.001 362.7 376.001 369.8L376.101 370.1H375.801C374.701 370.2 373.501 370 372.301 369.8C369.601 369.3 367.101 368.2 365.001 366.7C362.801 365.3 360.901 363.4 359.401 361.3C356.401 357.2 354.501 352.6 353.301 348.1C352.701 345.8 352.301 343.6 352.101 341.4C351.901 339.2 352.001 337 352.201 335C352.501 330.9 353.301 327.1 354.001 323.6C355.601 316.8 356.901 311.2 357.801 307.4C358.201 305.5 358.601 304 358.801 303C358.901 301.7 359.001 301.3 359.101 301C359.101 301 359.101 301.1 359.101 301.4C359.101 301.7 359.001 302.1 358.901 302.6C358.701 303.6 358.401 305.1 358.001 307C357.201 310.8 356.001 316.4 354.401 323.3C353.601 326.7 352.901 330.5 352.601 334.6C352.401 336.7 352.401 338.8 352.601 341C352.801 343.2 353.201 345.4 353.801 347.6C355.001 352.1 356.901 356.6 359.901 360.7C361.401 362.7 363.201 364.6 365.401 366C367.501 367.4 370.001 368.5 372.601 369C373.701 369.2 374.901 369.3 376.001 369.3L375.901 369.6C372.001 362.6 368.201 355.8 364.801 349.6C364.001 348.6 363.201 347.5 362.601 346.3C362.301 345.7 362.101 345.1 362.001 344.5C361.901 343.9 361.901 343.2 362.301 342.6V342.7C362.501 341.6 362.801 340.4 363.001 339.4L363.101 339.6C362.101 338.8 361.301 337.8 360.901 336.7C360.501 335.6 360.501 334.3 360.801 333.2V333.3C359.401 330 359.401 326.4 360.701 323.7V323.8C360.101 322.7 359.701 321.6 359.601 320.4C359.501 319.3 359.701 318.1 360.201 317.2V317.3C359.801 316.4 359.601 315.5 359.401 314.7C359.401 314.3 359.401 313.8 359.401 313.4C359.501 313 359.601 312.6 359.901 312.3V312.4C359.501 311.6 359.201 310.7 359.301 309.8C359.301 308.9 359.701 308.2 360.101 307.6V307.7C359.301 303.6 359.101 301.6 359.101 301Z" fill="#263238"/>
<path d="M396.699 402.098H346.499L340.699 362.898H402.499L396.699 402.098Z" fill="#FE7209"/>
<path d="M336.102 371.898V362.898H407.002L406.502 371.898H336.102Z" fill="#FE7209"/>
<path d="M406.502 371.899C406.502 371.999 390.702 372.099 371.302 372.099C351.802 372.099 336.102 371.999 336.102 371.899C336.102 371.799 351.902 371.699 371.302 371.699C390.702 371.599 406.502 371.799 406.502 371.899Z" fill="#263238"/>
<g opacity="0.3">
<path d="M344.199 371.798C350.499 374.698 361.499 375.898 371.699 375.498C381.799 375.098 390.299 373.598 398.899 371.598L344.199 371.798Z" fill="black"/>
</g>
<path d="M291.698 402.1L162.998 401.5C147.498 401.4 134.998 388.8 135.098 373.3L136.498 50.5998C136.598 35.0998 149.198 22.5998 164.698 22.6998L293.398 23.2998C308.898 23.3998 321.398 35.9998 321.298 51.4998L319.898 374.2C319.798 389.6 307.298 402.1 291.698 402.1Z" fill="#263238"/>
<path d="M292.299 34.4993L267.399 34.3993L194.399 33.9993H185.599L163.699 33.8993C152.899 33.7993 143.999 42.5993 143.999 53.3993L142.699 368.399C142.699 379.199 151.399 388.099 162.199 388.099L290.699 388.699C301.499 388.699 310.399 379.999 310.399 369.099L311.699 54.0993C311.899 43.2993 303.099 34.4993 292.299 34.4993Z" fill="#FAFAFA"/>
<path d="M293.399 63.7016C293.399 64.6016 292.699 65.3016 291.799 65.3016C290.899 65.3016 290.199 64.6016 290.199 63.7016C290.199 62.8016 290.899 62.1016 291.799 62.1016C292.699 62.1016 293.399 62.8016 293.399 63.7016Z" fill="#263238"/>
<path d="M293.399 69.5023C293.399 70.4023 292.699 71.1023 291.799 71.1023C290.899 71.1023 290.199 70.4023 290.199 69.5023C290.199 68.6023 290.899 67.9023 291.799 67.9023C292.699 67.9023 293.399 68.6023 293.399 69.5023Z" fill="#263238"/>
<path d="M293.399 75.3031C293.399 76.2031 292.699 76.9031 291.799 76.9031C290.899 76.9031 290.199 76.2031 290.199 75.3031C290.199 74.4031 290.899 73.7031 291.799 73.7031C292.699 73.7031 293.399 74.4031 293.399 75.3031Z" fill="#263238"/>
<path d="M164.397 107.602H293.097C295.397 107.602 297.197 109.402 297.197 111.702V190.402C297.197 192.702 295.397 194.502 293.097 194.502H164.397C162.097 194.502 160.297 192.702 160.297 190.402V111.702C160.397 109.402 162.197 107.602 164.397 107.602Z" fill="#455A64"/>
<path d="M182.896 127.401C182.896 128.501 181.996 129.201 180.296 129.201H176.996V122.801H180.096C181.696 122.801 182.496 123.501 182.496 124.501C182.496 125.101 182.196 125.601 181.596 125.901C182.396 126.001 182.896 126.701 182.896 127.401ZM178.496 123.901V125.401H179.996C180.696 125.401 181.096 125.101 181.096 124.601C181.096 124.101 180.696 123.801 179.996 123.801H178.496V123.901ZM181.396 127.301C181.396 126.801 180.996 126.501 180.196 126.501H178.496V128.101H180.196C180.996 128.101 181.396 127.801 181.396 127.301Z" fill="white"/>
<path d="M188.295 127.801H185.295L184.695 129.201H183.195L185.995 122.801H187.495L190.295 129.201H188.695L188.295 127.801ZM187.795 126.701L186.795 124.201L185.795 126.701H187.795Z" fill="white"/>
<path d="M196.998 122.801V129.201H195.798L192.598 125.301V129.201H191.098V122.801H192.298L195.498 126.701V122.801H196.998Z" fill="white"/>
<path d="M200.796 126.701L199.896 127.601V129.201H198.496V122.801H199.996V125.801L202.796 122.801H204.496L201.796 125.601L204.596 129.201H202.896L200.796 126.701Z" fill="white"/>
<path d="M181.698 154.101H180.498V155.601H179.898V154.101H176.598V153.701L179.698 149.801H180.398L177.398 153.601H179.998V152.201H180.598V153.601H181.798V154.101H181.698Z" fill="white"/>
<path d="M185.997 154.003C185.997 154.903 185.297 155.703 183.897 155.703C183.097 155.703 182.397 155.503 181.797 154.903L182.097 154.403C182.597 154.903 183.197 155.103 183.897 155.103C184.797 155.103 185.397 154.603 185.397 153.903C185.397 153.203 184.897 152.703 183.797 152.703H183.397V152.303L184.997 150.203H181.997V149.703H185.797V150.103L184.097 152.203C185.397 152.403 185.997 153.103 185.997 154.003Z" fill="white"/>
<path d="M190.798 154.001C190.798 155.001 190.098 155.801 188.698 155.801C187.898 155.801 187.198 155.601 186.598 155.001L186.898 154.501C187.398 155.001 187.998 155.201 188.698 155.201C189.698 155.201 190.198 154.701 190.198 154.001C190.198 153.301 189.698 152.801 188.198 152.801H186.998L187.298 149.801H190.498V150.301H187.798L187.598 152.201H188.398C190.098 152.201 190.798 152.901 190.798 154.001Z" fill="white"/>
<path d="M195.996 153.903C195.996 154.903 195.196 155.703 194.096 155.703C193.996 155.703 193.996 155.703 193.896 155.703C192.296 155.703 191.496 154.603 191.496 152.703C191.496 150.703 192.596 149.703 194.196 149.703C194.696 149.703 195.196 149.803 195.596 150.003L195.396 150.503C195.096 150.303 194.696 150.203 194.296 150.203C192.996 150.203 192.196 151.003 192.196 152.603C192.196 152.703 192.196 152.903 192.196 153.103C192.596 152.403 193.296 152.003 193.996 152.103C194.996 152.003 195.896 152.703 195.996 153.603C195.996 153.803 195.996 153.903 195.996 153.903ZM195.396 153.903C195.396 153.103 194.796 152.603 193.896 152.603C193.096 152.503 192.496 153.103 192.396 153.803V153.903C192.396 154.603 192.896 155.203 193.996 155.203C194.696 155.303 195.396 154.803 195.396 154.103C195.396 154.003 195.396 154.003 195.396 153.903Z" fill="white"/>
<path d="M208.695 155.703L207.295 153.803L205.895 155.703H205.195L206.995 153.403L205.295 151.203H205.995L207.295 152.903L208.595 151.203H209.295L207.595 153.303L209.395 155.603L208.695 155.703Z" fill="white"/>
<path d="M213.195 155.703L211.795 153.803L210.395 155.703H209.695L211.495 153.403L209.795 151.203H210.495L211.795 152.903L213.095 151.203H213.795L212.195 153.303L213.995 155.603L213.195 155.703Z" fill="white"/>
<path d="M217.695 155.703L216.295 153.803L214.895 155.703H214.195L215.895 153.403L214.195 151.203H214.895L216.195 152.903L217.495 151.203H218.195L216.495 153.303L218.295 155.603L217.695 155.703Z" fill="white"/>
<path d="M222.297 155.703L220.897 153.803L219.497 155.703H218.797L220.597 153.403L218.897 151.203H219.597L220.897 152.903L222.197 151.203H222.897L221.197 153.303L222.997 155.603L222.297 155.703Z" fill="white"/>
<path d="M237.797 155.703L236.397 153.803L234.997 155.703H234.297L235.997 153.403L234.297 151.203H234.997L236.297 152.903L237.597 151.203H238.297L236.597 153.403L238.397 155.703H237.797Z" fill="white"/>
<path d="M242.297 155.703L240.897 153.803L239.497 155.703H238.797L240.597 153.403L238.897 151.203H239.597L240.897 152.903L242.197 151.203H242.897L241.197 153.303L242.997 155.603L242.297 155.703Z" fill="white"/>
<path d="M246.797 155.703L245.397 153.803L243.997 155.703H243.297L245.097 153.403L243.397 151.203H244.097L245.397 152.903L246.697 151.203H247.397L245.697 153.403L247.497 155.703H246.797Z" fill="white"/>
<path d="M251.297 155.703L249.897 153.803L248.497 155.703H247.797L249.497 153.403L247.897 151.203H248.597L249.897 152.903L251.197 151.203H251.897L250.197 153.303L251.997 155.603L251.297 155.703Z" fill="white"/>
<path d="M265.195 149.801V155.701H264.595V150.301H263.195V149.801H265.195Z" fill="white"/>
<path d="M270.497 154.003C270.497 154.903 269.797 155.703 268.397 155.703C267.597 155.703 266.897 155.503 266.297 154.903L266.597 154.403C267.097 154.903 267.697 155.103 268.397 155.103C269.297 155.103 269.897 154.603 269.897 153.903C269.897 153.203 269.397 152.703 268.297 152.703H267.897V152.303L269.497 150.203H266.497V149.703H270.297V150.103L268.597 152.203C269.897 152.403 270.497 153.103 270.497 154.003Z" fill="white"/>
<path d="M276.397 154.101H275.197V155.601H274.597V154.101H271.297V153.701L274.397 149.801H275.097L272.097 153.601H274.697V152.201H275.297V153.601H276.497V154.101H276.397Z" fill="white"/>
<path d="M280.895 155.2V155.7H276.795V155.3L279.295 152.9C279.995 152.2 280.095 151.8 280.095 151.4C280.095 150.7 279.595 150.3 278.695 150.3C278.095 150.3 277.495 150.5 277.095 151L276.695 150.6C277.195 150 277.995 149.7 278.795 149.8C279.995 149.8 280.795 150.4 280.795 151.4C280.795 152.1 280.395 152.8 279.895 153.2L277.895 155.2H280.895Z" fill="white"/>
<path d="M173.598 167.902C173.598 167.102 174.198 166.502 174.998 166.402H175.098C175.498 166.402 175.998 166.602 176.198 166.902L175.798 167.302C175.598 167.102 175.398 167.002 175.098 167.002C174.598 167.002 174.198 167.402 174.198 167.902C174.198 168.402 174.598 168.802 175.098 168.802C175.398 168.802 175.598 168.702 175.798 168.502L176.198 168.902C175.898 169.202 175.498 169.402 174.998 169.402C174.298 169.402 173.598 168.802 173.598 167.902C173.598 168.002 173.598 168.002 173.598 167.902Z" fill="white"/>
<path d="M178.495 168.7H177.195L176.895 169.3H176.195L177.495 166.5H178.095L179.395 169.3H178.695L178.495 168.7ZM178.295 168.3L177.895 167.2L177.495 168.3H178.295Z" fill="white"/>
<path d="M181.495 169.3L180.895 168.5H180.295V169.3H179.695V166.5H180.895C181.695 166.5 182.095 166.9 182.095 167.5C182.095 167.9 181.895 168.2 181.495 168.4L182.095 169.3H181.495ZM180.895 167.1H180.395V168H180.895C181.295 168 181.495 167.8 181.495 167.5C181.495 167.2 181.295 167.1 180.895 167.1Z" fill="white"/>
<path d="M182.398 169.1L182.598 168.6C182.898 168.8 183.198 168.9 183.498 168.9C183.898 168.9 183.998 168.8 183.998 168.6C183.998 168.1 182.398 168.4 182.398 167.4C182.398 166.9 182.798 166.5 183.598 166.5C183.898 166.5 184.298 166.6 184.498 166.7L184.298 167.2C184.098 167.1 183.798 167 183.498 167C183.098 167 182.998 167.1 182.998 167.3C182.998 167.8 184.598 167.5 184.598 168.5C184.598 169 184.198 169.4 183.398 169.4C183.198 169.4 182.798 169.3 182.398 169.1Z" fill="white"/>
<path d="M188.998 166.5V169.3H188.298V168.2H186.998V169.3H186.398V166.5H186.998V167.6H188.298V166.5H188.998Z" fill="white"/>
<path d="M189.496 167.901C189.496 167.101 190.096 166.301 190.996 166.301C191.796 166.301 192.596 166.901 192.596 167.801C192.596 168.701 191.996 169.401 191.096 169.401H190.996C190.196 169.401 189.496 168.801 189.496 167.901C189.496 168.001 189.496 168.001 189.496 167.901ZM191.896 167.901C191.896 167.401 191.496 167.001 190.996 167.001C190.496 167.001 190.096 167.401 190.096 167.901C190.096 168.401 190.496 168.801 190.996 168.801C191.496 168.801 191.896 168.501 191.896 167.901C191.896 168.001 191.896 168.001 191.896 167.901Z" fill="white"/>
<path d="M192.996 166.5H193.696V168.8H195.096V169.3H192.996V166.5Z" fill="white"/>
<path d="M195.496 166.5H196.796C197.596 166.5 198.196 167.1 198.196 167.9C198.196 168.7 197.596 169.3 196.796 169.3H195.496V166.5ZM196.696 168.8C197.196 168.8 197.596 168.4 197.596 167.9C197.596 167.4 197.196 167 196.696 167H196.096V168.7H196.696V168.8Z" fill="white"/>
<path d="M200.997 168.8V169.3H198.797V166.5H200.897V167H199.397V167.6H200.697V168.1H199.397V168.7L200.997 168.8Z" fill="white"/>
<path d="M203.296 169.3L202.696 168.5H202.096V169.3H201.496V166.5H202.696C203.496 166.5 203.896 166.9 203.896 167.5C203.896 167.9 203.696 168.2 203.296 168.4L203.896 169.3H203.296ZM202.596 167.1H202.096V168H202.596C202.996 168 203.196 167.8 203.196 167.5C203.196 167.2 203.096 167.1 202.596 167.1Z" fill="white"/>
<path d="M174.398 176.301H213.098C213.898 176.301 214.598 177.001 214.598 177.801V178.401C214.598 179.201 213.898 179.901 213.098 179.901H174.398C173.598 179.901 172.898 179.201 172.898 178.401V177.801C172.898 177.001 173.598 176.301 174.398 176.301Z" fill="white"/>
<path d="M261.996 176.301H282.196C282.996 176.301 283.696 177.001 283.696 177.801V178.401C283.696 179.201 282.996 179.901 282.196 179.901H261.996C261.196 179.901 260.496 179.201 260.496 178.401V177.801C260.496 177.001 261.096 176.301 261.996 176.301Z" fill="white"/>
<g opacity="0.2">
<path d="M292.698 107.602H164.898C162.398 107.602 160.398 109.602 160.398 112.102V135.002C168.498 140.602 179.598 141.602 189.398 139.602C200.998 137.202 211.498 131.202 222.298 126.402C233.098 121.502 244.998 117.602 256.698 119.602C267.698 121.502 277.098 128.302 287.098 133.402C290.398 135.102 293.798 136.502 297.298 137.502V112.002C297.198 109.602 295.198 107.602 292.698 107.602Z" fill="white"/>
</g>
<path d="M267.195 119.602H273.895C275.595 119.602 276.895 120.902 276.895 122.602V129.302C276.895 131.002 275.595 132.302 273.895 132.302H267.195C265.495 132.302 264.195 131.002 264.195 129.302V122.602C264.195 121.002 265.495 119.602 267.195 119.602Z" fill="white"/>
<path d="M171.102 236.301C171.102 238.301 169.502 239.801 167.602 239.801C165.602 239.801 164.102 238.201 164.102 236.301C164.102 234.301 165.702 232.801 167.602 232.801C169.502 232.801 171.102 234.401 171.102 236.301Z" fill="#455A64"/>
<path d="M251.601 238.6H181.101C179.801 238.6 178.801 237.6 178.801 236.3C178.801 235 179.801 234 181.101 234H251.601C252.901 234 253.901 235 253.901 236.3C253.901 237.6 252.901 238.6 251.601 238.6Z" fill="#E0E0E0"/>
<path d="M167.5 256.898C169.433 256.898 171 255.331 171 253.398C171 251.465 169.433 249.898 167.5 249.898C165.567 249.898 164 251.465 164 253.398C164 255.331 165.567 256.898 167.5 256.898Z" fill="#455A64"/>
<path d="M208.201 255.6H181.101C179.801 255.6 178.801 254.6 178.801 253.3C178.801 252 179.801 251 181.101 251H208.201C209.501 251 210.501 252 210.501 253.3C210.501 254.6 209.501 255.6 208.201 255.6Z" fill="#E0E0E0"/>
<path d="M267.702 238.001C268.502 238.001 269.402 238.001 270.202 238.001C270.502 238.001 270.802 237.701 270.802 237.401C270.802 237.101 270.502 236.801 270.202 236.801C269.402 236.801 268.502 236.801 267.702 236.801C267.402 236.801 267.102 237.101 267.102 237.401C267.102 237.701 267.402 238.001 267.702 238.001Z" fill="#E0E0E0"/>
<path d="M279.902 239.3C279.502 239.7 278.902 239.9 278.102 239.9V241.1H277.602V239.9C277.102 239.9 276.602 239.8 276.202 239.6C275.802 239.4 275.402 239.2 275.102 239L275.402 238.4C275.602 238.6 276.002 238.8 276.302 239C276.702 239.2 277.102 239.3 277.502 239.3V236.6C277.002 236.5 276.602 236.4 276.302 236.2C276.002 236.1 275.702 235.9 275.502 235.6C275.302 235.3 275.202 235 275.202 234.6C275.202 234.1 275.402 233.6 275.802 233.3C276.202 232.9 276.802 232.7 277.502 232.7V231.5H278.002V232.7C278.402 232.7 278.802 232.8 279.102 232.9C279.502 233 279.802 233.2 280.102 233.4L279.802 234C279.502 233.8 279.202 233.7 278.902 233.6C278.602 233.5 278.302 233.4 278.002 233.4V236.1C278.502 236.2 278.902 236.4 279.302 236.5C279.602 236.6 279.902 236.8 280.102 237.1C280.302 237.4 280.402 237.7 280.402 238.1C280.502 238.5 280.302 238.9 279.902 239.3ZM276.402 235.3C276.702 235.5 277.002 235.6 277.502 235.8V233.2C277.002 233.2 276.602 233.4 276.302 233.6C276.002 233.8 275.902 234.1 275.902 234.5C276.002 234.9 276.202 235.1 276.402 235.3ZM279.302 238.8C279.602 238.6 279.702 238.3 279.702 237.9C279.702 237.5 279.602 237.2 279.302 237.1C279.002 236.9 278.602 236.8 278.102 236.6V239.2C278.602 239.2 279.002 239.1 279.302 238.8Z" fill="#E0E0E0"/>
<path d="M286.202 239.3C285.802 239.7 285.202 239.9 284.402 239.9V241.1H283.902V239.9C283.402 239.9 282.902 239.8 282.502 239.6C282.102 239.4 281.702 239.2 281.402 239L281.702 238.4C281.902 238.6 282.302 238.8 282.602 239C283.002 239.2 283.402 239.3 283.802 239.3V236.6C283.302 236.5 282.902 236.4 282.602 236.2C282.302 236.1 282.002 235.9 281.802 235.6C281.602 235.3 281.502 235 281.502 234.6C281.502 234.1 281.702 233.6 282.102 233.3C282.502 232.9 283.102 232.7 283.802 232.7V231.5H284.302V232.7C284.702 232.7 285.102 232.8 285.402 232.9C285.802 233 286.102 233.2 286.402 233.4L286.102 234C285.802 233.8 285.502 233.7 285.202 233.6C284.902 233.5 284.602 233.4 284.302 233.4V236.1C284.802 236.2 285.202 236.4 285.602 236.5C285.902 236.6 286.202 236.8 286.402 237.1C286.602 237.4 286.702 237.7 286.702 238.1C286.802 238.5 286.602 238.9 286.202 239.3ZM282.802 235.3C283.102 235.5 283.402 235.6 283.902 235.8V233.2C283.402 233.2 283.002 233.4 282.702 233.6C282.402 233.8 282.302 234.1 282.302 234.5C282.402 234.9 282.502 235.1 282.802 235.3ZM285.702 238.8C286.002 238.6 286.102 238.3 286.102 237.9C286.102 237.5 286.002 237.2 285.702 237.1C285.402 236.9 285.002 236.8 284.502 236.6V239.2C285.002 239.2 285.402 239.1 285.702 238.8Z" fill="#E0E0E0"/>
<path d="M167.5 337.898C169.433 337.898 171 336.331 171 334.398C171 332.465 169.433 330.898 167.5 330.898C165.567 330.898 164 332.465 164 334.398C164 336.331 165.567 337.898 167.5 337.898Z" fill="#455A64"/>
<path d="M251.601 336.698H181.101C179.801 336.698 178.801 335.698 178.801 334.398C178.801 333.098 179.801 332.098 181.101 332.098H251.601C252.901 332.098 253.901 333.098 253.901 334.398C253.901 335.698 252.901 336.698 251.601 336.698Z" fill="#E0E0E0"/>
<path d="M267.702 336.102C268.502 336.102 269.402 336.102 270.202 336.102C270.502 336.102 270.802 335.802 270.802 335.502C270.802 335.202 270.502 334.902 270.202 334.902C269.402 334.902 268.502 334.902 267.702 334.902C267.402 334.902 267.102 335.202 267.102 335.502C267.102 335.802 267.402 336.102 267.702 336.102Z" fill="#E0E0E0"/>
<path d="M279.902 337.402C279.502 337.802 278.902 338.002 278.102 338.002V339.202H277.602V338.002C277.102 338.002 276.602 337.902 276.202 337.702C275.802 337.502 275.402 337.302 275.102 337.102L275.402 336.502C275.602 336.702 276.002 336.902 276.302 337.102C276.702 337.302 277.102 337.402 277.502 337.402V334.702C277.002 334.602 276.602 334.502 276.302 334.302C276.002 334.202 275.702 334.002 275.502 333.702C275.302 333.402 275.202 333.102 275.202 332.702C275.202 332.202 275.402 331.702 275.802 331.402C276.202 331.002 276.802 330.802 277.502 330.802V329.602H278.002V330.802C278.402 330.802 278.802 330.902 279.102 331.002C279.502 331.102 279.802 331.302 280.102 331.502L279.802 332.102C279.502 331.902 279.202 331.802 278.902 331.702C278.602 331.602 278.302 331.502 278.002 331.502V334.202C278.502 334.302 278.902 334.502 279.302 334.602C279.602 334.702 279.902 334.902 280.102 335.202C280.302 335.502 280.402 335.802 280.402 336.202C280.502 336.602 280.302 337.002 279.902 337.402ZM276.402 333.402C276.702 333.602 277.002 333.702 277.502 333.902V331.302C277.002 331.302 276.602 331.502 276.302 331.702C276.002 331.902 275.902 332.202 275.902 332.602C276.002 333.002 276.202 333.202 276.402 333.402ZM279.302 336.902C279.602 336.702 279.702 336.402 279.702 336.002C279.702 335.602 279.602 335.302 279.302 335.202C279.002 335.002 278.602 334.902 278.102 334.702V337.302C278.602 337.302 279.002 337.202 279.302 336.902Z" fill="#E0E0E0"/>
<path d="M286.202 337.402C285.802 337.802 285.202 338.002 284.402 338.002V339.202H283.902V338.002C283.402 338.002 282.902 337.902 282.502 337.702C282.102 337.502 281.702 337.302 281.402 337.102L281.702 336.502C281.902 336.702 282.302 336.902 282.602 337.102C283.002 337.302 283.402 337.402 283.802 337.402V334.702C283.302 334.602 282.902 334.502 282.602 334.302C282.302 334.202 282.002 334.002 281.802 333.702C281.602 333.402 281.502 333.102 281.502 332.702C281.502 332.202 281.702 331.702 282.102 331.402C282.502 331.002 283.102 330.802 283.802 330.802V329.602H284.302V330.802C284.702 330.802 285.102 330.902 285.402 331.002C285.802 331.102 286.102 331.302 286.402 331.502L286.102 332.102C285.802 331.902 285.502 331.802 285.202 331.702C284.902 331.602 284.602 331.502 284.302 331.502V334.202C284.802 334.302 285.202 334.502 285.602 334.602C285.902 334.702 286.202 334.902 286.402 335.202C286.602 335.502 286.702 335.802 286.702 336.202C286.802 336.602 286.602 337.002 286.202 337.402ZM282.802 333.402C283.102 333.602 283.402 333.702 283.902 333.902V331.302C283.402 331.302 283.002 331.502 282.702 331.702C282.402 331.902 282.302 332.202 282.302 332.602C282.402 333.002 282.502 333.202 282.802 333.402ZM285.702 336.902C286.002 336.702 286.102 336.402 286.102 336.002C286.102 335.602 286.002 335.302 285.702 335.202C285.402 335.002 285.002 334.902 284.502 334.702V337.302C285.002 337.302 285.402 337.202 285.702 336.902Z" fill="#E0E0E0"/>
<path d="M171.102 285.801C171.102 287.801 169.502 289.301 167.602 289.301C165.602 289.301 164.102 287.701 164.102 285.801C164.102 283.801 165.702 282.301 167.602 282.301C169.502 282.201 171.102 283.801 171.102 285.801Z" fill="#455A64"/>
<path d="M251.601 288.1H181.101C179.801 288.1 178.801 287.1 178.801 285.8C178.801 284.5 179.801 283.5 181.101 283.5H251.601C252.901 283.5 253.901 284.5 253.901 285.8C253.901 287 252.901 288.1 251.601 288.1Z" fill="#E0E0E0"/>
<path d="M267.702 287.399C268.502 287.399 269.402 287.399 270.202 287.399C270.502 287.399 270.802 287.099 270.802 286.799C270.802 286.499 270.502 286.199 270.202 286.199C269.402 286.199 268.502 286.199 267.702 286.199C267.402 286.199 267.102 286.499 267.102 286.799C267.102 287.099 267.402 287.399 267.702 287.399Z" fill="#E0E0E0"/>
<path d="M279.902 288.698C279.502 289.098 278.902 289.298 278.102 289.298V290.498H277.602V289.298C277.102 289.298 276.602 289.198 276.202 288.998C275.802 288.798 275.402 288.598 275.102 288.398L275.402 287.798C275.602 287.998 276.002 288.198 276.302 288.398C276.702 288.598 277.102 288.698 277.502 288.698V285.998C277.002 285.898 276.602 285.798 276.302 285.598C276.002 285.498 275.702 285.298 275.502 284.998C275.302 284.698 275.202 284.398 275.202 283.998C275.202 283.498 275.402 282.998 275.802 282.698C276.202 282.298 276.802 282.098 277.502 282.098V280.898H278.002V282.098C278.402 282.098 278.802 282.198 279.102 282.298C279.502 282.398 279.802 282.598 280.102 282.798L279.802 283.398C279.502 283.198 279.202 283.098 278.902 282.998C278.602 282.898 278.302 282.798 278.002 282.798V285.498C278.502 285.598 278.902 285.798 279.302 285.898C279.602 285.998 279.902 286.198 280.102 286.498C280.302 286.798 280.402 287.098 280.402 287.498C280.502 287.898 280.302 288.298 279.902 288.698ZM276.402 284.698C276.702 284.898 277.002 284.998 277.502 285.198V282.598C277.002 282.598 276.602 282.798 276.302 282.998C276.002 283.198 275.902 283.498 275.902 283.898C276.002 284.298 276.202 284.598 276.402 284.698ZM279.302 288.298C279.602 288.098 279.702 287.798 279.702 287.398C279.702 286.998 279.602 286.698 279.302 286.598C279.002 286.398 278.602 286.298 278.102 286.098V288.698C278.602 288.598 279.002 288.498 279.302 288.298Z" fill="#E0E0E0"/>
<path d="M286.202 288.698C285.802 289.098 285.202 289.298 284.402 289.298V290.498H283.902V289.298C283.402 289.298 282.902 289.198 282.502 288.998C282.102 288.798 281.702 288.598 281.402 288.398L281.702 287.798C281.902 287.998 282.302 288.198 282.602 288.398C283.002 288.598 283.402 288.698 283.802 288.698V285.998C283.302 285.898 282.902 285.798 282.602 285.598C282.302 285.498 282.002 285.298 281.802 284.998C281.602 284.698 281.502 284.398 281.502 283.998C281.502 283.498 281.702 282.998 282.102 282.698C282.502 282.298 283.102 282.098 283.802 282.098V280.898H284.302V282.098C284.702 282.098 285.102 282.198 285.402 282.298C285.802 282.398 286.102 282.598 286.402 282.798L286.102 283.398C285.802 283.198 285.502 283.098 285.202 282.998C284.902 282.898 284.602 282.798 284.302 282.798V285.498C284.802 285.598 285.202 285.798 285.602 285.898C285.902 285.998 286.202 286.198 286.402 286.498C286.602 286.798 286.702 287.098 286.702 287.498C286.802 287.898 286.602 288.298 286.202 288.698ZM282.802 284.698C283.102 284.898 283.402 284.998 283.902 285.198V282.598C283.402 282.598 283.002 282.798 282.702 282.998C282.402 283.198 282.302 283.498 282.302 283.898C282.402 284.298 282.502 284.598 282.802 284.698ZM285.702 288.298C286.002 288.098 286.102 287.798 286.102 287.398C286.102 286.998 286.002 286.698 285.702 286.598C285.402 286.398 285.002 286.298 284.502 286.098V288.698C285.002 288.598 285.402 288.498 285.702 288.298Z" fill="#E0E0E0"/>
<path d="M171.102 269.398C171.102 271.398 169.502 272.898 167.602 272.898C165.602 272.898 164.102 271.298 164.102 269.398C164.102 267.398 165.702 265.898 167.602 265.898C169.502 265.898 171.102 267.498 171.102 269.398Z" fill="#FE7209"/>
<path d="M251.601 271.698H181.101C179.801 271.698 178.801 270.698 178.801 269.398C178.801 268.098 179.801 267.098 181.101 267.098H251.601C252.901 267.098 253.901 268.098 253.901 269.398C253.901 270.698 252.901 271.698 251.601 271.698Z" fill="#E0E0E0"/>
<path d="M266.299 270.399C267.099 270.399 267.999 270.399 268.799 270.399C269.099 270.399 269.399 270.099 269.399 269.799C269.399 269.499 269.099 269.199 268.799 269.199C267.999 269.199 267.099 269.199 266.299 269.199C265.999 269.199 265.699 269.499 265.699 269.799C265.699 270.199 265.899 270.399 266.299 270.399Z" fill="#E0E0E0"/>
<path d="M268.2 271.1C268.2 270.3 268.2 269.4 268.2 268.6C268.2 268.3 267.9 268 267.6 268C267.3 268 267 268.3 267 268.6C267 269.4 267 270.3 267 271.1C267 271.4 267.3 271.7 267.6 271.7C267.9 271.7 268.2 271.4 268.2 271.1Z" fill="#E0E0E0"/>
<path d="M278.398 271.698C277.998 272.098 277.398 272.298 276.598 272.298V273.498H276.098V272.298C275.598 272.298 275.098 272.198 274.698 271.998C274.298 271.798 273.898 271.598 273.598 271.398L273.898 270.798C274.098 270.998 274.498 271.198 274.798 271.398C275.198 271.598 275.598 271.698 275.998 271.698V268.998C275.498 268.898 275.098 268.798 274.798 268.598C274.498 268.498 274.198 268.298 273.998 267.998C273.798 267.698 273.698 267.398 273.698 266.998C273.698 266.498 273.898 265.998 274.298 265.698C274.698 265.298 275.298 265.098 275.998 265.098V263.898H276.498V265.098C276.898 265.098 277.298 265.198 277.598 265.298C277.998 265.398 278.298 265.598 278.598 265.798L278.298 266.398C277.998 266.198 277.698 266.098 277.398 265.998C277.098 265.898 276.798 265.798 276.498 265.798V268.498C276.998 268.598 277.398 268.798 277.798 268.898C278.098 268.998 278.398 269.198 278.598 269.498C278.798 269.798 278.898 270.098 278.898 270.498C278.998 270.898 278.798 271.398 278.398 271.698ZM274.998 267.798C275.298 267.998 275.598 268.098 276.098 268.298V265.698C275.598 265.698 275.198 265.898 274.898 266.098C274.598 266.298 274.498 266.598 274.498 266.998C274.598 267.298 274.698 267.598 274.998 267.798ZM277.898 271.298C278.198 271.098 278.298 270.798 278.298 270.398C278.298 269.998 278.198 269.698 277.898 269.598C277.598 269.398 277.198 269.298 276.698 269.098V271.698C277.198 271.698 277.598 271.498 277.898 271.298Z" fill="#E0E0E0"/>
<path d="M284.796 271.698C284.396 272.098 283.796 272.298 282.996 272.298V273.498H282.496V272.298C281.996 272.298 281.496 272.198 281.096 271.998C280.696 271.798 280.296 271.598 279.996 271.398L280.296 270.798C280.496 270.998 280.896 271.198 281.196 271.398C281.596 271.598 281.996 271.698 282.396 271.698V268.998C281.896 268.898 281.496 268.798 281.196 268.598C280.896 268.498 280.596 268.298 280.396 267.998C280.196 267.698 280.096 267.398 280.096 266.998C280.096 266.498 280.296 265.998 280.696 265.698C281.096 265.298 281.696 265.098 282.396 265.098V263.898H282.896V265.098C283.296 265.098 283.696 265.198 283.996 265.298C284.396 265.398 284.696 265.598 284.996 265.798L284.696 266.398C284.396 266.198 284.096 266.098 283.796 265.998C283.496 265.898 283.196 265.798 282.896 265.798V268.498C283.396 268.598 283.796 268.798 284.196 268.898C284.496 268.998 284.796 269.198 284.996 269.498C285.196 269.798 285.296 270.098 285.296 270.498C285.396 270.898 285.196 271.398 284.796 271.698ZM281.396 267.798C281.696 267.998 281.996 268.098 282.496 268.298V265.698C281.996 265.698 281.596 265.898 281.296 266.098C280.996 266.298 280.896 266.598 280.896 266.998C280.996 267.298 281.096 267.598 281.396 267.798ZM284.196 271.298C284.496 271.098 284.596 270.798 284.596 270.398C284.596 269.998 284.496 269.698 284.196 269.598C283.896 269.398 283.496 269.298 282.996 269.098V271.698C283.596 271.698 283.996 271.498 284.196 271.298Z" fill="#E0E0E0"/>
<path d="M291.198 271.698C290.798 272.098 290.198 272.298 289.398 272.298V273.498H288.898V272.298C288.398 272.298 287.898 272.198 287.498 271.998C287.098 271.798 286.698 271.598 286.398 271.398L286.698 270.798C286.898 270.998 287.298 271.198 287.598 271.398C287.998 271.598 288.398 271.698 288.798 271.698V268.998C288.298 268.898 287.898 268.798 287.598 268.598C287.298 268.498 286.998 268.298 286.798 267.998C286.598 267.698 286.498 267.398 286.498 266.998C286.498 266.498 286.698 265.998 287.098 265.698C287.498 265.298 288.098 265.098 288.798 265.098V263.898H289.298V265.098C289.698 265.098 290.098 265.198 290.398 265.298C290.798 265.398 291.098 265.598 291.398 265.798L291.098 266.398C290.798 266.198 290.498 266.098 290.198 265.998C289.898 265.898 289.598 265.798 289.298 265.798V268.498C289.798 268.598 290.198 268.798 290.598 268.898C290.898 268.998 291.198 269.198 291.398 269.498C291.598 269.798 291.698 270.098 291.698 270.498C291.798 270.898 291.598 271.398 291.198 271.698ZM287.698 267.798C287.998 267.998 288.298 268.098 288.798 268.298V265.698C288.298 265.698 287.898 265.898 287.598 266.098C287.298 266.298 287.198 266.598 287.198 266.998C287.298 267.298 287.398 267.598 287.698 267.798ZM290.598 271.298C290.898 271.098 290.998 270.798 290.998 270.398C290.998 269.998 290.898 269.698 290.598 269.598C290.298 269.398 289.898 269.298 289.398 269.098V271.698C289.898 271.698 290.298 271.498 290.598 271.298Z" fill="#E0E0E0"/>
<path d="M167.5 306.801C169.433 306.801 171 305.234 171 303.301C171 301.368 169.433 299.801 167.5 299.801C165.567 299.801 164 301.368 164 303.301C164 305.234 165.567 306.801 167.5 306.801Z" fill="#FE7209"/>
<path d="M251.601 305.6H181.101C179.801 305.6 178.801 304.6 178.801 303.3C178.801 302 179.801 301 181.101 301H251.601C252.901 301 253.901 302 253.901 303.3C253.901 304.6 252.901 305.6 251.601 305.6Z" fill="#E0E0E0"/>
<path d="M266.299 304.399C267.099 304.399 267.999 304.399 268.799 304.399C269.099 304.399 269.399 304.099 269.399 303.799C269.399 303.499 269.099 303.199 268.799 303.199C267.999 303.199 267.099 303.199 266.299 303.199C265.999 303.199 265.699 303.499 265.699 303.799C265.699 304.099 265.899 304.399 266.299 304.399Z" fill="#E0E0E0"/>
<path d="M268.2 304.998C268.2 304.198 268.2 303.298 268.2 302.498C268.2 302.198 267.9 301.898 267.6 301.898C267.3 301.898 267 302.198 267 302.498C267 303.298 267 304.198 267 304.998C267 305.298 267.3 305.598 267.6 305.598C267.9 305.598 268.2 305.298 268.2 304.998Z" fill="#E0E0E0"/>
<path d="M278.398 305.698C277.998 306.098 277.398 306.298 276.598 306.298V307.498H276.098V306.298C275.598 306.298 275.098 306.198 274.698 305.998C274.298 305.798 273.898 305.598 273.598 305.398L273.898 304.798C274.098 304.998 274.498 305.198 274.798 305.398C275.198 305.598 275.598 305.698 275.998 305.698V302.998C275.498 302.898 275.098 302.798 274.798 302.598C274.498 302.498 274.198 302.298 273.998 301.998C273.798 301.698 273.698 301.398 273.698 300.998C273.698 300.498 273.898 299.998 274.298 299.698C274.698 299.298 275.298 299.098 275.998 299.098V297.898H276.498V299.098C276.898 299.098 277.298 299.198 277.598 299.298C277.998 299.398 278.298 299.598 278.598 299.798L278.298 300.398C277.998 300.198 277.698 300.098 277.398 299.998C277.098 299.898 276.798 299.798 276.498 299.798V302.498C276.998 302.598 277.398 302.798 277.798 302.898C278.098 302.998 278.398 303.198 278.598 303.498C278.798 303.798 278.898 304.098 278.898 304.498C278.998 304.798 278.798 305.298 278.398 305.698ZM274.998 301.698C275.298 301.898 275.598 301.998 276.098 302.198V299.598C275.598 299.598 275.198 299.798 274.898 299.998C274.598 300.198 274.498 300.498 274.498 300.898C274.598 301.198 274.698 301.498 274.998 301.698ZM277.898 305.198C278.198 304.998 278.298 304.698 278.298 304.298C278.298 303.898 278.198 303.598 277.898 303.498C277.598 303.298 277.198 303.198 276.698 302.998V305.598C277.198 305.598 277.598 305.398 277.898 305.198Z" fill="#E0E0E0"/>
<path d="M284.796 305.698C284.396 306.098 283.796 306.298 282.996 306.298V307.498H282.496V306.298C281.996 306.298 281.496 306.198 281.096 305.998C280.696 305.798 280.296 305.598 279.996 305.398L280.296 304.798C280.496 304.998 280.896 305.198 281.196 305.398C281.596 305.598 281.996 305.698 282.396 305.698V302.998C281.896 302.898 281.496 302.798 281.196 302.598C280.896 302.498 280.596 302.298 280.396 301.998C280.196 301.698 280.096 301.398 280.096 300.998C280.096 300.498 280.296 299.998 280.696 299.698C281.096 299.298 281.696 299.098 282.396 299.098V297.898H282.896V299.098C283.296 299.098 283.696 299.198 283.996 299.298C284.396 299.398 284.696 299.598 284.996 299.798L284.696 300.398C284.396 300.198 284.096 300.098 283.796 299.998C283.496 299.898 283.196 299.798 282.896 299.798V302.498C283.396 302.598 283.796 302.798 284.196 302.898C284.496 302.998 284.796 303.198 284.996 303.498C285.196 303.798 285.296 304.098 285.296 304.498C285.396 304.798 285.196 305.298 284.796 305.698ZM281.396 301.698C281.696 301.898 281.996 301.998 282.496 302.198V299.598C281.996 299.598 281.596 299.798 281.296 299.998C280.996 300.198 280.896 300.498 280.896 300.898C280.996 301.198 281.096 301.498 281.396 301.698ZM284.196 305.198C284.496 304.998 284.596 304.698 284.596 304.298C284.596 303.898 284.496 303.598 284.196 303.498C283.896 303.298 283.496 303.198 282.996 302.998V305.598C283.596 305.598 283.996 305.398 284.196 305.198Z" fill="#E0E0E0"/>
<path d="M291.198 305.698C290.798 306.098 290.198 306.298 289.398 306.298V307.498H288.898V306.298C288.398 306.298 287.898 306.198 287.498 305.998C287.098 305.798 286.698 305.598 286.398 305.398L286.698 304.798C286.898 304.998 287.298 305.198 287.598 305.398C287.998 305.598 288.398 305.698 288.798 305.698V302.998C288.298 302.898 287.898 302.798 287.598 302.598C287.298 302.498 286.998 302.298 286.798 301.998C286.598 301.698 286.498 301.398 286.498 300.998C286.498 300.498 286.698 299.998 287.098 299.698C287.498 299.298 288.098 299.098 288.798 299.098V297.898H289.298V299.098C289.698 299.098 290.098 299.198 290.398 299.298C290.798 299.398 291.098 299.598 291.398 299.798L291.098 300.398C290.798 300.198 290.498 300.098 290.198 299.998C289.898 299.898 289.598 299.798 289.298 299.798V302.498C289.798 302.598 290.198 302.798 290.598 302.898C290.898 302.998 291.198 303.198 291.398 303.498C291.598 303.798 291.698 304.098 291.698 304.498C291.798 304.798 291.598 305.298 291.198 305.698ZM287.698 301.698C287.998 301.898 288.298 301.998 288.798 302.198V299.598C288.298 299.598 287.898 299.798 287.598 299.998C287.298 300.198 287.198 300.498 287.198 300.898C287.298 301.198 287.398 301.498 287.698 301.698ZM290.598 305.198C290.898 304.998 290.998 304.698 290.998 304.298C290.998 303.898 290.898 303.598 290.598 303.498C290.298 303.298 289.898 303.198 289.398 302.998V305.598C289.898 305.598 290.298 305.398 290.598 305.198Z" fill="#E0E0E0"/>
<path d="M167.5 321.398C169.433 321.398 171 319.831 171 317.898C171 315.965 169.433 314.398 167.5 314.398C165.567 314.398 164 315.965 164 317.898C164 319.831 165.567 321.398 167.5 321.398Z" fill="#FE7209"/>
<path d="M251.601 320.198H181.101C179.801 320.198 178.801 319.198 178.801 317.898C178.801 316.598 179.801 315.598 181.101 315.598H251.601C252.901 315.598 253.901 316.598 253.901 317.898C253.901 319.198 252.901 320.198 251.601 320.198Z" fill="#E0E0E0"/>
<path d="M266.299 319.001C267.099 319.001 267.999 319.001 268.799 319.001C269.099 319.001 269.399 318.701 269.399 318.401C269.399 318.101 269.099 317.801 268.799 317.801C267.999 317.801 267.099 317.801 266.299 317.801C265.999 317.801 265.699 318.101 265.699 318.401C265.699 318.701 265.899 319.001 266.299 319.001Z" fill="#E0E0E0"/>
<path d="M268.2 319.6C268.2 318.8 268.2 317.9 268.2 317.1C268.2 316.8 267.9 316.5 267.6 316.5C267.3 316.5 267 316.8 267 317.1C267 317.9 267 318.8 267 319.6C267 319.9 267.3 320.2 267.6 320.2C267.9 320.2 268.2 319.9 268.2 319.6Z" fill="#E0E0E0"/>
<path d="M278.398 320.3C277.998 320.7 277.398 320.9 276.598 320.9V322.1H276.098V320.9C275.598 320.9 275.098 320.8 274.698 320.6C274.298 320.4 273.898 320.2 273.598 320L273.898 319.4C274.098 319.6 274.498 319.8 274.798 320C275.198 320.2 275.598 320.3 275.998 320.3V317.6C275.498 317.5 275.098 317.4 274.798 317.2C274.498 317.1 274.198 316.9 273.998 316.6C273.798 316.3 273.698 316 273.698 315.6C273.698 315.1 273.898 314.6 274.298 314.3C274.698 313.9 275.298 313.7 275.998 313.7V312.5H276.498V313.7C276.898 313.7 277.298 313.8 277.598 313.9C277.998 314 278.298 314.2 278.598 314.4L278.298 315C277.998 314.8 277.698 314.7 277.398 314.6C277.098 314.5 276.798 314.4 276.498 314.4V317.1C276.998 317.2 277.398 317.4 277.798 317.5C278.098 317.6 278.398 317.8 278.598 318.1C278.798 318.4 278.898 318.7 278.898 319.1C278.998 319.4 278.798 319.9 278.398 320.3ZM274.998 316.3C275.298 316.5 275.598 316.6 276.098 316.8V314.2C275.598 314.2 275.198 314.4 274.898 314.6C274.598 314.8 274.498 315.1 274.498 315.5C274.598 315.8 274.698 316.1 274.998 316.3ZM277.898 319.8C278.198 319.6 278.298 319.3 278.298 318.9C278.298 318.5 278.198 318.2 277.898 318.1C277.598 317.9 277.198 317.8 276.698 317.6V320.2C277.198 320.2 277.598 320.1 277.898 319.8Z" fill="#E0E0E0"/>
<path d="M167.5 354.898C169.433 354.898 171 353.331 171 351.398C171 349.465 169.433 347.898 167.5 347.898C165.567 347.898 164 349.465 164 351.398C164 353.331 165.567 354.898 167.5 354.898Z" fill="#FE7209"/>
<path d="M251.601 353.698H181.101C179.801 353.698 178.801 352.698 178.801 351.398C178.801 350.098 179.801 349.098 181.101 349.098H251.601C252.901 349.098 253.901 350.098 253.901 351.398C253.901 352.698 252.901 353.698 251.601 353.698Z" fill="#E0E0E0"/>
<path d="M266.299 352.399C267.099 352.399 267.999 352.399 268.799 352.399C269.099 352.399 269.399 352.099 269.399 351.799C269.399 351.499 269.099 351.199 268.799 351.199C267.999 351.199 267.099 351.199 266.299 351.199C265.999 351.199 265.699 351.499 265.699 351.799C265.699 352.199 265.899 352.399 266.299 352.399Z" fill="#E0E0E0"/>
<path d="M268.2 353.1C268.2 352.3 268.2 351.4 268.2 350.6C268.2 350.3 267.9 350 267.6 350C267.3 350 267 350.3 267 350.6C267 351.4 267 352.3 267 353.1C267 353.4 267.3 353.7 267.6 353.7C267.9 353.7 268.2 353.4 268.2 353.1Z" fill="#E0E0E0"/>
<path d="M278.398 353.698C277.998 354.098 277.398 354.298 276.598 354.298V355.498H276.098V354.298C275.598 354.298 275.098 354.198 274.698 353.998C274.298 353.798 273.898 353.598 273.598 353.398L273.898 352.798C274.098 352.998 274.498 353.198 274.798 353.398C275.198 353.598 275.598 353.698 275.998 353.698V350.998C275.498 350.898 275.098 350.798 274.798 350.598C274.498 350.498 274.198 350.298 273.998 349.998C273.798 349.698 273.698 349.398 273.698 348.998C273.698 348.498 273.898 347.998 274.298 347.698C274.698 347.298 275.298 347.098 275.998 347.098V345.898H276.498V347.098C276.898 347.098 277.298 347.198 277.598 347.298C277.998 347.398 278.298 347.598 278.598 347.798L278.298 348.398C277.998 348.198 277.698 348.098 277.398 347.998C277.098 347.898 276.798 347.798 276.498 347.798V350.498C276.998 350.598 277.398 350.798 277.798 350.898C278.098 350.998 278.398 351.198 278.598 351.498C278.798 351.798 278.898 352.098 278.898 352.498C278.998 352.898 278.798 353.398 278.398 353.698ZM274.998 349.798C275.298 349.998 275.598 350.098 276.098 350.298V347.698C275.598 347.698 275.198 347.898 274.898 348.098C274.598 348.298 274.498 348.598 274.498 348.998C274.598 349.298 274.698 349.598 274.998 349.798ZM277.898 353.298C278.198 353.098 278.298 352.798 278.298 352.398C278.298 351.998 278.198 351.698 277.898 351.598C277.598 351.398 277.198 351.298 276.698 351.098V353.698C277.198 353.698 277.598 353.498 277.898 353.298Z" fill="#E0E0E0"/>
<path d="M267.702 253.399C268.502 253.399 269.402 253.399 270.202 253.399C270.502 253.399 270.802 253.099 270.802 252.799C270.802 252.499 270.502 252.199 270.202 252.199C269.402 252.199 268.502 252.199 267.702 252.199C267.402 252.199 267.102 252.499 267.102 252.799C267.102 253.099 267.402 253.399 267.702 253.399Z" fill="#E0E0E0"/>
<path d="M279.902 254.698C279.502 255.098 278.902 255.298 278.102 255.298V256.498H277.602V255.298C277.102 255.298 276.602 255.198 276.202 254.998C275.802 254.798 275.402 254.598 275.102 254.398L275.402 253.798C275.602 253.998 276.002 254.198 276.302 254.398C276.702 254.598 277.102 254.698 277.502 254.698V251.998C277.002 251.898 276.602 251.798 276.302 251.598C276.002 251.498 275.702 251.298 275.502 250.998C275.302 250.698 275.202 250.398 275.202 249.998C275.202 249.498 275.402 248.998 275.802 248.698C276.202 248.298 276.802 248.098 277.502 248.098V246.898H278.002V248.098C278.402 248.098 278.802 248.198 279.102 248.298C279.502 248.398 279.802 248.598 280.102 248.798L279.802 249.398C279.502 249.198 279.202 249.098 278.902 248.998C278.602 248.898 278.302 248.798 278.002 248.798V251.498C278.502 251.598 278.902 251.798 279.302 251.898C279.602 251.998 279.902 252.198 280.102 252.498C280.302 252.798 280.402 253.098 280.402 253.498C280.502 253.898 280.302 254.298 279.902 254.698ZM276.402 250.698C276.702 250.898 277.002 250.998 277.502 251.198V248.598C277.002 248.598 276.602 248.798 276.302 248.998C276.002 249.198 275.902 249.498 275.902 249.898C276.002 250.298 276.202 250.598 276.402 250.698ZM279.302 254.298C279.602 254.098 279.702 253.798 279.702 253.398C279.702 252.998 279.602 252.698 279.302 252.598C279.002 252.398 278.602 252.298 278.102 252.098V254.698C278.602 254.598 279.002 254.498 279.302 254.298Z" fill="#E0E0E0"/>
<path d="M235.424 375.06C236.373 371.028 233.873 366.991 229.841 366.042C225.809 365.094 221.772 367.593 220.823 371.625C219.874 375.657 222.374 379.695 226.406 380.643C230.438 381.592 234.475 379.092 235.424 375.06Z" fill="#F5F5F5"/>
<path d="M234.798 100.399H162.698C161.298 100.399 160.098 99.1992 160.098 97.7992C160.098 96.3992 161.298 95.1992 162.698 95.1992H234.798C236.198 95.1992 237.398 96.3992 237.398 97.7992C237.398 99.1992 236.298 100.399 234.798 100.399Z" fill="#E0E0E0"/>
<path d="M267.899 73.3992H195.799C194.399 73.3992 193.199 72.1992 193.199 70.7992C193.199 69.3992 194.399 68.1992 195.799 68.1992H267.899C269.299 68.1992 270.499 69.3992 270.499 70.7992C270.499 72.2992 269.399 73.3992 267.899 73.3992Z" fill="#E0E0E0"/>
<path d="M220.798 213.698H165.298C163.998 213.698 162.898 212.598 162.898 211.298C162.898 209.998 163.998 208.898 165.298 208.898H220.798C222.098 208.898 223.198 209.998 223.198 211.298C223.198 212.598 222.098 213.698 220.798 213.698Z" fill="#FE7209"/>
<path d="M171.099 83.4016C177.948 83.4016 183.499 77.8499 183.499 71.0016C183.499 64.1532 177.948 58.6016 171.099 58.6016C164.251 58.6016 158.699 64.1532 158.699 71.0016C158.699 77.8499 164.251 83.4016 171.099 83.4016Z" fill="#E0E0E0"/>
<path d="M171.101 70.8031C172.647 70.8031 173.901 69.5495 173.901 68.0031C173.901 66.4567 172.647 65.2031 171.101 65.2031C169.554 65.2031 168.301 66.4567 168.301 68.0031C168.301 69.5495 169.554 70.8031 171.101 70.8031Z" fill="white"/>
<path d="M164.699 76.8039H177.399C177.399 76.8039 176.399 72.0039 170.999 72.0039C166.099 72.0039 164.699 76.8039 164.699 76.8039Z" fill="white"/>
<g opacity="0.2">
<path d="M281.698 89.8984H321.298V53.1984C321.298 37.2984 308.398 24.3984 292.498 24.3984H268.298V76.4984C268.198 83.8984 274.198 89.8984 281.698 89.8984Z" fill="black"/>
</g>
<path d="M343.598 81.1H282.398C276.898 81.1 272.398 76.6 272.398 71.1V10C272.398 4.5 276.898 0 282.398 0H343.598C349.098 0 353.598 4.5 353.598 10V71.2C353.598 76.7 349.098 81.1 343.598 81.1Z" fill="#FE7209"/>
<path d="M312.999 14.3008L290.199 29.2008V32.1008L335.799 32.2008V29.2008L312.999 14.3008Z" fill="white"/>
<path d="M299.198 33.6016H290.598V35.0016H299.198V33.6016Z" fill="white"/>
<path d="M299.198 57.6016H290.598V59.0016H299.198V57.6016Z" fill="white"/>
<path d="M298.097 34.3008H291.797V58.3008H298.097V34.3008Z" fill="white"/>
<path d="M317.198 33.6016H308.598V35.0016H317.198V33.6016Z" fill="white"/>
<path d="M317.198 57.6016H308.598V59.0016H317.198V57.6016Z" fill="white"/>
<path d="M316.097 34.3008H309.797V58.3008H316.097V34.3008Z" fill="white"/>
<path d="M335.799 33.6016H327.199V35.0016H335.799V33.6016Z" fill="white"/>
<path d="M335.799 57.6016H327.199V59.0016H335.799V57.6016Z" fill="white"/>
<path d="M334.698 34.3008H328.398V58.3008H334.698V34.3008Z" fill="white"/>
<path d="M338.301 60.4023H287.801V63.0023H338.301V60.4023Z" fill="white"/>
<path d="M341.799 64.1992H284.199V66.7992H341.799V64.1992Z" fill="white"/>
<path d="M312.901 26.2C314.889 26.2 316.501 24.5882 316.501 22.6C316.501 20.6118 314.889 19 312.901 19C310.913 19 309.301 20.6118 309.301 22.6C309.301 24.5882 310.913 26.2 312.901 26.2Z" fill="#E0E0E0"/>
<path d="M299.398 34.9992C299.398 35.0992 297.398 35.2992 294.998 35.2992C292.598 35.2992 290.598 35.1992 290.598 34.9992C290.598 34.8992 292.598 34.6992 294.998 34.6992C297.398 34.7992 299.398 34.8992 299.398 34.9992Z" fill="#263238"/>
<path d="M317.398 34.9992C317.398 35.0992 315.398 35.2992 312.998 35.2992C310.598 35.2992 308.598 35.1992 308.598 34.9992C308.598 34.8992 310.598 34.6992 312.998 34.6992C315.398 34.7992 317.398 34.8992 317.398 34.9992Z" fill="#263238"/>
<path d="M335.898 34.9992C335.898 35.0992 333.898 35.2992 331.498 35.2992C329.098 35.2992 327.098 35.1992 327.098 34.9992C327.098 34.8992 329.098 34.6992 331.498 34.6992C333.898 34.7992 335.898 34.8992 335.898 34.9992Z" fill="#263238"/>
<path d="M299.398 57.6008C299.398 57.7008 297.398 57.9008 294.998 57.9008C292.598 57.9008 290.598 57.8008 290.598 57.6008C290.598 57.4008 292.598 57.3008 294.998 57.3008C297.398 57.3008 299.398 57.5008 299.398 57.6008Z" fill="#263238"/>
<path d="M317.398 57.6008C317.398 57.7008 315.398 57.9008 312.998 57.9008C310.598 57.9008 308.598 57.8008 308.598 57.6008C308.598 57.4008 310.598 57.3008 312.998 57.3008C315.398 57.3008 317.398 57.5008 317.398 57.6008Z" fill="#263238"/>
<path d="M335.898 57.6008C335.898 57.7008 333.898 57.9008 331.498 57.9008C329.098 57.9008 327.098 57.8008 327.098 57.6008C327.098 57.4008 329.098 57.3008 331.498 57.3008C333.898 57.3008 335.898 57.5008 335.898 57.6008Z" fill="#263238"/>
<path d="M335.901 29.2023C335.901 29.3023 325.701 29.5023 313.101 29.5023C300.501 29.5023 290.301 29.4023 290.301 29.2023C290.301 29.1023 300.501 28.9023 313.101 28.9023C325.701 28.9023 335.901 29.0023 335.901 29.2023Z" fill="#263238"/>
<path d="M58.2986 132.801L50.9986 131.901C38.0986 140.501 20.7987 137.001 12.1987 124.201C3.49865 111.301 6.99865 93.901 19.8987 85.401C32.7986 76.901 50.0986 80.301 58.6987 93.101C65.1987 102.801 64.9986 115.501 58.1987 125.001L58.2986 132.801Z" fill="white"/>
<path d="M58.2992 132.802C58.2992 132.802 58.2992 132.602 58.2992 132.302C58.2992 131.902 58.2992 131.402 58.2992 130.802C58.2992 129.502 58.1992 127.502 58.1992 125.002L58.3992 125.102H58.2992V125.002C60.8992 121.302 62.5992 117.002 63.1992 112.502C63.5992 109.602 63.4992 106.602 62.9992 103.702C62.3992 100.402 61.0992 97.2019 59.3992 94.4019C58.1992 92.0019 56.0992 89.7019 51.8992 86.3019C48.5992 83.9019 44.8992 82.3019 40.8992 81.6019C36.6992 80.8019 32.3992 81.0019 28.1992 82.1019C23.8992 83.3019 19.8992 85.6019 16.6992 88.7019C14.9992 90.3019 13.4992 92.0019 12.2992 94.0019C11.6992 95.0019 11.1992 96.0019 10.6992 97.0019L9.99923 98.5019L9.69923 99.3019L9.39923 100.102C8.09923 104.202 7.69923 108.602 8.29923 112.902C8.89923 116.902 10.3992 120.802 12.5992 124.202C16.5992 130.202 22.6992 134.502 29.6992 136.102L31.9992 136.502C32.7992 136.602 33.4992 136.602 34.1992 136.702C35.5992 136.802 37.0992 136.802 38.4992 136.602C42.9992 136.202 47.2992 134.702 51.0992 132.202H50.9992L56.3992 132.902L57.7992 133.102L58.2992 133.202H57.7992L56.3992 133.102L50.9992 132.502H51.0992C47.2992 135.102 42.9992 136.602 38.3992 137.102C36.9992 137.302 35.4992 137.302 34.0992 137.202C33.3992 137.102 32.5992 137.102 31.7992 137.002L29.4992 136.602C26.0992 135.902 22.9992 134.502 20.0992 132.602C16.8992 130.402 14.1992 127.702 12.0992 124.502C9.79923 121.102 8.29923 117.202 7.69923 113.102C7.09923 108.702 7.39923 104.302 8.79923 100.102L8.89923 99.0019L9.19923 98.2019C9.39923 97.7019 9.69923 97.1019 9.89923 96.6019C10.3992 95.6019 10.9992 94.6019 11.5992 93.6019C12.7992 91.6019 14.2992 89.8019 15.9992 88.2019C19.2992 85.0019 23.2992 82.7019 27.6992 81.5019C31.8992 80.3019 36.3992 80.1019 40.6992 80.9019C44.6992 81.7019 48.4992 83.3019 51.7992 85.7019C54.8992 87.9019 57.3992 90.7019 59.3992 93.9019C61.1992 96.8019 62.3992 100.002 62.9992 103.402C63.4992 106.402 63.5992 109.402 63.1992 112.302C62.5992 116.802 60.7992 121.102 58.0992 124.802L57.8992 124.702H57.9992C57.9992 124.702 57.9992 124.702 57.9992 124.802V130.702C57.9992 131.302 57.9992 131.802 57.9992 132.202C58.2992 132.702 58.2992 132.802 58.2992 132.802Z" fill="#263238"/>
<path d="M23.0977 110.402L26.5977 106.602L33.7977 112.602L47.0977 98.9023L50.5977 102.402L33.5977 119.602L23.0977 110.402Z" fill="#FF725E"/>
<path d="M136.4 362.504H48.5V368.604H136.4V362.504Z" fill="#AE7461"/>
<path d="M139.698 323.504L145.998 401.904H139.698L130.598 323.504H139.698Z" fill="#AE7461"/>
<path d="M152.899 220.003C145.599 210.603 134.499 206.103 123.599 203.203C113.399 200.503 102.999 199.103 92.5985 198.803V198.703C92.1985 198.703 91.6986 198.703 91.2986 198.703C90.8986 198.703 90.3986 198.703 89.9986 198.703V198.803C79.5985 199.103 69.1985 200.603 58.9985 203.203C48.0985 206.003 36.9985 210.603 29.6985 220.003C20.0985 232.303 13.6985 254.403 17.8985 270.003C22.0985 285.603 27.7985 303.303 36.4985 316.503L91.2986 308.203L148.799 316.503C151.299 313.103 157.499 282.803 161.699 267.203C165.999 251.603 162.599 232.303 152.899 220.003Z" fill="#455A64"/>
<path d="M141.798 323.505H42.9984C37.9984 323.505 33.8984 319.405 33.8984 314.405C33.8984 309.405 37.9984 305.305 42.9984 305.305H141.698C146.698 305.305 150.798 309.405 150.798 314.405C150.898 319.405 146.798 323.505 141.798 323.505Z" fill="#455A64"/>
<path d="M143.198 305.402C143.198 305.502 120.598 305.702 92.7984 305.702C64.9984 305.702 42.3984 305.602 42.3984 305.402C42.3984 305.302 64.9984 305.102 92.7984 305.102C120.598 305.102 143.198 305.202 143.198 305.402Z" fill="#263238"/>
<path d="M46.9992 323.504L40.6992 401.904H46.9992L56.0992 323.504H46.9992Z" fill="#AE7461"/>
<path d="M48.4972 222.602C48.4972 222.602 47.9972 223.102 46.9972 223.802C45.9972 224.602 44.5972 225.802 43.0972 227.402C39.9972 230.602 36.3972 235.902 34.4972 242.602C32.6972 249.202 33.0972 255.602 33.9972 260.002C34.4972 262.202 34.9972 263.902 35.4972 265.102C35.8972 266.302 36.1972 266.902 36.1972 267.002C36.1972 267.002 36.0972 266.902 35.9972 266.602C35.8972 266.302 35.5972 265.902 35.3972 265.302C34.8972 264.102 34.2972 262.402 33.7972 260.202C32.6972 255.802 32.2972 249.302 34.0972 242.602C35.9972 235.902 39.6972 230.502 42.8972 227.302C44.4972 225.702 45.8972 224.502 46.9972 223.802C47.4972 223.402 47.8972 223.202 48.1972 223.002C48.3972 222.702 48.4972 222.602 48.4972 222.602Z" fill="#263238"/>
<path d="M50.5984 306.703C50.5984 306.703 50.4984 306.503 50.3984 306.103C50.2984 305.703 50.0984 305.103 49.8984 304.403C49.4984 302.903 48.8984 300.803 48.1984 298.203C46.7984 293.003 44.7984 285.803 42.2984 278.003C41.6984 276.003 40.9984 274.203 40.0984 272.503C39.1984 270.803 38.1984 269.303 36.7984 268.103C35.4984 267.003 33.8984 266.303 32.3984 266.103C30.8984 265.903 29.3984 266.103 28.0984 266.503C25.4984 267.303 23.6984 268.403 22.3984 269.103C21.7984 269.503 21.2984 269.803 20.8984 270.003C20.5984 270.203 20.3984 270.303 20.3984 270.303C20.3984 270.303 20.5984 270.203 20.8984 269.903C21.1984 269.703 21.6984 269.303 22.2984 268.903C23.5984 268.103 25.3984 266.903 27.9984 266.103C29.2984 265.703 30.7984 265.403 32.3984 265.603C33.9984 265.803 35.6984 266.403 37.0984 267.603C38.4984 268.803 39.5984 270.403 40.4984 272.103C41.3984 273.803 42.0984 275.703 42.6984 277.703C45.1984 285.503 47.1984 292.703 48.4984 298.003C49.0984 300.603 49.6984 302.703 49.9984 304.203C50.1984 304.903 50.2984 305.503 50.3984 305.903C50.5984 306.503 50.5984 306.703 50.5984 306.703Z" fill="#263238"/>
<path d="M130.398 222.305C130.398 222.305 130.598 222.405 130.898 222.505C131.198 222.705 131.598 222.905 132.198 223.305C133.298 224.005 134.798 225.105 136.498 226.605C139.898 229.605 143.898 234.705 146.198 241.305C148.498 247.905 148.398 254.405 147.598 258.905C147.198 261.105 146.698 262.905 146.298 264.105C146.098 264.705 145.898 265.205 145.798 265.505C145.698 265.805 145.598 266.005 145.598 266.005C145.598 266.005 145.798 265.305 146.098 264.105C146.498 262.905 146.898 261.105 147.298 258.905C147.998 254.505 147.998 248.105 145.798 241.605C143.598 235.105 139.598 230.005 136.298 227.005C134.698 225.505 133.198 224.305 132.198 223.605C130.998 222.705 130.398 222.305 130.398 222.305Z" fill="#263238"/>
<path d="M133.5 306.302C133.5 306.302 133.5 306.102 133.6 305.702C133.7 305.302 133.8 304.702 133.9 304.002C134.2 302.502 134.6 300.302 135.1 297.702C136.1 292.402 137.6 285.102 139.6 277.102C140.1 275.102 140.7 273.202 141.5 271.402C142.3 269.602 143.3 268.002 144.6 266.702C145.9 265.402 147.6 264.702 149.2 264.402C150.8 264.102 152.3 264.302 153.7 264.602C156.4 265.302 158.3 266.402 159.6 267.102C160.3 267.502 160.8 267.802 161.1 268.002C161.4 268.202 161.6 268.302 161.6 268.302C161.6 268.302 161.4 268.202 161 268.002C160.6 267.802 160.1 267.502 159.5 267.202C158.2 266.502 156.2 265.502 153.6 264.902C152.3 264.602 150.8 264.502 149.3 264.802C147.8 265.102 146.2 265.802 145 267.002C143.7 268.202 142.8 269.802 142 271.502C141.2 273.302 140.7 275.202 140.2 277.202C138.1 285.202 136.6 292.402 135.5 297.702C135 300.302 134.5 302.402 134.2 303.902C134 304.602 133.9 305.202 133.8 305.602C133.6 306.102 133.6 306.302 133.5 306.302Z" fill="#263238"/>
<path d="M125.897 190.602C125.897 190.602 102.197 181.702 101.497 181.702C100.897 181.702 80.3969 181.902 79.6969 181.702C79.0969 181.502 55.2969 192.902 55.2969 192.902L56.3969 228.102L62.9969 250.302L61.9969 263.002L79.0969 264.302L121.997 259.902C121.997 259.902 119.697 249.802 119.597 249.302C119.497 248.802 125.897 190.602 125.897 190.602Z" fill="#FE7209"/>
<path d="M105.398 190.502C105.398 190.502 105.098 190.702 104.498 191.002C104.198 191.202 103.798 191.302 103.298 191.502C102.798 191.702 102.298 191.902 101.698 192.102C100.498 192.502 99.0977 192.902 97.4977 193.202C95.8977 193.502 94.0977 193.602 92.1977 193.602C90.2977 193.602 88.4977 193.302 86.8977 193.002C85.2977 192.702 83.8977 192.302 82.6977 191.802C82.0977 191.602 81.5977 191.402 81.0977 191.202C80.5977 191.002 80.2977 190.802 79.9977 190.602C79.3977 190.302 79.0977 190.102 79.0977 190.002C79.0977 189.902 80.4977 190.602 82.7977 191.402C83.9977 191.802 85.3977 192.202 86.9977 192.502C88.5977 192.802 90.3977 193.002 92.1977 193.002C94.0977 193.002 95.8977 192.902 97.4977 192.602C99.0977 192.302 100.498 192.002 101.698 191.602C103.998 191.102 105.398 190.502 105.398 190.502Z" fill="#263238"/>
<path d="M142.698 336.703L153.098 360.803L166.798 377.503C167.798 378.703 167.498 380.503 166.298 381.403C165.598 381.903 164.698 382.003 163.898 381.803C158.698 380.003 139.398 373.203 138.698 371.403C137.898 369.303 126.098 346.703 126.098 346.703L142.698 336.703Z" fill="#263238"/>
<path d="M166.296 381.403L137.996 369.703L138.496 370.703C138.896 371.603 139.596 372.303 140.496 372.703C142.796 373.803 149.296 376.703 163.896 381.803C164.596 382.103 165.596 382.003 166.296 381.403Z" fill="#E0E0E0"/>
<g opacity="0.6">
<path d="M139.996 362.505C140.796 362.605 141.396 363.505 141.296 364.205C141.196 365.305 139.696 366.005 138.796 365.105C137.996 364.305 138.296 362.805 139.396 362.505C139.696 362.405 139.896 362.405 140.196 362.505" fill="white"/>
</g>
<path d="M154.897 372.502C155.097 372.502 155.297 371.102 156.697 370.002C157.997 368.902 159.497 368.902 159.497 368.802C159.497 368.702 159.097 368.602 158.497 368.702C157.897 368.702 156.997 369.002 156.297 369.602C155.597 370.202 155.097 371.002 154.897 371.602C154.697 372.102 154.797 372.502 154.897 372.502Z" fill="white"/>
<path d="M158.296 375.305C158.496 375.405 158.896 374.205 159.896 373.305C160.996 372.405 162.096 372.105 162.096 371.905C162.096 371.705 160.696 371.805 159.496 372.805C158.396 373.905 158.196 375.305 158.296 375.305Z" fill="white"/>
<path d="M150.297 369.902C150.397 370.002 151.397 368.402 153.197 367.102C154.997 365.802 156.797 365.402 156.797 365.302C156.797 365.202 154.797 365.302 152.897 366.702C150.997 368.102 150.197 369.902 150.297 369.902Z" fill="white"/>
<path d="M147.898 365.503C147.998 365.603 149.098 364.503 150.798 363.603C152.498 362.703 153.998 362.503 153.998 362.403C153.998 362.303 152.298 362.203 150.498 363.103C148.698 364.103 147.798 365.503 147.898 365.503Z" fill="white"/>
<path d="M62.4969 255.503C62.4969 255.503 47.7969 276.903 48.4969 288.003C49.1969 299.103 53.2969 305.603 53.2969 305.603H73.9969C73.9969 305.603 89.2969 286.303 89.2969 286.603C89.2969 286.603 129.997 361.903 130.197 361.403C130.397 360.903 153.997 352.203 153.297 352.203C152.597 352.203 125.897 278.403 116.097 262.803C106.597 247.803 97.5969 253.703 90.3969 255.603L79.9969 261.803L62.4969 255.503Z" fill="#263238"/>
<path d="M121.196 259.103C121.896 259.103 138.496 278.103 137.596 288.703C136.596 299.303 129.396 308.203 129.396 308.203L105.896 314.303C105.896 314.303 96.4961 393.203 97.4961 393.303L70.4961 392.903C70.4961 392.903 74.6961 314.903 74.1961 306.003C73.6961 297.103 78.6961 286.903 89.1961 286.603L107.296 256.703L121.196 259.103Z" fill="#263238"/>
<path d="M112.595 259.801C112.595 259.801 112.695 259.901 112.995 260.101C113.295 260.301 113.695 260.601 114.195 261.001C115.195 261.901 116.695 263.201 118.295 265.101C119.095 266.101 119.995 267.201 120.695 268.601C120.895 268.901 120.995 269.301 121.195 269.701C121.295 270.101 121.495 270.501 121.595 270.901C121.895 271.701 122.095 272.501 122.395 273.301C123.595 276.701 125.095 280.501 126.795 284.701C133.395 301.701 142.795 325.201 153.595 352.001L153.695 352.201L153.495 352.301C148.195 354.401 142.495 356.501 136.795 358.701C134.595 359.601 132.295 360.401 130.195 361.301L129.995 361.401L129.895 361.201C113.395 331.001 98.8953 304.301 89.1953 286.601L89.2953 286.701C87.1953 286.601 85.0953 287.001 83.3953 287.901C81.6953 288.701 80.2953 290.001 79.2953 291.301C77.1953 293.901 76.1953 296.701 75.5953 298.901C74.9953 301.201 74.6953 302.901 74.4953 304.101C74.3953 304.701 74.3953 305.101 74.2953 305.501C74.2953 305.801 74.1953 306.001 74.1953 306.001C74.1953 306.001 74.1953 305.801 74.1953 305.501C74.1953 305.201 74.1953 304.701 74.2953 304.101C74.3953 302.901 74.6953 301.101 75.2953 298.801C75.8953 296.601 76.8953 293.701 78.9953 291.001C79.9953 289.701 81.3953 288.401 83.1953 287.501C84.8953 286.601 86.9953 286.201 89.1953 286.201H89.2953V286.301C98.9953 303.901 113.595 330.601 130.095 360.801L129.795 360.701C131.995 359.901 134.195 359.001 136.395 358.101C142.095 355.901 147.695 353.701 153.095 351.701L152.995 352.001C142.295 325.301 132.895 301.701 126.395 284.701C124.795 280.401 123.295 276.601 122.095 273.201C121.795 272.401 121.495 271.501 121.295 270.701C121.195 270.301 120.995 269.901 120.895 269.601C120.695 269.201 120.595 268.901 120.395 268.501C119.695 267.101 118.895 266.001 118.095 265.001C116.495 263.101 115.095 261.701 114.095 260.901C113.595 260.501 113.195 260.101 112.995 259.901C112.695 259.901 112.595 259.801 112.595 259.801Z" fill="#455A64"/>
<path d="M76.8972 373.004L75.3972 399.204L68.2972 419.604C67.7972 421.104 68.5972 422.704 70.0972 423.104C70.8972 423.304 71.7972 423.104 72.4972 422.604C76.7972 419.104 92.4972 406.104 92.4972 404.204C92.4972 402.004 95.8972 376.704 95.8972 376.704L76.8972 373.004Z" fill="#263238"/>
<path d="M70.0977 423.102L92.6977 402.402L92.5977 403.502C92.4977 404.502 92.0977 405.402 91.3977 406.002C89.5977 407.802 84.4977 412.702 72.4977 422.602C71.8977 423.202 70.8977 423.402 70.0977 423.102Z" fill="#E0E0E0"/>
<path d="M77.6977 410.805C77.5977 410.905 76.7977 409.605 75.1977 409.105C73.5977 408.505 72.1977 409.105 72.0977 408.905C72.0977 408.805 72.3977 408.605 72.9977 408.405C73.5977 408.205 74.4977 408.205 75.3977 408.505C76.2977 408.805 76.9977 409.405 77.3977 409.905C77.6977 410.405 77.7977 410.805 77.6977 410.805Z" fill="white"/>
<path d="M75.3968 414.602C75.2968 414.702 74.4968 413.802 73.1968 413.302C71.8968 412.802 70.6968 412.902 70.6968 412.802C70.5968 412.702 71.8968 412.202 73.3968 412.802C74.8968 413.402 75.5968 414.602 75.3968 414.602Z" fill="white"/>
<path d="M81.0983 406.905C80.9983 407.005 79.5983 405.904 77.3983 405.304C75.2983 404.704 73.4983 405.004 73.3983 404.804C73.2983 404.704 75.1983 404.105 77.4983 404.705C79.8983 405.305 81.1983 406.805 81.0983 406.905Z" fill="white"/>
<path d="M81.8982 401.905C81.7982 402.105 80.3982 401.305 78.4982 401.105C76.5982 400.905 75.0982 401.205 75.0982 401.105C74.9982 401.005 76.5982 400.305 78.5982 400.605C80.5982 400.805 81.8982 401.805 81.8982 401.905Z" fill="white"/>
<path d="M97.5977 393.101C97.5977 393.201 91.4977 393.401 84.0977 393.401C76.5977 393.401 70.5977 393.301 70.5977 393.101C70.5977 393.001 76.6977 392.801 84.0977 392.801C91.4977 392.801 97.5977 392.901 97.5977 393.101Z" fill="#455A64"/>
<path d="M72.3961 262.601C72.3961 262.701 71.3961 263.401 69.7961 264.601C68.1961 265.801 65.9961 267.501 63.6961 269.601C61.3961 271.701 59.4961 273.701 58.1961 275.201C56.8961 276.701 56.0961 277.701 55.9961 277.601C55.9961 277.601 56.0961 277.301 56.4961 276.801C56.7961 276.301 57.2961 275.701 57.8961 274.901C59.1961 273.301 60.9961 271.201 63.2961 269.101C65.5961 267.001 67.7961 265.301 69.4961 264.201C70.2961 263.601 70.9961 263.201 71.4961 262.901C72.0961 262.701 72.3961 262.501 72.3961 262.601Z" fill="#455A64"/>
<g opacity="0.3">
<path d="M100.498 232.9C96.2984 235 91.5984 236.1 86.9984 235.2C81.0984 234.1 77.0984 229.3 73.3984 224.5L76.1984 230.4C79.4984 235.7 82.6984 241.2 87.1984 246.2C88.5984 247.8 90.9984 249.1 92.9984 249.6C95.4984 250.3 98.1984 249.1 100.098 247.3C106.198 241.4 108.798 232.5 111.898 225.1C108.298 227.9 104.698 230.8 100.498 232.9Z" fill="black"/>
</g>
<path d="M55.398 192.903C54.598 192.803 35.298 203.903 53.998 235.003C70.598 262.603 78.098 266.503 84.998 267.203C91.898 267.903 94.298 261.803 92.998 258.503C91.698 255.303 71.298 222.203 71.898 221.603C71.898 221.603 59.498 193.303 55.398 192.903Z" fill="#FE7209"/>
<path d="M125.896 190.602C126.396 190.802 136.596 195.502 135.296 206.202C133.996 216.902 120.696 261.802 118.096 264.102C115.496 266.402 112.096 265.702 108.496 264.702C104.896 263.702 102.096 260.502 101.896 256.602C101.696 252.702 116.896 214.002 117.096 213.502C117.196 213.002 125.896 190.602 125.896 190.602Z" fill="#FE7209"/>
<path d="M106.399 254.802H92.1992C90.5992 254.802 89.1992 253.502 89.1992 251.802V219.902C89.1992 218.302 90.4992 216.902 92.1992 216.902H106.399C107.999 216.902 109.399 218.202 109.399 219.902V251.802C109.399 253.402 107.999 254.802 106.399 254.802Z" fill="#263238"/>
<g opacity="0.3">
<path d="M88.3969 251.903L79.5969 248.703C78.5969 250.803 77.7969 253.103 77.7969 255.403C77.7969 257.703 78.5969 260.103 80.2969 261.703C82.0969 263.403 84.5969 264.003 87.0969 264.003C88.1969 264.003 89.3969 263.703 90.2969 263.003C91.3969 262.103 91.7969 260.703 91.8969 259.303C92.0969 256.503 90.7969 253.603 88.3969 251.903Z" fill="black"/>
</g>
<path d="M78.6995 255.803C78.7995 255.403 79.6995 248.803 80.5995 245.803C81.5995 242.803 92.3995 233.803 93.9995 233.503C95.5995 233.203 95.5995 234.103 95.2995 235.303C94.9995 236.503 86.8995 244.903 87.6995 245.503C88.8995 246.303 88.4995 247.003 89.0995 246.603C89.8995 246.203 101.2 239.603 103.2 239.203C105.3 238.803 105.5 240.203 104.4 241.803C103.3 243.303 103.3 243.303 103.3 243.303C103.3 243.303 104.6 242.603 105.8 243.903C107.1 245.203 101.7 248.803 101.7 248.803C101.7 248.803 102.2 249.803 100.9 251.403C99.5995 253.103 94.6995 259.903 93.2995 260.903C91.8995 261.903 89.0995 261.303 89.0995 261.303C89.0995 261.303 87.2995 262.703 85.4995 262.703C83.7995 262.703 78.3995 258.203 78.6995 255.803Z" fill="#FFE1D8"/>
<g opacity="0.3">
<path d="M116.497 251.801L102.297 256.901C103.597 258.201 104.897 259.501 106.497 260.401C107.997 261.401 109.797 262.001 111.697 262.001C113.497 261.901 115.397 261.001 116.297 259.401C116.997 258.201 117.097 256.801 117.197 255.401C117.197 254.101 117.297 252.701 116.497 251.801Z" fill="black"/>
</g>
<path d="M98.7988 233.402C99.0988 233.402 109.099 235.702 110.199 236.702C111.299 237.702 115.999 247.002 115.999 247.002C115.999 247.002 117.899 248.502 118.199 250.202C118.499 251.902 117.499 259.802 113.699 259.802C113.299 259.802 107.099 259.502 106.099 259.202C105.099 259.002 98.7988 254.202 98.7988 254.202L99.9988 252.502C99.9988 252.502 92.8988 248.702 91.4988 247.902C90.0988 247.102 89.3988 244.602 90.8988 244.702C92.3988 244.702 105.299 249.602 105.299 249.602C105.299 249.602 92.7988 243.802 92.3988 242.102C91.9988 240.402 93.9988 239.102 95.2988 239.602C96.5988 240.202 105.999 245.002 107.499 245.002C108.999 245.102 109.199 244.302 109.199 244.302L106.099 240.102C106.099 240.102 98.7988 236.502 98.1988 235.602C97.4988 234.902 98.7988 233.402 98.7988 233.402Z" fill="#FFE1D8"/>
<path d="M98.7986 233.402C98.7986 233.402 98.5986 233.602 98.3986 234.102C98.2986 234.302 98.0986 234.602 98.0986 235.002C98.0986 235.202 98.0986 235.402 98.1986 235.602C98.2986 235.802 98.4986 235.902 98.6986 236.102C100.299 237.202 102.999 238.502 106.299 240.202C107.199 241.402 108.299 242.802 109.399 244.302L109.499 244.402V244.502C109.199 245.202 108.499 245.302 107.899 245.402C107.299 245.402 106.699 245.202 106.099 245.002C104.999 244.602 103.799 244.002 102.599 243.502C101.399 242.902 100.199 242.402 98.8986 241.802C97.6986 241.202 96.2986 240.502 95.0986 240.002C94.4986 239.802 93.7986 240.102 93.2986 240.602C93.0986 240.802 92.8986 241.102 92.7986 241.502C92.6986 241.802 92.6986 242.202 92.7986 242.402C93.1986 242.902 93.8986 243.402 94.4986 243.802C95.1986 244.202 95.7986 244.602 96.4986 245.002C99.2986 246.602 102.299 248.102 105.399 249.602L105.199 250.102C102.599 249.102 99.8986 248.202 97.1986 247.202C95.7986 246.702 94.3986 246.202 92.9986 245.802C92.2986 245.602 91.4986 245.302 90.8986 245.302C90.2986 245.302 90.2986 246.102 90.5986 246.702C90.7986 247.102 91.0986 247.502 91.3986 247.802C91.6986 248.102 92.1986 248.302 92.5986 248.502C93.4986 249.002 94.2986 249.402 95.1986 249.902C96.8986 250.802 98.5986 251.702 100.199 252.602L100.499 252.702L100.299 252.902C99.8986 253.502 99.4986 254.002 99.0986 254.602L98.9986 254.202C100.199 255.102 101.399 256.002 102.599 256.802C103.199 257.202 103.799 257.602 104.399 258.002C104.999 258.402 105.599 258.802 106.199 259.102C107.599 259.302 108.999 259.402 110.399 259.502C111.099 259.502 111.799 259.602 112.499 259.602C113.199 259.602 113.899 259.702 114.399 259.602C114.999 259.402 115.499 259.002 115.899 258.502C116.299 258.002 116.599 257.502 116.799 256.902C117.299 255.702 117.599 254.502 117.799 253.302C117.899 252.702 117.999 252.102 117.999 251.502C117.999 250.902 118.099 250.302 117.899 249.802C117.499 248.802 116.699 247.902 115.899 247.202C114.299 243.902 112.699 241.002 111.299 238.502C110.899 237.902 110.599 237.202 110.099 236.802C109.599 236.502 108.899 236.202 108.399 236.002C107.199 235.602 106.099 235.302 105.099 235.002C103.099 234.402 101.599 234.102 100.499 233.802C99.4986 233.602 99.0986 233.502 98.7986 233.402C98.7986 233.402 98.8986 233.402 99.1986 233.402C99.4986 233.402 99.8986 233.502 100.399 233.602C101.499 233.802 102.999 234.202 104.999 234.702C105.999 235.002 107.099 235.302 108.299 235.702C108.899 235.902 109.499 236.102 110.099 236.502C110.699 237.002 110.999 237.602 111.399 238.202C112.899 240.702 114.399 243.702 116.099 246.902L115.999 246.802C116.899 247.502 117.699 248.402 118.099 249.602C118.299 250.202 118.299 250.802 118.299 251.402C118.299 252.002 118.199 252.602 118.099 253.202C117.899 254.402 117.599 255.702 117.099 256.902C116.899 257.502 116.499 258.102 116.099 258.602C115.699 259.102 115.099 259.602 114.399 259.802C113.699 260.002 112.999 259.902 112.299 259.902C111.599 259.902 110.899 259.802 110.199 259.802C108.799 259.702 107.399 259.702 105.899 259.402C105.099 259.102 104.599 258.702 103.999 258.302C103.399 257.902 102.799 257.502 102.199 257.002C100.999 256.102 99.7986 255.302 98.5986 254.402L98.3986 254.202L98.5986 254.002C98.9986 253.402 99.3986 252.902 99.7986 252.302L99.8986 252.702C98.1986 251.802 96.5986 250.902 94.8986 250.002C93.9986 249.502 93.1986 249.102 92.2986 248.602C91.8986 248.302 91.3986 248.202 90.9986 247.802C90.5986 247.502 90.2986 247.002 90.0986 246.502C89.8986 246.102 89.7986 245.702 89.8986 245.302C89.8986 245.102 89.9986 244.802 90.1986 244.602C90.3986 244.402 90.6986 244.302 90.8986 244.302C91.7986 244.402 92.3986 244.602 93.1986 244.802C94.5986 245.202 95.9986 245.702 97.3986 246.202C100.199 247.202 102.899 248.202 105.399 249.102L105.199 249.602C102.099 248.102 99.0986 246.602 96.1986 245.002C95.4986 244.602 94.7986 244.202 94.0986 243.702C93.3986 243.202 92.7986 242.802 92.1986 242.102C91.7986 241.202 92.1986 240.302 92.7986 239.702C93.3986 239.102 94.1986 238.802 95.0986 239.002C96.4986 239.602 97.6986 240.302 98.9986 240.902C100.299 241.502 101.499 242.102 102.599 242.602C103.799 243.102 104.899 243.702 105.999 244.102C106.599 244.302 107.099 244.502 107.599 244.502C108.099 244.502 108.699 244.302 108.899 243.902V244.002C107.799 242.502 106.799 241.102 105.799 239.802H105.899C102.599 238.102 99.9986 236.802 98.2986 235.602C98.0986 235.502 97.8986 235.302 97.7986 235.102C97.6986 234.902 97.6986 234.702 97.6986 234.502C97.7986 234.102 97.8986 233.802 98.0986 233.602C98.5986 233.602 98.7986 233.402 98.7986 233.402Z" fill="#6F4439"/>
<path d="M83.7977 241.701C83.7977 241.701 83.4977 241.401 82.9977 240.801C82.4977 240.201 81.7977 239.201 80.9977 238.101C79.3977 235.701 77.3977 232.401 75.1977 228.601C73.0977 224.801 71.1977 221.401 69.7977 218.901C69.1977 217.701 68.5977 216.701 68.1977 215.901C67.7977 215.201 67.5977 214.801 67.5977 214.801C67.5977 214.801 67.8977 215.101 68.2977 215.801C68.6977 216.501 69.2977 217.401 70.0977 218.701C71.5977 221.101 73.4977 224.601 75.5977 228.401C77.6977 232.201 79.6977 235.601 81.2977 238.001C82.0977 239.201 82.6977 240.201 83.0977 240.801C83.5977 241.301 83.7977 241.701 83.7977 241.701Z" fill="#263238"/>
<path d="M80.0963 245.5C80.0963 245.6 79.3964 245.8 78.2964 246.5C77.1964 247.2 75.7964 248.3 74.7964 250C74.2964 250.8 73.8963 251.7 73.6963 252.5C73.4963 253.3 73.4964 254.1 73.2964 254.7C73.0964 256 72.3964 256.7 72.2964 256.6C72.1964 256.6 72.7964 255.9 72.8964 254.6C72.9964 254 72.9963 253.2 73.1963 252.3C73.3963 251.4 73.6964 250.5 74.2964 249.6C75.3964 247.8 76.8963 246.7 78.0963 246.1C79.2963 245.6 80.0963 245.5 80.0963 245.5Z" fill="#263238"/>
<path d="M130.596 197.603C130.596 197.703 129.896 198.403 128.596 199.603C127.296 200.803 125.396 202.303 123.196 203.803C120.996 205.403 118.996 206.703 117.496 207.503C115.996 208.403 114.996 208.903 114.996 208.803C114.996 208.703 115.896 208.103 117.296 207.203C118.796 206.203 120.796 204.903 122.896 203.303C125.096 201.703 126.996 200.303 128.296 199.203C129.696 198.203 130.496 197.503 130.596 197.603Z" fill="#263238"/>
<path d="M116.3 213.102C116.4 213.102 116.1 214.202 115.7 215.802C115.2 217.502 114.5 219.802 113.5 222.202C112.5 224.702 111.6 226.902 110.8 228.402C110 230.002 109.5 230.902 109.4 230.902C109.3 230.902 109.8 229.902 110.4 228.302C111.1 226.702 112 224.502 113 222.002C114 219.502 114.8 217.302 115.3 215.602C115.9 214.102 116.2 213.102 116.3 213.102Z" fill="#263238"/>
<path d="M123.996 247.601C123.896 247.601 123.696 246.601 122.796 245.301C121.996 244.001 120.496 242.301 118.396 241.001C116.396 239.701 114.296 238.801 112.896 238.201C111.396 237.601 110.496 237.201 110.496 237.101C110.496 237.001 111.496 237.301 112.996 237.801C114.496 238.301 116.596 239.201 118.696 240.601C120.796 242.001 122.296 243.701 123.096 245.201C123.496 245.901 123.696 246.501 123.796 247.001C123.996 247.301 123.996 247.601 123.996 247.601Z" fill="#263238"/>
<path d="M73.1985 260.9C73.1985 260.9 72.2985 260.3 71.0985 259.1C69.8985 257.9 68.1985 256.2 66.4985 254.2C64.7985 252.2 63.3985 250.3 62.4985 248.9C61.4985 247.5 60.9985 246.5 61.0985 246.5C61.1985 246.5 61.7985 247.3 62.7985 248.7C63.7985 250.1 65.2985 251.9 66.8985 253.9C68.5985 255.9 70.1985 257.6 71.3985 258.8C72.4985 260.1 73.1985 260.9 73.1985 260.9Z" fill="#263238"/>
<path d="M65.5985 211.1C65.5985 211 65.9985 211.2 66.5985 211.6C67.1985 212 67.8985 212.7 68.3985 213.6C68.8985 214.5 69.1985 215.5 69.1985 216.2C69.2985 216.9 69.1985 217.3 69.0985 217.3C68.8985 217.3 68.9985 215.6 67.8985 213.8C66.9985 212 65.4985 211.2 65.5985 211.1Z" fill="#263238"/>
<path d="M70.0986 131.602C75.3986 125.402 82.5986 121.902 91.0986 121.702C95.8986 121.602 96.0986 121.602 99.4986 122.402C102.999 123.202 107.899 125.702 109.999 128.402C112.499 131.602 114.599 135.102 115.099 139.002C115.599 143.002 117.099 146.602 117.699 151.602C118.199 155.602 121.599 173.702 119.099 177.002L103.799 179.702C97.6987 180.002 91.2987 180.902 85.2987 179.702C79.2987 178.502 65.4986 181.802 62.2986 177.002C57.7986 170.402 59.4986 144.002 70.0986 131.602Z" fill="#263238"/>
<path d="M81.4995 132.301L96.1995 126.301L100.1 126.701C108.8 126.601 114.8 136.101 115 143.201C115.1 151.001 115 160.501 113.8 166.301C111.4 177.901 101.6 178.901 101.6 178.901C101.6 178.901 101.7 180.701 101.8 184.601C99.1995 190.501 89.2995 190.501 80.6995 183.801L80.3995 183.301L77.6995 136.201C77.5995 134.101 79.2995 132.401 81.4995 132.301Z" fill="#FFE1D8"/>
<path d="M109.699 152.802C109.699 153.602 108.999 154.202 108.199 154.202C107.399 154.202 106.699 153.602 106.699 152.802C106.699 152.002 107.399 151.402 108.199 151.402C109.099 151.402 109.699 152.002 109.699 152.802Z" fill="#263238"/>
<path d="M112.3 147.501C112.1 147.701 111 146.801 109.4 146.701C107.8 146.601 106.6 147.401 106.4 147.201C106.3 147.101 106.5 146.801 107.1 146.401C107.6 146.001 108.5 145.701 109.5 145.801C110.5 145.901 111.3 146.301 111.8 146.701C112.2 147.101 112.4 147.401 112.3 147.501Z" fill="#263238"/>
<path d="M102.099 159.803C102.099 159.703 103.098 159.603 104.698 159.403C105.098 159.403 105.499 159.303 105.599 159.003C105.699 158.703 105.599 158.303 105.399 157.803C105.099 156.803 104.699 155.703 104.299 154.603C102.799 150.103 101.699 146.303 101.899 146.303C102.099 146.203 103.399 149.903 104.899 154.403C105.299 155.503 105.599 156.603 105.899 157.603C105.999 158.103 106.299 158.603 105.999 159.203C105.899 159.503 105.599 159.703 105.299 159.803C104.999 159.903 104.799 159.903 104.599 159.903C103.099 159.903 102.099 159.903 102.099 159.803Z" fill="#263238"/>
<path d="M101.498 178.802C101.498 178.802 93.5977 179.002 86.0977 173.902C86.0977 173.902 89.8977 182.202 101.598 181.602L101.498 178.802Z" fill="#6F4439"/>
<path d="M111.698 144.703C111.398 145.103 110.198 144.803 108.698 144.803C107.298 144.803 105.998 145.203 105.698 144.803C105.598 144.603 105.698 144.203 106.298 143.903C106.798 143.503 107.698 143.203 108.698 143.203C109.698 143.203 110.598 143.503 111.098 143.803C111.598 144.103 111.798 144.503 111.698 144.703Z" fill="#263238"/>
<path d="M93 153.002C93 153.802 93.6 154.502 94.4 154.502C95.2 154.602 95.9 154.002 96 153.202C96 152.402 95.4 151.702 94.6 151.702C93.7 151.602 93 152.202 93 153.002Z" fill="#263238"/>
<path d="M90.4977 147.402C90.6977 147.602 91.7977 146.802 93.3977 146.802C94.9977 146.802 96.1977 147.602 96.3977 147.402C96.4977 147.302 96.2977 147.002 95.7977 146.602C95.2977 146.202 94.3977 145.902 93.3977 145.902C92.3977 145.902 91.4977 146.302 91.0977 146.602C90.5977 147.002 90.3977 147.402 90.4977 147.402Z" fill="#263238"/>
<path d="M91.4 141.502C91.7 141.902 93 141.502 94.5 141.502C96 141.402 97.3 141.802 97.6 141.402C97.7 141.202 97.5 140.802 97 140.502C96.5 140.202 95.5 139.902 94.5 139.902C93.5 139.902 92.6 140.202 92.1 140.602C91.4 140.902 91.3 141.302 91.4 141.502Z" fill="#263238"/>
<path d="M79.8004 155.8C79.8004 154.9 78.9004 152.8 78.1004 152.7C75.8004 152.2 71.7004 152.2 71.4004 158.1C71.0004 166.1 79.5004 164.9 79.6004 164.7C79.5004 164.5 79.7004 158.8 79.8004 155.8Z" fill="#FFE1D8"/>
<path d="M76.9977 161.502C76.9977 161.502 76.8977 161.602 76.5977 161.702C76.3977 161.802 75.9977 161.802 75.5977 161.702C74.7977 161.302 74.0977 160.002 74.1977 158.502C74.1977 157.802 74.3977 157.102 74.6977 156.502C74.9977 155.902 75.3977 155.502 75.7977 155.502C76.1977 155.402 76.4977 155.702 76.5977 155.902C76.6977 156.102 76.5977 156.302 76.6977 156.302C76.6977 156.302 76.8977 156.202 76.7977 155.802C76.7977 155.602 76.6977 155.402 76.4977 155.302C76.2977 155.102 75.9977 155.002 75.6977 155.102C75.0977 155.102 74.4977 155.602 74.1977 156.302C73.8977 156.902 73.5977 157.702 73.5977 158.502C73.5977 160.102 74.2977 161.602 75.3977 162.002C75.9977 162.202 76.3977 162.002 76.6977 161.902C76.9977 161.702 76.9977 161.602 76.9977 161.502Z" fill="#6F4439"/>
<path d="M100.898 164.303C100.898 165.703 99.7984 166.803 98.3984 166.803C96.9984 166.803 95.8984 165.703 95.8984 164.303C95.8984 162.903 96.9984 161.803 98.3984 161.803C99.7984 161.703 100.898 162.903 100.898 164.303Z" fill="#6F4439"/>
<path d="M101.797 165C101.797 165.1 101.397 165.4 100.597 165.5C99.797 165.6 98.697 165.5 97.597 164.9C96.497 164.4 95.697 163.6 95.297 162.8C94.897 162.1 94.897 161.6 94.997 161.5C95.097 161.5 95.397 161.8 95.897 162.3C96.397 162.8 97.097 163.4 97.997 163.8C99.897 164.9 101.697 164.7 101.797 165Z" fill="#263238"/>
<path d="M118.099 141.303C117.599 136.103 114.599 131.003 109.999 127.703C105.399 124.403 99.1993 122.703 93.2993 123.303L83.4993 128.603C81.3993 134.903 83.4993 137.803 86.3993 147.003C90.3993 145.703 97.5993 144.503 101.799 144.203C101.299 142.103 100.799 140.003 100.299 137.903C101.599 139.703 102.799 141.503 104.099 143.403C106.299 142.103 107.299 139.403 106.399 137.203C107.299 139.003 107.899 140.903 108.199 142.903C111.499 142.603 114.799 142.103 118.099 141.303Z" fill="#263238"/>
<path d="M78.0984 152.701C78.0984 152.701 79.0984 157.101 79.7984 156.401C87.3984 149.301 83.4984 140.001 83.1984 139.801L83.3984 130.301L75.3984 133.001L78.0984 152.701Z" fill="#263238"/>
<path d="M76.4981 152.503C76.4981 152.503 76.2981 152.203 76.0981 151.703C75.8981 151.203 75.5981 150.403 75.2981 149.403C74.6981 147.403 74.2981 144.503 74.3981 141.303C74.4981 138.103 75.1981 135.303 75.9981 133.303C76.3981 132.303 76.6981 131.503 76.9981 131.003C77.2981 130.503 77.3981 130.203 77.4981 130.203C77.5981 130.203 76.9981 131.403 76.3981 133.403C75.7981 135.403 75.0981 138.203 74.9981 141.303C74.8981 144.403 75.2981 147.303 75.6981 149.303C76.0981 151.303 76.4981 152.503 76.4981 152.503Z" fill="#455A64"/>
<path d="M106.898 137.002C106.798 137.002 106.398 135.902 105.498 134.102C105.098 133.202 104.398 132.202 103.698 131.202C102.898 130.202 101.998 129.102 100.898 128.102C99.7984 127.102 98.5984 126.302 97.4984 125.602C96.3984 125.002 95.2984 124.402 94.3984 124.102C92.5984 123.402 91.3984 123.202 91.3984 123.102C91.3984 123.102 91.6984 123.102 92.2984 123.202C92.8984 123.302 93.5984 123.502 94.5984 123.802C95.5984 124.102 96.5984 124.602 97.7984 125.202C98.8984 125.902 100.198 126.702 101.298 127.702C102.398 128.702 103.398 129.802 104.198 130.902C104.998 132.002 105.598 133.002 105.998 133.902C106.398 134.802 106.698 135.602 106.898 136.102C106.898 136.702 106.898 137.002 106.898 137.002Z" fill="#455A64"/>
<path d="M115 138.203C114.9 138.203 114.4 136.803 113.1 134.903C111.7 132.903 109.4 130.603 106.2 128.803C103.1 127.003 99.9 125.803 97.7 125.003C96.7 124.603 95.8 124.303 95 124.103C94.4 123.903 94 123.703 94 123.703C94 123.703 94.4 123.703 95 123.903C95.7 124.103 96.6 124.303 97.7 124.703C100 125.403 103.2 126.503 106.4 128.403C109.6 130.303 112 132.703 113.3 134.803C114 135.803 114.4 136.703 114.6 137.303C114.9 137.803 115 138.203 115 138.203Z" fill="#455A64"/>
</g>
<defs>
<clipPath id="clip0_313_7474">
<rect width="438.6" height="423.2" fill="white"/>
</clipPath>
</defs>
</svg>
