<svg width="58" height="58" viewBox="0 0 58 58" fill="none" xmlns="http://www.w3.org/2000/svg">
<path d="M56.0742 12.9233C55.7367 6.97544 50.9972 2.23591 45.0494 1.89844C34.3997 1.29427 23.5997 1.29427 12.9512 1.89844C7.00338 2.23592 2.26386 6.97544 1.92578 12.9233C1.32161 23.5729 1.32161 34.3724 1.92578 45.022C2.26386 50.9699 7.00338 55.7094 12.9512 56.0469C23.6273 56.6526 34.3741 56.6525 45.0494 56.0469C50.9972 55.7094 55.7367 50.9699 56.0742 45.022C56.6784 34.3724 56.6784 23.5729 56.0742 12.9233Z" fill="#FAFAFA"/>
<path d="M16.6133 20.5404V25.3737C16.6133 25.5401 16.749 25.6758 16.9154 25.6758H19.6341V20.2383H16.9154C16.749 20.2383 16.6133 20.374 16.6133 20.5404Z" fill="#898989"/>
<path d="M39.5716 30.207V15.707C39.5716 13.2084 37.539 11.1758 35.0404 11.1758H15.707C13.2084 11.1758 11.1758 13.2084 11.1758 15.707V30.207C11.1758 32.3954 12.7352 34.2262 14.8008 34.6474V38.6654C14.8008 38.9993 14.9849 39.3067 15.2793 39.4642C15.5636 39.6164 15.9322 39.604 16.2097 39.4194L23.2314 34.7383H35.0404C37.539 34.7383 39.5716 32.7057 39.5716 30.207ZM35.9466 22.957C35.9466 23.4574 35.5407 23.8633 35.0404 23.8633H32.6237C32.1234 23.8633 31.7174 23.4574 31.7174 22.957C31.7174 22.4567 32.1234 22.0508 32.6237 22.0508H35.0404C35.5407 22.0508 35.9466 22.4567 35.9466 22.957ZM30.7746 18.6913L33.1913 16.2746C33.5453 15.9206 34.1188 15.9206 34.4728 16.2746C34.8268 16.6286 34.8268 17.2021 34.4728 17.5561C34.4728 17.5561 32.058 19.9709 32.0561 19.9728C31.7134 20.3155 31.1253 20.3235 30.7746 19.9728C30.4206 19.6188 30.4206 19.0453 30.7746 18.6913ZM28.6966 28.2518C28.6966 28.9898 28.322 29.6624 27.6936 30.0507C27.0979 30.4188 26.2747 30.4625 25.6362 30.1433L20.3262 27.4883H16.9154C15.7495 27.4883 14.8008 26.5395 14.8008 25.3737V20.5404C14.8008 19.3745 15.7495 18.4258 16.9154 18.4258H20.3262L25.6362 15.7707C26.2971 15.4403 27.0664 15.4752 27.6936 15.8634C28.322 16.2516 28.6966 16.9242 28.6966 17.6623V28.2518ZM34.4728 29.6394C34.1292 29.983 33.5401 29.9883 33.1913 29.6394L30.7746 27.2228C30.4206 26.8688 30.4206 26.2953 30.7746 25.9413C31.1286 25.5873 31.7021 25.5873 32.0561 25.9413L34.4728 28.3579C34.8268 28.712 34.8268 29.2854 34.4728 29.6394Z" fill="#898989"/>
<path d="M26.7379 17.4089C26.6534 17.3574 26.5443 17.3457 26.4456 17.3935L21.4453 19.8933V26.0235L26.4456 28.5234C26.6455 28.621 26.8828 28.4747 26.8828 28.2531V17.6637C26.8828 17.5521 26.8227 17.4605 26.7379 17.4089Z" fill="#898989"/>
<path d="M42.2904 26.8828H41.3841V30.2057C41.3841 33.7099 38.5446 36.5495 35.0404 36.5495H25.6758V38.6641C25.6758 41.1653 27.7058 43.1953 30.207 43.1953H37.1549C37.1549 43.1953 41.7454 46.6381 41.7466 46.639C42.0198 46.8439 42.382 46.8687 42.7012 46.7236C43.0033 46.5666 43.1966 46.2524 43.1966 45.9141V43.0986C45.2629 42.6878 46.8216 40.8511 46.8216 38.6641V31.4141C46.8216 28.9128 44.7916 26.8828 42.2904 26.8828Z" fill="#898989"/>
</svg>
