<svg width="58" height="58" viewBox="0 0 58 58" fill="none" xmlns="http://www.w3.org/2000/svg">
<path d="M56.0742 12.9233C55.7367 6.97544 50.9972 2.23591 45.0493 1.89844C34.3997 1.29427 23.5997 1.29427 12.9512 1.89844C7.00338 2.23593 2.26385 6.97544 1.92578 12.9233C1.32161 23.5729 1.32161 34.3724 1.92578 45.022C2.26386 50.9699 7.00338 55.7094 12.9512 56.0469C23.6273 56.6526 34.3746 56.6525 45.0493 56.0469C50.9972 55.7094 55.7367 50.9699 56.0742 45.022C56.6784 34.3724 56.6784 23.5729 56.0742 12.9233Z" fill="#FAFAFA"/>
<path d="M46.4185 40.0359L42.2117 37.231L43.1392 36.3041C43.3858 36.0581 43.4684 35.6923 43.354 35.3637C43.2383 35.0345 42.9445 34.8014 42.5988 34.7625L34.9086 33.9081C34.6278 33.8769 34.3623 33.9736 34.1676 34.1683C33.9729 34.363 33.8773 34.6356 33.908 34.9094L34.7623 42.5989C34.8001 42.9447 35.0337 43.2385 35.3629 43.3535C35.691 43.4709 36.058 43.386 36.3034 43.1394L37.2309 42.2125C37.2309 42.2125 40.0222 46.3988 40.0357 46.4191C40.3426 46.8793 41.0414 46.9465 41.4306 46.5573C41.4306 46.5573 46.536 41.4512 46.5565 41.4308C46.9542 41.033 46.8842 40.3468 46.4185 40.0359Z" fill="#898989"/>
<path d="M18.4739 25.6782C18.6649 23.4435 19.5501 21.406 20.9177 19.7833L17.5019 16.3672C15.2689 18.8774 13.8495 22.1139 13.6406 25.6782H18.4739Z" fill="#898989"/>
<path d="M29.9062 11.2227V16.056C32.1414 16.247 34.179 17.1324 35.8018 18.5002L39.2176 15.0842C36.7073 12.8511 33.4708 11.4315 29.9062 11.2227Z" fill="#898989"/>
<path d="M40.5018 16.3672L37.0859 19.7833C38.4536 21.4061 39.3387 23.4435 39.5297 25.6782H44.363C44.1541 22.1139 42.7347 18.8774 40.5018 16.3672Z" fill="#898989"/>
<path d="M18.4739 27.4883H13.6406C13.8495 31.0527 15.2689 34.2891 17.5019 36.7993L20.9177 33.3833C19.5501 31.7605 18.6649 29.723 18.4739 27.4883Z" fill="#898989"/>
<path d="M22.2009 18.5002C23.8237 17.1324 25.8613 16.247 28.0965 16.056V11.2227C24.532 11.4315 21.2953 12.8511 18.7852 15.0842L22.2009 18.5002Z" fill="#898989"/>
<path d="M28.0965 37.1083C25.8613 36.9173 23.8237 36.0319 22.2009 34.6641L18.7852 38.0801C21.2953 40.3132 24.532 41.7328 28.0965 41.9416V37.1083Z" fill="#898989"/>
<path d="M32.2746 36.6133L32.8183 41.4829C31.8758 41.7246 30.9092 41.8816 29.9062 41.9421V37.1087C30.7279 37.0362 31.5255 36.8792 32.2746 36.6133Z" fill="#898989"/>
<path d="M44.3578 27.4883C44.2369 29.4458 43.7657 31.2946 42.9924 32.9983C42.932 32.9741 42.8594 32.9741 42.799 32.9621L37.8086 32.4062C38.7632 30.9804 39.3674 29.3008 39.5245 27.4883H44.3578Z" fill="#898989"/>
</svg>
