<svg width="58" height="58" viewBox="0 0 58 58" fill="none" xmlns="http://www.w3.org/2000/svg">
<path d="M56.0742 12.9233C55.7367 6.97544 50.9972 2.23591 45.0493 1.89844C34.3997 1.29427 23.5997 1.29427 12.9512 1.89844C7.00338 2.23593 2.26385 6.97544 1.92578 12.9233C1.32161 23.5729 1.32161 34.3724 1.92578 45.022C2.26386 50.9699 7.00338 55.7094 12.9512 56.0469C23.6288 56.6527 34.3723 56.6526 45.0493 56.0469C50.9972 55.7094 55.7367 50.9699 56.0742 45.022C56.6784 34.3724 56.6784 23.5729 56.0742 12.9233Z" fill="#FAFAFA"/>
<path d="M32.9258 37.7591H12.9883V15.707C12.9883 14.2087 14.2087 12.9883 15.707 12.9883H30.207C31.1496 12.9883 31.9833 13.4716 32.4787 14.1966H34.4725C33.8562 12.4324 32.1766 11.1758 30.207 11.1758H15.707C13.2058 11.1758 11.1758 13.2058 11.1758 15.707V42.2904C11.1758 44.7884 13.2084 46.8216 15.707 46.8216H30.207C32.7057 46.8216 34.7383 44.7884 34.7383 42.2904V34.1341H32.9258V37.7591ZM22.957 43.1966C22.4566 43.1966 22.0508 42.7908 22.0508 42.2904C22.0508 41.7898 22.4566 41.3841 22.957 41.3841C23.4576 41.3841 23.8633 41.7898 23.8633 42.2904C23.8633 42.7908 23.4576 43.1966 22.957 43.1966Z" fill="#898989"/>
<path d="M41.9703 23.3865C41.306 23.2897 40.7319 22.8726 40.4345 22.2707C40.3513 22.1025 40.1092 22.1026 40.0268 22.2702C39.7289 22.8726 39.1548 23.2897 38.4905 23.3865C38.3154 23.412 38.2267 23.6411 38.3642 23.7747C38.845 24.2425 39.0639 24.9174 38.9507 25.5805C38.919 25.7662 39.1164 25.9051 39.2805 25.8203C39.8746 25.5064 40.5838 25.507 41.1792 25.8198C41.3446 25.9075 41.5403 25.7615 41.5095 25.5807C41.3962 24.9176 41.6151 24.2427 42.0965 23.7742C42.2247 23.6494 42.1612 23.4137 41.9703 23.3865Z" fill="#898989"/>
<path d="M32.7316 23.3857C32.0672 23.2889 31.4932 22.8718 31.1958 22.27C31.116 22.1086 30.873 22.0969 30.7875 22.27C30.4901 22.8718 29.916 23.2889 29.2516 23.3857C29.0679 23.412 28.9932 23.6457 29.126 23.7739C29.6063 24.2423 29.8257 24.9172 29.7125 25.5797C29.6804 25.7674 29.8767 25.9044 30.0423 25.8188C30.6382 25.5073 31.3468 25.5079 31.9404 25.8189C32.1066 25.9067 32.3021 25.7642 32.2708 25.5799C32.1575 24.9173 32.377 24.2424 32.8584 23.7733C32.9937 23.6418 32.9149 23.4119 32.7316 23.3857Z" fill="#898989"/>
<path d="M23.4898 23.3857C22.8254 23.2889 22.2514 22.8718 21.954 22.27C21.8742 22.1086 21.6312 22.0969 21.5457 22.27C21.2483 22.8717 20.6743 23.2889 20.01 23.3857C19.8347 23.4112 19.746 23.6405 19.8842 23.7739C20.3645 24.2423 20.584 24.9173 20.4707 25.5798C20.4407 25.7555 20.6307 25.9105 20.8005 25.8188C21.3952 25.5073 22.105 25.5073 22.6986 25.8189C22.8651 25.9068 23.0603 25.7642 23.029 25.5799C22.9157 24.9173 23.1352 24.2424 23.6167 23.7732C23.7499 23.6437 23.671 23.4116 23.4898 23.3857Z" fill="#898989"/>
<path d="M43.4987 16.0078H18.1237C16.2911 16.0078 14.8008 17.4988 14.8008 19.3307V28.9974C14.8008 30.5161 15.8244 31.7987 17.2174 32.1952V34.5387C17.2174 35.3966 17.7296 36.1636 18.5225 36.4916C19.2839 36.8067 20.2307 36.6311 20.8271 36.0338L24.5406 32.3203H43.4987C45.3313 32.3203 46.8216 30.83 46.8216 28.9974V19.3307C46.8216 17.4988 45.3313 16.0078 43.4987 16.0078ZM24.8805 25.0703C24.8262 25.1228 24.8014 25.1978 24.8144 25.2715C24.9465 26.0426 24.6356 26.8067 24.0031 27.2663C23.3712 27.7271 22.5476 27.7855 21.8543 27.4221C21.7882 27.3867 21.7086 27.3867 21.6425 27.4221C20.9811 27.7764 20.1056 27.7105 19.4943 27.2663C18.8618 26.8067 18.5509 26.0426 18.683 25.2715C18.696 25.1977 18.6712 25.1228 18.6181 25.0709C18.057 24.524 17.8594 23.7221 18.1013 22.9781C18.3432 22.2347 18.9745 21.7031 19.748 21.5904C19.8223 21.5798 19.8866 21.5332 19.9197 21.466C20.266 20.7644 20.9664 20.329 21.7487 20.329C22.531 20.329 23.2314 20.7644 23.5777 21.466C23.6113 21.5332 23.6751 21.5798 23.7494 21.5904C24.5229 21.7031 25.1542 22.2347 25.3961 22.9781C25.638 23.7222 25.4404 24.524 24.8805 25.0703ZM34.1217 25.0703C34.0675 25.1228 34.0427 25.1978 34.0556 25.2715C34.1878 26.0426 33.8769 26.8067 33.2444 27.2663C32.6119 27.7271 31.7894 27.7855 31.0956 27.4221C31.0289 27.3861 30.9498 27.3873 30.8844 27.4215C30.2012 27.7811 29.3591 27.7195 28.735 27.2663C28.1025 26.8061 27.7921 26.0421 27.9243 25.2709C27.9373 25.1977 27.9125 25.1228 27.8594 25.0709C27.2983 24.524 27.1006 23.7221 27.3426 22.9781C27.5845 22.2347 28.2158 21.7031 28.9893 21.5904C29.0636 21.5798 29.1279 21.5332 29.161 21.466C29.5073 20.7644 30.2076 20.329 30.99 20.329C31.7723 20.329 32.4727 20.7644 32.819 21.466C32.8526 21.5332 32.9163 21.5798 32.9907 21.5904C33.7642 21.7031 34.3955 22.2347 34.6374 22.9781C34.8793 23.7222 34.6816 24.524 34.1217 25.0703ZM43.3618 25.0703C43.3081 25.1222 43.2839 25.1978 43.2969 25.2715C43.4291 26.0426 43.1181 26.8067 42.4851 27.2663C41.8526 27.7271 41.0289 27.7867 40.3369 27.4215C40.2708 27.3873 40.1917 27.3867 40.1245 27.4221C39.4566 27.7735 38.5945 27.7158 37.9768 27.2663C37.3438 26.8067 37.0328 26.0426 37.165 25.2715C37.178 25.1977 37.1538 25.1222 37.1007 25.0709C36.5396 24.5245 36.3419 23.7227 36.5838 22.9793C36.8251 22.2347 37.4565 21.7031 38.2305 21.5904C38.3043 21.5798 38.368 21.5338 38.401 21.4671C38.748 20.7644 39.4489 20.329 40.2312 20.329C41.013 20.329 41.7139 20.7644 42.0603 21.466C42.0939 21.5332 42.1576 21.5798 42.2314 21.5905C43.0054 21.7031 43.6368 22.2347 43.8787 22.9787C44.12 23.7227 43.9223 24.524 43.3618 25.0703Z" fill="#898989"/>
</svg>
