<svg width="58" height="58" viewBox="0 0 58 58" fill="none" xmlns="http://www.w3.org/2000/svg">
<path d="M56.0742 12.9233C55.7367 6.97544 50.9972 2.23591 45.0494 1.89844C34.3997 1.29427 23.5997 1.29427 12.9512 1.89844C7.00338 2.23591 2.26386 6.97543 1.92578 12.9233C1.32161 23.5729 1.32161 34.3724 1.92578 45.022C2.26386 50.9699 7.00338 55.7094 12.9512 56.0469C23.6277 56.6527 34.3737 56.6525 45.0494 56.0469C50.9972 55.7094 55.7367 50.9699 56.0742 45.022C56.6784 34.3724 56.6784 23.5729 56.0742 12.9233Z" fill="#FAFAFA"/>
<path d="M32.9844 44.4911C27.5268 45.88 21.6734 44.2764 17.6985 40.3009C13.323 35.9243 11.8592 29.3445 13.9691 23.5377C14.567 21.8891 15.4236 20.3709 16.5232 19.0066C16.5232 19.0066 17.1636 22.2079 17.1645 22.2125C17.2579 22.6791 17.7618 23.0157 18.2307 22.9229C18.7216 22.8249 19.0402 22.347 18.9416 21.8561L17.9463 16.88C17.8991 16.6452 17.7604 16.4375 17.5604 16.3042C17.3604 16.1697 17.1114 16.1236 16.8802 16.1697L11.9046 17.1656C11.4137 17.2635 11.0951 17.7414 11.1937 18.2323C11.2916 18.7232 11.773 19.0406 12.2598 18.9427L14.6886 18.4567C13.6749 19.8247 12.8493 21.3093 12.2651 22.9193C9.9163 29.3846 11.5459 36.7101 16.4169 41.5824C20.6781 45.8445 27.5858 47.7377 33.4316 46.247C33.9166 46.1231 34.2098 45.6299 34.0859 45.1449C33.9626 44.6611 33.4723 44.3684 32.9844 44.4911Z" fill="#898989"/>
<path d="M45.7373 39.0554L43.3086 39.5413C44.3222 38.1734 45.1478 36.6888 45.732 35.0787C48.0808 28.6134 46.4512 21.2879 41.5801 16.4157C37.1545 11.9906 30.6343 10.2029 24.5655 11.7511C24.0805 11.875 23.7873 12.3682 23.9112 12.8532C24.0351 13.337 24.5254 13.6285 25.0127 13.5069C30.4703 12.1181 36.3238 13.7229 40.2986 17.6972C44.6741 22.0738 46.1379 28.6536 44.0281 34.4604C43.4301 36.109 42.5736 37.6271 41.4739 38.9915L40.8326 35.7856C40.7341 35.2947 40.2562 34.9796 39.7665 35.0752C39.2756 35.1731 38.957 35.6511 39.0555 36.1419L40.0508 41.118C40.098 41.3529 40.2367 41.5605 40.4367 41.6939C40.6288 41.822 40.8902 41.8742 41.117 41.8284L46.0925 40.8325C46.5834 40.7346 46.902 40.2566 46.8035 39.7658C46.7055 39.2749 46.2235 38.961 45.7373 39.0554Z" fill="#898989"/>
<path d="M28.9987 28.0911C29.8329 28.0911 30.5091 27.4149 30.5091 26.5807C30.5091 25.7465 29.8329 25.0703 28.9987 25.0703C28.1645 25.0703 27.4883 25.7465 27.4883 26.5807C27.4883 27.4149 28.1645 28.0911 28.9987 28.0911Z" fill="#898989"/>
<path d="M28.9987 18.4258C23.1688 18.4258 18.4258 23.1682 18.4258 28.9987C18.4258 34.8291 23.1688 39.5716 28.9987 39.5716C34.8286 39.5716 39.5716 34.8291 39.5716 28.9987C39.5716 23.1682 34.8286 18.4258 28.9987 18.4258ZM33.8556 33.478C33.398 33.6393 32.8644 33.3928 32.6992 32.9246C32.147 31.3575 30.6596 30.3038 28.9987 30.3038C27.3378 30.3038 25.8504 31.3575 25.2982 32.9246C25.1312 33.3966 24.615 33.6444 24.1418 33.478C23.6698 33.3116 23.422 32.7948 23.5883 32.3228C24.1286 30.7909 25.2859 29.6086 26.7146 28.984C26.0779 28.3783 25.6758 27.5284 25.6758 26.582C25.6758 24.7495 27.1661 23.2591 28.9987 23.2591C30.8313 23.2591 32.3216 24.7495 32.3216 26.582C32.3216 27.5284 31.9195 28.3783 31.2828 28.984C32.7115 29.6086 33.8688 30.7909 34.4091 32.3228C34.5754 32.7948 34.3276 33.3116 33.8556 33.478Z" fill="#898989"/>
</svg>
