<svg width="44" height="44" viewBox="0 0 44 44" fill="none" xmlns="http://www.w3.org/2000/svg">
<path d="M21.9987 11.6576C23.0055 11.6576 23.8216 10.8414 23.8216 9.83464C23.8216 8.82787 23.0055 8.01172 21.9987 8.01172C20.9919 8.01172 20.1758 8.82787 20.1758 9.83464C20.1758 10.8414 20.9919 11.6576 21.9987 11.6576Z" fill="#FE7209"/>
<path d="M40.8439 6.66172L23.3573 0.409699C22.4858 0.0836457 21.526 0.0821443 20.6535 0.405469L3.16141 6.65895C2.37972 6.93341 1.70262 7.44397 1.22374 8.12002C0.744859 8.79607 0.487861 9.60421 0.488282 10.4327V14.2098C0.489363 15.2731 0.912235 16.2925 1.6641 17.0444C2.41596 17.7962 3.4354 18.2191 4.4987 18.2202H39.4987C40.562 18.2191 41.5814 17.7962 42.3333 17.0444C43.0852 16.2925 43.508 15.2731 43.5091 14.2098V10.4327C43.5098 9.60557 43.2538 8.79865 42.7764 8.12322C42.299 7.44779 41.6238 6.93714 40.8439 6.66172ZM21.9987 13.8452C21.2055 13.8452 20.4301 13.61 19.7706 13.1693C19.1111 12.7286 18.5971 12.1023 18.2936 11.3695C17.99 10.6367 17.9106 9.83031 18.0653 9.05237C18.2201 8.27442 18.602 7.55984 19.1629 6.99897C19.7238 6.4381 20.4384 6.05615 21.2163 5.9014C21.9942 5.74666 22.8006 5.82608 23.5334 6.12962C24.2662 6.43316 24.8926 6.94718 25.3332 7.60669C25.7739 8.2662 26.0091 9.04158 26.0091 9.83476C26.008 10.8981 25.5852 11.9175 24.8333 12.6694C24.0814 13.4212 23.062 13.8441 21.9987 13.8452Z" fill="#FE7209"/>
<path d="M4.86328 20.4062H12.8841V32.8021H4.86328V20.4062Z" fill="#FE7209"/>
<path d="M26.0091 24.0521V20.4062H17.9883V25.5542C19.1002 24.5862 20.5245 24.0528 21.9987 24.0521H26.0091Z" fill="#FE7209"/>
<path d="M31.1133 20.4062H39.1341V24.0521H31.1133V20.4062Z" fill="#FE7209"/>
<path d="M15.8008 34.9922H3.04036C2.3645 34.9954 1.71724 35.2653 1.23933 35.7432C0.761416 36.2211 0.491502 36.8684 0.488281 37.5443V40.4609C0.491502 41.1368 0.761416 41.7841 1.23933 42.262C1.71724 42.7399 2.3645 43.0098 3.04036 43.013H17.3029C16.3349 41.9011 15.8015 40.4768 15.8008 39.0026V34.9922Z" fill="#FE7209"/>
<path d="M30.7487 36.4505C31.7555 36.4505 32.5716 35.6344 32.5716 34.6276C32.5716 33.6208 31.7555 32.8047 30.7487 32.8047C29.7419 32.8047 28.9258 33.6208 28.9258 34.6276C28.9258 35.6344 29.7419 36.4505 30.7487 36.4505Z" fill="#FE7209"/>
<path d="M39.4987 26.2422H21.9987C20.9354 26.2433 19.916 26.6661 19.1641 27.418C18.4122 28.1699 17.9894 29.1893 17.9883 30.2526V39.0026C17.9894 40.0659 18.4122 41.0853 19.1641 41.8372C19.916 42.5891 20.9354 43.0119 21.9987 43.013H39.4987C40.562 43.0119 41.5814 42.5891 42.3333 41.8372C43.0852 41.0853 43.508 40.0659 43.5091 39.0026V30.2526C43.508 29.1893 43.0852 28.1699 42.3333 27.418C41.5814 26.6661 40.562 26.2433 39.4987 26.2422ZM30.7487 38.638C29.9555 38.638 29.1801 38.4028 28.5206 37.9621C27.8611 37.5215 27.3471 36.8951 27.0436 36.1623C26.74 35.4295 26.6606 34.6232 26.8153 33.8452C26.9701 33.0673 27.352 32.3527 27.9129 31.7918C28.4738 31.2309 29.1884 30.849 29.9663 30.6942C30.7442 30.5395 31.5506 30.6189 32.2834 30.9225C33.0162 31.226 33.6426 31.74 34.0832 32.3995C34.5239 33.059 34.7591 33.8344 34.7591 34.6276C34.758 35.6909 34.3352 36.7103 33.5833 37.4622C32.8314 38.2141 31.812 38.6369 30.7487 38.638Z" fill="#FE7209"/>
</svg>
