<svg width="38" height="35" viewBox="0 0 38 35" fill="none" xmlns="http://www.w3.org/2000/svg">
<path d="M33.5833 0.363282H4.41667C3.88993 0.362975 3.36829 0.466499 2.88158 0.667933C2.39488 0.869366 1.95265 1.16476 1.58019 1.53722C1.20773 1.90968 0.912335 2.35191 0.710901 2.83862C0.509468 3.32532 0.405944 3.84696 0.406251 4.3737V13.1237C0.405944 13.6504 0.509468 14.1721 0.710901 14.6588C0.912335 15.1455 1.20773 15.5877 1.58019 15.9602C1.95265 16.3326 2.39488 16.628 2.88158 16.8295C3.36829 17.0309 3.88993 17.1344 4.41667 17.1341H5.51042V13.4737C4.67689 13.3797 3.91093 12.9702 3.36964 12.3294C2.82836 11.6886 2.55277 10.865 2.5994 10.0275C2.64603 9.18999 3.01135 8.40205 3.62043 7.8253C4.22951 7.24855 5.03618 6.92671 5.875 6.92578H32.125C32.9638 6.92671 33.7705 7.24855 34.3796 7.8253C34.9886 8.40205 35.354 9.18999 35.4006 10.0275C35.4472 10.865 35.1716 11.6886 34.6304 12.3294C34.0891 12.9702 33.3231 13.3797 32.4896 13.4737V17.1341H33.5833C34.1101 17.1344 34.6317 17.0309 35.1184 16.8295C35.6051 16.628 36.0473 16.3326 36.4198 15.9602C36.7923 15.5877 37.0877 15.1455 37.2891 14.6588C37.4905 14.1721 37.5941 13.6504 37.5938 13.1237V4.3737C37.5941 3.84696 37.4905 3.32532 37.2891 2.83862C37.0877 2.35191 36.7923 1.90968 36.4198 1.53722C36.0473 1.16476 35.6051 0.869366 35.1184 0.667933C34.6317 0.466499 34.1101 0.362975 33.5833 0.363282Z" fill="#FE7209"/>
<path d="M33.2188 10.207C33.2188 9.91695 33.1035 9.63875 32.8984 9.43363C32.6933 9.22851 32.4151 9.11328 32.125 9.11328H5.875C5.58492 9.11328 5.30672 9.22851 5.1016 9.43363C4.89648 9.63875 4.78125 9.91695 4.78125 10.207C4.78125 10.4971 4.89648 10.7753 5.1016 10.9804C5.30672 11.1855 5.58492 11.3008 5.875 11.3008H7.69792V26.724C8.05895 26.6578 8.42471 26.6208 8.79167 26.6133C10.6282 26.6154 12.3889 27.3459 13.6875 28.6445C14.9861 29.9431 15.7166 31.7038 15.7188 33.5404C15.7112 33.9073 15.6742 34.2731 15.6081 34.6341H22.3919C22.3258 34.2731 22.2888 33.9073 22.2813 33.5404C22.2834 31.7038 23.0139 29.9431 24.3125 28.6445C25.6111 27.3459 27.3718 26.6154 29.2083 26.6133C29.5753 26.6208 29.9411 26.6578 30.3021 26.724V11.3008H32.125C32.4151 11.3008 32.6933 11.1855 32.8984 10.9804C33.1035 10.7753 33.2188 10.4971 33.2188 10.207ZM19 24.4258C18.2068 24.4258 17.4314 24.1906 16.7719 23.7499C16.1124 23.3092 15.5984 22.6829 15.2949 21.9501C14.9913 21.2173 14.9119 20.4109 15.0666 19.633C15.2214 18.855 15.6033 18.1404 16.1642 17.5796C16.7251 17.0187 17.4397 16.6368 18.2176 16.482C18.9956 16.3273 19.8019 16.4067 20.5347 16.7102C21.2675 17.0138 21.8939 17.5278 22.3345 18.1873C22.7752 18.8468 23.0104 19.6222 23.0104 20.4154C23.0093 21.4787 22.5865 22.4981 21.8346 23.25C21.0827 24.0018 20.0633 24.4247 19 24.4258Z" fill="#FE7209"/>
<path d="M24.469 33.5404C24.4725 33.9092 24.5194 34.2763 24.6088 34.6342H26.2919C27.3552 34.6331 28.3746 34.2102 29.1265 33.4583C29.8783 32.7065 30.3012 31.687 30.3023 30.6237V28.9407C29.6064 28.7669 28.8801 28.7549 28.1788 28.9054C27.4776 29.056 26.8202 29.3651 26.257 29.8092C25.6938 30.2533 25.2398 30.8205 24.9299 31.4673C24.6199 32.1141 24.4623 32.8232 24.469 33.5404Z" fill="#FE7209"/>
<path d="M18.9987 22.2396C20.0055 22.2396 20.8216 21.4234 20.8216 20.4167C20.8216 19.4099 20.0055 18.5938 18.9987 18.5938C17.9919 18.5938 17.1758 19.4099 17.1758 20.4167C17.1758 21.4234 17.9919 22.2396 18.9987 22.2396Z" fill="#FE7209"/>
<path d="M8.79297 28.801C8.42416 28.8045 8.05705 28.8515 7.69922 28.9408V30.6239C7.7003 31.6872 8.12317 32.7066 8.87504 33.4585C9.6269 34.2104 10.6463 34.6332 11.7096 34.6343H13.3927C13.5665 33.9385 13.5785 33.2121 13.428 32.5109C13.2774 31.8096 12.9682 31.1522 12.5241 30.589C12.0801 30.0258 11.5129 29.5719 10.8661 29.2619C10.2193 28.952 9.51015 28.7943 8.79297 28.801Z" fill="#FE7209"/>
</svg>
