<svg width="44" height="35" viewBox="0 0 44 35" fill="none" xmlns="http://www.w3.org/2000/svg">
<path d="M4.4987 31.7188H23.8508C22.4014 29.7005 21.6257 27.2764 21.6341 24.7917C21.6372 21.6017 22.9058 18.5434 25.1614 16.2877C27.4171 14.0321 30.4754 12.7635 33.6654 12.7604C36.1494 12.7564 38.5722 13.5317 40.5924 14.9771V9.84375H0.488282V27.7083C0.487975 28.2351 0.591499 28.7567 0.792933 29.2434C0.994366 29.7301 1.28976 30.1723 1.66222 30.5448C2.03468 30.9173 2.47691 31.2127 2.96362 31.4141C3.45032 31.6155 3.97196 31.7191 4.4987 31.7188ZM7.41537 19.3229H14.707C14.9971 19.3229 15.2753 19.4382 15.4804 19.6433C15.6855 19.8484 15.8008 20.1266 15.8008 20.4167C15.8008 20.7067 15.6855 20.9849 15.4804 21.1901C15.2753 21.3952 14.9971 21.5104 14.707 21.5104H7.41537C7.12528 21.5104 6.84709 21.3952 6.64197 21.1901C6.43685 20.9849 6.32162 20.7067 6.32162 20.4167C6.32162 20.1266 6.43685 19.8484 6.64197 19.6433C6.84709 19.4382 7.12528 19.3229 7.41537 19.3229ZM7.41537 23.6979H14.707C14.9971 23.6979 15.2753 23.8132 15.4804 24.0183C15.6855 24.2234 15.8008 24.5016 15.8008 24.7917C15.8008 25.0817 15.6855 25.3599 15.4804 25.5651C15.2753 25.7702 14.9971 25.8854 14.707 25.8854H7.41537C7.12528 25.8854 6.84709 25.7702 6.64197 25.5651C6.43685 25.3599 6.32162 25.0817 6.32162 24.7917C6.32162 24.5016 6.43685 24.2234 6.64197 24.0183C6.84709 23.8132 7.12528 23.6979 7.41537 23.6979Z" fill="#FE7209"/>
<path d="M40.5924 4.3737C40.5914 3.3104 40.1685 2.29096 39.4166 1.5391C38.6648 0.787235 37.6453 0.364362 36.582 0.363281H4.4987C3.4354 0.364362 2.41596 0.787235 1.6641 1.5391C0.912235 2.29096 0.489362 3.3104 0.488281 4.3737V7.65495H40.5924V4.3737Z" fill="#FE7209"/>
<path d="M40.2323 17.4752C38.8197 16.2013 37.0678 15.3646 35.1891 15.0667C33.3104 14.7687 31.3857 15.0223 29.6482 15.7966C27.9108 16.5709 26.4354 17.8327 25.4009 19.429C24.3665 21.0253 23.8174 22.8875 23.8203 24.7896C23.8501 27.3911 24.8968 29.8776 26.7365 31.7172C28.5761 33.5569 31.0626 34.6036 33.6641 34.6334C35.6561 34.6358 37.6018 34.0331 39.2436 32.9051C40.8854 31.777 42.1459 30.1769 42.858 28.3166C43.5701 26.4562 43.7004 24.4235 43.2315 22.4875C42.7626 20.5515 41.7167 18.8035 40.2323 17.4752ZM37.5307 27.1095C37.7355 27.3146 37.8506 27.5926 37.8506 27.8825C37.8506 28.1723 37.7355 28.4503 37.5307 28.6554C37.3218 28.8532 37.045 28.9635 36.7573 28.9635C36.4696 28.9635 36.1929 28.8532 35.984 28.6554L33.6641 26.3362L31.3442 28.6562C31.1365 28.8564 30.8593 28.9683 30.5708 28.9683C30.2823 28.9683 30.0051 28.8564 29.7974 28.6562C29.5924 28.4511 29.4771 28.1729 29.4771 27.8829C29.4771 27.5928 29.5924 27.3147 29.7974 27.1095L32.1182 24.7896L29.7982 22.4697C29.5967 22.2639 29.4845 21.9868 29.486 21.6988C29.4876 21.4107 29.6027 21.1349 29.8064 20.9312C30.0101 20.7275 30.2859 20.6124 30.5739 20.6109C30.862 20.6093 31.139 20.7215 31.3449 20.923L33.6641 23.2438L35.984 20.9237C36.1898 20.7222 36.4669 20.61 36.7549 20.6116C37.043 20.6131 37.3188 20.7282 37.5225 20.9319C37.7262 21.1356 37.8413 21.4114 37.8428 21.6995C37.8444 21.9875 37.7322 22.2646 37.5307 22.4704L35.2106 24.7896L37.5307 27.1095Z" fill="#FE7209"/>
</svg>
