<svg width="114" height="40" viewBox="0 0 114 40" fill="none" xmlns="http://www.w3.org/2000/svg">
<path d="M43.9848 8.19177C44.628 8.19177 45.2038 8.3445 45.7112 8.65032C46.2248 8.94995 46.6268 9.36959 46.9177 9.90995C47.2086 10.4434 47.354 11.0489 47.354 11.7256C47.354 12.4023 47.2086 13.011 46.9177 13.551C46.6361 14.075 46.2188 14.5105 45.7112 14.8103C45.2038 15.1096 44.628 15.2594 43.9848 15.2594C43.4091 15.2594 42.8894 15.1554 42.4252 14.947C41.9745 14.7444 41.5794 14.4327 41.2742 14.039L42.2305 13.102C42.6883 13.6423 43.2482 13.9121 43.9104 13.9121C44.3868 13.9121 44.7892 13.766 45.1169 13.4729C45.4511 13.1801 45.6676 12.7863 45.767 12.2918H43.1307V11.0812H45.7484C45.643 10.6129 45.4264 10.2383 45.0983 9.95868C44.7706 9.67868 44.3743 9.53904 43.9104 9.53904C43.2482 9.53904 42.6883 9.80886 42.2305 10.3492L41.2742 9.41177C41.5794 9.01827 41.9746 8.70668 42.4252 8.50413C42.8894 8.29577 43.4091 8.19141 43.9848 8.19141V8.19177ZM53.0465 9.89032V15.142H51.5985V11.1398H50.0207L49.9742 12.067C49.9492 12.7572 49.8874 13.33 49.7884 13.7852C49.6894 14.2409 49.5286 14.599 49.306 14.859C49.083 15.1194 48.7735 15.2496 48.3775 15.2496C48.1674 15.2496 47.9165 15.2107 47.6256 15.1325L47.7 13.883C47.799 13.8961 47.8701 13.9023 47.9137 13.9023C48.1302 13.9023 48.291 13.8212 48.3961 13.6587C48.5076 13.4892 48.5819 13.2776 48.6191 13.0238C48.6559 12.7638 48.6838 12.422 48.7024 11.999L48.7767 9.88995H53.0465V9.89032ZM59.2937 12.5358C59.2937 12.5554 59.2844 12.6921 59.2658 12.946H55.4877C55.556 13.2714 55.7168 13.5285 55.9705 13.7169C56.2242 13.906 56.5398 14.0005 56.9172 14.0005C57.1773 14.0005 57.406 13.9612 57.604 13.883C57.8084 13.7983 57.9971 13.6685 58.1705 13.4925L58.9409 14.371C58.4706 14.9372 57.7838 15.2205 56.88 15.2205C56.3172 15.2205 55.819 15.1067 55.3859 14.8787C54.9527 14.6445 54.6186 14.3223 54.3834 13.9125C54.1483 13.5023 54.0307 13.0369 54.0307 12.5161C54.0307 12.0023 54.1451 11.5401 54.3741 11.1303C54.5987 10.7243 54.9297 10.3897 55.3301 10.1638C55.7386 9.92922 56.1931 9.81213 56.6945 9.81213C57.1834 9.81213 57.6258 9.92304 58.0218 10.1441C58.4177 10.3652 58.7272 10.6841 58.9502 11.1005C59.1789 11.5107 59.2937 11.9892 59.2937 12.5358ZM56.7038 10.9641C56.3758 10.9641 56.1006 11.062 55.8776 11.2569C55.6549 11.4521 55.5188 11.719 55.4691 12.0576H57.9289C57.8796 11.7256 57.7434 11.462 57.5208 11.2667C57.2978 11.0649 57.0254 10.9641 56.7038 10.9641ZM62.6032 13.1507H61.8517V15.1423H60.4036V9.89032H61.8517V11.9303H62.6311L63.9862 9.89032H65.5272L63.7822 12.4089L65.6476 15.1423H63.9398L62.6032 13.1507ZM70.5089 11.1398H68.8196V15.1423H67.3809V11.1398H65.6916V9.89032H70.5089V11.1398ZM74.223 9.81213C74.6872 9.81213 75.1082 9.92632 75.4856 10.154C75.869 10.375 76.1692 10.6907 76.3858 11.1009C76.6024 11.5045 76.7106 11.9761 76.7106 12.5165C76.7106 13.0565 76.6024 13.5318 76.3858 13.942C76.1777 14.3363 75.8661 14.664 75.4856 14.8885C75.1082 15.11 74.6872 15.2205 74.223 15.2205C73.5858 15.2205 73.0844 15.0089 72.7196 14.586V17.0361H71.2715V9.89032H72.6545V10.4958C73.0133 10.0401 73.5362 9.81213 74.223 9.81213ZM73.9725 13.971C74.3438 13.971 74.6472 13.8409 74.8824 13.5805C75.1236 13.3136 75.2444 12.9587 75.2444 12.5165C75.2444 12.074 75.1236 11.7223 74.8824 11.462C74.6472 11.195 74.3438 11.062 73.9725 11.062C73.6012 11.062 73.2949 11.195 73.0537 11.462C72.8186 11.7223 72.701 12.074 72.701 12.5165C72.701 12.959 72.8186 13.3136 73.0537 13.5805C73.2949 13.8409 73.6012 13.971 73.9725 13.971ZM80.0645 15.2205C79.5388 15.2205 79.0653 15.1067 78.6447 14.8787C78.239 14.6535 77.9018 14.3193 77.6698 13.9125C77.4347 13.5023 77.3171 13.0369 77.3171 12.5161C77.3171 11.9958 77.4347 11.5307 77.6698 11.1205C77.9003 10.715 78.2381 10.3835 78.6447 10.1638C79.0653 9.92922 79.5388 9.81213 80.0645 9.81213C80.5906 9.81213 81.0609 9.92922 81.4754 10.1638C81.882 10.3834 82.2198 10.7148 82.4503 11.1201C82.6855 11.5303 82.803 11.9958 82.803 12.5165C82.803 13.0369 82.6855 13.5023 82.4503 13.9125C82.2183 14.3193 81.8811 14.6535 81.4754 14.8787C81.0609 15.1067 80.5906 15.2205 80.0645 15.2205ZM80.0645 13.971C80.4358 13.971 80.7392 13.8409 80.9744 13.5805C81.2156 13.3136 81.3364 12.9587 81.3364 12.5165C81.3364 12.074 81.2156 11.7223 80.9744 11.462C80.7392 11.195 80.4358 11.062 80.0645 11.062C79.6936 11.062 79.387 11.195 79.1457 11.462C78.9045 11.7223 78.7837 12.074 78.7837 12.5165C78.7837 12.959 78.9045 13.3136 79.1457 13.5805C79.387 13.8409 79.6936 13.971 80.0645 13.971ZM83.799 9.89032H85.2378V11.9405H87.4098V9.89032H88.8579V15.142H87.4098V13.1798H85.2378V15.142H83.799V9.89032ZM90.2441 9.89032H91.6829V11.9405H93.8546V9.89032H95.3026V15.142H93.8546V13.1798H91.6829V15.142H90.2441V9.89032ZM99.0278 15.2205C98.5018 15.2205 98.0283 15.1067 97.6077 14.8787C97.2021 14.6534 96.865 14.3192 96.6331 13.9125C96.398 13.5023 96.2804 13.0369 96.2804 12.5161C96.2804 11.9958 96.398 11.5307 96.6331 11.1205C96.8636 10.7151 97.2012 10.3836 97.6077 10.1638C98.0283 9.92922 98.5018 9.81213 99.0278 9.81213C99.5539 9.81213 100.024 9.92922 100.439 10.1638C100.845 10.3835 101.183 10.7148 101.413 11.1201C101.648 11.5303 101.766 11.9958 101.766 12.5165C101.766 13.0369 101.648 13.5023 101.413 13.9125C101.181 14.3192 100.844 14.6534 100.439 14.8787C100.024 15.1067 99.5539 15.2205 99.0278 15.2205ZM99.0278 13.971C99.3991 13.971 99.7022 13.8409 99.9373 13.5805C100.179 13.3136 100.299 12.9587 100.299 12.5165C100.299 12.074 100.179 11.7223 99.9373 11.462C99.7022 11.195 99.3991 11.062 99.0278 11.062C98.6565 11.062 98.3503 11.195 98.109 11.462C97.8675 11.7223 97.747 12.074 97.747 12.5165C97.747 12.959 97.8675 13.3136 98.109 13.5805C98.3503 13.8409 98.6565 13.971 99.0278 13.971ZM107.616 12.5358C107.616 12.5554 107.607 12.6921 107.589 12.946H103.811C103.879 13.2714 104.04 13.5285 104.293 13.7169C104.547 13.906 104.863 14.0005 105.24 14.0005C105.5 14.0005 105.729 13.9612 105.927 13.883C106.14 13.7927 106.332 13.6599 106.493 13.4925L107.264 14.371C106.793 14.9372 106.107 15.2205 105.203 15.2205C104.64 15.2205 104.142 15.1067 103.709 14.8787C103.276 14.6445 102.941 14.3223 102.706 13.9125C102.471 13.5023 102.354 13.0369 102.354 12.5161C102.354 12.0023 102.468 11.5401 102.697 11.1303C102.922 10.7244 103.253 10.3898 103.653 10.1638C104.061 9.92922 104.516 9.81213 105.017 9.81213C105.506 9.81213 105.949 9.92304 106.345 10.1441C106.741 10.3652 107.05 10.6841 107.273 11.1005C107.502 11.5107 107.616 11.9892 107.616 12.5358ZM105.027 10.9641C104.699 10.9641 104.423 11.062 104.201 11.2569C103.978 11.4521 103.842 11.719 103.792 12.0576H106.252C106.202 11.7256 106.066 11.462 105.844 11.2667C105.621 11.0649 105.349 10.9641 105.027 10.9641ZM50.2273 19.6525V24.9045H48.7792V20.902H46.7001V24.9045H45.2613V19.6525H50.2273ZM54.5578 19.5747C55.0221 19.5747 55.4427 19.6881 55.8204 19.9161C56.2039 20.1372 56.5041 20.4529 56.7206 20.863C56.9372 21.2667 57.0455 21.7383 57.0455 22.2783C57.0455 22.8187 56.9372 23.2936 56.7206 23.7038C56.5126 24.0982 56.2009 24.4261 55.8204 24.6507C55.4427 24.8718 55.0221 24.9827 54.5578 24.9827C53.9206 24.9827 53.4193 24.771 53.0544 24.3481V26.7983H51.6063V19.6525H52.9893V20.2576C53.3481 19.8023 53.871 19.5743 54.5578 19.5743V19.5747ZM54.3073 23.7332C54.6786 23.7332 54.982 23.6027 55.2172 23.3427C55.4584 23.0758 55.5788 22.7209 55.5788 22.2783C55.5788 21.8358 55.4584 21.4845 55.2172 21.2241C54.982 20.9572 54.6786 20.8241 54.3073 20.8241C53.936 20.8241 53.6298 20.9572 53.3885 21.2241C53.1534 21.4845 53.0358 21.8358 53.0358 22.2787C53.0358 22.7209 53.1534 23.0758 53.3885 23.3427C53.6298 23.603 53.936 23.7332 54.3073 23.7332ZM59.9187 19.5747C60.6924 19.5747 61.2863 19.7696 61.7009 20.1601C62.1158 20.5441 62.3231 21.1267 62.3231 21.9074V24.9045H60.9676V24.2503C60.6952 24.7387 60.1878 24.9827 59.4455 24.9827C59.0617 24.9827 58.7276 24.9143 58.4428 24.7776C58.1644 24.6409 57.951 24.4521 57.8024 24.2114C57.6541 23.9707 57.5797 23.6972 57.5797 23.3914C57.5797 22.9034 57.753 22.5194 58.0993 22.2394C58.4521 21.9594 58.9938 21.8198 59.7239 21.8198H60.8746C60.8746 21.4878 60.7789 21.234 60.587 21.0583C60.3954 20.8761 60.1074 20.7849 59.7239 20.7849C59.4577 20.7849 59.1947 20.8303 58.9349 20.9216C58.6811 21.0063 58.4646 21.1234 58.2852 21.2729L57.7652 20.2089C58.0375 20.007 58.3624 19.851 58.7401 19.7405C59.1235 19.6298 59.5202 19.5739 59.9187 19.5743V19.5747ZM59.8075 23.9576C60.0548 23.9576 60.2746 23.899 60.4665 23.782C60.6581 23.6583 60.7942 23.479 60.8746 23.2449V22.7081H59.8815C59.2876 22.7081 58.9906 22.9129 58.9906 23.3227C58.9906 23.5183 59.0617 23.6743 59.204 23.7918C59.3526 23.9023 59.5538 23.9576 59.8075 23.9576ZM67.3955 22.1612C67.9834 22.3696 68.2771 22.7859 68.2771 23.4107C68.2771 23.886 68.107 24.2536 67.7668 24.514C67.4263 24.7743 66.9188 24.9045 66.2444 24.9045H63.5806V19.6525H66.1329C66.758 19.6525 67.2469 19.7725 67.5996 20.0136C67.9523 20.2478 68.1288 20.5798 68.1288 21.0092C68.1288 21.2696 68.0638 21.5009 67.9337 21.7023C67.8101 21.8976 67.6307 22.0507 67.3955 22.1612ZM64.9079 21.81H66.0032C66.5107 21.81 66.7641 21.6209 66.7641 21.2438C66.7641 20.8729 66.5107 20.6874 66.0032 20.6874H64.9079V21.81ZM66.1237 23.8696C66.6558 23.8696 66.922 23.6776 66.922 23.2936C66.922 23.0918 66.8602 22.9456 66.7365 22.8543C66.6125 22.7569 66.4178 22.7081 66.1515 22.7081H64.9079V23.8696H66.1237ZM71.6939 24.9827C71.1679 24.9827 70.6947 24.8685 70.2738 24.6409C69.8681 24.4154 69.5311 24.0811 69.2992 23.6743C69.0641 23.2645 68.9465 22.799 68.9465 22.2783C68.9465 21.758 69.0641 21.2925 69.2992 20.8823C69.5297 20.477 69.8674 20.1457 70.2738 19.926C70.6947 19.6914 71.1679 19.5743 71.6939 19.5743C72.22 19.5743 72.6903 19.6914 73.1048 19.926C73.5112 20.1457 73.8489 20.477 74.0793 20.8823C74.3145 21.2925 74.4321 21.7579 74.4321 22.2787C74.4321 22.799 74.3145 23.2641 74.0793 23.6743C73.8475 24.0811 73.5104 24.4154 73.1048 24.6409C72.6903 24.8685 72.22 24.9827 71.6939 24.9827ZM71.6939 23.7332C72.0652 23.7332 72.3686 23.6027 72.6038 23.3427C72.845 23.0758 72.9658 22.7209 72.9658 22.2783C72.9658 21.8358 72.845 21.4845 72.6038 21.2241C72.3686 20.9572 72.0652 20.8241 71.6939 20.8241C71.3226 20.8241 71.0164 20.9572 70.7751 21.2241C70.5336 21.4845 70.4131 21.8358 70.4131 22.2787C70.4131 22.7209 70.5336 23.0758 70.7751 23.3427C71.0164 23.603 71.3226 23.7332 71.6939 23.7332ZM77.8042 24.9827C77.2721 24.9827 76.7925 24.8685 76.3654 24.6409C75.9545 24.4161 75.6112 24.082 75.3723 23.6743C75.1372 23.2645 75.0196 22.799 75.0196 22.2783C75.0196 21.758 75.1372 21.2925 75.3723 20.8823C75.6099 20.4761 75.9537 20.145 76.3654 19.926C76.7925 19.6914 77.2721 19.5743 77.8042 19.5743C78.3302 19.5743 78.788 19.6914 79.1779 19.926C79.567 20.1457 79.8714 20.4933 80.0413 20.9118L78.9181 21.5463C78.6583 21.0649 78.2838 20.8238 77.7949 20.8238C77.4175 20.8238 77.1048 20.954 76.8575 21.2143C76.6099 21.4747 76.4862 21.8296 76.4862 22.2783C76.4862 22.7274 76.6099 23.082 76.8575 23.3427C77.1048 23.603 77.4175 23.7332 77.7949 23.7332C78.2898 23.7332 78.6644 23.4921 78.9181 23.0107L80.0413 23.655C79.8619 24.0714 79.5739 24.3969 79.1779 24.631C78.788 24.8656 78.3302 24.9827 77.8042 24.9827ZM85.8517 19.6525L83.596 25.2267C83.3673 25.8318 83.0825 26.2579 82.7423 26.5052C82.4081 26.7525 82.0029 26.8761 81.5262 26.8761C81.2645 26.8759 81.0045 26.8332 80.756 26.7496C80.5023 26.6649 80.295 26.5478 80.1339 26.398L80.6631 25.3143C80.7743 25.4187 80.9011 25.4998 81.0437 25.5583C81.1824 25.615 81.3303 25.6448 81.4797 25.6463C81.678 25.6463 81.8389 25.5943 81.9625 25.49C82.0862 25.3925 82.1977 25.2267 82.2966 24.9921L82.3152 24.9434L80.1524 19.6525H81.647L83.0485 23.2158L84.4594 19.6521H85.8517V19.6525ZM91.7933 23.6547V26.0365H90.4475V24.9045H86.9388V26.0365H85.593V23.6547H85.797C86.1065 23.6481 86.3202 23.4561 86.4378 23.0787C86.5554 22.7012 86.6294 22.1641 86.6604 21.4678L86.7255 19.6521H91.0786V23.6547H91.7933ZM87.9691 21.5754C87.9505 22.1092 87.9105 22.5452 87.8487 22.8838C87.7929 23.222 87.6847 23.479 87.5235 23.6547H89.6305V20.902H87.997L87.9691 21.5754ZM92.7049 19.6525H94.1437V22.7761L96.5756 19.6525H97.9028V24.9045H96.4644V21.7809L94.0419 24.9045H92.7049V19.6525ZM104.149 22.2983C104.149 22.3176 104.14 22.4543 104.121 22.7081H100.344C100.412 23.0336 100.572 23.2903 100.826 23.479C101.08 23.6681 101.395 23.7623 101.773 23.7623C102.033 23.7623 102.262 23.7234 102.46 23.6452C102.672 23.5549 102.865 23.4221 103.026 23.2547L103.797 24.1332C103.326 24.6994 102.639 24.9827 101.736 24.9827C101.173 24.9827 100.675 24.8685 100.241 24.6409C99.8083 24.4067 99.4742 24.0845 99.239 23.6743C99.0039 23.2645 98.8863 22.799 98.8863 22.2783C98.8863 21.7645 99.0007 21.3023 99.2298 20.8921C99.4544 20.4862 99.7853 20.1518 100.186 19.926C100.594 19.6914 101.049 19.5743 101.55 19.5743C102.039 19.5743 102.481 19.6849 102.877 19.9063C103.274 20.1274 103.583 20.4463 103.806 20.8627C104.035 21.2729 104.149 21.7514 104.149 22.298V22.2983ZM101.559 20.7263C101.231 20.7263 100.956 20.8238 100.733 21.019C100.511 21.2143 100.374 21.4812 100.325 21.8198H102.785C102.735 21.4878 102.599 21.2241 102.376 21.0289C102.153 20.827 101.881 20.7263 101.559 20.7263ZM37.3728 31.2969C37.5482 31.3409 37.6808 31.4205 37.7698 31.535C37.8613 31.6467 37.9074 31.7914 37.9074 31.9685C37.9074 32.2052 37.8245 32.3889 37.6583 32.519C37.495 32.6492 37.2563 32.7143 36.9418 32.7143H35.7539V29.9809H36.8714C37.1559 29.9809 37.3774 30.0419 37.5361 30.1641C37.6969 30.2841 37.7773 30.4572 37.7773 30.6838C37.7773 30.8321 37.7416 30.9583 37.6697 31.0623C37.5967 31.1696 37.493 31.2514 37.3728 31.2969ZM36.1213 31.1834H36.8453C37.0261 31.1834 37.1634 31.1456 37.2573 31.0703C37.3542 30.9947 37.4024 30.8841 37.4024 30.7383C37.4024 30.5929 37.3542 30.4819 37.2573 30.4063C37.1609 30.3281 37.0236 30.2892 36.8453 30.2892H36.1213V31.1838V31.1834ZM36.9346 32.4056C37.3331 32.4056 37.5322 32.2492 37.5322 31.9372C37.5322 31.7809 37.4814 31.6663 37.3799 31.5936C37.2809 31.518 37.1326 31.4801 36.9346 31.4801H36.1213V32.4056H36.9346ZM40.2467 31.691C40.2467 31.7201 40.2442 31.7576 40.2392 31.8045H38.6429C38.665 31.9867 38.7404 32.134 38.8691 32.2456C39.0006 32.355 39.1625 32.4096 39.3554 32.4096C39.5906 32.4096 39.78 32.3263 39.9237 32.1598L40.1206 32.402C40.0312 32.511 39.9201 32.5947 39.7864 32.6518C39.6464 32.7107 39.4959 32.74 39.3444 32.7376C39.1367 32.7376 38.9523 32.6936 38.7912 32.6049C38.6336 32.5172 38.5036 32.386 38.4163 32.2263C38.328 32.0582 38.2833 31.87 38.2862 31.6794C38.2862 31.479 38.3284 31.298 38.4127 31.1369C38.4938 30.9811 38.6158 30.8514 38.7651 30.762C38.9162 30.671 39.086 30.6252 39.274 30.6252C39.4619 30.6252 39.6292 30.6707 39.775 30.762C39.9237 30.8503 40.0387 30.9754 40.1206 31.1365C40.2046 31.298 40.2467 31.483 40.2467 31.691ZM39.274 30.9416C39.1031 30.9416 38.9595 30.9961 38.8433 31.1052C38.7293 31.2147 38.6625 31.358 38.6429 31.535H39.9051C39.8854 31.3605 39.8172 31.2187 39.701 31.1096C39.587 30.9976 39.4448 30.9416 39.274 30.9416ZM41.8431 30.6252C42.0223 30.6223 42.1991 30.6681 42.3552 30.7579C42.5064 30.8463 42.6239 30.9699 42.7079 31.1289C42.7947 31.2878 42.838 31.4714 42.838 31.6794C42.838 31.8878 42.7947 32.0725 42.7079 32.2339C42.6273 32.3892 42.505 32.5178 42.3552 32.6049C42.1992 32.6948 42.0224 32.7407 41.8431 32.7376C41.7019 32.7376 41.5718 32.7092 41.4532 32.6518C41.336 32.5939 41.2341 32.5082 41.1562 32.402V33.4718H40.7996V30.6449H41.1412V30.9729C41.2205 30.8583 41.3206 30.7721 41.4421 30.7147C41.5673 30.654 41.7045 30.6234 41.8431 30.6252ZM41.8131 32.4096C41.9396 32.4096 42.0521 32.3798 42.1511 32.3198C42.2526 32.2572 42.332 32.1714 42.3888 32.0623C42.4481 31.9503 42.4778 31.8227 42.4778 31.6794C42.4778 31.5365 42.4481 31.4103 42.3888 31.3009C42.336 31.1931 42.2534 31.1033 42.1511 31.0427C42.0486 30.9819 41.9317 30.951 41.8131 30.9532C41.6951 30.9523 41.5792 30.9842 41.4778 31.0455C41.3764 31.1067 41.2933 31.195 41.2377 31.3009C41.1809 31.41 41.1523 31.5365 41.1523 31.6794C41.1523 31.8227 41.1809 31.9503 41.2377 32.0623C41.2945 32.1714 41.3739 32.2572 41.4753 32.3198C41.5768 32.3798 41.6894 32.4096 41.8131 32.4096ZM44.5194 32.7143L43.9515 31.9216L43.3758 32.7143H42.9788L43.7546 31.6561L43.016 30.6445H43.413L43.9551 31.3903L44.4937 30.6449H44.8836L44.1409 31.6558L44.9243 32.7139H44.5194V32.7143ZM46.0768 32.7376C45.8923 32.7404 45.7103 32.6932 45.5497 32.6009C45.396 32.5122 45.269 32.3827 45.182 32.2263C45.0938 32.0582 45.0492 31.87 45.0522 31.6794C45.0522 31.4765 45.0955 31.2954 45.182 31.1369C45.2674 30.9792 45.3949 30.8492 45.5497 30.762C45.7055 30.671 45.8813 30.6252 46.0768 30.6252C46.2723 30.6252 46.4467 30.6707 46.6003 30.762C46.7545 30.8486 46.8808 30.9786 46.9641 31.1365C47.0531 31.2954 47.0978 31.4765 47.0978 31.6794C47.1008 31.8704 47.0547 32.0589 46.9641 32.2263C46.8777 32.3849 46.7562 32.51 46.6003 32.6009C46.4411 32.6936 46.2602 32.7408 46.0768 32.7376ZM46.0768 32.4096C46.203 32.4096 46.3155 32.3798 46.4145 32.3198C46.516 32.2572 46.5953 32.1714 46.6522 32.0623C46.7108 31.9436 46.7401 31.8122 46.7376 31.6794C46.7376 31.5365 46.7093 31.4103 46.6522 31.3009C46.5994 31.1931 46.5168 31.1033 46.4145 31.0427C46.3121 30.982 46.1953 30.9511 46.0768 30.9532C45.9507 30.9532 45.8367 30.983 45.7352 31.043C45.6362 31.103 45.5568 31.1885 45.4975 31.3009C45.4407 31.41 45.4121 31.5365 45.4121 31.6794C45.4121 31.8227 45.4407 31.9503 45.4975 32.0623C45.5568 32.1714 45.6362 32.2572 45.7352 32.3198C45.8367 32.3798 45.9507 32.4096 46.0768 32.4096ZM48.9529 31.6401C49.2081 31.7081 49.3353 31.8758 49.3353 32.1441C49.3353 32.3263 49.2699 32.467 49.1387 32.566C49.0097 32.6649 48.8167 32.7143 48.5594 32.7143H47.6128V30.6445H48.5258C48.7585 30.6445 48.9407 30.6918 49.0719 30.7852C49.2031 30.8761 49.2684 31.0063 49.2684 31.1758C49.2684 31.2849 49.2402 31.3801 49.183 31.4609C49.1248 31.542 49.0449 31.6043 48.9529 31.6405V31.6401ZM47.9616 31.5347H48.4962C48.6323 31.5347 48.7353 31.5092 48.8046 31.4569C48.8761 31.4049 48.9122 31.3296 48.9122 31.2303C48.9122 31.0325 48.7735 30.9336 48.4962 30.9336H47.9616V31.535V31.5347ZM48.5333 32.4252C48.682 32.4252 48.7931 32.4005 48.8675 32.351C48.9418 32.3016 48.979 32.2249 48.979 32.1205C48.979 32.014 48.9443 31.9347 48.875 31.8823C48.8082 31.8303 48.7017 31.8045 48.5555 31.8045H47.9616V32.4252H48.5333ZM49.8931 30.6445H50.2498V31.523H51.3708V30.6445H51.7275V32.7143H51.3708V31.8474H50.2498V32.7143H49.8931V30.6445ZM53.3078 31.3474C53.5554 31.35 53.7445 31.4099 53.876 31.527C54.0071 31.6441 54.0725 31.8096 54.0725 32.023C54.0725 32.247 54.0007 32.4201 53.8574 32.5423C53.7162 32.6623 53.5133 32.7205 53.2484 32.7179L52.4204 32.7143V30.6445H52.7767V31.3434L53.3078 31.3474ZM54.3659 30.6445H54.7222V32.7143H54.3659V30.6445ZM53.2224 32.4329C53.3832 32.4358 53.5047 32.402 53.5862 32.3314C53.6705 32.2612 53.7123 32.1569 53.7123 32.019C53.7123 31.8838 53.6716 31.7849 53.5901 31.7223C53.5082 31.6598 53.3857 31.6274 53.2224 31.6249L52.7767 31.6169V32.4292L53.2224 32.4329ZM55.4152 30.6445H55.7718V32.1518L56.9783 30.6445H57.3013V32.7143H56.945V31.207L55.7418 32.7143H55.4152V30.6445ZM56.3361 30.3754C56.1528 30.3754 56.0105 30.3296 55.909 30.2387C55.8075 30.1449 55.7557 30.0107 55.7532 29.8365H55.9944C55.9939 29.8798 56.0019 29.9229 56.0178 29.9631C56.0338 30.0033 56.0574 30.0399 56.0874 30.0707C56.1492 30.1278 56.2307 30.1565 56.3322 30.1565C56.4337 30.1565 56.5155 30.1278 56.5773 30.0707C56.6082 30.0404 56.6327 30.004 56.6493 29.9637C56.6659 29.9234 56.6742 29.8802 56.6738 29.8365H56.9225C56.92 30.011 56.8668 30.1449 56.7631 30.2387C56.6591 30.3296 56.5166 30.375 56.3361 30.375V30.3754ZM59.8479 32.7376C59.6599 32.7407 59.4743 32.6936 59.3097 32.6009C59.1561 32.5122 59.029 32.3827 58.942 32.2263C58.8515 32.0589 58.8054 31.8704 58.8084 31.6794C58.8084 31.4765 58.853 31.2954 58.942 31.1369C59.0274 30.9792 59.1549 30.8492 59.3097 30.762C59.4681 30.671 59.6474 30.6252 59.8479 30.6252C60.0263 30.6252 60.1846 30.663 60.3232 30.7383C60.4644 30.8139 60.5734 30.9234 60.6499 31.0663L60.379 31.2499C60.3228 31.1565 60.2434 31.0798 60.1488 31.0274C60.055 30.9774 59.9503 30.9519 59.8444 30.9532C59.7157 30.9532 59.5992 30.983 59.4952 31.043C59.3937 31.103 59.3133 31.1885 59.254 31.3009C59.1972 31.41 59.1686 31.5365 59.1686 31.6794C59.1686 31.8252 59.1972 31.9543 59.254 32.066C59.3133 32.1754 59.3937 32.2601 59.4952 32.3198C59.5992 32.3798 59.7157 32.4096 59.8444 32.4096C59.9559 32.4096 60.0573 32.3849 60.1488 32.3354C60.2403 32.2859 60.3172 32.2118 60.379 32.1129L60.6499 32.2925C60.5755 32.4335 60.4619 32.549 60.3232 32.6245C60.1765 32.7019 60.0132 32.7408 59.8479 32.7376ZM62.8423 30.6445L61.8878 32.9209C61.8038 33.1318 61.7048 33.2805 61.5908 33.3663C61.4797 33.4521 61.3446 33.495 61.1863 33.495C61.0899 33.4952 60.9944 33.4779 60.904 33.4441C60.8198 33.416 60.7435 33.3679 60.6813 33.3038L60.8335 33.0227C60.935 33.1245 61.0526 33.175 61.1863 33.175C61.2646 33.1779 61.3412 33.1515 61.4018 33.1009C61.4611 33.0536 61.5143 32.9718 61.5612 32.8547L61.6244 32.7103L60.7556 30.6449H61.1269L61.8138 32.3001L62.4932 30.6445H62.8423ZM65.1034 32.3863V33.1943H64.7692V32.7143H63.1243V33.1943H62.7866V32.3863H62.8906C63.0167 32.3783 63.1032 32.2845 63.1504 32.1052C63.1972 31.9252 63.2297 31.6718 63.2468 31.3438L63.2765 30.6445H64.8025V32.3863H65.1034ZM63.5735 31.371C63.5638 31.6314 63.5428 31.8474 63.5106 32.019C63.4809 32.1885 63.4252 32.3107 63.3433 32.3863H64.4462V30.9725H63.5921L63.5735 31.371ZM67.6378 29.9809C67.9745 29.9809 68.2393 30.0652 68.4322 30.2347C68.6256 30.4038 68.7221 30.6369 68.7221 30.9336C68.7221 31.2303 68.6256 31.4634 68.4322 31.6325C68.2393 31.8016 67.9745 31.8863 67.6378 31.8863H66.9956V32.7143H66.6243V29.9809H67.6378ZM67.6267 31.5467C67.8619 31.5467 68.0413 31.4947 68.1649 31.3903C68.2889 31.2838 68.3508 31.1314 68.3508 30.9336C68.3508 30.7358 68.2889 30.5845 68.1649 30.4805C68.0413 30.3739 67.8619 30.3205 67.6267 30.3205H66.9956V31.5467H67.6267ZM70.0147 32.7376C69.8301 32.7404 69.6482 32.6932 69.4875 32.6009C69.3339 32.5122 69.2068 32.3827 69.1198 32.2263C69.0317 32.0582 68.987 31.87 68.9901 31.6794C68.9901 31.4765 69.0333 31.2954 69.1198 31.1369C69.2053 30.9792 69.3327 30.8492 69.4875 30.762C69.6434 30.671 69.8192 30.6252 70.0147 30.6252C70.2101 30.6252 70.3849 30.6707 70.5382 30.762C70.6924 30.8486 70.8187 30.9786 70.902 31.1365C70.9913 31.2954 71.0357 31.4765 71.0357 31.6794C71.0388 31.8705 70.9927 32.059 70.902 32.2263C70.8155 32.3849 70.694 32.51 70.5382 32.6009C70.379 32.6936 70.1981 32.7409 70.0147 32.7376ZM70.0147 32.4096C70.1408 32.4096 70.2537 32.3798 70.3527 32.3198C70.4536 32.2577 70.5358 32.1687 70.5904 32.0623C70.6487 31.9435 70.6779 31.8122 70.6754 31.6794C70.6754 31.5365 70.6472 31.4103 70.5904 31.3009C70.5375 31.1932 70.4549 31.1034 70.3527 31.0427C70.2502 30.982 70.1333 30.9511 70.0147 30.9532C69.8885 30.9532 69.7745 30.983 69.673 31.043C69.5721 31.1052 69.4898 31.1944 69.4354 31.3009C69.3785 31.41 69.35 31.5365 69.35 31.6794C69.35 31.8227 69.3785 31.9503 69.4354 32.0623C69.495 32.1714 69.574 32.2572 69.673 32.3198C69.7745 32.3798 69.8885 32.4096 70.0147 32.4096ZM72.4076 32.7376C72.2194 32.7407 72.0337 32.6936 71.869 32.6009C71.7155 32.5122 71.5885 32.3827 71.5017 32.2263C71.411 32.059 71.3649 31.8705 71.368 31.6794C71.368 31.4765 71.4123 31.2954 71.5017 31.1369C71.587 30.9792 71.7143 30.8493 71.869 30.762C72.0337 30.6692 72.2194 30.6221 72.4076 30.6252C72.5856 30.6252 72.7442 30.663 72.8825 30.7383C73.0237 30.8139 73.1327 30.9234 73.2095 31.0663L72.9383 31.2499C72.8821 31.1565 72.8027 31.0798 72.7081 31.0274C72.6143 30.9774 72.5096 30.9519 72.4037 30.9532C72.275 30.9532 72.1585 30.983 72.0549 31.043C71.9534 31.103 71.8726 31.1885 71.8133 31.3009C71.7565 31.41 71.7279 31.5365 71.7279 31.6794C71.7279 31.8252 71.7565 31.9543 71.8133 32.066C71.8726 32.1754 71.9534 32.2601 72.0549 32.3198C72.1585 32.3798 72.275 32.4096 72.4037 32.4096C72.5152 32.4096 72.6166 32.3849 72.7081 32.3354C72.7996 32.2859 72.8765 32.2118 72.9383 32.1129L73.2095 32.2925C73.1327 32.4358 73.0237 32.5463 72.8825 32.6245C72.736 32.7019 72.5727 32.7408 72.4076 32.7376ZM74.4996 32.7376C74.3116 32.7407 74.126 32.6936 73.9614 32.6009C73.8079 32.5121 73.6808 32.3827 73.5937 32.2263C73.5031 32.0589 73.4571 31.8704 73.46 31.6794C73.46 31.4765 73.5047 31.2954 73.5937 31.1369C73.683 30.9754 73.8056 30.8503 73.9614 30.762C74.1197 30.671 74.2991 30.6252 74.4996 30.6252C74.6779 30.6252 74.8363 30.663 74.9749 30.7383C75.1161 30.8139 75.2251 30.9234 75.3019 31.0663L75.0307 31.2499C74.9745 31.1565 74.8951 31.0798 74.8005 31.0274C74.7066 30.9774 74.602 30.9519 74.496 30.9532C74.3674 30.9532 74.2509 30.983 74.1469 31.043C74.0443 31.1042 73.9607 31.1936 73.9057 31.3009C73.8489 31.41 73.8203 31.5365 73.8203 31.6794C73.8203 31.8252 73.8489 31.9543 73.9057 32.066C73.965 32.1754 74.0458 32.2601 74.1469 32.3198C74.2509 32.3798 74.3674 32.4096 74.496 32.4096C74.6075 32.4096 74.709 32.3849 74.8005 32.3354C74.892 32.2859 74.9688 32.2118 75.0307 32.1129L75.3019 32.2925C75.2251 32.4358 75.1161 32.5463 74.9749 32.6245C74.8282 32.7019 74.6648 32.7408 74.4996 32.7376ZM75.7633 30.6445H76.1196V32.1518L77.3264 30.6445H77.6494V32.7143H77.2928V31.207L76.0899 32.7143H75.7633V30.6445ZM78.3413 30.6445H78.6976V32.1518L79.9044 30.6445H80.2275V32.7143H79.8708V31.207L78.6679 32.7143H78.3413V30.6445ZM79.2622 30.3754C79.0789 30.3754 78.9367 30.3296 78.8352 30.2387C78.7337 30.1449 78.6815 30.0107 78.679 29.8365H78.9206C78.9201 29.8798 78.928 29.9229 78.944 29.9631C78.9599 30.0033 78.9836 30.0399 79.0135 30.0707C79.0753 30.1278 79.1568 30.1565 79.2583 30.1565C79.3598 30.1565 79.4416 30.1278 79.5035 30.0707C79.5344 30.0404 79.5588 30.004 79.5754 29.9637C79.592 29.9234 79.6004 29.8802 79.6 29.8365H79.8487C79.8462 30.011 79.7929 30.1449 79.6889 30.2387C79.5849 30.3296 79.4427 30.375 79.2622 30.375V30.3754ZM81.777 32.7376C81.5889 32.7407 81.4032 32.6936 81.2385 32.6009C81.0849 32.5122 80.958 32.3827 80.8711 32.2263C80.7804 32.059 80.7343 31.8705 80.7374 31.6794C80.7374 31.4765 80.7818 31.2954 80.8711 31.1369C80.9565 30.9792 81.0838 30.8493 81.2385 30.762C81.3972 30.671 81.5765 30.6252 81.777 30.6252C81.9554 30.6252 82.1137 30.663 82.2523 30.7383C82.3931 30.8139 82.5021 30.9234 82.579 31.0663L82.3081 31.2499C82.2517 31.1565 82.1723 31.0797 82.0776 31.0274C81.9837 30.9774 81.8791 30.9519 81.7731 30.9532C81.6445 30.9532 81.5283 30.983 81.4243 31.043C81.3228 31.103 81.2424 31.1885 81.1831 31.3009C81.1259 31.41 81.0977 31.5365 81.0977 31.6794C81.0977 31.8252 81.1259 31.9543 81.1831 32.066C81.2424 32.1754 81.3228 32.2601 81.4243 32.3198C81.5283 32.3798 81.6445 32.4096 81.7731 32.4096C81.8846 32.4096 81.9861 32.3849 82.0776 32.3354C82.1723 32.2831 82.2517 32.2063 82.3081 32.1129L82.579 32.2925C82.5021 32.4358 82.3931 32.5463 82.2523 32.6245C82.1056 32.7019 81.9422 32.7408 81.777 32.7376ZM83.8051 31.8394H83.397V32.7143H83.0403V30.6445H83.397V31.5194H83.8126L84.4512 30.6445H84.8336L84.0874 31.6405L84.8858 32.7143H84.4662L83.8051 31.8394ZM86.0368 32.7376C85.8522 32.7404 85.6702 32.6932 85.5094 32.6009C85.3558 32.5122 85.2289 32.3827 85.142 32.2263C85.0536 32.0583 85.0088 31.87 85.0119 31.6794C85.0119 31.4765 85.0552 31.2954 85.142 31.1369C85.2273 30.9792 85.3547 30.8493 85.5094 30.762C85.6655 30.671 85.841 30.6252 86.0368 30.6252C86.2203 30.622 86.4012 30.6692 86.5604 30.762C86.7162 30.8503 86.8373 30.9754 86.9242 31.1365C87.0132 31.2954 87.0578 31.4765 87.0578 31.6794C87.0608 31.8704 87.0147 32.0589 86.9242 32.2263C86.8393 32.383 86.7134 32.5126 86.5604 32.6009C86.4012 32.6936 86.2203 32.7408 86.0368 32.7376ZM86.0368 32.4096C86.163 32.4096 86.2756 32.3798 86.3745 32.3198C86.476 32.2572 86.5554 32.1714 86.6122 32.0623C86.6707 31.9436 86.7 31.8122 86.6976 31.6794C86.6976 31.5365 86.669 31.4103 86.6122 31.3009C86.5594 31.1931 86.4768 31.1033 86.3745 31.0427C86.2721 30.982 86.1553 30.9511 86.0368 30.9532C85.9103 30.9532 85.7967 30.983 85.6952 31.043C85.5962 31.103 85.5169 31.1885 85.4576 31.3009C85.4007 31.41 85.3721 31.5365 85.3721 31.6794C85.3721 31.8227 85.4007 31.9503 85.4576 32.0623C85.5169 32.1714 85.5962 32.2572 85.6952 32.3198C85.7967 32.3798 85.9103 32.4096 86.0368 32.4096ZM87.5728 30.6445H87.9291V32.1518L89.1359 30.6445H89.459V32.7143H89.1023V31.207L87.8994 32.7143H87.5728V30.6445ZM88.4934 30.3754C88.3104 30.3754 88.1682 30.3296 88.0667 30.2387C87.9652 30.1449 87.913 30.0107 87.9105 29.8365H88.1517C88.1542 29.9325 88.1853 30.011 88.2447 30.0707C88.3065 30.1278 88.3883 30.1565 88.4898 30.1565C88.5913 30.1565 88.6728 30.1278 88.735 30.0707C88.7659 30.0404 88.7903 30.004 88.8069 29.9637C88.8235 29.9234 88.8319 29.8802 88.8314 29.8365H89.0802C89.0777 30.011 89.0244 30.1449 88.9204 30.2387C88.8164 30.3296 88.6742 30.375 88.4934 30.375V30.3754ZM94.0733 31.3434C94.0733 31.7052 93.9532 31.9892 93.7131 32.1947C93.4729 32.4005 93.1338 32.511 92.6957 32.5267V32.8158H92.3504V32.5267C91.9123 32.5085 91.5721 32.3965 91.3294 32.191C91.0893 31.9852 90.9692 31.7027 90.9692 31.3438C90.9692 30.9816 91.0893 30.6979 91.3294 30.4921C91.5721 30.2867 91.9123 30.1747 92.3504 30.1565V29.879H92.6957V30.1565C93.1313 30.1747 93.4694 30.2878 93.7095 30.4961C93.9518 30.702 94.0733 30.9841 94.0733 31.3434ZM92.6957 32.222C93.0273 32.2012 93.28 32.1165 93.4533 31.9681C93.6287 31.8172 93.7167 31.6078 93.7167 31.3398C93.7167 31.0769 93.6277 30.871 93.4493 30.7227C93.2735 30.5718 93.0223 30.486 92.6957 30.4649V32.222ZM91.3294 31.3434C91.3294 31.6089 91.4174 31.8172 91.5932 31.9681C91.7711 32.1169 92.0238 32.2012 92.3504 32.222V30.4649C92.0188 30.4856 91.7651 30.5703 91.5893 30.7187C91.4159 30.867 91.3294 31.0754 91.3294 31.3434ZM96.3633 31.691C96.3633 31.7201 96.3608 31.7576 96.3558 31.8045H94.7595C94.7816 31.9867 94.8574 32.134 94.986 32.2456C95.1172 32.355 95.2794 32.4096 95.4724 32.4096C95.7075 32.4096 95.8969 32.3263 96.0402 32.1598L96.2372 32.402C96.1482 32.511 96.0367 32.5947 95.903 32.6518C95.7631 32.7108 95.6128 32.74 95.4613 32.7376C95.2533 32.7376 95.0689 32.6936 94.9081 32.6049C94.7469 32.514 94.6222 32.3878 94.5329 32.2263C94.4447 32.0582 94.4001 31.87 94.4032 31.6794C94.4032 31.479 94.445 31.298 94.5293 31.1369C94.6158 30.9754 94.7334 30.8503 94.882 30.762C95.0328 30.671 95.2026 30.6252 95.3906 30.6252C95.5789 30.6252 95.7458 30.6707 95.892 30.762C96.0403 30.8503 96.1553 30.9754 96.2372 31.1365C96.3215 31.298 96.3633 31.483 96.3633 31.691ZM95.3906 30.9416C95.2197 30.9416 95.0764 30.9961 94.9599 31.1052C94.8459 31.2147 94.7791 31.358 94.7595 31.535H96.0217C96.002 31.3605 95.9341 31.2187 95.8176 31.1096C95.7036 30.9976 95.5614 30.9416 95.3906 30.9416ZM98.8849 32.3863V33.1943H98.5508V32.7143H96.9058V33.1943H96.5681V32.3863H96.6721C96.7982 32.3783 96.8851 32.2845 96.9319 32.1052C96.979 31.9252 97.0112 31.6718 97.0284 31.3438L97.058 30.6445H98.5844V32.3863H98.8849ZM97.3554 31.371C97.3497 31.5883 97.3286 31.8049 97.2921 32.019C97.2625 32.1885 97.2067 32.3107 97.1249 32.3863H98.2277V30.9725H97.3739L97.3554 31.371ZM101.127 31.691C101.127 31.7201 101.125 31.7576 101.12 31.8045H99.5235C99.5457 31.9867 99.6214 32.134 99.7501 32.2456C99.8812 32.355 100.043 32.4096 100.236 32.4096C100.472 32.4096 100.661 32.3263 100.804 32.1598L101.001 32.402C100.912 32.511 100.801 32.5947 100.667 32.6518C100.527 32.7108 100.377 32.74 100.225 32.7376C100.017 32.7376 99.833 32.6936 99.6722 32.6049C99.511 32.514 99.3863 32.3878 99.2969 32.2263C99.2088 32.0582 99.1642 31.87 99.1672 31.6794C99.1672 31.479 99.209 31.298 99.2934 31.1369C99.3798 30.9754 99.4974 30.8503 99.6461 30.762C99.7969 30.671 99.9666 30.6252 100.155 30.6252C100.343 30.6252 100.51 30.6707 100.656 30.762C100.804 30.8503 100.92 30.9754 101.001 31.1365C101.086 31.298 101.127 31.483 101.127 31.691ZM100.155 30.9416C99.9838 30.9416 99.8405 30.9961 99.724 31.1052C99.6103 31.2147 99.5435 31.358 99.5235 31.535H100.786C100.766 31.3605 100.698 31.2187 100.582 31.1096C100.468 30.9976 100.325 30.9416 100.155 30.9416ZM102.724 30.6252C102.915 30.6252 103.085 30.6696 103.237 30.7579C103.387 30.8463 103.505 30.9699 103.589 31.1289C103.676 31.2878 103.719 31.4714 103.719 31.6794C103.719 31.8878 103.676 32.0725 103.589 32.2339C103.508 32.389 103.386 32.5176 103.237 32.6049C103.08 32.6947 102.903 32.7405 102.724 32.7376C102.589 32.7391 102.456 32.7098 102.334 32.6518C102.217 32.5937 102.115 32.5081 102.037 32.402V33.4718H101.681V30.6449H102.023V30.9729C102.102 30.8583 102.202 30.7721 102.323 30.7147C102.448 30.654 102.585 30.6234 102.724 30.6252ZM102.694 32.4096C102.821 32.4096 102.933 32.3798 103.032 32.3198C103.134 32.2572 103.213 32.1714 103.27 32.0623C103.331 31.9444 103.362 31.8127 103.359 31.6794C103.359 31.5365 103.329 31.4103 103.27 31.3009C103.217 31.1931 103.134 31.1033 103.032 31.0427C102.93 30.982 102.813 30.9511 102.694 30.9532C102.576 30.9523 102.461 30.9842 102.359 31.0455C102.258 31.1067 102.175 31.195 102.119 31.3009C102.062 31.41 102.034 31.5365 102.034 31.6794C102.034 31.8227 102.062 31.9503 102.119 32.0623C102.176 32.1714 102.255 32.2572 102.357 32.3198C102.458 32.3798 102.571 32.4096 102.694 32.4096ZM104.92 30.6252C105.192 30.6252 105.4 30.6954 105.544 30.8361C105.69 30.9765 105.763 31.1863 105.763 31.4649V32.7143H105.425V32.4409C105.363 32.5393 105.274 32.6168 105.169 32.6634C105.06 32.7129 104.93 32.7376 104.779 32.7376C104.559 32.7376 104.382 32.6816 104.248 32.57C104.117 32.458 104.051 32.3107 104.051 32.1285C104.051 31.9463 104.115 31.8005 104.241 31.691C104.367 31.5794 104.567 31.5234 104.842 31.5234H105.406V31.4492C105.406 31.2878 105.362 31.1641 105.273 31.0783C105.184 30.9921 105.053 30.9492 104.879 30.9492C104.763 30.9493 104.647 30.9705 104.538 31.0118C104.434 31.0461 104.339 31.1004 104.256 31.1718L104.107 30.8907C104.214 30.8016 104.338 30.7352 104.471 30.6954C104.616 30.6479 104.768 30.6243 104.92 30.6252ZM104.839 32.4489C104.975 32.4489 105.092 32.4176 105.191 32.355C105.29 32.29 105.366 32.1941 105.406 32.0816V31.7929H104.857C104.555 31.7929 104.404 31.8994 104.404 32.1129C104.404 32.2172 104.443 32.299 104.519 32.359C104.596 32.4187 104.702 32.4489 104.839 32.4489ZM108.506 32.3863V33.21H108.168V32.7143H106.405V30.6445H106.761V32.3863H107.838V30.6445H108.194V32.3863H108.506ZM108.968 30.6445H109.325V32.1518L110.531 30.6445H110.855V32.7143H110.498V31.207L109.295 32.7143H108.968V30.6445ZM111.546 30.6445H111.903V32.1518L113.11 30.6445H113.433V32.7143H113.076V31.207L111.873 32.7143H111.546V30.6445Z" fill="white"/>
<path d="M23.3902 32.4482C23.3219 32.8715 23.0406 33.1682 22.7923 33.4827C22.7565 33.5278 22.6658 33.5533 22.6036 33.5482C22.2287 33.5173 21.866 33.4373 21.544 33.2075C21.3306 33.542 21.098 33.8511 20.7621 34.0515C20.5798 34.1606 20.379 34.2406 20.181 34.3184C20.1231 34.3413 20.0402 34.3238 19.9762 34.3027C19.4323 34.1271 19.0213 33.7802 18.7226 33.2915C18.7083 33.2678 18.6904 33.2464 18.6944 33.2515C18.3906 33.3464 18.1022 33.442 17.8106 33.5264C17.6012 33.5867 17.4257 33.5715 17.2985 33.3391C17.1362 33.042 16.9365 32.766 16.7403 32.462C16.3722 32.5067 15.9641 32.4947 15.5853 32.2926C15.5267 32.2617 15.4645 32.1933 15.4484 32.1304C15.2765 31.4635 15.349 30.8362 15.665 30.21C15.8733 29.7969 16.1839 29.4973 16.5133 29.218C16.7946 28.9791 17.1287 28.7962 17.4582 28.6253C17.7095 28.4951 17.9878 28.4162 18.2577 28.3264C18.3556 28.2936 18.3856 28.2438 18.3809 28.1475C18.3584 27.6733 18.253 27.2304 17.9971 26.8209C17.8435 26.5755 17.6791 26.374 17.4146 26.2406C17.2725 26.1662 17.1072 26.1521 16.9548 26.2014C16.8025 26.2507 16.6755 26.3593 16.6016 26.5035C16.4301 26.8206 16.379 27.1664 16.4101 27.522C16.4326 27.7813 16.4758 28.0387 16.5094 28.2955C15.9055 28.4547 15.2886 28.5831 14.6954 28.7835C14.1072 28.9816 13.5183 29.1958 12.9665 29.5427C13.0837 29.6391 13.1938 29.7187 13.2917 29.8115C13.569 30.0758 13.8385 30.3486 14.1161 30.6133C14.2473 30.7384 14.4067 30.838 14.5189 30.9769C14.5907 31.0656 14.6415 31.2107 14.6297 31.3224C14.5996 31.6013 14.3102 31.6762 14.0779 31.4715C13.7241 31.1591 13.3746 30.8424 13.0287 30.5213C12.8085 30.3173 12.6005 30.0991 12.3793 29.8958C12.3386 29.858 12.2607 29.8456 12.2006 29.8467C11.7714 29.8562 11.3501 29.8431 10.9331 29.6995C10.7317 29.6329 10.5627 29.4912 10.4599 29.3029C10.3572 29.1146 10.3285 28.8936 10.3795 28.6846C10.412 28.5566 10.4513 28.43 10.4867 28.306C10.1758 28.1089 10.1583 28.0653 10.3102 27.8049C10.1769 27.6886 10.0375 27.5693 9.89991 27.4471C9.82594 27.3816 9.73445 27.3235 9.68728 27.2409C9.58365 27.0598 9.40532 27.0271 9.237 26.9718C9.2102 26.9631 9.16088 26.9842 9.13908 27.0078C8.70774 27.4722 8.09128 27.3846 7.67924 27.1107C7.43623 26.9496 7.23396 26.7507 7.13926 26.4624C7.07672 26.2718 7.11138 26.2286 7.30579 26.246C7.45874 26.2598 7.61205 26.294 7.76393 26.286C7.85006 26.282 7.97299 26.2337 8.0073 26.1671C8.04625 26.0918 8.03803 25.9169 7.98943 25.8871C7.90867 25.838 7.77859 25.8598 7.67173 25.8722C7.62778 25.8769 7.58918 25.934 7.54451 25.9704C7.47304 25.6344 7.69175 25.3231 8.00408 25.3038C8.01123 24.9875 8.23423 24.7947 8.58052 24.8064C8.55264 24.8882 8.51619 24.9686 8.49904 25.0522C8.47223 25.1817 8.55014 25.3111 8.65128 25.3275C8.7642 25.3457 8.91144 25.2333 8.9118 25.1056C8.91251 24.974 8.88535 24.8416 8.86677 24.71C8.86069 24.6664 8.84068 24.6249 8.83103 24.5816C8.78386 24.3664 8.84032 24.3038 9.04902 24.3638C9.76269 24.5704 10.2644 25.5035 9.85632 26.1995C9.81772 26.2649 9.76519 26.3224 9.70694 26.3995C9.9042 26.9267 10.4163 27.1667 10.7647 27.5533C10.9088 27.4871 11.0349 27.4216 11.1657 27.37C11.4423 27.2617 11.6789 27.3391 11.8869 27.5416C12.0559 27.7067 12.2239 27.8733 12.4015 28.0286C12.6434 28.2406 12.9325 28.3369 13.2513 28.3304C13.9342 28.3158 14.6057 28.2104 15.2704 28.0522C15.3662 28.0293 15.4631 28.0111 15.5606 27.9976C15.7086 27.9769 15.7307 27.9344 15.6553 27.802C15.497 27.5231 15.3079 27.2566 15.1879 26.9616C14.9838 26.4602 14.773 25.9526 14.8019 25.3904C14.8298 24.8449 15.0592 24.3958 15.5527 24.1707C15.8915 24.0166 16.2761 23.9595 16.6452 23.8842C16.8468 23.8431 17.0587 23.8544 17.266 23.842C17.2249 23.242 16.3343 22.1584 15.2847 21.8253C15.2415 21.9602 15.2061 22.0987 15.1536 22.2307C15.0278 22.5478 14.9038 22.866 14.7615 23.1755C14.6039 23.5188 14.3732 23.8221 14.0861 24.0635C13.4657 24.5886 12.7706 24.8438 11.958 24.4526C11.7575 24.3562 11.5899 24.1896 11.4126 24.0326C11.7707 23.9591 12.037 23.7409 12.3171 23.5511C12.3779 23.51 12.4179 23.4384 12.4705 23.3838C12.8207 23.0187 13.0433 22.5766 13.2195 22.1071C13.2949 21.906 13.3617 21.702 13.4018 21.4838C13.2538 21.6773 13.1073 21.8722 12.9575 22.0638C12.8932 22.1464 12.826 22.2278 12.7524 22.3017C12.1842 22.8722 11.5434 23.3209 10.749 23.5016C10.2516 23.6151 9.77591 23.5587 9.3435 23.2689C9.06066 23.0833 8.84587 22.808 8.7324 22.4857C10.075 22.3682 10.9502 21.5675 11.6839 20.4886C11.3587 20.6984 11.0728 20.9097 10.764 21.0755C9.95281 21.5115 9.10227 21.8137 8.16561 21.6358C7.64171 21.5366 7.17785 21.2893 6.93842 20.7784C6.82585 20.538 6.81334 20.2497 6.74651 19.9442C7.42694 20.0933 8.03911 20.0347 8.6477 19.8522C9.23366 19.6787 9.78862 19.4111 10.2916 19.0595C9.72766 19.1657 9.14087 19.2973 8.54764 19.3806C7.9201 19.4686 7.304 19.4086 6.7097 19.1442C6.16365 18.902 5.80699 18.4177 5.80985 17.8078C5.81057 17.5544 5.85238 17.3009 5.88204 17.0486C5.88847 16.9911 5.92135 16.9366 5.93386 16.9013C6.21511 17.0297 6.47563 17.1733 6.75223 17.2704C7.36082 17.4838 7.99551 17.4642 8.62662 17.4231C8.92573 17.4035 9.22342 17.3504 9.54505 17.3097C9.0819 17.2107 8.6452 17.1311 8.21565 17.0217C7.80718 16.9184 7.40549 16.7918 7.03276 16.5802C6.61428 16.3424 6.21975 16.0631 5.94637 15.6678C5.52682 15.0609 5.43319 14.3878 5.73695 13.6911C5.82915 13.4795 5.94923 13.2798 6.0643 13.0795C6.10146 13.0151 6.16507 12.9671 6.24298 12.8831C6.45812 13.5693 6.8841 14.0584 7.43623 14.4395C7.98157 14.8151 8.59159 15.0311 9.24343 15.1406C9.00543 14.9751 8.75991 14.8191 8.53048 14.6424C8.34465 14.4987 8.1817 14.3253 8.00158 14.1733C7.60705 13.8395 7.32008 13.4169 7.08315 12.9675C6.64073 12.1282 6.35591 11.2427 6.62215 10.2802C6.79333 9.66201 7.16677 9.19765 7.77108 8.95111C7.81933 8.93147 7.86971 8.91511 7.89902 8.90383C7.94083 9.27292 7.96084 9.63329 8.0291 9.98383C8.0752 10.2202 8.17097 10.4529 8.27711 10.6707C8.43364 10.9926 8.60017 11.3126 8.79744 11.6089C9.00971 11.9278 9.25165 12.2293 9.50181 12.5195C9.76269 12.8227 10.0271 13.1304 10.3302 13.3875C10.7698 13.7595 11.2286 14.1075 11.7046 14.43C12.1113 14.7064 12.5448 14.9438 12.9768 15.1787C13.2056 15.3031 13.4564 15.3846 13.6987 15.486C12.95 16.9773 13.5343 18.2984 14.4227 18.9006C15.4427 19.5915 16.5913 19.4086 17.2899 18.8722C18.3834 18.0322 18.5335 16.7849 18.1344 15.8497C17.6676 14.7573 16.4504 14.0191 15.0414 14.4202L15.1832 13.9147C14.9334 13.9689 14.6593 14.0595 14.3806 14.0791C14.1526 14.0951 13.9099 14.0558 13.6898 13.9875C13.4314 13.9075 13.3088 13.6478 13.3381 13.3686C13.7541 13.6958 14.1844 13.5366 14.6097 13.398C15.0514 13.2537 15.4884 13.0958 15.924 12.9449C15.7025 12.6977 15.383 12.5667 15.0321 12.5107C14.893 12.4889 14.7462 12.49 14.6057 12.5071C14.3255 12.5398 14.1011 12.6587 14.0339 12.9762C13.9986 12.9631 13.9603 12.9609 13.9403 12.9398C13.5833 12.5755 13.3971 12.1435 13.4986 11.6271C13.5215 11.5115 13.6269 11.3853 13.7287 11.3173C14.1348 11.0447 14.611 10.9004 15.0975 10.9027C16.0416 10.9035 16.9854 10.9355 17.9296 10.9391C18.3456 10.9409 18.764 10.9286 19.1768 10.8798C19.5063 10.8409 19.5667 10.7729 19.7547 10.5271C20.0263 11.0846 19.6031 11.5897 18.6726 11.8315C18.937 12.2144 19.2254 12.5886 19.4652 12.9926C19.7043 13.3947 19.894 13.8267 20.1074 14.2497C20.4948 13.4035 20.9375 12.5769 21.5411 11.83C21.0762 11.7584 20.6656 11.5966 20.4376 11.1515C20.3329 10.9478 20.3432 10.7355 20.4408 10.5093C20.6159 10.8638 20.9533 10.9089 21.2685 10.9224C21.8378 10.9464 22.4092 10.9133 22.9799 10.9137C23.7804 10.9137 24.582 10.9107 25.3825 10.9329C25.7845 10.9442 26.153 11.1071 26.4839 11.334C26.5725 11.3947 26.6429 11.5195 26.6704 11.6278C26.7962 12.1333 26.614 12.5515 26.2762 12.9151C26.2572 12.9347 26.2351 12.951 26.2108 12.9635C26.1973 12.9707 26.1787 12.9671 26.1555 12.9697C26.1079 12.7031 25.926 12.5697 25.6837 12.5242C25.1355 12.4206 24.6606 12.5777 24.2628 12.9431C24.7832 13.1224 25.2928 13.3202 25.816 13.4693C26.0618 13.5391 26.3341 13.5297 26.5943 13.5246C26.6786 13.5227 26.7608 13.4213 26.8412 13.3675C26.9031 13.5849 26.7705 13.8747 26.5382 13.9806C26.2323 14.1198 25.9121 14.1326 25.588 14.0562C25.3921 14.0104 25.197 13.9573 25.0055 13.9082L25.1423 14.3929L25.1012 14.4264C24.3579 14.1729 23.6557 14.3104 23.0156 14.7027C22.7355 14.8747 22.4853 15.1417 22.3005 15.4191C21.9096 16.0046 21.7502 16.6609 21.9224 17.3707C22.0761 18.0024 22.4035 18.5275 22.9295 18.8966C23.7511 19.4733 24.9754 19.5475 25.9182 18.7893C26.7905 18.0886 27.1568 16.8002 26.4935 15.5031C26.6747 15.4151 26.8548 15.3267 27.0357 15.2402C27.2029 15.1606 27.3802 15.0984 27.5378 15.0024C27.9959 14.7242 28.4798 14.4882 28.8975 14.1424C29.1709 13.9162 29.4682 13.7198 29.7466 13.4995C29.8617 13.4086 29.9561 13.2897 30.059 13.1835C30.3263 12.9082 30.619 12.6533 30.8541 12.3529C31.1411 11.9867 31.392 11.5893 31.6339 11.1907C31.7915 10.9318 31.9198 10.6522 32.0377 10.3718C32.2182 9.94165 32.2671 9.48383 32.2643 9.01983C32.2643 8.98711 32.2643 8.95438 32.265 8.92165C32.265 8.91729 32.2707 8.91292 32.2818 8.89729C32.756 9.06565 33.1295 9.35474 33.3768 9.81147C33.7298 10.4624 33.7377 11.1442 33.5572 11.8377C33.3489 12.6395 32.9615 13.3486 32.4137 13.9649C32.0599 14.3627 31.6496 14.6897 31.2004 14.9686C31.1121 15.0231 31.0271 15.0827 30.9038 15.1638C31.3734 15.0867 31.7722 14.9369 32.1717 14.7711C32.5512 14.6132 32.8969 14.3818 33.1895 14.0897C33.4493 13.8318 33.7263 13.5653 33.8299 13.1831C33.8546 13.0937 33.901 13.0104 33.9568 12.8777C34.0533 12.9977 34.139 13.086 34.2041 13.1875C34.4507 13.5715 34.6104 13.9882 34.6258 14.4504C34.6347 14.7315 34.5464 14.9911 34.4632 15.2591C34.3374 15.6635 34.0543 15.9427 33.7602 16.1751C33.3643 16.4871 32.9315 16.7686 32.4201 16.8864C31.8394 17.0209 31.2633 17.178 30.7119 17.3184C31.8987 17.4773 33.118 17.6362 34.2523 16.8704C34.2809 16.9657 34.3231 17.0475 34.3292 17.1318C34.3517 17.4518 34.4192 17.7827 34.366 18.0911C34.2813 18.5795 33.9646 18.9184 33.5104 19.1293C32.647 19.5304 31.765 19.4442 30.8773 19.2606C30.5418 19.1915 30.2091 19.1075 29.8724 19.0402C30.9424 19.7366 32.0717 20.2053 33.3843 19.9642C33.4432 20.4707 33.2049 21.1264 32.6159 21.4238C32.012 21.7293 31.3887 21.7464 30.7544 21.5911C30.1558 21.4449 29.5822 21.2282 29.0748 20.8587C28.9007 20.7315 28.7181 20.6169 28.5334 20.506C29.2399 21.5591 30.1101 22.3653 31.4809 22.4871C31.3809 22.6522 31.3065 22.8209 31.1915 22.9544C30.5143 23.742 29.5508 23.6467 28.8457 23.2929C28.5377 23.1387 28.2253 22.9766 27.9584 22.7617C27.6714 22.5311 27.4323 22.2391 27.18 21.9664C27.0396 21.8137 26.9152 21.6453 26.7505 21.4962C26.8559 21.7791 26.9531 22.0657 27.0696 22.3446C27.2322 22.7337 27.4427 23.0937 27.7375 23.4002C27.9796 23.6555 28.2777 23.8489 28.6074 23.9646C28.6581 23.9827 28.7103 23.9958 28.7953 24.0213C28.7224 24.0846 28.6674 24.1297 28.6156 24.178C27.9598 24.79 27.0775 24.7427 26.3992 24.2889C26.0811 24.0758 25.7974 23.8169 25.6101 23.4991C25.3439 23.0471 25.0498 22.5944 24.9786 22.0482C24.9686 21.9733 24.9329 21.9017 24.909 21.8286C24.0063 22.0678 22.9792 23.1457 22.9263 23.8398C23.1286 23.8507 23.3308 23.8558 23.5324 23.8737C23.9619 23.9111 24.3879 23.9922 24.7553 24.2242C25.2574 24.542 25.455 25.0366 25.3975 25.6238C25.3728 25.8758 25.3053 26.1264 25.2324 26.3696C25.0787 26.8827 24.8579 27.366 24.5502 27.8053C24.5262 27.8398 24.513 27.8817 24.4926 27.9249C24.9115 28.0053 25.3199 28.0733 25.7234 28.1649C26.1244 28.2558 26.5203 28.3711 26.9356 28.4806C27.0206 27.7664 27.3869 27.2369 28.0363 26.8853L28.7846 28.2627L29.5347 26.8904C29.6534 26.962 29.7906 27.0213 29.8999 27.1144C30.5357 27.6584 30.7555 28.3046 30.5468 29.1369C30.5043 29.3078 30.4406 29.4726 30.471 29.6689C30.5025 29.8736 30.3674 30.0555 30.2173 30.19C29.8982 30.4766 29.544 30.7253 29.1137 30.7809C28.4476 30.8664 27.7897 30.8635 27.2937 30.2842C27.244 30.226 27.204 30.1595 27.1622 30.0951C26.8234 29.5737 26.3459 29.2224 25.7952 28.9653C25.5218 28.838 25.2495 28.6984 24.9633 28.6115C24.592 28.4987 24.2071 28.4326 23.8279 28.3464C23.7861 28.3369 23.7436 28.3282 23.6868 28.3162C23.7182 28.1235 23.7561 27.9402 23.7775 27.7551C23.8172 27.4104 23.8222 27.0675 23.7071 26.7318C23.6367 26.5264 23.5327 26.3464 23.3444 26.2366C23.1836 26.1427 23.0138 26.1384 22.8387 26.2158C22.5632 26.3377 22.3734 26.5315 22.2169 26.7984C21.9892 27.186 21.8552 27.6231 21.826 28.0736C21.8149 28.2227 21.851 28.2966 22.0046 28.3475C22.446 28.4933 22.8791 28.6606 23.274 28.9195C23.7229 29.214 24.1438 29.5424 24.4312 30.002C24.8393 30.6544 24.9715 31.3667 24.7635 32.1235C24.746 32.1867 24.6849 32.2544 24.6259 32.286C24.2378 32.4951 23.8204 32.5082 23.388 32.446L23.3905 32.4482H23.3902ZM20.1031 6.88711C20.2971 6.54674 20.4723 6.23547 20.6534 5.92783C20.6799 5.88347 20.7424 5.82238 20.7782 5.82856C21.1856 5.90056 21.5651 6.03947 21.8167 6.39911C22.0347 6.71038 21.9743 7.04929 21.8585 7.37474C21.757 7.65874 21.6548 7.94601 21.4529 8.18347C21.38 8.26892 21.316 8.3202 21.1948 8.31911C20.4652 8.31339 19.7356 8.31351 19.006 8.31947C18.9002 8.3202 18.8391 8.28129 18.773 8.20238C18.5192 7.89801 18.3792 7.53983 18.2912 7.16056C18.1683 6.6282 18.3448 6.26092 18.8423 6.02347C19.0138 5.94165 19.1997 5.88601 19.383 5.83438C19.427 5.82201 19.5142 5.85911 19.5385 5.89983C19.725 6.21183 19.9008 6.53038 20.1024 6.88638L20.1031 6.88711Z" fill="#3354FF"/>
<path d="M16.2778 9.13993C16.4593 8.85084 16.628 8.58139 16.802 8.30502C17.0722 8.32211 17.3216 8.42793 17.5375 8.58502C17.8423 8.80684 17.9152 9.20502 17.7323 9.59448C17.625 9.8232 17.485 10.0367 17.3506 10.2505C17.3335 10.2725 17.3121 10.2905 17.2877 10.3035C17.2633 10.3165 17.2365 10.324 17.2091 10.3258C16.5887 10.3308 15.9687 10.3305 15.3483 10.3258C15.2961 10.3258 15.2168 10.2988 15.1964 10.2596C15.0499 9.97593 14.8737 9.69775 14.7865 9.39448C14.655 8.93775 14.8501 8.6152 15.2918 8.43157C15.7185 8.25411 15.7671 8.27048 16.0037 8.67266L16.2781 9.13993H16.2778ZM23.9168 9.14357C24.0212 8.97266 24.1027 8.83666 24.187 8.70211C24.2571 8.58939 24.3257 8.47557 24.4043 8.36939C24.4272 8.33811 24.4911 8.30502 24.5204 8.31593C24.7402 8.39775 24.9772 8.45775 25.1673 8.58684C25.4832 8.80139 25.5468 9.20902 25.3588 9.60866C25.2524 9.82754 25.1355 10.041 25.0086 10.2483C24.9839 10.2898 24.9135 10.325 24.8639 10.3254C24.2324 10.3305 23.6009 10.3294 22.9698 10.3268C22.9305 10.3268 22.8716 10.3112 22.8558 10.2832C22.715 10.0338 22.5521 9.79157 22.4527 9.52575C22.2615 9.01557 22.4399 8.6483 22.9423 8.42757C23.339 8.25339 23.3872 8.2683 23.6131 8.63593C23.7078 8.79048 23.7996 8.94721 23.9168 9.1432V9.14357ZM28.7878 25.2327C28.9639 25.5516 29.1344 25.8581 29.302 26.1672C29.3156 26.1927 29.3188 26.237 29.3056 26.2607C29.1391 26.5563 28.9682 26.8498 28.7792 27.1777C28.6112 26.8661 28.4408 26.5679 28.2932 26.2581C28.2642 26.197 28.3075 26.0825 28.3468 26.009C28.4861 25.7472 28.6391 25.4923 28.7881 25.233L28.7878 25.2327ZM20.1009 5.91484C19.9311 5.6483 19.7707 5.3912 19.6045 5.13811C19.553 5.0592 19.5452 4.99557 19.5984 4.91193C19.7667 4.64648 19.9283 4.37666 20.1012 4.09375C20.2764 4.38139 20.4515 4.66102 20.6155 4.9472C20.6391 4.98866 20.6305 5.0723 20.6044 5.1163C20.4425 5.38502 20.271 5.6472 20.1009 5.9152V5.91484ZM18.0596 10.3087C18.0685 10.293 18.0728 10.2741 18.0846 10.2668C18.5678 9.95702 18.7422 9.46466 18.8565 8.93448C18.8665 8.88902 18.9205 8.82066 18.9562 8.8192C19.196 8.80902 19.4365 8.81411 19.6785 8.81411C19.6117 9.42248 18.859 10.3243 18.0596 10.3087ZM22.1411 10.3116C21.3988 10.3214 20.6494 9.5112 20.5208 8.81411C20.7734 8.81411 21.0218 8.81048 21.2705 8.81848C21.3002 8.8192 21.3485 8.87739 21.3538 8.91375C21.4063 9.28284 21.5497 9.6192 21.748 9.9243C21.8456 10.0745 22.0067 10.1821 22.1415 10.3112L22.1411 10.3116Z" fill="#3354FF"/>
<path d="M23.9205 6.6875C24.0784 6.95695 24.2285 7.20677 24.3697 7.46205C24.3904 7.4995 24.384 7.5715 24.3618 7.61186C24.2214 7.86786 24.0734 8.11986 23.9194 8.38786C23.7643 8.11586 23.6138 7.85623 23.4691 7.59332C23.4512 7.56059 23.4459 7.50277 23.463 7.47259C23.6085 7.21477 23.7604 6.96059 23.9212 6.68786L23.9205 6.6875ZM16.2828 8.21877C16.1459 7.99514 16.0184 7.78423 15.8883 7.57514C15.8447 7.50495 15.834 7.45259 15.889 7.3715C16.0262 7.16786 16.1445 6.95186 16.2814 6.72277L16.7435 7.47695L16.2825 8.21877H16.2828Z" fill="#3354FF"/>
<path d="M15.7933 17.787C15.7933 17.4727 15.916 17.1712 16.1344 16.9489C16.3528 16.7266 16.6491 16.6017 16.958 16.6016H23.1937C23.8369 16.6016 24.3587 17.1325 24.3587 17.787V25.4263C24.3587 25.7394 24.2369 26.0398 24.02 26.2618C23.803 26.4839 23.5085 26.6096 23.2008 26.6114L21.152 26.6245C20.9489 26.6258 20.7512 26.6911 20.586 26.8114C20.4137 26.9368 20.0188 27.2394 20.0188 27.2394C20.0188 27.2394 19.6779 26.9536 19.5292 26.8681L19.3731 26.7783C19.2005 26.6788 19.0057 26.6259 18.8074 26.6245L16.9498 26.6117C16.6422 26.6096 16.348 26.4838 16.1313 26.2618C15.9146 26.0398 15.793 25.7396 15.793 25.4267V17.787H15.7933Z" fill="#F0002C"/>
<path d="M18.9831 24.7287L19.1603 24.9349L20.841 25.0313L21.099 24.8065V24.3356L20.9511 23.2487V21.6134L21.4586 22.0865L22.6218 22.216L23.8908 21.8069V21.2476L23.1929 19.0312L21.7019 19.1065L19.7771 19.0312L18.5192 19.1065L16.7002 19.0312L16.2031 21.6138L17.3027 22.0869L18.5189 21.9687L19.3544 21.6138L18.9827 24.7291L18.9831 24.7287Z" fill="black"/>
<path d="M20.074 26.01C20.3782 25.7554 20.5408 26.6536 20.5615 26.3351C20.5655 26.2711 20.564 26.2068 20.5572 26.1431C20.5499 26.0754 20.5375 26.0084 20.52 25.9427L20.5129 25.9147L20.5379 25.9038C20.589 25.8802 20.6355 25.8849 20.6769 25.9176C20.6933 25.9304 20.7073 25.946 20.7184 25.9638C20.8306 26.1082 20.9632 26.2071 21.1165 26.2602C21.1776 26.2816 21.2409 26.2956 21.3052 26.302C21.3881 26.302 21.4588 26.2933 21.5196 26.2769C21.5496 26.2689 21.5768 26.2591 21.6007 26.2478C21.6511 26.2258 21.6945 26.19 21.7262 26.1446C21.7579 26.0991 21.7767 26.0456 21.7805 25.99C21.6686 26.1045 21.3645 26.1173 21.2216 25.9943C21.0843 25.8769 21.025 25.6442 21.0436 25.2969V25.294C21.0525 25.2165 21.0675 25.1431 21.0886 25.0729C21.1089 25.0045 21.1361 24.9385 21.1697 24.8758C21.3366 24.5653 21.6565 24.3602 22.1293 24.2605C22.2015 23.6234 22.4848 22.8576 22.8715 22.3987C22.9436 22.3119 23.0248 22.2335 23.1138 22.1649C23.3768 21.9656 23.7403 21.9045 24.0397 22.0551C24.1577 22.1143 24.2613 22.2107 24.3278 22.3576L23.6734 19.1467C23.6683 19.1219 23.6622 19.0972 23.6552 19.0729C23.6243 18.9576 23.5667 18.8515 23.4871 18.7636C23.4076 18.6756 23.3085 18.6084 23.1981 18.5674C22.79 18.4071 22.3294 18.5296 21.9341 18.6769C21.8092 18.7237 21.6845 18.7709 21.56 18.8187C21.2934 18.9151 21.07 18.9594 20.8903 18.9511C20.6501 18.9402 20.4543 18.8231 20.3746 18.5736C20.3389 18.4634 20.3246 18.3285 20.331 18.17C20.326 17.986 20.311 19.1158 20.4729 18.9311C20.504 18.8958 20.524 19.2013 20.5619 19.1653C20.5994 19.1293 20.7477 19.2154 20.7906 19.1798L20.7949 19.1769L20.7956 19.1765C20.89 19.1031 20.9677 19.0098 21.0236 18.9031C21.0772 18.802 21.114 18.6856 21.1354 18.5533C20.9514 18.5307 20.7602 18.5896 20.5619 18.7314C20.4718 18.7969 20.3876 18.8704 20.3103 18.9511L20.3099 18.9518L20.2828 18.9809L20.262 18.9449C20.242 18.9105 20.2306 18.8717 20.2288 18.8318C20.222 18.7303 20.2645 18.6045 20.3567 18.4543C20.43 18.3234 20.4586 18.1947 20.4432 18.0682C20.4132 17.8238 20.2499 17.7078 20.1359 17.5216C20.1123 17.4835 20.0917 17.4436 20.074 17.4023C20.0563 17.4436 20.0357 17.4835 20.0122 17.5216C19.8982 17.7078 19.7349 17.8238 19.7049 18.0682C19.6895 18.1947 19.7181 18.3234 19.7914 18.4543C19.8832 18.6045 19.9261 18.7307 19.9193 18.8318C19.9165 18.8716 19.9052 18.9104 19.8861 18.9453L19.8653 18.9813L19.8382 18.9518L19.8378 18.9511C19.7605 18.8704 19.6763 18.7969 19.5862 18.7314C19.3879 18.5896 19.1967 18.5307 19.0127 18.5533C19.0341 18.6856 19.0713 18.802 19.1245 18.9031C19.1817 19.0122 19.2578 19.1031 19.3525 19.1765H19.3532L19.3568 19.1802C19.4004 19.2154 19.3897 19.0914 19.4272 19.1271C19.4651 19.1634 19.6595 19.1136 19.6902 19.1489C19.8521 19.334 19.8221 17.986 19.8171 18.17C19.8235 18.3285 19.8089 18.4631 19.7735 18.5736C19.6935 18.8231 19.498 18.9402 19.2578 18.9511C19.0781 18.9594 18.8551 18.9154 18.5885 18.8187C18.4348 18.7598 18.3094 18.7125 18.214 18.6769C17.8148 18.5282 17.3613 18.406 16.9496 18.5671C16.8392 18.608 16.7402 18.6754 16.6607 18.7634C16.5812 18.8514 16.5237 18.9575 16.4929 19.0729C16.486 19.0974 16.48 19.1221 16.475 19.1471L15.8203 22.3576C15.8868 22.2107 15.9901 22.114 16.1084 22.0551C16.4078 21.9045 16.7713 21.9656 17.0343 22.1649C17.1186 22.2285 17.1994 22.3078 17.2766 22.3991C17.6629 22.8573 17.9466 23.6234 18.0188 24.2609C18.4916 24.3602 18.8115 24.5653 18.9784 24.8754C19.0112 24.9373 19.0384 25.0027 19.0595 25.0729C19.0806 25.1431 19.0952 25.2165 19.1042 25.294V25.2969C19.1231 25.6442 19.0638 25.8769 18.9265 25.9943C18.7836 26.1169 18.4795 26.1045 18.3676 25.9903C18.3715 26.0459 18.3903 26.0993 18.422 26.1447C18.4537 26.1901 18.4971 26.2258 18.5474 26.2478C18.5735 26.2598 18.6007 26.2696 18.6285 26.2769C18.6889 26.2933 18.76 26.302 18.8429 26.302C18.9071 26.2951 18.9704 26.281 19.0316 26.2602C19.1853 26.2071 19.3175 26.1082 19.4297 25.9638C19.4415 25.9466 19.4554 25.9311 19.4712 25.9176C19.5126 25.8849 19.5591 25.8802 19.6105 25.9034L19.6348 25.9143L19.6277 25.942C19.6103 26.0079 19.598 26.0752 19.5909 26.1431C19.5837 26.2085 19.5823 26.2725 19.5866 26.3351C19.6073 26.6536 19.7696 25.7554 20.074 26.01ZM22.978 20.9154L22.6442 20.1231V20.8998C22.7556 20.9018 22.8669 20.9071 22.978 20.9154ZM22.0946 20.914C22.2018 20.906 22.3144 20.9013 22.428 20.8994V20.1231L22.0946 20.914ZM18.0542 20.914L17.7208 20.1231V20.8994C17.8348 20.9013 17.9474 20.906 18.0542 20.914ZM17.1712 20.9154C17.2822 20.907 17.3936 20.9017 17.5049 20.8998V20.1231L17.1712 20.9151V20.9154ZM20.5215 19.8994L20.5311 20.3554H20.8842C20.9139 20.3554 20.9414 20.3656 20.961 20.382C20.9814 20.3987 20.9939 20.422 20.9943 20.4482C20.994 20.4611 20.9909 20.4738 20.9851 20.4853C20.9793 20.4968 20.9711 20.5069 20.961 20.5147C20.9459 20.5269 20.9281 20.5351 20.9092 20.5387V21.0125C20.9281 21.0162 20.9459 21.0245 20.961 21.0365C20.9814 21.0533 20.9939 21.0765 20.9943 21.1027C20.994 21.1156 20.9909 21.1283 20.9851 21.1398C20.9793 21.1514 20.9711 21.1614 20.961 21.1693C20.9392 21.1866 20.9123 21.196 20.8846 21.1958H20.5626L20.6566 23.9318H20.6812C20.7044 23.9318 20.7259 23.942 20.7413 23.9583C20.7575 23.9754 20.7665 23.9982 20.7665 24.022C20.7665 24.0457 20.7575 24.0685 20.7413 24.0856C20.728 24.0996 20.7105 24.1086 20.6916 24.1111C20.6959 24.1397 20.7027 24.168 20.7119 24.1954C20.737 24.2634 20.7784 24.3056 20.837 24.3213H20.9017V24.5209H21.0543V24.7783H19.0949V24.5209H19.2471V24.3213H19.3121C19.3708 24.3056 19.4122 24.2634 19.4372 24.1954C19.4472 24.1682 19.4539 24.1399 19.4572 24.1111C19.4384 24.1084 19.421 24.0993 19.4079 24.0853C19.3918 24.0681 19.3828 24.0453 19.3828 24.0216C19.3828 23.9979 19.3918 23.9751 19.4079 23.958C19.4156 23.9498 19.4249 23.9432 19.4351 23.9387C19.4454 23.9342 19.4564 23.9318 19.4676 23.9318H19.4926L19.5866 21.1958H19.265C19.2371 21.1961 19.2101 21.1867 19.1881 21.1693C19.1781 21.1615 19.1698 21.1515 19.1641 21.14C19.1583 21.1286 19.1552 21.1159 19.1549 21.1031C19.1549 21.0773 19.1678 21.0533 19.1881 21.0365C19.2032 21.0243 19.221 21.0161 19.24 21.0125V20.5387C19.221 20.5351 19.2032 20.5269 19.1881 20.5147C19.1781 20.5069 19.1698 20.4969 19.1641 20.4855C19.1583 20.474 19.1552 20.4614 19.1549 20.4485C19.1549 20.4223 19.1678 20.3987 19.1881 20.382C19.2099 20.3646 19.2369 20.3552 19.2646 20.3554H19.618L19.6277 19.8994H17.8605L18.299 20.9391C18.3412 20.9449 18.3812 20.9511 18.4198 20.958C18.6449 20.9987 18.8008 21.0616 18.8168 21.1471C18.8179 21.1521 18.8185 21.1572 18.8186 21.1623L18.8183 21.1856C18.8111 21.4453 18.6621 21.6416 18.4412 21.7733C18.2222 21.9042 17.9316 21.9707 17.639 21.9722C17.6214 21.9723 17.6039 21.9723 17.5864 21.9722C17.2937 21.9707 17.0032 21.9042 16.7838 21.7733C16.5633 21.6416 16.4143 21.4453 16.4071 21.1853L16.4068 21.1623V21.1591C16.4078 21.0809 16.5275 21.0209 16.7134 20.9783C16.7836 20.9628 16.8544 20.9503 16.9256 20.9409L17.3713 19.8831C17.1158 19.89 16.9389 19.7296 17.1222 19.4554C17.2727 19.23 17.5725 19.2242 17.8091 19.2533C17.8512 19.2583 17.8923 19.2649 17.932 19.2725C18.1332 19.3125 18.2979 19.3853 18.4259 19.4922L18.443 19.4798C18.5027 19.4383 18.5624 19.4031 18.6224 19.3736C18.6808 19.3447 18.7416 19.321 18.804 19.3027C19.0102 19.2427 19.2299 19.2517 19.4308 19.3282C19.4263 19.3132 19.4258 19.2973 19.4293 19.2821C19.4328 19.2669 19.4402 19.253 19.4508 19.2416C19.4582 19.2337 19.467 19.2274 19.4769 19.2231C19.4867 19.2188 19.4973 19.2165 19.508 19.2165H20.6401C20.6626 19.2165 20.683 19.2263 20.6973 19.242C20.7079 19.2532 20.7154 19.2671 20.719 19.2823C20.7226 19.2974 20.7221 19.3133 20.7177 19.3282C20.9186 19.2517 21.1382 19.2428 21.3445 19.3027C21.4052 19.3202 21.466 19.3442 21.5257 19.3736C21.5861 19.4027 21.6457 19.4383 21.7051 19.4798L21.7226 19.4922C21.8505 19.3856 22.0149 19.3122 22.2161 19.2725C22.2558 19.2649 22.2969 19.258 22.3394 19.2533C22.576 19.2242 22.8754 19.2303 23.0259 19.4554C23.2092 19.7296 23.0327 19.89 22.7768 19.8831L23.2228 20.9409C23.3 20.9514 23.3715 20.9638 23.4347 20.9783C23.6206 21.0205 23.7403 21.0809 23.7417 21.1591V21.1627L23.7413 21.1853C23.7342 21.4453 23.5852 21.6416 23.3643 21.7733C23.1453 21.9042 22.8547 21.9707 22.562 21.9722C22.5445 21.9724 22.527 21.9724 22.5095 21.9722C22.2168 21.9707 21.9263 21.9042 21.7069 21.7733C21.4864 21.6416 21.3373 21.4453 21.3302 21.1856V21.1623C21.3302 21.1573 21.3302 21.1522 21.3313 21.1474C21.3477 21.0616 21.5032 20.9983 21.7287 20.9583C21.7669 20.9511 21.8073 20.9449 21.8494 20.9391L22.2879 19.8991H20.5211L20.5215 19.8994ZM19.9218 26.1038C19.9417 26.0809 19.9654 26.0618 19.9919 26.0474C20.0916 26.0056 20.1848 26.0391 20.2456 26.1314C20.2542 26.1467 20.262 26.162 20.2695 26.178C20.3339 26.3373 20.3188 25.3282 20.2624 25.4878C20.2291 25.571 20.1818 25.6477 20.1227 25.7143L20.074 25.7631L20.0254 25.7143C19.9912 25.6757 19.9605 25.6339 19.9336 25.5896C19.8532 25.4405 19.8185 26.4594 19.846 26.2893C19.8593 26.2205 19.8811 26.1591 19.9218 26.1038ZM20.074 18.4987C20.0019 18.3576 19.9497 18.2343 19.9472 18.0718C19.9522 17.9162 20.0008 17.8034 20.0737 17.674C20.1534 17.8136 20.2031 17.9358 20.2002 18.1056C20.1902 18.2547 20.1405 18.3685 20.074 18.4983V18.4987ZM20.5579 19.1271C20.5962 18.9849 20.6405 18.8711 20.7641 18.7845C20.8202 18.7493 20.8756 18.7314 20.9385 18.7111C20.9099 18.8493 20.8749 18.9583 20.7584 19.0456C20.6941 19.0889 20.6312 19.1067 20.5583 19.1271H20.5579ZM19.5895 19.1271C19.4601 19.0907 19.3615 19.0522 19.2832 18.9311C19.2575 18.8862 19.2382 18.8379 19.226 18.7874C19.2199 18.762 19.1549 19.0965 19.2092 18.7111C19.2682 18.9031 19.3275 18.7493 19.3843 18.7845C19.5073 18.8707 19.7292 19.1271 19.5898 19.1271H19.5895Z" fill="#F0002C"/>
<path d="M20.6822 23.9492H19.469C19.4602 23.9493 19.4515 23.9512 19.4435 23.9547C19.4355 23.9583 19.4282 23.9635 19.4222 23.9699C19.4094 23.9833 19.4023 24.0012 19.4023 24.0198C19.4023 24.0384 19.4094 24.0562 19.4222 24.0696C19.4281 24.0761 19.4353 24.0812 19.4433 24.0848C19.4513 24.0884 19.4599 24.0902 19.4686 24.0903H20.6822C20.691 24.0903 20.6997 24.0884 20.7077 24.0849C20.7158 24.0813 20.723 24.0761 20.729 24.0696C20.7416 24.0562 20.7487 24.0385 20.7487 24.0199C20.7487 24.0014 20.7416 23.9837 20.729 23.9703C20.7231 23.9638 20.7159 23.9586 20.7079 23.955C20.6999 23.9513 20.6913 23.9494 20.6826 23.9492H20.6822Z" fill="#FECC00"/>
<path d="M19.3636 24.3192H20.7877C20.7441 24.2921 20.7115 24.2499 20.6959 24.2003C20.6852 24.171 20.678 24.1404 20.6745 24.1094H19.4769C19.4724 24.1403 19.4651 24.1707 19.4551 24.2003C19.4396 24.2499 19.407 24.2921 19.3633 24.3192H19.3636Z" fill="#EDB51B"/>
<path d="M19.2659 24.5198H20.8837V24.3398H19.2659V24.5198ZM21.0359 24.5391H19.1133V24.758H21.0359V24.5391Z" fill="#FECC00"/>
<path d="M20.178 23.9309L20.173 21.1953H20.1016L20.1069 23.9309H20.1784H20.178Z" fill="#EDB51B"/>
<path d="M20.0557 21.1953L20.0508 23.9309H20.0903L20.0854 21.1953H20.0557Z" fill="#FECC00"/>
<path d="M19.9659 21.1953L19.9609 23.9309H20.0321L20.0371 21.1953H19.9659Z" fill="#EDB51B"/>
<path d="M20.2557 23.9309L20.2271 21.1953H20.1914L20.1968 23.9309H20.2557Z" fill="#FECC00"/>
<path d="M20.3469 23.9309L20.3176 21.1953H20.2461L20.275 23.9309H20.3469Z" fill="#EDB51B"/>
<path d="M19.9118 21.1953L19.8828 23.9309H19.9418L19.9468 21.1953H19.9118Z" fill="#FECC00"/>
<path d="M19.8223 21.1953L19.793 23.9309H19.8644L19.8937 21.1953H19.8223Z" fill="#EDB51B"/>
<path d="M20.4414 23.9309L20.3913 21.1953H20.3359L20.3652 23.9309H20.4414ZM20.5 21.1953L20.55 23.9309H20.6383L20.5439 21.1953H20.5Z" fill="#FECC00"/>
<path d="M20.532 23.9309L20.482 21.1953H20.4102L20.4602 23.9309H20.532Z" fill="#EDB51B"/>
<path d="M19.7453 21.1953L19.6953 23.9309H19.7714L19.8007 21.1953H19.7453Z" fill="#FECC00"/>
<path d="M19.6555 21.1953L19.6055 23.9309H19.6769L19.727 21.1953H19.6555Z" fill="#EDB51B"/>
<path d="M19.5886 23.9309L19.6386 21.1953H19.6057L19.5117 23.9309H19.5886Z" fill="#FECC00"/>
<path d="M17.7206 21.0586V21.4088C17.9301 21.4068 18.1391 21.3891 18.346 21.3557C18.5293 21.323 18.6426 21.2793 18.6426 21.2339C18.6426 21.171 18.4368 21.1139 18.1266 21.0822C17.9915 21.0694 17.8559 21.0616 17.7202 21.059L17.7206 21.0586ZM17.5044 21.4088V21.059C17.1274 21.0659 16.8147 21.1084 16.6678 21.1666C16.6446 21.175 16.6227 21.1868 16.6028 21.2015C16.5895 21.2124 16.5824 21.223 16.582 21.2331V21.2339C16.582 21.2797 16.6957 21.3226 16.8786 21.3553C17.0427 21.3848 17.261 21.4044 17.5044 21.4088Z" fill="#EDB51B"/>
<path d="M17.7229 19.7124C17.7372 19.6985 17.7486 19.6819 17.7564 19.6635C17.7643 19.6451 17.7685 19.6252 17.7687 19.6051C17.7686 19.5852 17.7645 19.5654 17.7568 19.547C17.7491 19.5287 17.7378 19.5121 17.7236 19.4982C17.6945 19.4693 17.6554 19.4531 17.6146 19.4531C17.5739 19.4531 17.5348 19.4693 17.5056 19.4982C17.4914 19.5121 17.4802 19.5288 17.4725 19.5472C17.4648 19.5656 17.4609 19.5855 17.4609 19.6055C17.461 19.6255 17.4651 19.6453 17.4729 19.6637C17.4807 19.6821 17.4921 19.6986 17.5064 19.7124L17.5067 19.6746C17.5067 19.6426 17.5189 19.6139 17.5385 19.5928C17.5483 19.5822 17.56 19.5737 17.5731 19.5679C17.5862 19.562 17.6003 19.559 17.6146 19.559C17.6443 19.559 17.6718 19.5717 17.6911 19.5928C17.7114 19.6149 17.7227 19.644 17.7226 19.6742V19.7124H17.7229Z" fill="#FECC00"/>
<path d="M17.5234 21.4076C17.5527 21.4083 17.5824 21.4087 17.6121 21.4087H17.6142C17.6439 21.4087 17.6735 21.4087 17.7025 21.4079V19.6839C17.7026 19.6567 17.6933 19.6303 17.676 19.6094C17.6684 19.5999 17.6588 19.5921 17.648 19.5867C17.6371 19.5813 17.6252 19.5784 17.6131 19.5781C17.6009 19.5783 17.5889 19.5813 17.578 19.5867C17.567 19.5921 17.5573 19.5998 17.5495 19.6094C17.5324 19.6302 17.5232 19.6565 17.5234 19.6836V21.4079V21.4076Z" fill="#FECC00"/>
<path d="M17.7212 20.9204V21.0396C17.8574 21.0423 17.9934 21.05 18.129 21.0629C18.4492 21.0956 18.6618 21.16 18.6618 21.2338C18.6618 21.2909 18.5425 21.3407 18.3498 21.3753C18.1615 21.4087 17.9017 21.4298 17.6147 21.4298H17.6126C17.3249 21.4298 17.0648 21.4087 16.8764 21.3753C16.6838 21.3407 16.5648 21.2909 16.5644 21.2342V21.2331C16.5652 21.2164 16.5744 21.2007 16.5923 21.1862C16.6136 21.1703 16.6371 21.1577 16.662 21.1487C16.811 21.0898 17.1262 21.0469 17.5054 21.0396V20.9207L17.4039 20.9236C17.1444 20.9327 16.8989 20.9582 16.7178 20.9993C16.5409 21.0393 16.4269 21.0938 16.4258 21.1607V21.1866C16.4329 21.4386 16.5784 21.6295 16.7935 21.7578C17.0101 21.8869 17.2974 21.9531 17.5869 21.9542H17.6394C17.9289 21.9527 18.2162 21.8869 18.4328 21.7578C18.6482 21.6295 18.7933 21.4386 18.8005 21.1866V21.164C18.8005 21.1604 18.8005 21.1567 18.7998 21.1531C18.7851 21.0764 18.6354 21.0186 18.4174 20.9789C18.1871 20.9415 17.9544 20.9221 17.7212 20.9207V20.9204ZM19.6067 19.5655C19.3355 19.4186 19.0692 19.3844 18.808 19.4629C18.744 19.4825 18.6818 19.5078 18.6222 19.5386C18.5577 19.5717 18.4958 19.6099 18.437 19.6527L18.431 19.6571L18.427 19.66L18.422 19.6578C18.1626 19.5342 17.941 19.4629 17.7577 19.444C17.7209 19.4401 17.6839 19.4384 17.6469 19.4389C17.6809 19.4455 17.7112 19.4622 17.7348 19.4855C17.7518 19.5022 17.7651 19.5225 17.7737 19.545C17.7824 19.5674 17.7862 19.5915 17.7849 19.6155C17.7836 19.6396 17.7773 19.6631 17.7663 19.6844C17.7553 19.7058 17.7399 19.7245 17.7212 19.7393V20.0771L18.075 20.9171C18.1458 20.9226 18.214 20.9295 18.2784 20.9378L17.8388 19.8953L17.8324 19.8826L17.8467 19.8815H19.6281L19.6285 19.86C19.6361 19.7613 19.6289 19.662 19.6071 19.5655H19.6067Z" fill="#FECC00"/>
<path d="M22.4298 21.0586V21.4088C22.2203 21.4069 22.0113 21.3892 21.8044 21.3557C21.6211 21.323 21.5078 21.2793 21.5078 21.2339C21.5078 21.171 21.7137 21.1139 22.0239 21.0822C22.1588 21.0682 22.2942 21.0604 22.4298 21.0586ZM22.646 21.4088V21.059C23.023 21.0659 23.3357 21.1084 23.4826 21.1666C23.5112 21.1775 23.5327 21.1895 23.5477 21.2015C23.5609 21.2124 23.568 21.223 23.5684 21.2331V21.2339C23.5684 21.2797 23.4547 21.3226 23.2718 21.3553C23.1077 21.3848 22.8894 21.4044 22.646 21.4088Z" fill="#EDB51B"/>
<path d="M22.4289 19.7121C22.4145 19.6983 22.403 19.6817 22.3951 19.6633C22.3872 19.6449 22.383 19.625 22.3828 19.6049C22.3829 19.5849 22.3869 19.5651 22.3947 19.5467C22.4024 19.5284 22.4137 19.5118 22.4278 19.4979C22.4571 19.4692 22.4962 19.4531 22.5368 19.4531C22.5775 19.4531 22.6166 19.4692 22.6458 19.4979C22.66 19.5118 22.6713 19.5285 22.679 19.5469C22.6867 19.5653 22.6906 19.5852 22.6905 19.6052C22.6905 19.6252 22.6864 19.645 22.6786 19.6634C22.6708 19.6818 22.6594 19.6984 22.6451 19.7121L22.6448 19.6743C22.6449 19.6439 22.6335 19.6146 22.613 19.5925C22.6032 19.5819 22.5915 19.5735 22.5785 19.5676C22.5655 19.5618 22.5514 19.5588 22.5372 19.5587C22.5228 19.5587 22.5086 19.5617 22.4953 19.5675C22.4821 19.5733 22.4702 19.5818 22.4604 19.5925C22.4401 19.6146 22.4288 19.6437 22.4289 19.6739V19.7121Z" fill="#FECC00"/>
<path d="M22.6283 21.4076C22.599 21.4083 22.5693 21.4087 22.5393 21.4087H22.5375C22.5075 21.4087 22.4782 21.4087 22.4492 21.4079V19.6829C22.4492 19.6545 22.4592 19.6283 22.4753 19.609C22.483 19.5995 22.4927 19.5919 22.5036 19.5865C22.5145 19.5812 22.5265 19.5783 22.5386 19.5781C22.5632 19.5781 22.5857 19.5901 22.6018 19.609C22.619 19.6296 22.6284 19.6558 22.6283 19.6829V21.4079V21.4076Z" fill="#FECC00"/>
<path d="M22.4289 20.9204V21.0396C22.2928 21.0423 22.1568 21.05 22.0212 21.0629C21.701 21.0956 21.4884 21.16 21.4884 21.2338C21.4884 21.2909 21.6077 21.3407 21.8003 21.3753C21.9887 21.4087 22.2488 21.4298 22.5358 21.4298H22.5376C22.8253 21.4298 23.0854 21.4087 23.2738 21.3753C23.4664 21.3407 23.5854 21.2909 23.5857 21.2342V21.2331C23.5854 21.2164 23.5757 21.2007 23.5579 21.1862C23.5366 21.1703 23.5131 21.1577 23.4882 21.1487C23.3392 21.0898 23.0243 21.0469 22.6448 21.0396V20.9207L22.7466 20.9236C23.0057 20.9327 23.2512 20.9582 23.4324 20.9993C23.6093 21.0393 23.7233 21.0938 23.7248 21.1607V21.164L23.7244 21.1866C23.7173 21.4386 23.5722 21.6295 23.3567 21.7578C23.1401 21.8869 22.8528 21.9531 22.5633 21.9542H22.5108C22.2213 21.9527 21.934 21.8869 21.7174 21.7578C21.5019 21.6295 21.3568 21.4386 21.3497 21.1866V21.164C21.3497 21.1604 21.3497 21.1567 21.3508 21.1531C21.3651 21.0764 21.5152 21.0186 21.7332 20.9789C21.9633 20.9415 22.1959 20.9221 22.4289 20.9207V20.9204ZM20.5435 19.5655C20.8144 19.4186 21.0806 19.3844 21.3422 19.4629C21.4044 19.4818 21.4666 19.5069 21.528 19.5386C21.5898 19.5702 21.6517 19.608 21.7131 19.6527L21.7189 19.6571L21.7231 19.66L21.7278 19.6578C21.9876 19.5342 22.2088 19.4629 22.3925 19.444C22.4311 19.44 22.4679 19.4382 22.5033 19.4389C22.4701 19.4454 22.4396 19.4616 22.4154 19.4855C22.3982 19.5022 22.3849 19.5224 22.3762 19.5449C22.3675 19.5673 22.3636 19.5914 22.3649 19.6155C22.3662 19.6396 22.3726 19.6632 22.3836 19.6845C22.3947 19.7059 22.4101 19.7246 22.4289 19.7393V20.0771L22.0752 20.9171C22.0044 20.9226 21.9361 20.9295 21.8718 20.9378L22.3114 19.8953L22.3178 19.8826L22.3035 19.8815H20.522L20.5217 19.86C20.5202 19.832 20.5195 19.804 20.5195 19.776H20.5217V19.7564H20.5199C20.5213 19.6836 20.5292 19.6196 20.5435 19.5655Z" fill="#FECC00"/>
<path d="M22.3916 19.4213C22.2072 19.4406 21.9852 19.5115 21.7261 19.6344L21.7244 19.6329C21.6649 19.5897 21.6023 19.5511 21.5371 19.5176C21.4763 19.4864 21.4129 19.4607 21.3477 19.4409C21.0868 19.3624 20.8216 19.394 20.5515 19.5362C20.5677 19.4782 20.6004 19.4263 20.6455 19.3871C20.6578 19.3865 20.6699 19.3829 20.6807 19.3768C20.6915 19.3706 20.7007 19.3619 20.7076 19.3515C20.9098 19.2703 21.1326 19.259 21.3416 19.3195C21.4013 19.3369 21.461 19.3602 21.5203 19.3893C21.5902 19.4238 21.657 19.4643 21.7201 19.5104L21.7254 19.5144L21.7308 19.51C21.8573 19.4031 22.021 19.3296 22.2215 19.29C22.2608 19.2824 22.3011 19.2758 22.3437 19.2707C22.5724 19.2427 22.8676 19.2467 23.013 19.4646C23.1913 19.7315 23.0123 19.87 22.7707 19.8616L22.7543 19.8704L23.2035 20.9362C23.1392 20.9278 23.0713 20.9209 23.0005 20.9151L22.6456 20.0736V19.7355C22.6557 19.7275 22.6649 19.7185 22.6732 19.7086C22.6993 19.6759 22.7123 19.6345 22.7097 19.5925C22.7072 19.5505 22.6891 19.5111 22.6592 19.482C22.6421 19.4649 22.6216 19.4517 22.5992 19.4431C22.6882 19.4569 22.7636 19.4882 22.8265 19.5376C22.7189 19.39 22.4205 19.418 22.3916 19.4213ZM17.7612 19.4213C17.9456 19.4406 18.1675 19.5115 18.4266 19.6344L18.4284 19.6329C18.4878 19.5897 18.5504 19.5512 18.6156 19.5176C18.6785 19.4853 18.7414 19.4598 18.805 19.4409C19.0659 19.3624 19.3311 19.394 19.6009 19.5362C19.5848 19.4782 19.5522 19.4263 19.5073 19.3871C19.4948 19.3865 19.4827 19.383 19.4718 19.3768C19.461 19.3707 19.4517 19.362 19.4447 19.3515C19.2427 19.2704 19.02 19.2591 18.8111 19.3195C18.7497 19.3375 18.6899 19.3609 18.6324 19.3893C18.5626 19.4238 18.4957 19.4643 18.4326 19.5104L18.4273 19.5144L18.4219 19.51C18.2954 19.4031 18.1317 19.3296 17.9313 19.29C17.8908 19.2821 17.85 19.2757 17.809 19.2707C17.5803 19.2427 17.2851 19.2467 17.1397 19.4646C16.9614 19.7315 17.1404 19.87 17.382 19.8616L17.3966 19.8747L16.9492 20.9362C17.0135 20.9278 17.0814 20.9209 17.1522 20.9151L17.5067 20.0736V19.7355C17.4968 19.7274 17.4877 19.7184 17.4796 19.7086C17.4535 19.6759 17.4404 19.6345 17.443 19.5925C17.4456 19.5505 17.4636 19.5111 17.4935 19.482C17.5106 19.4649 17.5311 19.4517 17.5535 19.4431C17.4709 19.4541 17.3925 19.4867 17.3259 19.5376C17.4338 19.39 17.7322 19.418 17.7612 19.4213ZM20.6426 19.2344H19.5098C19.5015 19.2345 19.4934 19.2362 19.4859 19.2395C19.4783 19.2428 19.4715 19.2476 19.4658 19.2536C19.4538 19.2663 19.4472 19.2832 19.4472 19.3007C19.4472 19.3183 19.4538 19.3352 19.4658 19.3478C19.4714 19.354 19.4782 19.3589 19.4858 19.3623C19.4933 19.3656 19.5015 19.3674 19.5098 19.3675H20.6422C20.6505 19.3674 20.6586 19.3656 20.6662 19.3622C20.6738 19.3588 20.6806 19.354 20.6862 19.3478C20.6982 19.3352 20.705 19.3183 20.705 19.3007C20.705 19.2832 20.6982 19.2663 20.6862 19.2536C20.6805 19.2476 20.6737 19.2427 20.6662 19.2394C20.6586 19.2361 20.6505 19.2344 20.6422 19.2344H20.6426ZM20.8856 21.0278H19.2667C19.243 21.0274 19.2198 21.0353 19.201 21.05C19.1932 21.056 19.1868 21.0636 19.1822 21.0724C19.1777 21.0813 19.1752 21.091 19.1749 21.1009C19.1749 21.1206 19.1849 21.1387 19.201 21.1518C19.2197 21.1667 19.2427 21.1746 19.2664 21.1744H20.886C20.9096 21.1746 20.9327 21.1666 20.9514 21.1518C20.9592 21.1459 20.9656 21.1382 20.9702 21.1294C20.9747 21.1206 20.9772 21.1109 20.9775 21.1009C20.9771 21.091 20.9746 21.0813 20.9701 21.0725C20.9656 21.0636 20.9592 21.056 20.9514 21.05C20.9326 21.0354 20.9096 21.0278 20.886 21.0282L20.8856 21.0278ZM20.8856 20.3729H19.2667C19.2429 20.3726 19.2198 20.3806 19.201 20.3955C19.1932 20.4014 19.1868 20.4091 19.1822 20.4179C19.1777 20.4267 19.1752 20.4364 19.1749 20.4464C19.1749 20.466 19.1849 20.4842 19.201 20.4973C19.2196 20.5121 19.2427 20.5201 19.2664 20.5198H20.886C20.9096 20.52 20.9327 20.5121 20.9514 20.4973C20.9592 20.4914 20.9656 20.4837 20.9702 20.4749C20.9747 20.4661 20.9772 20.4563 20.9775 20.4464C20.9771 20.4364 20.9746 20.4267 20.9701 20.4179C20.9656 20.4091 20.9592 20.4014 20.9514 20.3955C20.9327 20.3808 20.9096 20.373 20.886 20.3733L20.8856 20.3729Z" fill="#FECC00"/>
<path d="M20.891 20.5403H19.2578V21.0098H20.8903V20.5403H20.891ZM20.172 20.3549L20.1716 20.1061C20.1717 20.0971 20.1692 20.0883 20.1645 20.0807C20.1608 20.0746 20.1554 20.0698 20.1491 20.0669C20.1449 20.065 20.1404 20.0641 20.1359 20.0643C20.1282 20.0646 20.1209 20.0675 20.1151 20.0727C20.1105 20.0769 20.1069 20.0821 20.1044 20.088C20.1016 20.0944 20.1002 20.1013 20.1001 20.1083L20.1008 20.3549H20.172ZM20.0365 20.3549L20.0369 20.1116C20.0368 20.1026 20.0343 20.0938 20.0297 20.0861C20.0276 20.0825 20.025 20.0792 20.0219 20.0763C20.0162 20.071 20.0088 20.0679 20.0011 20.0676C19.9932 20.0674 19.9855 20.0704 19.9797 20.076C19.9769 20.0784 19.9745 20.0812 19.9725 20.0843C19.9678 20.0919 19.9653 20.1008 19.9654 20.1098V20.3549H20.0365ZM20.3085 20.3549L20.3056 20.1061C20.3056 20.1036 20.3056 20.1014 20.3049 20.0989C20.3037 20.0904 20.3001 20.0824 20.2945 20.076C20.2914 20.0723 20.2876 20.0694 20.2833 20.0674C20.2789 20.0654 20.2743 20.0643 20.2695 20.0643C20.2627 20.0646 20.2562 20.0672 20.2509 20.0716C20.2457 20.076 20.2415 20.0816 20.2386 20.0878C20.2358 20.0941 20.2344 20.101 20.2345 20.108L20.237 20.3552H20.3085V20.3549ZM19.9 20.3549L19.9025 20.1116C19.9027 20.1045 19.9014 20.0975 19.8985 20.0911C19.8957 20.0847 19.8914 20.079 19.8861 20.0745C19.8807 20.0703 19.8742 20.0679 19.8675 20.0676L19.8618 20.068C19.8542 20.0693 19.8474 20.0733 19.8425 20.0792C19.8353 20.0876 19.8313 20.0983 19.8314 20.1094L19.8289 20.3549H19.9ZM20.4657 20.3549L20.4607 20.104V20.1003C20.4598 20.0906 20.4559 20.0815 20.4496 20.0741C20.444 20.0674 20.4361 20.0633 20.4275 20.0625H20.4246C20.4209 20.0626 20.4173 20.0633 20.4139 20.0647C20.4114 20.0656 20.409 20.0668 20.4067 20.0683C20.4011 20.0728 20.3966 20.0785 20.3937 20.0851C20.3907 20.0917 20.3893 20.0989 20.3896 20.1061L20.3942 20.3549H20.4657ZM19.7431 20.3549L19.7474 20.1098C19.7477 20.1025 19.7463 20.0953 19.7432 20.0887C19.7402 20.0821 19.7356 20.0764 19.7299 20.072C19.7257 20.0687 19.7208 20.0667 19.7156 20.0661H19.7095C19.7012 20.067 19.6936 20.0711 19.6881 20.0774C19.6816 20.0848 19.6776 20.0941 19.6766 20.104V20.1076L19.672 20.3549H19.7435H19.7431Z" fill="#EDB51B"/>
<path d="M19.6535 20.3571L19.6582 20.1098V20.1043C19.6595 20.0901 19.6652 20.0768 19.6746 20.0662C19.68 20.0599 19.6869 20.0551 19.6945 20.0521C19.7022 20.049 19.7104 20.0479 19.7186 20.0487C19.7267 20.0498 19.7344 20.0529 19.7411 20.0578C19.7494 20.0641 19.756 20.0724 19.7605 20.0819C19.765 20.0914 19.7671 20.1018 19.7668 20.1123L19.7622 20.3571H19.8108L19.8136 20.1116C19.8138 20.0956 19.8195 20.0802 19.8297 20.068C19.8345 20.0625 19.8405 20.058 19.8472 20.055C19.8538 20.052 19.861 20.0505 19.8683 20.0505C19.8712 20.0505 19.8737 20.0505 19.8762 20.0513C19.884 20.0527 19.8913 20.0561 19.8976 20.0611C19.9054 20.0674 19.9117 20.0755 19.9159 20.0847C19.9201 20.0939 19.9222 20.104 19.9219 20.1142L19.9194 20.3571H19.9473L19.9476 20.1116C19.9476 20.0982 19.9516 20.0854 19.9583 20.0753C19.9638 20.0661 19.9719 20.0589 19.9816 20.0545C19.9881 20.0516 19.9952 20.0502 20.0023 20.0505C20.0145 20.0505 20.0255 20.0556 20.0345 20.0636C20.0412 20.0696 20.0466 20.0771 20.0502 20.0854C20.0541 20.0942 20.0563 20.1036 20.0563 20.1138L20.0556 20.3571H20.0827L20.082 20.1105C20.082 20.0975 20.0856 20.0848 20.0924 20.0738C20.0955 20.0687 20.0994 20.064 20.1038 20.06C20.1128 20.0515 20.1246 20.0468 20.1369 20.0468C20.1491 20.0468 20.1609 20.0515 20.1699 20.06C20.1738 20.0633 20.1774 20.0673 20.1806 20.0716C20.1873 20.0825 20.1908 20.0951 20.1906 20.108L20.191 20.3571H20.2192L20.2164 20.1105C20.2161 20.1004 20.2182 20.0904 20.2224 20.0813C20.2267 20.0721 20.2329 20.0641 20.2407 20.0578C20.2491 20.0512 20.2593 20.0474 20.27 20.0469C20.2728 20.0469 20.276 20.0469 20.2789 20.0476C20.2905 20.0497 20.3011 20.0557 20.3089 20.0647C20.3194 20.0768 20.3251 20.0923 20.325 20.1083L20.3275 20.3571H20.3765L20.3718 20.1087C20.3714 20.0982 20.3736 20.0877 20.378 20.0782C20.3825 20.0687 20.3892 20.0604 20.3976 20.0542C20.4069 20.0475 20.4183 20.0443 20.4297 20.0451C20.4429 20.0462 20.4547 20.0523 20.4637 20.0625C20.4731 20.0731 20.4789 20.0865 20.4801 20.1007V20.1062L20.4847 20.3571H20.5133L20.5026 19.8607C20.5011 19.8325 20.5004 19.8042 20.5005 19.776L19.6492 19.7734C19.6492 19.8014 19.6489 19.8305 19.6471 19.8607L19.6367 20.3571H19.6535Z" fill="#FECC00"/>
<path d="M19.6499 19.7539L20.5018 19.7564C20.5022 19.689 20.5106 19.6218 20.5268 19.5564C20.5414 19.494 20.5722 19.4367 20.6162 19.3906H19.5352C19.5792 19.4366 19.6101 19.4939 19.6245 19.5564C19.6399 19.6124 19.6481 19.6783 19.6495 19.7539H19.6499Z" fill="#EDB51B"/>
</svg>
