<svg width="106" height="16" viewBox="0 0 106 16" fill="none" xmlns="http://www.w3.org/2000/svg">
<g clip-path="url(#clip0_313_30472)">
<path fill-rule="evenodd" clip-rule="evenodd" d="M8.50158 0.424077H0.166697C0.0555658 0.424077 0 0.476847 0 0.582387V11.5586C0 11.6641 0.0555658 11.7168 0.166697 11.7168H3.00055C3.11169 11.7168 3.16725 11.6641 3.16725 11.5586V3.06258H7.55692C7.61252 3.06258 7.66804 3.00981 7.72364 2.95704C8.05701 2.21826 8.39046 1.42671 8.72383 0.635157V0.476847C8.61271 0.476847 8.55711 0.424077 8.50158 0.424077ZM31.9503 9.07838C31.9503 9.02558 31.8947 8.97285 31.8392 8.97285H31.6725C31.0057 9.18391 29.7277 9.44778 28.7831 9.44778C26.8383 9.44778 25.8937 8.97285 25.8937 6.07047C25.8937 3.80136 26.1715 2.69319 28.7831 2.69319C29.5054 2.69319 30.2278 2.79873 31.0613 3.06258C31.1169 3.06258 31.228 3.06258 31.228 2.95704C31.5614 2.37657 31.9503 1.69056 32.3948 0.793466V0.635158C32.3948 0.582388 32.3393 0.529618 32.2837 0.529618C31.1724 0.212998 29.7832 0.0546875 28.5608 0.0546875C24.449 0.0546875 22.6152 1.84887 22.6152 6.0177C22.6152 10.2393 24.449 12.0862 28.5608 12.0862C29.561 12.0862 31.617 11.8752 32.6171 11.5058C32.7283 11.453 32.7283 11.4002 32.7283 11.3474C32.8394 11.2947 31.9503 9.07838 31.9503 9.07838ZM15.0028 0.107458C10.9465 0.107458 9.33505 1.74333 9.33505 6.07047C9.33505 10.4504 10.8909 12.0862 15.0028 12.0862C19.1146 12.0862 20.726 10.3976 20.726 6.07047C20.726 1.7961 19.1146 0.107458 15.0028 0.107458ZM15.0028 9.55331C13.1135 9.55331 12.5579 9.07838 12.5579 6.12324C12.5579 2.95704 13.1691 2.69319 15.0028 2.69319C16.8364 2.69319 17.5032 2.95704 17.5032 6.12324C17.5032 9.07838 16.892 9.55331 15.0028 9.55331Z" fill="#0065B1"/>
<path fill-rule="evenodd" clip-rule="evenodd" d="M93.3514 0.42216H85.0168C84.9058 0.42216 84.8504 0.47493 84.8504 0.58047V11.5566C84.8504 11.6622 84.9058 11.7149 85.0168 11.7149H87.8507C87.9616 11.7149 88.0171 11.6622 88.0171 11.5566V3.06066H92.4073C92.4627 3.06066 92.5736 3.00789 92.5736 2.95512C92.9071 2.21634 93.2405 1.42479 93.574 0.63324V0.47493C93.4069 0.47493 93.4069 0.42216 93.3514 0.42216ZM82.7943 0.47493H79.9049C79.8494 0.47493 79.7378 0.5277 79.7378 0.58047C79.2935 2.26911 78.4047 5.11869 77.1264 8.0738L74.237 0.5277C74.237 0.47493 74.1261 0.42216 74.07 0.42216H71.1806C71.1251 0.42216 71.0697 0.47493 71.0142 0.47493C70.9588 0.5277 70.9588 0.58047 71.0142 0.63324L75.3483 11.8205C74.9039 12.6648 74.4596 13.3508 74.1261 14.0896C73.8481 14.5645 73.5702 15.0922 73.2367 15.6199C73.1813 15.6727 73.2367 15.7255 73.2367 15.7782C73.2922 15.831 73.3476 15.8838 73.4038 15.8838H76.515C76.5705 15.8838 76.6266 15.831 76.6821 15.7782C77.1819 14.8284 77.9042 13.4563 78.5157 12.0843C80.3492 7.96827 81.8494 4.16883 82.9052 0.63324C82.9052 0.58047 82.9052 0.5277 82.8497 0.47493H82.7943ZM55.9558 9.07647C55.9558 9.02367 55.9003 8.97093 55.8447 8.97093H55.6781C55.0112 9.182 53.7332 9.4458 52.7886 9.4458C50.8438 9.4458 49.8992 8.97093 49.8992 6.06855C49.8992 3.79944 50.177 2.69127 52.7886 2.69127C53.511 2.69127 54.2333 2.79681 55.0668 3.06066C55.178 3.06066 55.2335 3.06066 55.2335 2.95512C55.5669 2.37465 55.9558 1.68864 56.4004 0.791553V0.63324C56.4004 0.58047 56.3448 0.5277 56.2893 0.5277C55.1224 0.15831 53.7332 0 52.5664 0C48.5101 0 46.6764 1.79418 46.6764 5.96301C46.6764 10.1846 48.5101 12.0315 52.6219 12.0315C53.6221 12.0315 55.6781 11.8205 56.6783 11.4511C56.7894 11.3983 56.7894 11.3455 56.7894 11.2928C56.7894 11.24 55.9558 9.07647 55.9558 9.07647ZM45.6762 0.47493H42.7868C42.6757 0.47493 42.6201 0.5277 42.6201 0.58047C42.1756 2.26911 41.2865 5.11869 40.0085 8.0738L37.1747 0.47493C37.1747 0.42216 37.0635 0.36939 37.008 0.36939H34.1185C34.063 0.36939 34.0074 0.42216 33.9519 0.42216C33.8963 0.47493 33.8963 0.5277 33.9519 0.58047L38.3415 11.7677C37.897 12.612 37.4525 13.3508 37.1191 14.0368C36.8412 14.5117 36.5635 15.0395 36.23 15.5671C36.1745 15.6199 36.23 15.6727 36.23 15.7255C36.2856 15.7782 36.3411 15.831 36.3967 15.831H39.5084C39.564 15.831 39.6196 15.7782 39.6751 15.7255C40.1752 14.7756 40.8975 13.4036 41.5087 12.0315C43.3425 7.91553 44.8427 4.11606 45.8985 0.58047C45.8985 0.5277 45.8985 0.47493 45.8429 0.42216C45.7873 0.47493 45.7318 0.47493 45.6762 0.47493ZM105.409 0.42216H102.576C102.465 0.42216 102.409 0.47493 102.409 0.58047V9.07647C101.798 9.23473 101.186 9.28753 100.464 9.28753C98.5749 9.28753 98.186 8.7598 98.186 6.38517V0.58047C98.186 0.47493 98.1306 0.42216 98.019 0.42216H95.185C95.0741 0.42216 95.0187 0.47493 95.0187 0.58047V6.7018C95.0187 10.5012 96.3524 12.0315 99.8525 12.0315C101.798 12.0315 104.076 11.5566 105.354 11.0817C105.409 11.0817 105.465 10.9761 105.465 10.9234V0.58047C105.576 0.47493 105.52 0.42216 105.409 0.42216ZM68.9027 0.42216H60.29C60.1789 0.42216 60.1233 0.47493 60.1233 0.58047C59.9011 4.27437 59.1787 8.28487 58.1229 11.5039V11.6094C58.1785 11.6622 58.2341 11.6622 58.2897 11.6622H61.2902C61.3458 11.6622 61.4569 11.6094 61.4569 11.5566C62.2904 9.07647 62.9572 5.75193 63.1794 3.00789H66.0133V11.5566C66.0133 11.6622 66.0689 11.7149 66.18 11.7149H69.0138C69.125 11.7149 69.1805 11.6622 69.1805 11.5566V0.58047C69.0694 0.47493 69.0138 0.42216 68.9027 0.42216Z" fill="#EE3F58"/>
</g>
<defs>
<clipPath id="clip0_313_30472">
<rect width="106" height="16" fill="white"/>
</clipPath>
</defs>
</svg>
